<?xml version="1.0" encoding="UTF-8" standalone="no"?>
<svg
   width="64"
   height="64"
   viewBox="0 0 16.933 16.933"
   version="1.1"
   id="svg76"
   sodipodi:docname="3x_thermal_scope.svg"
   xml:space="preserve"
   inkscape:version="1.3.2 (091e20e, 2023-11-25, custom)"
   xmlns:inkscape="http://www.inkscape.org/namespaces/inkscape"
   xmlns:sodipodi="http://sodipodi.sourceforge.net/DTD/sodipodi-0.dtd"
   xmlns:xlink="http://www.w3.org/1999/xlink"
   xmlns="http://www.w3.org/2000/svg"
   xmlns:svg="http://www.w3.org/2000/svg"><sodipodi:namedview
     id="namedview76"
     pagecolor="#ffffff"
     bordercolor="#000000"
     borderopacity="0.25"
     inkscape:showpageshadow="2"
     inkscape:pageopacity="0.0"
     inkscape:pagecheckerboard="0"
     inkscape:deskcolor="#d1d1d1"
     showguides="true"
     inkscape:zoom="8"
     inkscape:cx="30.75"
     inkscape:cy="28.3125"
     inkscape:window-width="1920"
     inkscape:window-height="1017"
     inkscape:window-x="-8"
     inkscape:window-y="-8"
     inkscape:window-maximized="1"
     inkscape:current-layer="svg76" /><defs
     id="defs2"><linearGradient
       id="a"><stop
         offset="0"
         style="stop-color:#333;stop-opacity:1"
         id="stop1" /><stop
         offset="1"
         style="stop-color:#262626;stop-opacity:1"
         id="stop2" /></linearGradient><linearGradient
       xlink:href="#a"
       id="b"
       x1="586.184"
       x2="586.184"
       y1="458.777"
       y2="502.143"
       gradientTransform="matrix(.16279 0 0 .16279 -53.72 -25.157)"
       gradientUnits="userSpaceOnUse" /><clipPath
       id="a-3"
       clipPathUnits="userSpaceOnUse"><path
         d="M177.814 223.069h283.95v259.075h-283.95Zm82.401 47.046.16 31.112h9.033c1.294-.088 14.262-.901 17.376 1.534 15.608 6.837 13.913 24.1 13.913 24.1 0 19.268-20.683 20.682-20.683 20.682h-18.738v6.364h-5.303v31.113h2.828v9.9h124.804c9.546 0 8.84-8.84 8.84-8.84V283.55c0-10.96-13.436-13.435-13.436-13.435z"
         class="powerclip"
         style="fill:#a7a7a7;fill-opacity:1;stroke:#000;stroke-width:2.016;stroke-linecap:square;stroke-linejoin:round;stroke-miterlimit:29;stroke-dasharray:none;stroke-opacity:1"
         id="path1-3" /></clipPath><clipPath
       id="b-3"
       clipPathUnits="userSpaceOnUse"><path
         d="M160.843 259.838h149.693v105.053H160.843Zm116.52 44.926a4.773 4.773 0 0 0-4.773 4.771 4.773 4.773 0 0 0 4.773 4.774 4.773 4.773 0 0 0 4.772-4.774 4.773 4.773 0 0 0-4.772-4.771m0 14.537a4.773 4.773 0 0 0-4.773 4.773 4.773 4.773 0 0 0 4.773 4.774 4.773 4.773 0 0 0 4.772-4.774 4.773 4.773 0 0 0-4.772-4.773m12.418 0a4.773 4.773 0 0 0-4.773 4.773 4.773 4.773 0 0 0 4.773 4.774 4.773 4.773 0 0 0 4.774-4.774 4.773 4.773 0 0 0-4.774-4.773m-12.418 13.707a4.773 4.773 0 0 0-4.773 4.773 4.773 4.773 0 0 0 4.773 4.774 4.773 4.773 0 0 0 4.772-4.774 4.773 4.773 0 0 0-4.772-4.773"
         class="powerclip"
         style="fill:#999;fill-opacity:1;stroke:none;stroke-width:2.016;stroke-linecap:square;stroke-linejoin:round;stroke-miterlimit:29;stroke-dasharray:none;stroke-opacity:1"
         id="path2-6" /></clipPath><linearGradient
       id="b-4"><stop
         offset="0"
         style="stop-color:#0af;stop-opacity:1"
         id="stop1-1" /><stop
         offset="1"
         style="stop-color:#609;stop-opacity:1"
         id="stop2-1" /></linearGradient><linearGradient
       xlink:href="#a-9"
       id="d"
       x1="454.481"
       x2="605.581"
       y1="35.102"
       y2="35.102"
       gradientUnits="userSpaceOnUse" /><linearGradient
       id="a-9"><stop
         offset="0"
         style="stop-color:#3bf;stop-opacity:1"
         id="stop3" /><stop
         offset="1"
         style="stop-color:#80c;stop-opacity:1"
         id="stop4" /></linearGradient><linearGradient
       xlink:href="#b-4"
       id="c"
       x1="452.756"
       x2="607.535"
       y1="35.102"
       y2="35.102"
       gradientTransform="translate(-0.13,0.033)"
       gradientUnits="userSpaceOnUse" /></defs><g
     id="g60"
     transform="matrix(0.73210094,-0.42245721,0.42267867,0.73171737,-36.506563,11.110548)"
     style="stroke-width:1.18324"><g
       id="g81"
       style="display:inline;opacity:1;stroke-width:0.368157;stroke-dasharray:none"><path
         id="rect86"
         style="display:inline;opacity:1;fill:#333333;fill-opacity:1;stroke-width:0.172496;stroke-linecap:round;stroke-linejoin:round;stroke-miterlimit:10.8;stroke-dasharray:none;paint-order:fill markers stroke"
         d="m 50.220699,27.29311 h 0.696078 v 0.953884 h -0.696078 z" /><path
         style="display:inline;fill:none;fill-opacity:1;stroke:#000000;stroke-width:0.336853;stroke-linecap:round;stroke-linejoin:round;stroke-miterlimit:10.8;stroke-dasharray:none;stroke-opacity:1;paint-order:fill markers stroke"
         d="m 50.392885,27.308167 c -0.156128,0 -0.233948,0.114403 -0.233948,0.291553 v 0.346366 c 0,0.139249 0.08481,0.343548 0.26964,0.343548 h 0.559861"
         id="path81"
         sodipodi:nodetypes="csssc" /><path
         style="display:inline;opacity:1;fill:#4d4d4d;fill-opacity:1;stroke:none;stroke-width:0.336853;stroke-linecap:round;stroke-linejoin:round;stroke-miterlimit:10.8;stroke-dasharray:none;stroke-opacity:1;paint-order:fill markers stroke"
         d="m 47.117619,27.308044 3.408949,1.23e-4 c 0.266316,9e-6 0.461798,0.189303 0.461819,0.461696 l 5.1e-5,0.674499 c 1.7e-5,0.222158 0.148792,0.373709 0.379734,0.373709 h 3.916339 c 0.19351,0 0.402568,-0.157415 0.40257,-0.378267 l 4e-6,-0.426879 c 10e-7,-0.148871 -0.150389,-0.260479 -0.150389,-0.260479 V 27.61795 c 0,-0.165093 -0.104666,-0.346377 -0.24764,-0.428923 l -2.183841,-1.159101 h -5.987596 z"
         id="path77"
         sodipodi:nodetypes="cssssssscssccc" /><rect
         style="display:inline;opacity:1;fill:#404040;fill-opacity:1;stroke:none;stroke-width:0.172496;stroke-linecap:round;stroke-linejoin:round;stroke-miterlimit:10.8;stroke-dasharray:none;stroke-opacity:1;paint-order:fill markers stroke"
         id="rect88"
         width="1.9201919"
         height="1.0147849"
         x="52.355614"
         y="27.77594" /><rect
         style="display:inline;opacity:1;fill:#333333;fill-opacity:1;stroke:none;stroke-width:0.172496;stroke-linecap:round;stroke-linejoin:round;stroke-miterlimit:10.8;stroke-dasharray:none;stroke-opacity:1;paint-order:fill markers stroke"
         id="rect89"
         width="1.3733017"
         height="0.89933038"
         x="52.629059"
         y="27.833668" /><path
         style="opacity:1;fill:none;fill-opacity:1;stroke:#000000;stroke-width:0.368157;stroke-linecap:round;stroke-linejoin:round;stroke-miterlimit:10.8;stroke-dasharray:none;stroke-opacity:1;paint-order:fill markers stroke"
         d="m 50.988438,28.134459 c 0,-0.20968 0.151825,-0.355481 0.38581,-0.355481 h 3.916342 c 0.182571,0 0.396491,0.141008 0.396491,0.335731"
         id="path78"
         sodipodi:nodetypes="cssc" /><path
         style="display:inline;opacity:1;fill:none;fill-opacity:1;stroke:#000000;stroke-width:0.368157;stroke-linecap:round;stroke-linejoin:round;stroke-miterlimit:10.8;stroke-dasharray:none;stroke-opacity:1;paint-order:fill markers stroke"
         d="m 47.117619,27.308044 3.408949,1.23e-4 c 0.266316,9e-6 0.461798,0.189303 0.461819,0.461696 l 5.1e-5,0.674499 c 1.7e-5,0.222158 0.148792,0.373709 0.379734,0.373709 h 3.916339 c 0.19351,0 0.402568,-0.157415 0.40257,-0.378267 l 4e-6,-0.426879 c 10e-7,-0.148871 -0.150389,-0.260479 -0.150389,-0.260479 V 27.61795 c 0,-0.165093 -0.104666,-0.346377 -0.24764,-0.428923 l -2.183841,-1.159101 h -5.987596 z"
         id="path87"
         sodipodi:nodetypes="cssssssscssccc" /></g><g
       id="g85"
       transform="matrix(0.91871724,0,0,0.91871724,4.3286134,2.3297492)"
       style="stroke-width:1.28792"><path
         sodipodi:type="star"
         style="fill:#4d4d4d;fill-opacity:1;stroke:none;stroke-width:0.219233;stroke-linecap:round;stroke-linejoin:round;stroke-miterlimit:10.8;stroke-dasharray:none;stroke-opacity:1;paint-order:fill markers stroke"
         id="path82"
         inkscape:flatsided="true"
         sodipodi:sides="8"
         sodipodi:cx="52.949154"
         sodipodi:cy="27.821615"
         sodipodi:r1="0.53447801"
         sodipodi:r2="0.49379325"
         sodipodi:arg1="1.0471976"
         sodipodi:arg2="1.4398966"
         inkscape:rounded="0"
         inkscape:randomized="0"
         d="m 53.216393,28.284487 -0.405572,0.05339 -0.324539,-0.249027 -0.05339,-0.405572 0.249027,-0.324538 0.405572,-0.0534 0.324538,0.249027 0.0534,0.405572 z"
         inkscape:transform-center-x="1.2110917e-06"
         transform="matrix(0.84909735,0.11178579,-0.11178579,0.84909735,11.51057,-1.2759182)" /><rect
         style="fill:#333333;fill-opacity:1;stroke:none;stroke-width:0.187757;stroke-linecap:round;stroke-linejoin:round;stroke-miterlimit:10.8;stroke-dasharray:none;stroke-opacity:1;paint-order:fill markers stroke"
         id="rect85"
         width="0.17586239"
         height="0.87931186"
         x="57.630226"
         y="-18.183222"
         transform="rotate(45)" /><path
         sodipodi:type="star"
         style="fill:none;fill-opacity:1;stroke:#000000;stroke-width:0.19934;stroke-linecap:round;stroke-linejoin:round;stroke-miterlimit:10.8;stroke-dasharray:none;stroke-opacity:1;paint-order:fill markers stroke"
         id="path89"
         inkscape:flatsided="true"
         sodipodi:sides="8"
         sodipodi:cx="52.949154"
         sodipodi:cy="27.821615"
         sodipodi:r1="0.53447801"
         sodipodi:r2="0.49379325"
         sodipodi:arg1="1.0471976"
         sodipodi:arg2="1.4398966"
         inkscape:rounded="0"
         inkscape:randomized="0"
         d="m 53.216393,28.284487 -0.405572,0.05339 -0.324539,-0.249027 -0.05339,-0.405572 0.249027,-0.324538 0.405572,-0.0534 0.324538,0.249027 0.0534,0.405572 z"
         inkscape:transform-center-x="1.2110917e-06"
         transform="matrix(0.84909735,0.11178579,-0.11178579,0.84909735,11.51057,-1.2759182)" /></g><g
       id="g84"
       style="stroke-width:1.18324"><circle
         style="fill:none;fill-opacity:1;stroke:#000000;stroke-width:0.172496;stroke-linecap:round;stroke-linejoin:round;stroke-miterlimit:10.8;stroke-dasharray:none;stroke-opacity:1;paint-order:fill markers stroke"
         id="path83"
         cx="51.613609"
         cy="28.298491"
         r="0.27548364" /><path
         sodipodi:type="star"
         style="fill:#1a1a1a;fill-opacity:1;stroke:none;stroke-width:0.403857;stroke-linecap:round;stroke-linejoin:round;stroke-miterlimit:10.8;stroke-dasharray:none;stroke-opacity:1;paint-order:fill markers stroke"
         id="path84"
         inkscape:flatsided="true"
         sodipodi:sides="6"
         sodipodi:cx="51.520084"
         sodipodi:cy="28.237761"
         sodipodi:r1="0.15084678"
         sodipodi:r2="0.13063714"
         sodipodi:arg1="-2.6179939"
         sodipodi:arg2="-2.0943951"
         inkscape:rounded="0"
         inkscape:randomized="0"
         d="m 51.389447,28.162337 0.130637,-0.07542 0.130638,0.07542 0,0.150847 -0.130638,0.07542 -0.130637,-0.07542 z"
         transform="matrix(0.69765399,0,0,0.69765399,15.670417,8.5983042)" /></g><g
       id="g86"
       transform="translate(3.3858583)"
       style="stroke-width:1.18324"><circle
         style="fill:none;fill-opacity:1;stroke:#000000;stroke-width:0.172496;stroke-linecap:round;stroke-linejoin:round;stroke-miterlimit:10.8;stroke-dasharray:none;stroke-opacity:1;paint-order:fill markers stroke"
         id="circle85"
         cx="51.613609"
         cy="28.298491"
         r="0.27548364" /><path
         sodipodi:type="star"
         style="fill:#1a1a1a;fill-opacity:1;stroke:none;stroke-width:0.403857;stroke-linecap:round;stroke-linejoin:round;stroke-miterlimit:10.8;stroke-dasharray:none;stroke-opacity:1;paint-order:fill markers stroke"
         id="path85"
         inkscape:flatsided="true"
         sodipodi:sides="6"
         sodipodi:cx="51.520084"
         sodipodi:cy="28.237761"
         sodipodi:r1="0.15084678"
         sodipodi:r2="0.13063714"
         sodipodi:arg1="-2.6179939"
         sodipodi:arg2="-2.0943951"
         inkscape:rounded="0"
         inkscape:randomized="0"
         d="m 51.389447,28.162337 0.130637,-0.07542 0.130638,0.07542 0,0.150847 -0.130638,0.07542 -0.130637,-0.07542 z"
         transform="matrix(0.69765399,0,0,0.69765399,15.670417,8.5983042)" /></g><circle
       style="display:inline;opacity:1;fill:#1a1a1a;fill-opacity:1;stroke:none;stroke-width:0.172496;stroke-linecap:round;stroke-linejoin:round;stroke-miterlimit:10.8;stroke-dasharray:none;stroke-opacity:1;paint-order:fill markers stroke"
       id="path86"
       cx="53.350903"
       cy="28.298491"
       r="0.17713164" /><path
       style="display:inline;fill:#e56101;fill-opacity:1;stroke:none;stroke-width:0.368157;stroke-linecap:round;stroke-linejoin:round;stroke-miterlimit:10.8;stroke-dasharray:none;stroke-opacity:1;paint-order:fill markers stroke"
       d="m 38.318766,22.174028 c 0,-0.224833 0.03847,-1.105936 0.382823,-1.105936 0.350368,0 0.298814,1.105914 0.403058,1.105914 0.189316,0 0.166284,-0.376725 0.317494,-0.376725 0.164294,0 0.154071,0.376725 0.317493,0.376725 0.160516,0 0.156978,-0.376725 0.317494,-0.376725 0.154564,0 0.129993,0.376725 0.317494,0.376725 0.162045,0 0.161516,-0.376759 0.317494,-0.376759 0.164294,0 0.154071,0.376759 0.317493,0.376759 0.160516,0 0.156978,-0.376759 0.317494,-0.376759 0.154564,0 0.160376,0.376781 0.317494,0.376781 l 0.317492,-0.303419 1.822066,2.5e-5 0.08593,0.06016 h 0.438277 l 0.06399,-0.110834 h 1.285215 l 0.171874,-0.207133 h 6.539787 l 0.128904,0.128906 h 3.34294 v -0.180468 h 0.584369 v 4.451527 h -0.584369 v -0.180468 h -3.34294 l -0.128904,0.128906 h -6.539787 l -0.171874,-0.207133 h -1.285215 l -0.06399,-0.110834 h -0.438277 l -0.08593,0.06016 -1.822066,-7.9e-5 -0.317492,-0.303337 c -0.157118,0 -0.16293,0.376781 -0.317494,0.376781 -0.160516,0 -0.156978,-0.376759 -0.317494,-0.376759 -0.163422,0 -0.153199,0.376759 -0.317493,0.376759 -0.155978,0 -0.155449,-0.376759 -0.317494,-0.376759 -0.187501,0 -0.16293,0.376725 -0.317494,0.376725 -0.160516,0 -0.156978,-0.376725 -0.317494,-0.376725 -0.163422,0 -0.153199,0.376725 -0.317493,0.376725 -0.15121,0 -0.128178,-0.376725 -0.317494,-0.376725 -0.104244,0 -0.05269,1.105912 -0.403058,1.105912 -0.344352,0 -0.382823,-0.881101 -0.382823,-1.105934 z"
       id="path115"
       sodipodi:nodetypes="cscsssssssccccccccccccccccccccccccccssssssscscc" /><g
       id="g61"
       transform="translate(4.0213321e-6,-0.01769463)"
       style="stroke-width:1.18324"><path
         style="display:inline;fill:#b24b01;fill-opacity:1;stroke:none;stroke-width:0.368157;stroke-linecap:round;stroke-linejoin:round;stroke-miterlimit:10.8;stroke-dasharray:none;stroke-opacity:1;paint-order:fill markers stroke"
         d="m 56.425443,21.551119 h -0.584369 v 0.180468 h -3.34294 L 52.36923,21.602681 h -6.539787 l -0.171874,0.207133 h -1.285215 l -0.06399,0.110834 h -0.438277 l -0.08593,-0.06016 -1.822066,-2.5e-5 -0.317492,0.303419 c -0.157118,0 -0.16293,-0.376781 -0.317494,-0.376781 -0.160516,0 -0.156978,0.376759 -0.317494,0.376759 -0.163422,0 -0.153199,-0.376759 -0.317493,-0.376759 -0.155978,0 -0.155449,0.376759 -0.317494,0.376759 -0.187501,0 -0.16293,-0.376725 -0.317494,-0.376725 -0.160516,0 -0.156978,0.376725 -0.317494,0.376725 -0.163422,0 -0.153199,-0.376725 -0.317493,-0.376725 -0.15121,0 -0.128178,0.376725 -0.317494,0.376725 -0.104244,0 -0.118965,-1.078225 -0.469333,-1.078225 -0.344353,0 -0.316548,0.853414 -0.316548,1.078247 l 0.126755,0.747366 c 0.06766,-0.747892 0.06782,-1.275247 0.189668,-1.275275 0.09841,-2.3e-5 0.111705,0.51474 0.184914,0.748674 0.05954,0.190247 0.137875,0.337505 0.137832,0.526485 l 0.293925,-6.7e-5 c 4.3e-5,-0.188164 0.06055,-0.57706 0.170285,-0.577085 0.116973,-2.6e-5 0.170637,0.38898 0.170594,0.577008 l 0.293613,-6.7e-5 c 4.3e-5,-0.188369 0.06441,-0.576849 0.17078,-0.576873 0.108717,-2.5e-5 0.170454,0.388528 0.170411,0.576796 l 0.293613,-6.7e-5 c 4.3e-5,-0.18884 0.06013,-0.576732 0.170964,-0.576757 0.106864,-2.4e-5 0.17027,0.387732 0.170227,0.576679 l 0.293613,-6.6e-5 c 4.3e-5,-0.18874 0.06617,-0.576536 0.171147,-0.57656 0.101567,-2.3e-5 0.170088,0.388543 0.170045,0.576482 l 0.293612,-6.7e-5 c 4.3e-5,-0.188346 0.06696,-0.503096 0.171329,-0.503095 l 1.822066,2.5e-5 0.08593,0.06016 h 0.438277 l 0.06399,-0.110834 h 1.285215 l 0.171874,-0.207133 h 6.539787 l 0.128904,0.128906 h 3.34294 v -0.180471 h 0.584369 z"
         id="path175"
         sodipodi:nodetypes="cccccccccccccssssssscsccssccsccsccsccsccscccccccccccc"
         inkscape:highlight-color="#f8a3a3" /><path
         style="display:inline;fill:#b24b01;fill-opacity:1;stroke:none;stroke-width:0.368157;stroke-linecap:round;stroke-linejoin:round;stroke-miterlimit:10.8;stroke-dasharray:none;stroke-opacity:1;paint-order:fill markers stroke"
         d="m 56.424421,26.050196 -0.58437,2.66e-4 8.2e-5,-0.180468 -3.34294,0.0015 -0.128962,0.128965 -6.539788,0.003 -0.17178,-0.207055 -1.285215,5.85e-4 -0.06394,-0.110805 -0.438277,1.99e-4 -0.08596,0.0602 -1.822066,8.53e-4 -0.317354,-0.303274 c -0.157118,7.1e-5 -0.163102,0.376855 -0.317666,0.376925 -0.160516,7.3e-5 -0.156807,-0.376687 -0.317323,-0.376615 -0.163422,7.5e-5 -0.15337,0.376829 -0.317664,0.376904 -0.155978,7.1e-5 -0.155278,-0.376688 -0.317323,-0.376615 -0.187501,8.5e-5 -0.163101,0.376799 -0.317665,0.37687 -0.160516,7.3e-5 -0.156807,-0.376654 -0.317323,-0.376581 -0.163422,7.4e-5 -0.15337,0.376795 -0.317664,0.376869 -0.15121,6.9e-5 -0.128007,-0.376666 -0.317323,-0.37658 -0.104244,4.7e-5 -0.119455,1.078202 -0.469823,1.078361 -0.344353,1.57e-4 -0.31616,-0.853193 -0.316058,-1.078026 l 0.127095,-0.747424 c 0.06732,0.747862 0.06724,1.275217 0.189088,1.275189 0.09841,-2.2e-5 0.111939,-0.514791 0.185255,-0.748758 0.05963,-0.190274 0.138028,-0.337568 0.138071,-0.526548 l 0.293925,-6.6e-5 c -4.3e-5,0.188164 0.06029,0.577032 0.170023,0.577007 0.116973,-2.7e-5 0.170813,-0.389057 0.170856,-0.577085 l 0.293613,-6.7e-5 c -4.3e-5,0.188369 0.06415,0.57682 0.170518,0.576796 0.108717,-2.5e-5 0.17063,-0.388606 0.170673,-0.576874 l 0.293613,-6.7e-5 c -4.3e-5,0.18884 0.05987,0.576705 0.170702,0.57668 0.106864,-2.5e-5 0.170446,-0.38781 0.170489,-0.576757 l 0.293613,-6.7e-5 c -4.3e-5,0.18874 0.06591,0.576506 0.170885,0.576482 0.101567,-2.3e-5 0.170264,-0.38862 0.170307,-0.576559 l 0.293612,-6.7e-5 c -4.3e-5,0.188346 0.06673,0.503066 0.1711,0.503017 l 1.822066,-8.53e-4 0.08596,-0.0602 0.438277,-1.99e-4 0.06394,0.110805 1.285216,-5.85e-4 0.171779,0.207055 6.539788,-0.003 0.128963,-0.128965 3.34294,-0.0015 -8.2e-5,0.180471 0.584369,-2.66e-4 z"
         id="path50"
         sodipodi:nodetypes="cccccccccccccssssssscsccssccsccsccsccsccscccccccccccc"
         inkscape:highlight-color="#f8a3a3" /></g><path
       id="path177"
       style="display:inline;fill:#b24b01;stroke-width:0.31306;stroke-linecap:round;stroke-linejoin:round;stroke-miterlimit:10.8;paint-order:fill markers stroke;fill-opacity:1"
       d="m 39.251083,25.384637 -0.293902,6.13e-4 9.23e-4,-3.20944 0.293926,5.85e-4 z"
       sodipodi:nodetypes="ccccc" /><path
       id="path61"
       style="display:inline;fill:#b24b01;stroke-width:0.31306;stroke-linecap:round;stroke-linejoin:round;stroke-miterlimit:10.8;paint-order:fill markers stroke;fill-opacity:1"
       d="m 39.885935,25.384492 -0.293902,6.13e-4 8.75e-4,-3.20944 0.293613,5.85e-4 z"
       sodipodi:nodetypes="ccccc" /><path
       id="path62"
       style="display:inline;fill:#b24b01;stroke-width:0.31306;stroke-linecap:round;stroke-linejoin:round;stroke-miterlimit:10.8;paint-order:fill markers stroke;fill-opacity:1"
       d="m 40.52074,25.384348 -0.293902,6.13e-4 8.75e-4,-3.20944 0.293612,5.85e-4 z"
       sodipodi:nodetypes="ccccc" /><path
       id="path63"
       style="display:inline;fill:#b24b01;stroke-width:0.31306;stroke-linecap:round;stroke-linejoin:round;stroke-miterlimit:10.8;paint-order:fill markers stroke;fill-opacity:1"
       d="m 41.155544,25.384204 -0.293902,6.13e-4 8.75e-4,-3.20944 0.293612,5.85e-4 z"
       sodipodi:nodetypes="ccccc" /><path
       id="path64"
       style="display:inline;fill:#b24b01;stroke-width:0.31306;stroke-linecap:round;stroke-linejoin:round;stroke-miterlimit:10.8;paint-order:fill markers stroke;fill-opacity:1"
       d="m 41.790349,25.384059 -0.293902,6.13e-4 8.74e-4,-3.20944 0.293612,5.85e-4 z"
       sodipodi:nodetypes="ccccc" /><rect
       style="fill:#5b2601;fill-opacity:1;stroke:none;stroke-width:0.368157;stroke-linecap:round;stroke-linejoin:round;stroke-miterlimit:10.8;stroke-dasharray:none;stroke-opacity:1;paint-order:fill markers stroke"
       id="rect114"
       width="0.67449784"
       height="3.7917714"
       x="43.702595"
       y="21.887758" /><rect
       style="fill:#b24b01;fill-opacity:1;stroke:none;stroke-width:1.87836;stroke-linecap:round;stroke-linejoin:round;stroke-miterlimit:10.8;paint-order:fill markers stroke"
       id="rect1"
       width="0.58436131"
       height="3.84991"
       x="43.096645"
       y="21.904959" /><path
       style="display:inline;fill:none;fill-opacity:1;stroke:#000000;stroke-width:0.336853;stroke-linecap:round;stroke-linejoin:round;stroke-miterlimit:10.8;stroke-dasharray:none;stroke-opacity:1;paint-order:fill markers stroke"
       d="m 38.277287,22.174028 c 0,-0.224833 0.01368,-1.106088 0.358033,-1.106088 0.350368,0 0.365058,1.106066 0.469302,1.106066 0.189316,0 0.166309,-0.376725 0.317519,-0.376725 0.164294,0 0.154152,0.376725 0.317574,0.376725 0.160516,0 0.156897,-0.376725 0.317413,-0.376725 0.154564,0 0.12989,0.376725 0.317391,0.376725 0.162045,0 0.161619,-0.376759 0.317597,-0.376759 0.164294,0 0.154071,0.376759 0.317493,0.376759 0.160516,0 0.156978,-0.376759 0.317494,-0.376759 0.154564,0 0.160376,0.376781 0.317494,0.376781 0.164238,0 0.171104,-0.303421 0.317492,-0.303419 l 1.822066,2.5e-5 0.08593,0.06016 h 0.438277 l 0.06399,-0.110834 h 1.285215 l 0.171874,-0.207133 h 6.539787 l 0.128904,0.128906 h 3.34294 v -0.180468 h 0.584369 v 4.451527 h -0.584369 v -0.180468 h -3.34294 l -0.128904,0.128906 h -6.539787 l -0.171874,-0.207133 h -1.285215 l -0.06399,-0.110834 h -0.438277 l -0.08593,0.06016 -1.822066,-7.9e-5 c -0.146369,-6e-6 -0.153254,-0.303337 -0.317492,-0.303337 -0.157118,0 -0.16293,0.376781 -0.317494,0.376781 -0.160516,0 -0.156978,-0.376759 -0.317494,-0.376759 -0.163422,0 -0.153199,0.376759 -0.317493,0.376759 -0.155978,0 -0.155449,-0.376759 -0.317494,-0.376759 -0.187501,0 -0.16293,0.376725 -0.317494,0.376725 -0.160516,0 -0.156978,-0.376725 -0.317494,-0.376725 -0.163422,0 -0.153199,0.376725 -0.317493,0.376725 -0.15121,0 -0.128178,-0.376725 -0.317494,-0.376725 -0.104244,0 -0.120195,1.105866 -0.470563,1.105866 -0.344352,0 -0.356658,-0.881055 -0.356658,-1.105888 z"
       id="path148"
       sodipodi:nodetypes="cscsssssssssccccccccccccccccccccccssssssssscscc" /><path
       id="rect115"
       style="fill:#a24401;stroke:#000000;stroke-width:0.336853;stroke-linecap:round;stroke-linejoin:round;stroke-miterlimit:10.8;stroke-dasharray:none;paint-order:fill markers stroke;fill-opacity:1"
       d="m 52.937748,21.217474 h 1.813239 v 0.67889 c -0.613007,0.17746 -1.208826,0.168953 -1.813239,0 z"
       sodipodi:nodetypes="ccccc" /><g
       id="g115"
       inkscape:label="g115"
       transform="translate(0.38889963,-0.16719475)"
       style="stroke-width:1.18324"><rect
         style="fill:#e56101;fill-opacity:1;stroke:none;stroke-width:0.368157;stroke-linecap:round;stroke-linejoin:round;stroke-miterlimit:10.8;stroke-dasharray:none;stroke-opacity:1;paint-order:fill markers stroke"
         id="rect90"
         width="2.3455508"
         height="1.1423926"
         x="52.282692"
         y="20.417231" /><g
         id="g105"
         transform="translate(0.02456387,-0.00607598)"
         style="stroke-width:1.18324"><rect
           style="fill:#b24b01;fill-opacity:1;stroke:none;stroke-width:0.368157;stroke-linecap:round;stroke-linejoin:round;stroke-miterlimit:10.8;stroke-dasharray:none;stroke-opacity:1;paint-order:fill markers stroke"
           id="rect91"
           width="0.13368423"
           height="0.91148353"
           x="52.525757"
           y="20.538761" /><rect
           style="fill:#b24b01;fill-opacity:1;stroke:none;stroke-width:0.368157;stroke-linecap:round;stroke-linejoin:round;stroke-miterlimit:10.8;stroke-dasharray:none;stroke-opacity:1;paint-order:fill markers stroke"
           id="rect105"
           width="0.13368423"
           height="0.91148353"
           x="52.765274"
           y="20.538761" /><rect
           style="fill:#b24b01;fill-opacity:1;stroke:none;stroke-width:0.368157;stroke-linecap:round;stroke-linejoin:round;stroke-miterlimit:10.8;stroke-dasharray:none;stroke-opacity:1;paint-order:fill markers stroke"
           id="rect106"
           width="0.13368423"
           height="0.91148353"
           x="53.004787"
           y="20.538761" /><rect
           style="fill:#b24b01;fill-opacity:1;stroke:none;stroke-width:0.368157;stroke-linecap:round;stroke-linejoin:round;stroke-miterlimit:10.8;stroke-dasharray:none;stroke-opacity:1;paint-order:fill markers stroke"
           id="rect107"
           width="0.13368423"
           height="0.91148353"
           x="53.244305"
           y="20.538761" /><rect
           style="fill:#b24b01;fill-opacity:1;stroke:none;stroke-width:0.368157;stroke-linecap:round;stroke-linejoin:round;stroke-miterlimit:10.8;stroke-dasharray:none;stroke-opacity:1;paint-order:fill markers stroke"
           id="rect108"
           width="0.13368423"
           height="0.91148353"
           x="53.483818"
           y="20.538761" /><rect
           style="fill:#b24b01;fill-opacity:1;stroke:none;stroke-width:0.368157;stroke-linecap:round;stroke-linejoin:round;stroke-miterlimit:10.8;stroke-dasharray:none;stroke-opacity:1;paint-order:fill markers stroke"
           id="rect109"
           width="0.13368423"
           height="0.91148353"
           x="53.723335"
           y="20.538761" /><rect
           style="fill:#b24b01;fill-opacity:1;stroke:none;stroke-width:0.368157;stroke-linecap:round;stroke-linejoin:round;stroke-miterlimit:10.8;stroke-dasharray:none;stroke-opacity:1;paint-order:fill markers stroke"
           id="rect110"
           width="0.13368423"
           height="0.91148353"
           x="53.962849"
           y="20.538761" /><rect
           style="fill:#b24b01;fill-opacity:1;stroke:none;stroke-width:0.368157;stroke-linecap:round;stroke-linejoin:round;stroke-miterlimit:10.8;stroke-dasharray:none;stroke-opacity:1;paint-order:fill markers stroke"
           id="rect111"
           width="0.13368423"
           height="0.91148353"
           x="54.202366"
           y="20.538761" /></g><rect
         style="fill:none;fill-opacity:1;stroke:#000000;stroke-width:0.336853;stroke-linecap:round;stroke-linejoin:round;stroke-miterlimit:10.8;stroke-dasharray:none;stroke-opacity:1;paint-order:fill markers stroke"
         id="rect92"
         width="2.3455508"
         height="1.0822378"
         x="52.282692"
         y="20.477385" /></g><g
       id="g123"
       transform="translate(0,-0.1028105)"
       style="stroke-width:1.18324"><path
         style="fill:none;fill-opacity:1;stroke:#7f3501;stroke-width:0.156529;stroke-linecap:round;stroke-linejoin:round;stroke-miterlimit:10.8;stroke-dasharray:none;stroke-opacity:1;paint-order:fill markers stroke"
         d="m 43.122429,22.222917 h 0.532799"
         id="path122" /><path
         style="fill:none;fill-opacity:1;stroke:#7f3501;stroke-width:0.156529;stroke-linecap:round;stroke-linejoin:round;stroke-miterlimit:10.8;stroke-dasharray:none;stroke-opacity:1;paint-order:fill markers stroke"
         d="m 43.122429,22.461037 h 0.532799"
         id="path123" /><path
         style="fill:none;fill-opacity:1;stroke:#7f3501;stroke-width:0.156529;stroke-linecap:round;stroke-linejoin:round;stroke-miterlimit:10.8;stroke-dasharray:none;stroke-opacity:1;paint-order:fill markers stroke"
         d="m 43.122429,22.699158 h 0.532799"
         id="path124" /><path
         style="fill:none;fill-opacity:1;stroke:#7f3501;stroke-width:0.156529;stroke-linecap:round;stroke-linejoin:round;stroke-miterlimit:10.8;stroke-dasharray:none;stroke-opacity:1;paint-order:fill markers stroke"
         d="m 43.122429,22.937278 h 0.532799"
         id="path125" /><path
         style="fill:none;fill-opacity:1;stroke:#7f3501;stroke-width:0.156529;stroke-linecap:round;stroke-linejoin:round;stroke-miterlimit:10.8;stroke-dasharray:none;stroke-opacity:1;paint-order:fill markers stroke"
         d="m 43.122429,23.175398 h 0.532799"
         id="path126" /><path
         style="fill:none;fill-opacity:1;stroke:#7f3501;stroke-width:0.156529;stroke-linecap:round;stroke-linejoin:round;stroke-miterlimit:10.8;stroke-dasharray:none;stroke-opacity:1;paint-order:fill markers stroke"
         d="m 43.122429,23.413518 h 0.532799"
         id="path127" /><path
         style="fill:none;fill-opacity:1;stroke:#7f3501;stroke-width:0.156529;stroke-linecap:round;stroke-linejoin:round;stroke-miterlimit:10.8;stroke-dasharray:none;stroke-opacity:1;paint-order:fill markers stroke"
         d="m 43.122429,23.651639 h 0.532799"
         id="path128" /><path
         style="fill:none;fill-opacity:1;stroke:#7f3501;stroke-width:0.156529;stroke-linecap:round;stroke-linejoin:round;stroke-miterlimit:10.8;stroke-dasharray:none;stroke-opacity:1;paint-order:fill markers stroke"
         d="m 43.122429,23.889759 h 0.532799"
         id="path129" /><path
         style="fill:none;fill-opacity:1;stroke:#7f3501;stroke-width:0.156529;stroke-linecap:round;stroke-linejoin:round;stroke-miterlimit:10.8;stroke-dasharray:none;stroke-opacity:1;paint-order:fill markers stroke"
         d="m 43.122429,24.127879 h 0.532799"
         id="path130" /><path
         style="fill:none;fill-opacity:1;stroke:#7f3501;stroke-width:0.156529;stroke-linecap:round;stroke-linejoin:round;stroke-miterlimit:10.8;stroke-dasharray:none;stroke-opacity:1;paint-order:fill markers stroke"
         d="m 43.122429,24.365999 h 0.532799"
         id="path131" /><path
         style="fill:none;fill-opacity:1;stroke:#7f3501;stroke-width:0.156529;stroke-linecap:round;stroke-linejoin:round;stroke-miterlimit:10.8;stroke-dasharray:none;stroke-opacity:1;paint-order:fill markers stroke"
         d="m 43.122429,24.60412 h 0.532799"
         id="path132" /><path
         style="fill:none;fill-opacity:1;stroke:#7f3501;stroke-width:0.156529;stroke-linecap:round;stroke-linejoin:round;stroke-miterlimit:10.8;stroke-dasharray:none;stroke-opacity:1;paint-order:fill markers stroke"
         d="m 43.122429,24.84224 h 0.532799"
         id="path133" /><path
         style="fill:none;fill-opacity:1;stroke:#7f3501;stroke-width:0.156529;stroke-linecap:round;stroke-linejoin:round;stroke-miterlimit:10.8;stroke-dasharray:none;stroke-opacity:1;paint-order:fill markers stroke"
         d="m 43.122429,25.08036 h 0.532799"
         id="path134" /><path
         style="fill:none;fill-opacity:1;stroke:#7f3501;stroke-width:0.156529;stroke-linecap:round;stroke-linejoin:round;stroke-miterlimit:10.8;stroke-dasharray:none;stroke-opacity:1;paint-order:fill markers stroke"
         d="m 43.122429,25.31848 h 0.532799"
         id="path135" /><path
         style="fill:none;fill-opacity:1;stroke:#7f3501;stroke-width:0.156529;stroke-linecap:round;stroke-linejoin:round;stroke-miterlimit:10.8;stroke-dasharray:none;stroke-opacity:1;paint-order:fill markers stroke"
         d="m 43.122429,25.556601 h 0.532799"
         id="path136" /></g><g
       id="g138"
       transform="matrix(0.80461573,0,0,1,8.3559615,-0.00378182)"
       style="stroke-width:1.31911"><path
         style="fill:none;fill-opacity:1;stroke:#7f3501;stroke-width:0.244304;stroke-linecap:butt;stroke-linejoin:round;stroke-miterlimit:10.8;stroke-dasharray:none;stroke-opacity:1;paint-order:fill markers stroke"
         d="m 41.843169,22.785433 h 0.923639"
         id="path137" /><path
         style="fill:none;fill-opacity:1;stroke:#7f3501;stroke-width:0.244304;stroke-linecap:butt;stroke-linejoin:round;stroke-miterlimit:10.8;stroke-dasharray:none;stroke-opacity:1;paint-order:fill markers stroke"
         d="m 41.843169,22.282734 h 0.923639"
         id="path138" /><path
         style="fill:none;fill-opacity:1;stroke:#7f3501;stroke-width:0.244304;stroke-linecap:butt;stroke-linejoin:round;stroke-miterlimit:10.8;stroke-dasharray:none;stroke-opacity:1;paint-order:fill markers stroke"
         d="m 41.843169,23.288131 h 0.923639"
         id="path139" /><path
         style="fill:none;fill-opacity:1;stroke:#7f3501;stroke-width:0.244304;stroke-linecap:butt;stroke-linejoin:round;stroke-miterlimit:10.8;stroke-dasharray:none;stroke-opacity:1;paint-order:fill markers stroke"
         d="m 41.843169,23.79083 h 0.923639"
         id="path140" /><path
         style="fill:none;fill-opacity:1;stroke:#7f3501;stroke-width:0.244304;stroke-linecap:butt;stroke-linejoin:round;stroke-miterlimit:10.8;stroke-dasharray:none;stroke-opacity:1;paint-order:fill markers stroke"
         d="m 41.843169,24.293529 h 0.923639"
         id="path141" /><path
         style="fill:none;fill-opacity:1;stroke:#7f3501;stroke-width:0.244304;stroke-linecap:butt;stroke-linejoin:round;stroke-miterlimit:10.8;stroke-dasharray:none;stroke-opacity:1;paint-order:fill markers stroke"
         d="m 41.843169,24.796228 h 0.923639"
         id="path142" /><path
         style="fill:none;fill-opacity:1;stroke:#7f3501;stroke-width:0.244304;stroke-linecap:butt;stroke-linejoin:round;stroke-miterlimit:10.8;stroke-dasharray:none;stroke-opacity:1;paint-order:fill markers stroke"
         d="m 41.843169,25.298926 h 0.923639"
         id="path143" /></g><path
       style="fill:none;fill-opacity:1;stroke:#000000;stroke-width:0.336853;stroke-linecap:round;stroke-linejoin:round;stroke-miterlimit:10.8;stroke-dasharray:none;stroke-opacity:1;paint-order:fill markers stroke"
       d="m 43.064612,21.877965 v 3.817862"
       id="path113"
       sodipodi:nodetypes="cc" /><path
       style="fill:none;fill-opacity:1;stroke:#000000;stroke-width:0.336853;stroke-linecap:round;stroke-linejoin:round;stroke-miterlimit:10.8;stroke-dasharray:none;stroke-opacity:1;paint-order:fill markers stroke"
       d="m 43.758351,21.877965 v 3.817862"
       id="path114"
       sodipodi:nodetypes="cc" /><path
       style="display:inline;opacity:1;fill:none;fill-opacity:1;stroke:#000000;stroke-width:0.336853;stroke-linecap:round;stroke-linejoin:round;stroke-miterlimit:10.8;stroke-dasharray:none;stroke-opacity:1;paint-order:fill markers stroke"
       d="m 44.310252,21.948523 v 3.718852"
       id="path116" /><g
       id="g118"
       style="stroke-width:1.18324"><path
         style="fill:none;fill-opacity:1;stroke:#000000;stroke-width:0.336853;stroke-linecap:round;stroke-linejoin:round;stroke-miterlimit:10.8;stroke-dasharray:none;stroke-opacity:1;paint-order:fill markers stroke"
         d="m 45.586329,21.851298 v 3.888996"
         id="path117" /><path
         style="fill:none;fill-opacity:1;stroke:#000000;stroke-width:0.336853;stroke-linecap:round;stroke-linejoin:round;stroke-miterlimit:10.8;stroke-dasharray:none;stroke-opacity:1;paint-order:fill markers stroke"
         d="m 46.424893,25.922591 c -0.577026,-1.290126 -0.590291,-3.06566 0,-4.302202"
         id="path118"
         sodipodi:nodetypes="cc" /></g><g
       id="g120"
       transform="matrix(-1,0,0,1,98.185003,0)"
       style="display:inline;stroke-width:1.18324"><path
         style="fill:none;fill-opacity:1;stroke:#000000;stroke-width:0.336853;stroke-linecap:round;stroke-linejoin:round;stroke-miterlimit:10.8;stroke-dasharray:none;stroke-opacity:1;paint-order:fill markers stroke"
         d="m 45.586329,21.851298 v 3.888996"
         id="path119" /><path
         style="fill:none;fill-opacity:1;stroke:#000000;stroke-width:0.336853;stroke-linecap:round;stroke-linejoin:round;stroke-miterlimit:10.8;stroke-dasharray:none;stroke-opacity:1;paint-order:fill markers stroke"
         d="m 46.424893,25.922591 c -0.577026,-1.290126 -0.590291,-3.06566 0,-4.302202"
         id="path120"
         sodipodi:nodetypes="cc" /></g><path
       style="display:inline;fill:none;fill-opacity:1;stroke:#000000;stroke-width:0.336853;stroke-linecap:round;stroke-linejoin:round;stroke-miterlimit:10.8;stroke-dasharray:none;stroke-opacity:1;paint-order:fill markers stroke"
       d="m 55.840881,21.692615 v 4.137096"
       id="path121" /><g
       id="g146"
       transform="matrix(0.92778382,0,0,0.97008486,3.5331798,0.58653853)"
       style="stroke-width:1.24722"><g
         id="g53"
         transform="matrix(1.0778373,0,0,1.0308377,-3.8081929,-0.604626)"
         style="stroke-width:1.24722"><path
           id="rect146"
           style="fill:#b24b01;fill-opacity:1;stroke:none;stroke-width:0.219142;stroke-linecap:round;stroke-linejoin:round;stroke-miterlimit:10.8;paint-order:fill markers stroke"
           d="m 48.768288,20.588921 h 0.644718 c 0.07496,0 0.135311,0.06516 0.135311,0.14609 l -5.9e-5,0.146091 h -0.915281 c 0,0 -3e-6,-0.06516 -3e-6,-0.146091 0,-0.08093 0.06035,-0.14609 0.135314,-0.14609 z"
           sodipodi:nodetypes="sssccss" /><path
           id="path54"
           style="fill:#e56101;fill-opacity:1;stroke:none;stroke-width:0.219142;stroke-linecap:round;stroke-linejoin:round;stroke-miterlimit:10.8;paint-order:fill markers stroke"
           d="m 48.836469,20.588921 h 0.508354 v 0.292181 h -0.508354 z"
           sodipodi:nodetypes="ccccc" /><path
           id="path53"
           style="fill:none;stroke:#000000;stroke-width:0.187836;stroke-linecap:round;stroke-linejoin:round;stroke-miterlimit:10.8;stroke-dasharray:none;paint-order:fill markers stroke"
           d="m 48.768288,20.588921 h 0.644718 c 0.07496,0 0.135311,0.06516 0.135311,0.14609 l -5.9e-5,0.146091 h -0.915281 c 0,0 -3e-6,-0.06516 -3e-6,-0.146091 0,-0.08093 0.06035,-0.14609 0.135314,-0.14609 z"
           sodipodi:nodetypes="sssccss" /></g><path
         id="rect143"
         style="fill:#e56101;stroke:none;stroke-width:0.329988;stroke-linejoin:round;stroke-miterlimit:10.8;stroke-dasharray:none;paint-order:fill markers stroke;fill-opacity:1"
         d="m 48.330116,20.985447 h 1.546839 l -1e-5,0.696077 h -1.546723 z"
         sodipodi:nodetypes="ccccc" /><path
         id="path52"
         style="fill:#b24b01;fill-opacity:1;stroke:none;stroke-width:0.329988;stroke-linejoin:round;stroke-miterlimit:10.8;stroke-dasharray:none;paint-order:fill markers stroke"
         d="m 48.330116,20.985447 h 1.546839 l -2e-5,0.278625 h -1.546723 z"
         sodipodi:nodetypes="ccccc" /><path
         id="path51"
         style="fill:none;fill-opacity:1;stroke:#000000;stroke-width:0.29699;stroke-linejoin:round;stroke-miterlimit:10.8;stroke-dasharray:none;paint-order:fill markers stroke"
         d="m 48.330116,20.985447 h 1.546839 l -1e-5,0.696077 h -1.546723 z"
         sodipodi:nodetypes="ccccc" /><path
         style="fill:#bb5309;fill-opacity:1;stroke:#000000;stroke-width:0.29699;stroke-linecap:round;stroke-linejoin:round;stroke-miterlimit:10.8;stroke-dasharray:none;stroke-opacity:1;paint-order:fill markers stroke"
         d="M 48.330222,21.635771 V 20.781987"
         id="path144"
         sodipodi:nodetypes="cc" /><path
         style="fill:#bb5309;fill-opacity:1;stroke:#000000;stroke-width:0.29699;stroke-linecap:round;stroke-linejoin:round;stroke-miterlimit:10.8;stroke-dasharray:none;stroke-opacity:1;paint-order:fill markers stroke"
         d="M 49.876945,21.635771 V 20.781987"
         id="path146"
         sodipodi:nodetypes="cc" /></g><g
       id="g58"
       style="stroke-width:1.18324"><path
         id="path170"
         style="fill:#b24b01;fill-opacity:1;stroke:none;stroke-width:0.219142;stroke-linecap:round;stroke-linejoin:round;stroke-miterlimit:10.8;paint-order:fill markers stroke"
         d="m 47.01904,21.277626 h 0.877663 c 0.102042,0 0.1842,0.06516 0.1842,0.14609 l -7.9e-5,0.146091 H 46.83484 c 0,0 -5e-6,-0.06516 -5e-6,-0.146091 0,-0.08093 0.08216,-0.14609 0.184205,-0.14609 z"
         sodipodi:nodetypes="sssccss" /><path
         id="path59"
         style="fill:#e56101;stroke:none;stroke-width:0.219142;stroke-linecap:round;stroke-linejoin:round;stroke-miterlimit:10.8;paint-order:fill markers stroke;fill-opacity:1"
         d="m 47.074849,21.314832 h 0.765852 v 0.254975 h -0.765852 z"
         sodipodi:nodetypes="ccccc" /><path
         id="path55"
         style="fill:none;stroke:#000000;stroke-width:0.187836;stroke-linecap:round;stroke-linejoin:round;stroke-miterlimit:10.8;stroke-dasharray:none;paint-order:fill markers stroke"
         d="m 47.01904,21.277626 h 0.877663 c 0.102042,0 0.1842,0.06516 0.1842,0.14609 l -7.9e-5,0.146091 H 46.83484 c 0,0 -5e-6,-0.06516 -5e-6,-0.146091 0,-0.08093 0.08216,-0.14609 0.184205,-0.14609 z"
         sodipodi:nodetypes="sssccss" /></g><g
       id="g57"
       style="stroke-width:1.18324"><path
         id="path171"
         style="fill:#b24b01;fill-opacity:1;stroke:none;stroke-width:0.219142;stroke-linecap:round;stroke-linejoin:round;stroke-miterlimit:10.8;paint-order:fill markers stroke"
         d="m 50.275995,21.277626 h 0.877663 c 0.102042,0 0.1842,0.06516 0.1842,0.14609 l -7.9e-5,0.146091 h -1.245984 c 0,0 -5e-6,-0.06516 -5e-6,-0.146091 0,-0.08093 0.08216,-0.14609 0.184205,-0.14609 z"
         sodipodi:nodetypes="sssccss" /><path
         id="path60"
         style="fill:#e56101;stroke:none;stroke-width:0.219142;stroke-linecap:round;stroke-linejoin:round;stroke-miterlimit:10.8;paint-order:fill markers stroke;fill-opacity:1"
         d="m 50.331898,21.314832 h 0.765852 v 0.254975 h -0.765852 z"
         sodipodi:nodetypes="ccccc" /><path
         id="path56"
         style="fill:none;stroke:#000000;stroke-width:0.187836;stroke-linecap:round;stroke-linejoin:round;stroke-miterlimit:10.8;stroke-dasharray:none;paint-order:fill markers stroke"
         d="m 50.275995,21.277626 h 0.877663 c 0.102042,0 0.1842,0.06516 0.1842,0.14609 l -7.9e-5,0.146091 h -1.245984 c 0,0 -5e-6,-0.06516 -5e-6,-0.146091 0,-0.08093 0.08216,-0.14609 0.184205,-0.14609 z"
         sodipodi:nodetypes="sssccss" /></g><circle
       style="display:inline;fill:none;fill-opacity:1;stroke:#000000;stroke-width:0.281754;stroke-linecap:round;stroke-linejoin:round;stroke-miterlimit:10.8;stroke-dasharray:none;stroke-opacity:1;paint-order:fill markers stroke"
       id="path47"
       cx="50.600906"
       cy="24.135719"
       r="0.65310973" /><path
       id="path48"
       style="display:inline;fill:none;stroke:#602c06;stroke-width:0.172496;stroke-linecap:round;stroke-linejoin:round;stroke-miterlimit:10.8;stroke-dasharray:none;paint-order:fill markers stroke"
       d="m 50.803253,23.92871 c 0.06004,0.0532 0.08809,0.120323 0.08809,0.2069 0,0.160464 -0.12996,0.290659 -0.290424,0.290659 -0.160464,0 -0.290546,-0.130082 -0.290546,-0.290546 0,-0.08098 0.03313,-0.154323 0.08657,-0.207013"
       sodipodi:nodetypes="csssc" /><path
       style="display:inline;fill:none;fill-opacity:1;stroke:#602c06;stroke-width:0.172496;stroke-linecap:round;stroke-linejoin:round;stroke-miterlimit:10.8;stroke-dasharray:none;stroke-opacity:1;paint-order:fill markers stroke"
       d="M 50.600914,24.052344 V 23.78102"
       id="path49"
       sodipodi:nodetypes="cc" /><g
       id="g51"
       transform="translate(0.0135374)"
       style="stroke-width:1.18324"><rect
         style="fill:#773709;fill-opacity:1;stroke:none;stroke-width:0.203801;stroke-linecap:round;stroke-linejoin:round;stroke-miterlimit:10.8;stroke-dasharray:none;stroke-opacity:1;paint-order:fill markers stroke"
         id="rect49"
         width="2.3597553"
         height="1.4944528"
         x="46.55735"
         y="23.39036"
         rx="0.26879004"
         ry="0.26879004" /><rect
         style="fill:#773709;fill-opacity:1;stroke:none;stroke-width:0.203801;stroke-linecap:round;stroke-linejoin:round;stroke-miterlimit:10.8;stroke-dasharray:none;stroke-opacity:1;paint-order:fill markers stroke"
         id="rect50"
         width="5.0393863"
         height="0.70691967"
         x="46.55748"
         y="22.394058"
         rx="0.28532645"
         ry="0.28532645" /></g><rect
       style="fill:#773709;fill-opacity:1;stroke:none;stroke-width:0.203801;stroke-linecap:round;stroke-linejoin:round;stroke-miterlimit:10.8;stroke-dasharray:none;stroke-opacity:1;paint-order:fill markers stroke"
       id="rect51"
       width="5.0394197"
       height="0.23563989"
       x="46.570778"
       y="25.101851"
       rx="0.11781994"
       ry="0.11781994" /></g></svg>
