<?xml version="1.0" encoding="UTF-8"?>
<svg version="1.1" xmlns="http://www.w3.org/2000/svg" width="182" height="158">
<path d="M0 0 C2.64898422 1.30741762 3.43278857 2.51774198 4.80859375 5.109375 C5.94041546 7.27887169 5.94041546 7.27887169 7.12109375 9.046875 C7.78109375 9.046875 8.44109375 9.046875 9.12109375 9.046875 C9.38921875 8.428125 9.65734375 7.809375 9.93359375 7.171875 C11.12109375 5.046875 11.12109375 5.046875 14.12109375 3.046875 C16.16943359 3.22070312 16.16943359 3.22070312 18.12109375 4.046875 C19.83615145 6.52618648 21.30176821 8.91608775 22.74609375 11.546875 C23.6189427 13.09292752 24.4926676 14.63848578 25.3671875 16.18359375 C25.81562012 16.9832959 26.26405273 17.78299805 26.72607422 18.60693359 C28.11700852 21.03972978 29.56163451 23.43043648 31.03125 25.81640625 C31.49644043 26.57824219 31.96163086 27.34007813 32.44091797 28.125 C33.33912148 29.59239709 34.24547124 31.05484483 35.16064453 32.51171875 C38.17422069 37.50103542 38.17422069 37.50103542 37.91723633 40.14135742 C37.12109375 42.046875 37.12109375 42.046875 34.12109375 44.046875 C32.71531602 44.51819195 31.29701142 44.95303832 29.87109375 45.359375 C25.20798447 46.83996944 21.95173141 49.03126663 18.12109375 52.046875 C19.84005859 51.94246094 19.84005859 51.94246094 21.59375 51.8359375 C35.40147037 51.24637048 35.40147037 51.24637048 39.55859375 54.796875 C42.20933305 57.65707326 44.15770543 60.58240775 44.05859375 64.546875 C41.64160002 70.9921916 32.67678289 74.42391634 27.02001953 77.70239258 C25.25138593 78.73129627 23.4930437 79.77644463 21.734375 80.82226562 C20.60644531 81.47775391 19.47851562 82.13324219 18.31640625 82.80859375 C17.29562988 83.40631592 16.27485352 84.00403809 15.22314453 84.61987305 C10.72020503 86.69131027 6.8816929 87.63374138 2.12109375 86.046875 C0.11233933 86.32258639 -1.89069312 86.64923237 -3.87890625 87.046875 C-5.36390625 85.066875 -5.36390625 85.066875 -6.87890625 83.046875 C-12.9522623 83.60229126 -17.72048105 87.43847602 -22.72851562 90.62890625 C-23.46005859 91.07878906 -24.19160156 91.52867188 -24.9453125 91.9921875 C-25.60474854 92.41000488 -26.26418457 92.82782227 -26.94360352 93.25830078 C-28.87890625 94.046875 -28.87890625 94.046875 -30.98413086 93.85888672 C-34.11940093 92.51525726 -35.23711352 89.92001228 -36.87890625 87.046875 C-36.87890625 86.386875 -36.87890625 85.726875 -36.87890625 85.046875 C-37.62333984 85.44519531 -37.62333984 85.44519531 -38.3828125 85.8515625 C-42.82281867 88.16002871 -47.04991826 89.68018029 -51.87890625 91.046875 C-53.56386923 92.01572872 -55.23069381 93.01674223 -56.87890625 94.046875 C-57.94753906 94.48773438 -59.01617187 94.92859375 -60.1171875 95.3828125 C-65.06879675 97.46719067 -69.40252563 100.47532242 -73.890625 103.40234375 C-76.87890625 105.046875 -76.87890625 105.046875 -80.87890625 105.046875 C-81.37390625 106.531875 -81.37390625 106.531875 -81.87890625 108.046875 C-83.19890625 108.046875 -84.51890625 108.046875 -85.87890625 108.046875 C-86.37390625 109.531875 -86.37390625 109.531875 -86.87890625 111.046875 C-88.19890625 111.046875 -89.51890625 111.046875 -90.87890625 111.046875 C-91.37390625 112.531875 -91.37390625 112.531875 -91.87890625 114.046875 C-92.86890625 114.046875 -93.85890625 114.046875 -94.87890625 114.046875 C-95.53890625 115.036875 -96.19890625 116.026875 -96.87890625 117.046875 C-97.53890625 117.046875 -98.19890625 117.046875 -98.87890625 117.046875 C-98.69328125 118.160625 -98.50765625 119.274375 -98.31640625 120.421875 C-97.87890625 124.046875 -97.87890625 124.046875 -98.87890625 126.046875 C-101.76343379 126.16461082 -103.26720834 126.14885588 -105.87890625 125.046875 C-111.84997879 118.41401005 -115.92949994 109.88701069 -120.19140625 102.109375 C-121.41569343 99.89138959 -122.64091018 97.67391697 -123.8671875 95.45703125 C-124.66443237 94.00502319 -124.66443237 94.00502319 -125.4777832 92.52368164 C-126.53588494 90.65324392 -127.68686643 88.83493473 -128.87890625 87.046875 C-128.50390625 83.359375 -128.50390625 83.359375 -127.87890625 80.046875 C-125.69140625 79.359375 -125.69140625 79.359375 -122.87890625 79.046875 C-121.20150763 80.02876687 -119.53423248 81.02821271 -117.87890625 82.046875 C-115.64975458 81.9911342 -115.64975458 81.9911342 -113.87890625 81.046875 C-113.38390625 80.056875 -113.38390625 80.056875 -112.87890625 79.046875 C-111.54557292 78.71354167 -110.21223958 78.38020833 -108.87890625 78.046875 C-108.54890625 77.386875 -108.21890625 76.726875 -107.87890625 76.046875 C-105.46210543 74.9727413 -103.00422517 74.0918241 -100.515625 73.19921875 C-97.67604861 71.9582187 -95.43625286 70.44208222 -92.94140625 68.609375 C-83.75390625 62.046875 -83.75390625 62.046875 -78.87890625 62.046875 C-78.54890625 61.056875 -78.21890625 60.066875 -77.87890625 59.046875 C-75.21806656 57.05291243 -72.266483 55.046875 -68.87890625 55.046875 C-68.81703125 54.44875 -68.75515625 53.850625 -68.69140625 53.234375 C-67.54335943 50.14347971 -65.77343573 49.4588406 -62.87890625 48.046875 C-62.21890625 48.046875 -61.55890625 48.046875 -60.87890625 48.046875 C-60.80800781 47.44359375 -60.73710938 46.8403125 -60.6640625 46.21875 C-59.58274701 43.22764846 -58.10952168 42.71310254 -55.31640625 41.296875 C-54.49011719 40.86890625 -53.66382812 40.4409375 -52.8125 40 C-52.17441406 39.68546875 -51.53632812 39.3709375 -50.87890625 39.046875 C-51.37390625 36.076875 -51.37390625 36.076875 -51.87890625 33.046875 C-51.21890625 33.046875 -50.55890625 33.046875 -49.87890625 33.046875 C-49.54890625 32.056875 -49.21890625 31.066875 -48.87890625 30.046875 C-47.171875 29.0625 -47.171875 29.0625 -45.06640625 28.296875 C-44.03580078 27.90242188 -44.03580078 27.90242188 -42.984375 27.5 C-40.5441413 26.97482911 -39.20213783 27.17018384 -36.87890625 28.046875 C-35.88890625 29.036875 -35.88890625 29.036875 -34.87890625 30.046875 C-33.86828125 29.2425 -32.85765625 28.438125 -31.81640625 27.609375 C-28.21593009 25.00741146 -25.30018534 24.54739716 -20.87890625 24.046875 C-18.49862334 22.62012327 -18.49862334 22.62012327 -16.87890625 21.046875 C-17.55953125 19.974375 -18.24015625 18.901875 -18.94140625 17.796875 C-20.2941208 15.6653248 -20.94505758 14.62506791 -20.6550293 12.09008789 C-19.17367058 8.19027943 -15.09995281 6.72807529 -11.62890625 4.734375 C-10.86449219 4.26708984 -10.10007812 3.79980469 -9.3125 3.31835938 C-3.74066757 0.06090639 -3.74066757 0.06090639 0 0 Z " fill="#210600" transform="translate(128.87890625,26.953125)"/>
<path d="M0 0 C7.82424062 3.03172775 11.59836479 11.21227194 14.9296875 18.42578125 C16.65059666 22.75486718 17.22867502 26.25924498 17.30859375 30.89453125 C13.79022348 33.1072563 10.25153862 35.28429424 6.69921875 37.44189453 C4.93693748 38.51272516 3.17684231 39.58715548 1.41796875 40.66357422 C-1.77586482 42.61056138 -4.98230277 44.53533436 -8.19140625 46.45703125 C-9.24199219 47.1010791 -10.29257813 47.74512695 -11.375 48.40869141 C-12.87740234 49.30080322 -12.87740234 49.30080322 -14.41015625 50.2109375 C-15.30669922 50.75177979 -16.20324219 51.29262207 -17.12695312 51.84985352 C-20.17454234 53.09134573 -21.60454136 52.92720519 -24.69140625 51.89453125 C-32.54420375 45.66071127 -38.09981233 35.3864562 -39.3515625 25.4921875 C-39.51978516 23.71134766 -39.51978516 23.71134766 -39.69140625 21.89453125 C-39.10351318 21.547854 -38.51562012 21.20117676 -37.90991211 20.84399414 C-36.14923974 19.80544639 -34.38884827 18.76642237 -32.62866211 17.72705078 C-30.62140649 16.54266051 -28.61309646 15.36005547 -26.60375977 14.17919922 C-22.05708205 11.50184523 -17.52488485 8.81449982 -13.06640625 5.9921875 C-12.39230713 5.56993896 -11.71820801 5.14769043 -11.02368164 4.71264648 C-9.79117227 3.93655149 -8.56587689 3.14883871 -7.34936523 2.34790039 C-4.74986342 0.72220931 -3.1009985 -0.12151953 0 0 Z " fill="#D0600E" transform="translate(108.69140625,56.10546875)"/>
<path d="M0 0 C1.97883125 3.50358562 3.95424025 7.00907579 5.92651367 10.51635742 C6.59777817 11.70894205 7.26997148 12.90100439 7.94311523 14.0925293 C8.91114075 15.80639882 9.87553993 17.52231497 10.83984375 19.23828125 C11.42113037 20.26993408 12.00241699 21.30158691 12.60131836 22.36450195 C14 25 14 25 15 28 C11.00930209 30.22736628 8.50220609 31 4 31 C3.34 31.99 2.68 32.98 2 34 C1.01 34 0.02 34 -1 34 C-1.66 34.99 -2.32 35.98 -3 37 C-4.32 36.67 -5.64 36.34 -7 36 C-7 36.99 -7 37.98 -7 39 C-8.65 39 -10.3 39 -12 39 C-12 39.99 -12 40.98 -12 42 C-13.65 42 -15.3 42 -17 42 C-16.67 44.64 -16.34 47.28 -16 50 C-19.85881104 48.71372965 -20.22613692 47.38344865 -22.21484375 43.8984375 C-22.81876953 42.85042969 -23.42269531 41.80242187 -24.04492188 40.72265625 C-24.66947266 39.61792969 -25.29402344 38.51320312 -25.9375 37.375 C-26.55818359 36.29347656 -27.17886719 35.21195313 -27.81835938 34.09765625 C-29.02047381 32.00067707 -30.21650545 29.9001965 -31.40576172 27.79589844 C-32.36096913 26.12070161 -33.33159093 24.4539503 -34.33251953 22.80566406 C-36.35781175 19.46495748 -37 18.04311318 -37 14 C-34 15 -34 15 -32 18 C-29.94074861 18.72382467 -29.94074861 18.72382467 -28 19 C-28 18.34 -28 17.68 -28 17 C-27.38125 16.896875 -26.7625 16.79375 -26.125 16.6875 C-23.63473516 16.12474627 -23.63473516 16.12474627 -22 13 C-21.01 13 -20.02 13 -19 13 C-18.34 12.01 -17.68 11.02 -17 10 C-16.01 10 -15.02 10 -14 10 C-13.34 9.01 -12.68 8.02 -12 7 C-11.01 7 -10.02 7 -9 7 C-8.6596875 6.1028125 -8.6596875 6.1028125 -8.3125 5.1875 C-6.43375091 2.05625152 -3.74574487 0 0 0 Z " fill="#B64C05" transform="translate(42,97)"/>
<path d="M0 0 C14.91145252 -0.93175479 14.91145252 -0.93175479 19.47314453 2.88085938 C22.12388383 5.74105764 24.07225621 8.66639213 23.97314453 12.63085938 C21.5561508 19.07617598 12.59133367 22.50790071 6.93457031 25.78637695 C5.16593671 26.81528065 3.40759448 27.860429 1.64892578 28.90625 C0.52099609 29.56173828 -0.60693359 30.21722656 -1.76904297 30.89257812 C-2.78981934 31.49030029 -3.8105957 32.08802246 -4.86230469 32.70385742 C-9.36524419 34.77529465 -13.20375632 35.71772576 -17.96435547 34.13085938 C-19.97310989 34.40657077 -21.97614234 34.73321675 -23.96435547 35.13085938 C-24.95435547 33.81085938 -25.94435547 32.49085937 -26.96435547 31.13085938 C-33.03771152 31.68627563 -37.80593026 35.5224604 -42.81396484 38.71289062 C-43.54550781 39.16277344 -44.27705078 39.61265625 -45.03076172 40.07617188 C-46.01991577 40.70289795 -46.01991577 40.70289795 -47.02905273 41.34228516 C-48.96435547 42.13085938 -48.96435547 42.13085938 -51.06958008 41.94287109 C-54.20485015 40.59924163 -55.32256274 38.00399665 -56.96435547 35.13085938 C-56.96435547 34.47085938 -56.96435547 33.81085938 -56.96435547 33.13085938 C-59.43935547 33.62585938 -59.43935547 33.62585938 -61.96435547 34.13085938 C-61.96435547 33.47085938 -61.96435547 32.81085938 -61.96435547 32.13085938 C-58.00435547 31.63585937 -58.00435547 31.63585937 -53.96435547 31.13085938 C-50.96435547 34.88085938 -50.96435547 34.88085938 -50.96435547 37.13085938 C-49.46346857 36.31999887 -47.96373942 35.50699567 -46.46435547 34.69335938 C-45.46919922 34.15710938 -44.47404297 33.62085938 -43.44873047 33.06835938 C-40.90154181 31.65198541 -38.40782983 30.20308958 -35.91748047 28.69335938 C-35.22203125 28.28013428 -34.52658203 27.86690918 -33.81005859 27.44116211 C-32.43505187 26.62246927 -31.0686946 25.78903394 -29.71240234 24.93969727 C-24.68710333 21.98123482 -24.68710333 21.98123482 -20.73779297 22.79882812 C-14.46639729 23.35065901 -10.0330118 19.61666465 -4.83935547 16.38085938 C-3.23253906 15.41019531 -3.23253906 15.41019531 -1.59326172 14.41992188 C0.4016255 13.21255551 2.39193423 11.99756689 4.37597656 10.77246094 C5.25366699 10.23073242 6.13135742 9.68900391 7.03564453 9.13085938 C7.9326709 8.56592773 8.82969727 8.00099609 9.75390625 7.41894531 C12.03564453 6.13085938 12.03564453 6.13085938 14.03564453 6.13085938 C14.03564453 5.47085938 14.03564453 4.81085938 14.03564453 4.13085938 C10.11813385 4.21176643 6.20217637 4.3246087 2.28564453 4.44335938 C0.61888672 4.47719727 0.61888672 4.47719727 -1.08154297 4.51171875 C-2.15146484 4.54716797 -3.22138672 4.58261719 -4.32373047 4.61914062 C-5.8005127 4.65841675 -5.8005127 4.65841675 -7.30712891 4.69848633 C-10.32549848 5.18962309 -11.64393959 6.20900528 -13.96435547 8.13085938 C-14.62435547 8.13085938 -15.28435547 8.13085938 -15.96435547 8.13085938 C-15.62129045 5.64363797 -15.14597173 4.33517767 -13.46435547 2.44335938 C-9.14918297 0.17789381 -4.75293889 0.3166263 0 0 Z " fill="#1A1A1A" transform="translate(148.96435546875,78.869140625)"/>
<path d="M0 0 C-0.33 1.32 -0.66 2.64 -1 4 C0.98 3.01 2.96 2.02 5 1 C7.1734621 4.45734768 9.327224 7.92611464 11.46362305 11.40649414 C12.19270828 12.58815972 12.92704734 13.76660074 13.66674805 14.94165039 C14.73047972 16.63346303 15.77372106 18.33810433 16.81640625 20.04296875 C17.45006104 21.06414795 18.08371582 22.08532715 18.73657227 23.13745117 C20.15337307 26.34749744 20.07768924 27.7195034 19 31 C17.02 31.66 15.04 32.32 13 33 C8.05 24.42 3.1 15.84 -2 7 C-3.35750584 9.92598978 -3.35750584 9.92598978 -1.92016602 12.3125 C-1.37030029 13.199375 -0.82043457 14.08625 -0.25390625 15 C0.33583984 15.969375 0.92558594 16.93875 1.53320312 17.9375 C2.47583008 19.4534375 2.47583008 19.4534375 3.4375 21 C4.67123486 22.99638417 5.89938321 24.99623484 7.12109375 27 C7.94758423 28.3303125 7.94758423 28.3303125 8.79077148 29.6875 C10 32 10 32 10 35 C9.34 35 8.68 35 8 35 C7.46375 33.88625 6.9275 32.7725 6.375 31.625 C4.27648319 27.42052483 1.90395316 23.42191039 -0.5390625 19.41015625 C-2.42041189 16.3064328 -4.21421477 13.15946618 -6 10 C-6.99 10 -7.98 10 -9 10 C-8.54560547 10.74161377 -8.09121094 11.48322754 -7.62304688 12.24731445 C-5.94048254 15.00046427 -4.26390492 17.75714239 -2.59130859 20.51635742 C-1.86615159 21.70986527 -1.13862529 22.90193692 -0.40869141 24.0925293 C0.64001094 25.80398298 1.67951197 27.52106413 2.71875 29.23828125 C3.34716797 30.26993408 3.97558594 31.30158691 4.62304688 32.36450195 C6 35 6 35 6 38 C4.21362305 37.84350586 4.21362305 37.84350586 2 37 C0.27661133 34.62329102 0.27661133 34.62329102 -1.41796875 31.50390625 C-2.03220703 30.38822266 -2.64644531 29.27253906 -3.27929688 28.12304688 C-3.91562465 26.93633733 -4.55168939 25.74948671 -5.1875 24.5625 C-5.83408555 23.37890046 -6.48185909 22.19594907 -7.13085938 21.01367188 C-11.39300272 13.21399457 -11.39300272 13.21399457 -13 10 C-13 10.99 -13 11.98 -13 13 C-13.55429687 13.24234375 -14.10859375 13.4846875 -14.6796875 13.734375 C-15.40414062 14.06953125 -16.12859375 14.4046875 -16.875 14.75 C-17.59429687 15.07484375 -18.31359375 15.3996875 -19.0546875 15.734375 C-21.3370674 17.21929686 -22.00375898 18.50415408 -23 21 C-23.99 21 -24.98 21 -26 21 C-26.66 21.99 -27.32 22.98 -28 24 C-28.99 24 -29.98 24 -31 24 C-31.66 24.99 -32.32 25.98 -33 27 C-33.99 27 -34.98 27 -36 27 C-36.66 27.99 -37.32 28.98 -38 30 C-39.32 30 -40.64 30 -42 30 C-42 30.66 -42 31.32 -42 32 C-46.31392226 31.5206753 -48.16569547 30.2542015 -51 27 C-48.61783236 32.8914683 -45.70753369 38.38477376 -42.625 43.9375 C-41.92117187 45.22043945 -41.92117187 45.22043945 -41.203125 46.52929688 C-36.86959532 55.96119212 -36.86959532 55.96119212 -30 63 C-29.67 62.34 -29.34 61.68 -29 61 C-28.67 62.65 -28.34 64.3 -28 66 C-27.67 64.68 -27.34 63.36 -27 62 C-26.34 62 -25.68 62 -25 62 C-25.33 64.31 -25.66 66.62 -26 69 C-28.88452754 69.11773582 -30.38830209 69.10198088 -33 68 C-38.97107254 61.36713505 -43.05059369 52.84013569 -47.3125 45.0625 C-48.53678718 42.84451459 -49.76200393 40.62704197 -50.98828125 38.41015625 C-51.51977783 37.44215088 -52.05127441 36.47414551 -52.59887695 35.47680664 C-53.65697869 33.60636892 -54.80796018 31.78805973 -56 30 C-55.625 26.3125 -55.625 26.3125 -55 23 C-52.8125 22.3125 -52.8125 22.3125 -50 22 C-48.32260138 22.98189187 -46.65532623 23.98133771 -45 25 C-42.77084833 24.9442592 -42.77084833 24.9442592 -41 24 C-40.67 23.34 -40.34 22.68 -40 22 C-38.66666667 21.66666667 -37.33333333 21.33333333 -36 21 C-35.67 20.34 -35.34 19.68 -35 19 C-32.58319918 17.9258663 -30.12531892 17.0449491 -27.63671875 16.15234375 C-24.79714236 14.9113437 -22.55734661 13.39520722 -20.0625 11.5625 C-10.875 5 -10.875 5 -6 5 C-5.67 4.01 -5.34 3.02 -5 2 C-2 0 -2 0 0 0 Z " fill="#2D211F" transform="translate(56,84)"/>
<path d="M0 0 C4.30432751 5.18157931 7.49676889 10.78179229 10.8125 16.625 C11.42287109 17.67429687 12.03324219 18.72359375 12.66210938 19.8046875 C13.5196582 21.31289063 13.5196582 21.31289063 14.39453125 22.8515625 C14.91893799 23.76760254 15.44334473 24.68364258 15.98364258 25.62744141 C17 28 17 28 16 31 C14.08227539 32.3503418 14.08227539 32.3503418 11.59765625 33.69921875 C10.70755859 34.18583984 9.81746094 34.67246094 8.90039062 35.17382812 C7.96388672 35.67333984 7.02738281 36.17285156 6.0625 36.6875 C5.12986328 37.19861328 4.19722656 37.70972656 3.23632812 38.23632812 C-3.71314878 42 -3.71314878 42 -6 42 C-6.34780518 41.39003174 -6.69561035 40.78006348 -7.05395508 40.15161133 C-8.63956339 37.3715801 -10.2260236 34.59203592 -11.8125 31.8125 C-12.35970703 30.85279297 -12.90691406 29.89308594 -13.47070312 28.90429688 C-14.00244141 27.97294922 -14.53417969 27.04160156 -15.08203125 26.08203125 C-15.81256714 24.80162964 -15.81256714 24.80162964 -16.55786133 23.49536133 C-17.56798824 21.74751858 -18.61268027 20.01940927 -19.68237305 18.30737305 C-21 16 -21 16 -21 14 C-20.18015625 13.62488281 -19.3603125 13.24976563 -18.515625 12.86328125 C-17.43796875 12.35152344 -16.3603125 11.83976562 -15.25 11.3125 C-14.18265625 10.81363281 -13.1153125 10.31476562 -12.015625 9.80078125 C-8.80632769 7.88434853 -7.20330614 5.97639601 -5 3 C-2.25 1.1875 -2.25 1.1875 0 0 Z " fill="#E26004" transform="translate(140,38)"/>
<path d="M0 0 C1.00023193 0.00523682 2.00046387 0.01047363 3.03100586 0.01586914 C4.1105957 0.0190918 5.19018555 0.02231445 6.30249023 0.02563477 C8.00695312 0.03820312 8.00695312 0.03820312 9.74584961 0.05102539 C11.45611328 0.05779297 11.45611328 0.05779297 13.20092773 0.06469727 C16.02845312 0.07652792 18.85587601 0.09301129 21.68334961 0.11352539 C21.68334961 0.77352539 21.68334961 1.43352539 21.68334961 2.11352539 C17.78967204 4.35974574 13.893538 6.6016262 9.99511719 8.83959961 C8.67054794 9.60079425 7.34664514 10.36314988 6.0234375 11.12670898 C4.11626395 12.22697383 2.20669574 13.32297691 0.29663086 14.41821289 C-0.29002853 14.75787079 -0.87668793 15.09752869 -1.48112488 15.44747925 C-10.10943461 20.37893909 -10.10943461 20.37893909 -13.79296875 19.5690918 C-17.27351045 18.94079627 -18.69216418 20.03447389 -21.69555664 21.82446289 C-22.6990918 22.40969727 -23.70262695 22.99493164 -24.73657227 23.59790039 C-25.77362305 24.22180664 -26.81067383 24.84571289 -27.87915039 25.48852539 C-29.94053562 26.70876334 -32.00424709 27.9250823 -34.07055664 29.13696289 C-35.43676147 29.95559814 -35.43676147 29.95559814 -36.83056641 30.79077148 C-39.04286727 31.96785545 -40.86961185 32.65405809 -43.31665039 33.11352539 C-44.87915039 30.80102539 -44.87915039 30.80102539 -46.31665039 28.11352539 C-45.03868179 24.27961959 -43.84214371 24.00715724 -40.34790039 22.10961914 C-39.30891602 21.53816162 -38.26993164 20.9667041 -37.19946289 20.37792969 C-36.08313477 19.77505127 -34.96680664 19.17217285 -33.81665039 18.55102539 C-31.5346156 17.29724441 -29.25336883 16.04202811 -26.97290039 14.78540039 C-25.8449707 14.16600586 -24.71704102 13.54661133 -23.55493164 12.90844727 C-19.10174545 10.44012512 -14.70051507 7.89003991 -10.31665039 5.30102539 C-9.61217773 4.88715576 -8.90770508 4.47328613 -8.18188477 4.046875 C-1.46203684 0.07164581 -1.46203684 0.07164581 0 0 Z " fill="#4A4A4A" transform="translate(141.316650390625,82.886474609375)"/>
<path d="M0 0 C3.69468402 4.75791737 6.6275505 9.94662393 9.6875 15.125 C10.29400391 16.13949219 10.90050781 17.15398437 11.52539062 18.19921875 C12.09837891 19.16730469 12.67136719 20.13539062 13.26171875 21.1328125 C13.78725342 22.01855957 14.31278809 22.90430664 14.85424805 23.81689453 C16 26 16 26 16 28 C16.94875 27.505 17.8975 27.01 18.875 26.5 C22 25 22 25 24 25 C25.2236068 22.9254644 25.2236068 22.9254644 25 20 C23.72245446 17.9639118 22.39300182 15.95890881 21 14 C21.33 13.34 21.66 12.68 22 12 C22.54269531 12.63808594 23.08539063 13.27617188 23.64453125 13.93359375 C24.35996094 14.75988281 25.07539062 15.58617188 25.8125 16.4375 C26.52019531 17.26121094 27.22789063 18.08492187 27.95703125 18.93359375 C29.91109686 21.22164759 29.91109686 21.22164759 33 22 C33.495 23.485 33.495 23.485 34 25 C31 27 31 27 27.625 27.9375 C24.22088976 28.93525645 21.97634429 30.13978482 19 32 C17.93136719 32.44085938 16.86273438 32.88171875 15.76171875 33.3359375 C10.8101095 35.42031567 6.47638062 38.42844742 1.98828125 41.35546875 C-1 43 -1 43 -5 43 C-5.33 43.99 -5.66 44.98 -6 46 C-7.32 46 -8.64 46 -10 46 C-10.33 46.99 -10.66 47.98 -11 49 C-12.32 49 -13.64 49 -15 49 C-15.33 49.99 -15.66 50.98 -16 52 C-16.99 52 -17.98 52 -19 52 C-19.66 52.99 -20.32 53.98 -21 55 C-21.66 55 -22.32 55 -23 55 C-23.66 56.98 -24.32 58.96 -25 61 C-25.66 60.67 -26.32 60.34 -27 60 C-27.4140625 57.71484375 -27.4140625 57.71484375 -27.625 54.9375 C-27.69976563 54.01839844 -27.77453125 53.09929687 -27.8515625 52.15234375 C-27.90054687 51.44207031 -27.94953125 50.73179687 -28 50 C-26.35 50 -24.7 50 -23 50 C-23 49.01 -23 48.02 -23 47 C-21.35 47 -19.7 47 -18 47 C-18 46.01 -18 45.02 -18 44 C-16.68 44 -15.36 44 -14 44 C-13.34 43.01 -12.68 42.02 -12 41 C-11.01 41 -10.02 41 -9 41 C-8.34 40.01 -7.68 39.02 -7 38 C-3.625 37.375 -3.625 37.375 0 37 C1.33789547 36.6854772 2.67271886 36.35667026 4 36 C3.54036865 35.23856689 3.0807373 34.47713379 2.60717773 33.69262695 C0.90508267 30.85724204 -0.78351216 28.01468225 -2.46362305 25.16625977 C-3.19275318 23.93624753 -3.92709192 22.70930713 -4.66674805 21.4855957 C-5.73056971 19.72352929 -6.7750204 17.95117624 -7.81640625 16.17578125 C-8.45006104 15.11270752 -9.08371582 14.04963379 -9.73657227 12.9543457 C-11.13014266 9.69567994 -11.09500419 8.31178529 -10 5 C-6.88595372 6.55702314 -6.29280939 9.21299636 -4.8125 12.3125 C-2.41664709 17.2229822 0.05783141 22.05690708 2.75 26.8125 C3.30171875 27.78832031 3.8534375 28.76414062 4.421875 29.76953125 C5.87239714 32.28624058 5.87239714 32.28624058 9 33 C3.95125852 23.49769388 -1.51134038 14.25262185 -7 5 C-5.68 4.34 -4.36 3.68 -3 3 C-0.65528823 6.99344282 1.6765204 10.99416692 4 15 C4.49757812 15.85464844 4.99515625 16.70929688 5.5078125 17.58984375 C7.82323512 21.64529953 9.72314439 25.47296648 11 30 C11.66 30 12.32 30 13 30 C12.1687748 28.45719566 11.33481898 26.91586269 10.5 25.375 C9.96246094 24.37984375 9.42492188 23.3846875 8.87109375 22.359375 C7.54656542 19.98130743 6.19804563 17.65178743 4.78515625 15.328125 C4.41648438 14.71275879 4.0478125 14.09739258 3.66796875 13.46337891 C2.94153452 12.25532904 2.20352644 11.05414988 1.453125 9.86083984 C-0.2358399 7.02823704 -1.03969474 5.4170743 -0.72265625 2.0859375 C-0.36494141 1.05339844 -0.36494141 1.05339844 0 0 Z " fill="#240700" transform="translate(53,89)"/>
<path d="M0 0 C2.93225169 1.52799904 3.61469262 3.1772928 4.94140625 6.171875 C5.36035156 7.09097656 5.77929688 8.01007812 6.2109375 8.95703125 C6.51386719 9.66730469 6.81679687 10.37757812 7.12890625 11.109375 C4.81890625 10.779375 2.50890625 10.449375 0.12890625 10.109375 C0.12890625 10.769375 0.12890625 11.429375 0.12890625 12.109375 C0.78890625 12.439375 1.44890625 12.769375 2.12890625 13.109375 C2.06640625 14.859375 2.06640625 14.859375 1.12890625 17.109375 C-1.79506986 19.45625056 -4.5047342 21.24951444 -8.30859375 20.859375 C-8.82421875 20.611875 -9.33984375 20.364375 -9.87109375 20.109375 C-9.54109375 19.449375 -9.21109375 18.789375 -8.87109375 18.109375 C-10.89566755 20.04192272 -12.29215167 21.74096188 -13.87109375 24.109375 C-13.49855469 24.73585938 -13.12601563 25.36234375 -12.7421875 26.0078125 C-12.26910156 26.82507813 -11.79601562 27.64234375 -11.30859375 28.484375 C-10.83292969 29.29648437 -10.35726562 30.10859375 -9.8671875 30.9453125 C-9.37412109 32.01652344 -9.37412109 32.01652344 -8.87109375 33.109375 C-9.36609375 34.099375 -9.36609375 34.099375 -9.87109375 35.109375 C-10.53109375 34.09875 -11.19109375 33.088125 -11.87109375 32.046875 C-13.20794025 30.36571508 -13.20794025 30.36571508 -14.87109375 29.109375 C-21.34102428 28.67073564 -25.15963043 31.31972124 -30.4765625 34.75 C-33.56313152 36.50224473 -36.36280358 36.82871179 -39.87109375 37.109375 C-41.21906805 37.74591842 -42.55706099 38.40542888 -43.87109375 39.109375 C-44.86109375 39.109375 -45.85109375 39.109375 -46.87109375 39.109375 C-46.87109375 38.119375 -46.87109375 37.129375 -46.87109375 36.109375 C-43.90109375 34.459375 -40.93109375 32.809375 -37.87109375 31.109375 C-41.77542244 31.109375 -44.25135973 31.79310808 -47.87109375 33.109375 C-48.20109375 32.119375 -48.53109375 31.129375 -48.87109375 30.109375 C-47.62688728 29.5748494 -46.37538439 29.05728889 -45.12109375 28.546875 C-44.425 28.25683594 -43.72890625 27.96679688 -43.01171875 27.66796875 C-40.51990875 27.01773366 -39.25841799 27.19155917 -36.87109375 28.109375 C-36.21109375 28.769375 -35.55109375 29.429375 -34.87109375 30.109375 C-33.86046875 29.305 -32.84984375 28.500625 -31.80859375 27.671875 C-28.20811759 25.06991146 -25.29237284 24.60989716 -20.87109375 24.109375 C-18.49081084 22.68262327 -18.49081084 22.68262327 -16.87109375 21.109375 C-17.55171875 20.036875 -18.23234375 18.964375 -18.93359375 17.859375 C-20.2863083 15.7278248 -20.93724508 14.68756791 -20.6472168 12.15258789 C-19.16585808 8.25277943 -15.09214031 6.79057529 -11.62109375 4.796875 C-10.85667969 4.32958984 -10.09226563 3.86230469 -9.3046875 3.38085938 C-6.08419059 1.49806455 -3.76577181 0.14345797 0 0 Z " fill="#140300" transform="translate(128.87109375,26.890625)"/>
<path d="M0 0 C3.48627036 1.47579921 4.82616348 5.13770487 6.57666016 8.32617188 C7.44950911 9.8722244 8.32323401 11.41778265 9.19775391 12.96289062 C9.87040283 14.16244385 9.87040283 14.16244385 10.55664062 15.38623047 C11.94757493 17.81902666 13.39220092 20.20973336 14.86181641 22.59570312 C15.32700684 23.35753906 15.79219727 24.119375 16.27148438 24.90429688 C17.16968788 26.37169397 18.07603764 27.83414171 18.99121094 29.29101562 C22.0047871 34.28033229 22.0047871 34.28033229 21.74780273 36.9206543 C20.95166016 38.82617188 20.95166016 38.82617188 17.95166016 40.82617188 C15.68994141 40.80273438 15.68994141 40.80273438 13.26416016 40.45117188 C12.45591797 40.3403125 11.64767578 40.22945312 10.81494141 40.11523438 C10.20005859 40.01984375 9.58517578 39.92445312 8.95166016 39.82617188 C9.31912354 39.24963867 9.68658691 38.67310547 10.06518555 38.07910156 C11.19720395 35.89037843 11.19720395 35.89037843 10.34008789 33.84667969 C9.94249268 33.16444336 9.54489746 32.48220703 9.13525391 31.77929688 C8.70019531 31.01617187 8.26513672 30.25304687 7.81689453 29.46679688 C7.34574219 28.67789063 6.87458984 27.88898437 6.38916016 27.07617188 C5.72303711 25.91601562 5.72303711 25.91601562 5.04345703 24.73242188 C2.43646964 20.22222018 -0.29854422 15.80858054 -3.14575195 11.44628906 C-4.04833984 9.82617188 -4.04833984 9.82617188 -4.04833984 7.82617188 C-5.69833984 7.49617188 -7.34833984 7.16617188 -9.04833984 6.82617188 C-8.38833984 6.49617188 -7.72833984 6.16617188 -7.04833984 5.82617188 C-6.58427734 4.86710937 -6.58427734 4.86710937 -6.11083984 3.88867188 C-4.68198756 1.11501745 -3.22822677 -0.27395679 0 0 Z " fill="#270700" transform="translate(145.04833984375,30.173828125)"/>
<path d="M0 0 C1.32 0.66 2.64 1.32 4 2 C2.48065294 5.03869411 0.01995228 5.64410306 -3 7 C-3.66 7 -4.32 7 -5 7 C-5 7.99 -5 8.98 -5 10 C-3.51800098 9.55090939 -2.03944764 9.09043436 -0.5625 8.625 C0.26121094 8.36976562 1.08492187 8.11453125 1.93359375 7.8515625 C4.17798016 7.19117773 4.17798016 7.19117773 5 5 C5 5.66 5 6.32 5 7 C5.66 7.33 6.32 7.66 7 8 C-4.88 14.93 -4.88 14.93 -17 22 C-16.21292803 28.77074687 -16.21292803 28.77074687 -14.4375 35 C-14.16808594 35.763125 -13.89867188 36.52625 -13.62109375 37.3125 C-13.41613281 37.869375 -13.21117188 38.42625 -13 39 C-13.66 39 -14.32 39 -15 39 C-15 40.65 -15 42.3 -15 44 C-15.99 44 -16.98 44 -18 44 C-19.48994968 41.85211214 -20.7901549 39.77086454 -22.0625 37.5 C-23.31996309 35.2804046 -24.61217903 33.1450821 -26 31 C-28.15634036 31 -29.92446352 31.4465236 -32 32 C-31.67 30.35 -31.34 28.7 -31 27 C-29.68 26.67 -28.36 26.34 -27 26 C-26.938125 25.401875 -26.87625 24.80375 -26.8125 24.1875 C-25.66445318 21.09660471 -23.89452948 20.4119656 -21 19 C-20.34 19 -19.68 19 -19 19 C-18.92910156 18.39671875 -18.85820313 17.7934375 -18.78515625 17.171875 C-17.70384076 14.18077346 -16.23061543 13.66622754 -13.4375 12.25 C-12.61121094 11.82203125 -11.78492187 11.3940625 -10.93359375 10.953125 C-10.29550781 10.63859375 -9.65742187 10.3240625 -9 10 C-9.33 8.02 -9.66 6.04 -10 4 C-9.34 4 -8.68 4 -8 4 C-8 3.34 -8 2.68 -8 2 C-7.4225 2.185625 -6.845 2.37125 -6.25 2.5625 C-3.79307475 3.04023546 -2.35602466 2.75729364 0 2 C0 1.34 0 0.68 0 0 Z " fill="#240801" transform="translate(87,56)"/>
<path d="M0 0 C-2.24447661 2.5811481 -3.7493136 3.1873284 -7 4 C-7.4345752 4.44802979 -7.86915039 4.89605957 -8.31689453 5.35766602 C-10.34721946 7.33880843 -12.42180619 8.45313619 -14.9296875 9.77734375 C-15.89003906 10.29103516 -16.85039063 10.80472656 -17.83984375 11.33398438 C-18.84144531 11.86314453 -19.84304687 12.39230469 -20.875 12.9375 C-26.62862974 15.97849108 -31.93980272 18.88238849 -37 23 C-37.99 23 -38.98 23 -40 23 C-40 24.65 -40 26.3 -40 28 C-34.4081108 29.462268 -31.6525263 28.78875531 -26.69726562 25.88867188 C-25.99279297 25.45103516 -25.28832031 25.01339844 -24.5625 24.5625 C-23.83095703 24.12873047 -23.09941406 23.69496094 -22.34570312 23.24804688 C-20.55367952 22.18220277 -18.77537168 21.09335615 -17 20 C-16.01 21.32 -15.02 22.64 -14 24 C-14.33 24.66 -14.66 25.32 -15 26 C-15.53367187 25.76410156 -16.06734375 25.52820313 -16.6171875 25.28515625 C-20.22744312 24.85310927 -22.101841 26.53224132 -25.125 28.4375 C-30.82778865 32 -30.82778865 32 -33 32 C-32.49745366 36.32189851 -31.8047708 39.59420689 -29 43 C-24.43407204 43.7121898 -22.01133128 42.04326189 -18.3125 39.5 C-13.18055556 36 -13.18055556 36 -11 36 C-10.67 34.68 -10.34 33.36 -10 32 C-9.505 34.475 -9.505 34.475 -9 37 C-14.61 40.3 -20.22 43.6 -26 47 C-23.11604263 47 -20.70522185 45.94094673 -18 45 C-19.93254772 47.0245738 -21.63158688 48.42105792 -24 50 C-27.07569678 49.8345353 -28.55396513 49.40634533 -30.84375 47.3203125 C-37.08503022 39.04767221 -40.96398961 31.32703972 -42 21 C-41.41210693 20.65332275 -40.82421387 20.30664551 -40.21850586 19.94946289 C-38.45783349 18.91091514 -36.69744202 17.87189112 -34.93725586 16.83251953 C-32.93000024 15.64812926 -30.92169021 14.46552422 -28.91235352 13.28466797 C-24.3656758 10.60731398 -19.8334786 7.91996857 -15.375 5.09765625 C-14.70090088 4.67540771 -14.02680176 4.25315918 -13.33227539 3.81811523 C-12.09976602 3.04202024 -10.87447064 2.25430746 -9.65795898 1.45336914 C-6.07506216 -0.78732306 -4.04437395 -1.40084461 0 0 Z " fill="#D5610E" transform="translate(111,57)"/>
<path d="M0 0 C0.495 1.485 0.495 1.485 1 3 C0.31075439 3.38220703 -0.37849121 3.76441406 -1.08862305 4.15820312 C-20.5842983 13.54977194 -20.5842983 13.54977194 -38 26 C-40.33297433 26.04092937 -42.66705225 26.04241723 -45 26 C-45.33 26.66 -45.66 27.32 -46 28 C-46 27.34 -46 26.68 -46 26 C-46.58265625 25.91878906 -47.1653125 25.83757812 -47.765625 25.75390625 C-51.97295572 24.3342999 -54.24775383 20.33445209 -57 17 C-55.35 20.3 -53.7 23.6 -52 27 C-53.98 27.99 -53.98 27.99 -56 29 C-56.433125 27.948125 -56.86625 26.89625 -57.3125 25.8125 C-58.31565232 23.45270359 -59.35943495 21.40094175 -60.6875 19.1875 C-62 17 -62 17 -62 15 C-61.34 15 -60.68 15 -60 15 C-60 13.35 -60 11.7 -60 10 C-59.01 10 -58.02 10 -57 10 C-56.02673289 11.37599832 -55.06480952 12.76252845 -54.18359375 14.19921875 C-52.09487528 17.37710395 -49.52024991 20.16051844 -47 23 C-41.89579636 22.4351079 -38.00009989 20.00072185 -33.625 17.5 C-32.83786621 17.0580127 -32.05073242 16.61602539 -31.23974609 16.16064453 C-27.32750642 13.94992612 -23.45478562 11.68666972 -19.625 9.3359375 C-18.94872559 8.92150391 -18.27245117 8.50707031 -17.57568359 8.08007812 C-16.30225038 7.29338647 -15.03404125 6.49815674 -13.77197266 5.69335938 C-10.45282209 3.63210047 -9.03646349 3 -5 3 C-4.67 2.34 -4.34 1.68 -4 1 C-1.9375 0.375 -1.9375 0.375 0 0 Z " fill="#1D0400" transform="translate(132,85)"/>
<path d="M0 0 C0.495 2.97 0.495 2.97 1 6 C-2.53744605 8.04564528 -6.07547628 10.09027627 -9.61401367 12.1340332 C-10.81371268 12.82712481 -12.01326118 13.520477 -13.21264648 14.21411133 C-16.08463628 15.87494885 -18.95904561 17.53082381 -21.83935547 19.17724609 C-23.79992221 20.30791126 -25.74940857 21.4583284 -27.68017578 22.63916016 C-28.84589111 23.3379126 -28.84589111 23.3379126 -30.03515625 24.05078125 C-30.69008057 24.45594971 -31.34500488 24.86111816 -32.01977539 25.27856445 C-34.63846165 26.23260439 -36.35765 25.72954639 -39 25 C-39.02734375 22.80859375 -39.02734375 22.80859375 -38 20 C-35.39648362 17.97170666 -32.49831833 16.55258831 -29.5625 15.0625 C-27.91214766 14.18735248 -26.26240335 13.31105733 -24.61328125 12.43359375 C-23.41759521 11.80686768 -23.41759521 11.80686768 -22.19775391 11.16748047 C-16.81184219 8.30640184 -11.59840614 5.15293342 -6.625 1.625 C-4 0 -4 0 0 0 Z " fill="#803704" transform="translate(112,61)"/>
<path d="M0 0 C2.9702184 1.58457379 4.1316356 4.00562684 5.69140625 6.90234375 C6.1875 9.3359375 6.1875 9.3359375 5.69140625 11.90234375 C3.60901904 13.64935381 1.83082684 14.89198814 -0.49609375 16.21484375 C-1.07423828 16.57384766 -1.65238281 16.93285156 -2.24804688 17.30273438 C-5.66087147 19.32729134 -8.33687172 20.7214684 -12.30859375 19.90234375 C-13.92578125 18.29296875 -13.92578125 18.29296875 -15.18359375 16.15234375 C-15.61414063 15.45625 -16.0446875 14.76015625 -16.48828125 14.04296875 C-17.30859375 11.90234375 -17.30859375 11.90234375 -17.3671875 9.90625 C-15.65118517 6.65787659 -12.61059657 5.30203776 -9.49609375 3.58984375 C-8.86638672 3.21794922 -8.23667969 2.84605469 -7.58789062 2.46289062 C-2.99241904 -0.12658287 -2.99241904 -0.12658287 0 0 Z " fill="#7D3706" transform="translate(94.30859375,81.09765625)"/>
<path d="M0 0 C3.98993858 4.65978229 7.1235881 9.77971717 10.3125 15 C10.87517578 15.88945313 11.43785156 16.77890625 12.01757812 17.6953125 C12.54416016 18.55898437 13.07074219 19.42265625 13.61328125 20.3125 C14.33704956 21.48232422 14.33704956 21.48232422 15.07543945 22.67578125 C16.20938059 25.52635416 15.85271405 27.10096465 15 30 C13.02 30.66 11.04 31.32 9 32 C6.83238631 28.35970083 4.67826929 24.71186055 2.53637695 21.05639648 C1.80567594 19.81366903 1.07131342 18.573087 0.33325195 17.3347168 C-0.7263155 15.55547004 -1.77252543 13.76895237 -2.81640625 11.98046875 C-3.45006104 10.90692139 -4.08371582 9.83337402 -4.73657227 8.72729492 C-6 6 -6 6 -5 3 C-2.4375 1.3125 -2.4375 1.3125 0 0 Z " fill="#D96009" transform="translate(60,85)"/>
<path d="M0 0 C0.495 2.97 0.495 2.97 1 6 C0.26475098 6.42297363 -0.47049805 6.84594727 -1.22802734 7.28173828 C-4.00546656 8.88012946 -6.78242565 10.47935093 -9.55908203 12.07910156 C-10.75160427 12.7659482 -11.94430697 13.45248165 -13.13720703 14.13867188 C-14.87061441 15.13585493 -16.60327791 16.1343307 -18.3359375 17.1328125 C-19.46483398 17.78024414 -20.59373047 18.42767578 -21.75683594 19.09472656 C-23.83038149 20.31287994 -25.88342512 21.56708949 -27.90722656 22.86621094 C-29.20998535 23.70200684 -29.20998535 23.70200684 -30.5390625 24.5546875 C-31.28623535 25.05210449 -32.0334082 25.54952148 -32.80322266 26.06201172 C-35.58292695 27.24890035 -37.14915178 26.83789494 -40 26 C-39.360625 25.525625 -38.72125 25.05125 -38.0625 24.5625 C-36.11706694 23.16261274 -36.11706694 23.16261274 -35 22 C-36.98 22.99 -36.98 22.99 -39 24 C-39 23.01 -39 22.02 -39 21 C-38.19369141 20.54149658 -37.38738281 20.08299316 -36.55664062 19.6105957 C-33.5291808 17.88797802 -30.50259414 16.16384507 -27.4765625 14.4387207 C-26.1735171 13.69626166 -24.87013914 12.95438593 -23.56640625 12.21313477 C-21.67878095 11.13976501 -19.79222958 10.06453976 -17.90625 8.98828125 C-17.29700684 8.64113068 -16.68776367 8.2939801 -16.06005859 7.93630981 C-12.74119488 6.03464127 -9.48945324 4.06271605 -6.28125 1.98046875 C-3 0 -3 0 0 0 Z " fill="#B4530D" transform="translate(124,82)"/>
<path d="M0 0 C-0.33 1.65 -0.66 3.3 -1 5 C-1.66 5 -2.32 5 -3 5 C-2.70703794 11.91768466 0.39406504 16.51466398 4.0625 22.25 C5.18422874 24.02235688 6.30039788 25.79824843 7.41015625 27.578125 C7.90652588 28.35575195 8.40289551 29.13337891 8.91430664 29.93457031 C10 32 10 32 10 35 C9.34 35 8.68 35 8 35 C7.46375 33.88625 6.9275 32.7725 6.375 31.625 C4.27648319 27.42052483 1.90395316 23.42191039 -0.5390625 19.41015625 C-2.42041189 16.3064328 -4.21421477 13.15946618 -6 10 C-6.99 10 -7.98 10 -9 10 C-8.54560547 10.74161377 -8.09121094 11.48322754 -7.62304688 12.24731445 C-5.94048254 15.00046427 -4.26390492 17.75714239 -2.59130859 20.51635742 C-1.86615159 21.70986527 -1.13862529 22.90193692 -0.40869141 24.0925293 C0.64001094 25.80398298 1.67951197 27.52106413 2.71875 29.23828125 C3.34716797 30.26993408 3.97558594 31.30158691 4.62304688 32.36450195 C6 35 6 35 6 38 C4.21362305 37.84350586 4.21362305 37.84350586 2 37 C0.27661133 34.62329102 0.27661133 34.62329102 -1.41796875 31.50390625 C-2.03220703 30.38822266 -2.64644531 29.27253906 -3.27929688 28.12304688 C-3.91562465 26.93633733 -4.55168939 25.74948671 -5.1875 24.5625 C-5.83408555 23.37890046 -6.48185909 22.19594907 -7.13085938 21.01367188 C-11.39300272 13.21399457 -11.39300272 13.21399457 -13 10 C-13 10.99 -13 11.98 -13 13 C-13.66 13 -14.32 13 -15 13 C-15.33 11.68 -15.66 10.36 -16 9 C-9.375 5 -9.375 5 -6 5 C-5.67 4.01 -5.34 3.02 -5 2 C-2 0 -2 0 0 0 Z " fill="#272422" transform="translate(56,84)"/>
<path d="M0 0 C0.58910156 0.21269531 1.17820313 0.42539063 1.78515625 0.64453125 C-2.96484375 5.51953125 -2.96484375 5.51953125 -5.21484375 6.64453125 C-6.34834909 8.66122952 -6.34834909 8.66122952 -7.21484375 10.64453125 C-8.20484375 10.64453125 -9.19484375 10.64453125 -10.21484375 10.64453125 C-11.20484375 12.12953125 -11.20484375 12.12953125 -12.21484375 13.64453125 C-13.20484375 13.64453125 -14.19484375 13.64453125 -15.21484375 13.64453125 C-16.20484375 15.12953125 -16.20484375 15.12953125 -17.21484375 16.64453125 C-18.20484375 16.64453125 -19.19484375 16.64453125 -20.21484375 16.64453125 C-20.87484375 17.63453125 -21.53484375 18.62453125 -22.21484375 19.64453125 C-23.53484375 19.64453125 -24.85484375 19.64453125 -26.21484375 19.64453125 C-26.21484375 20.30453125 -26.21484375 20.96453125 -26.21484375 21.64453125 C-27.86484375 21.31453125 -29.51484375 20.98453125 -31.21484375 20.64453125 C-31.21484375 19.32453125 -31.21484375 18.00453125 -31.21484375 16.64453125 C-30.22484375 16.64453125 -29.23484375 16.64453125 -28.21484375 16.64453125 C-28.21484375 15.98453125 -28.21484375 15.32453125 -28.21484375 14.64453125 C-27.22484375 14.31453125 -26.23484375 13.98453125 -25.21484375 13.64453125 C-24.88484375 12.98453125 -24.55484375 12.32453125 -24.21484375 11.64453125 C-22.88151042 11.31119792 -21.54817708 10.97786458 -20.21484375 10.64453125 C-19.88484375 9.98453125 -19.55484375 9.32453125 -19.21484375 8.64453125 C-16.79482847 7.5689689 -14.34472927 6.68896577 -11.83984375 5.83203125 C-8.82123626 4.46647072 -6.5136032 2.66314465 -3.9609375 0.5703125 C-2.21484375 -0.35546875 -2.21484375 -0.35546875 0 0 Z " fill="#371E17" transform="translate(40.21484375,94.35546875)"/>
<path d="M0 0 C0 0.99 0 1.98 0 3 C2.64 3 5.28 3 8 3 C8 3.33 8 3.66 8 4 C7.05125 4.04125 6.1025 4.0825 5.125 4.125 C1.49647187 4.60978311 -0.93238061 6.0393503 -4 8 C-8.07972266 10.6040783 -11.11878339 11.60950267 -16 12 C-17.3479743 12.63654342 -18.68596724 13.29605388 -20 14 C-20.99 14 -21.98 14 -23 14 C-23 13.01 -23 12.02 -23 11 C-20.03 9.35 -17.06 7.7 -14 6 C-17.90432869 6 -20.38026598 6.68373308 -24 8 C-24.33 7.01 -24.66 6.02 -25 5 C-23.75579353 4.4654744 -22.50429064 3.94791389 -21.25 3.4375 C-20.55390625 3.14746094 -19.8578125 2.85742188 -19.140625 2.55859375 C-16.648815 1.90835866 -15.38732424 2.08218417 -13 3 C-12.34 3.66 -11.68 4.32 -11 5 C-10.54109375 4.6390625 -10.0821875 4.278125 -9.609375 3.90625 C-8.68898438 3.21015625 -8.68898438 3.21015625 -7.75 2.5 C-7.14671875 2.0359375 -6.5434375 1.571875 -5.921875 1.09375 C-4 0 -4 0 0 0 Z " fill="#190400" transform="translate(105,52)"/>
<path d="M0 0 C3.4375 0.9375 3.4375 0.9375 5.375 2.0625 C7.08300843 5.07663252 6.79954814 7.55838399 6.4375 10.9375 C5.4375 12.875 5.4375 12.875 3.4375 13.9375 C0.67855859 14.39732357 -1.80824069 14.44818558 -4.5625 13.9375 C-7.2548481 11.74996717 -7.50186827 10.35326045 -8 6.9375 C-7.5625 3.9375 -7.5625 3.9375 -6 1.5 C-3.5625 -0.0625 -3.5625 -0.0625 0 0 Z " fill="#2E0800" transform="translate(111.5625,71.0625)"/>
<path d="M0 0 C3.24010916 1.59877806 4.62936865 4.44760969 6.39453125 7.46484375 C6.76642578 8.06361328 7.13832031 8.66238281 7.52148438 9.27929688 C8.4481512 10.82029031 9.27369582 12.4211165 10.08203125 14.02734375 C9.75203125 14.68734375 9.42203125 15.34734375 9.08203125 16.02734375 C6.08203125 14.02734375 6.08203125 14.02734375 5.08203125 13.02734375 C5.45078369 13.64778564 5.81953613 14.26822754 6.19946289 14.9074707 C7.85842807 17.71214312 9.50160053 20.52575125 11.14453125 23.33984375 C11.72525391 24.31630859 12.30597656 25.29277344 12.90429688 26.29882812 C13.44892578 27.23662109 13.99355469 28.17441406 14.5546875 29.140625 C15.06265869 30.00469971 15.57062988 30.86877441 16.09399414 31.7590332 C17.08203125 34.02734375 17.08203125 34.02734375 16.08203125 37.02734375 C11.33079811 30.42197085 7.43954669 23.39441207 3.59814453 16.23681641 C3.18677246 15.47933105 2.77540039 14.7218457 2.3515625 13.94140625 C1.98651611 13.26029785 1.62146973 12.57918945 1.24536133 11.87744141 C0.02811206 9.94159357 -1.15406504 8.48399055 -2.91796875 7.02734375 C-4.97193601 7.43664361 -4.97193601 7.43664361 -6.91796875 8.02734375 C-7.57796875 7.36734375 -8.23796875 6.70734375 -8.91796875 6.02734375 C-8.25796875 6.02734375 -7.59796875 6.02734375 -6.91796875 6.02734375 C-6.64984375 5.40859375 -6.38171875 4.78984375 -6.10546875 4.15234375 C-4.62013414 1.49437656 -3.16640086 0.04514217 0 0 Z " fill="#3C3939" transform="translate(144.91796875,29.97265625)"/>
<path d="M0 0 C3 1 3 1 5 4 C5 4.99 5 5.98 5 7 C5.61206299 7.25885986 6.22412598 7.51771973 6.85473633 7.78442383 C10.4295454 9.81002692 11.760309 13.16648712 13.6875 16.6875 C14.09033203 17.38294922 14.49316406 18.07839844 14.90820312 18.79492188 C17.39793676 23.26142894 18.60540571 26.8970264 19 32 C19.66 32 20.32 32 21 32 C21 33.32 21 34.64 21 36 C17.14118896 34.71372965 16.77386308 33.38344865 14.78515625 29.8984375 C14.18123047 28.85042969 13.57730469 27.80242187 12.95507812 26.72265625 C12.33052734 25.61792969 11.70597656 24.51320312 11.0625 23.375 C10.44181641 22.29347656 9.82113281 21.21195313 9.18164062 20.09765625 C7.97952619 18.00067707 6.78349455 15.9001965 5.59423828 13.79589844 C4.63903087 12.12070161 3.66840907 10.4539503 2.66748047 8.80566406 C0.64218825 5.46495748 0 4.04311318 0 0 Z " fill="#D16010" transform="translate(5,111)"/>
<path d="M0 0 C-2.24447661 2.5811481 -3.7493136 3.1873284 -7 4 C-7.4345752 4.44802979 -7.86915039 4.89605957 -8.31689453 5.35766602 C-10.34721946 7.33880843 -12.42180619 8.45313619 -14.9296875 9.77734375 C-15.89003906 10.29103516 -16.85039063 10.80472656 -17.83984375 11.33398438 C-18.84144531 11.86314453 -19.84304687 12.39230469 -20.875 12.9375 C-29.31654621 17.38240501 -29.31654621 17.38240501 -37 23 C-37.99 23.33 -38.98 23.66 -40 24 C-40.66 24.66 -41.32 25.32 -42 26 C-42.26782227 23.68847656 -42.26782227 23.68847656 -42 21 C-40.21850586 19.38183594 -40.21850586 19.38183594 -37.71484375 17.984375 C-36.79823975 17.45924316 -35.88163574 16.93411133 -34.93725586 16.39306641 C-33.94733643 15.85085449 -32.95741699 15.30864258 -31.9375 14.75 C-29.9161176 13.60774194 -27.8952863 12.46450809 -25.875 11.3203125 C-24.37646484 10.48161621 -24.37646484 10.48161621 -22.84765625 9.62597656 C-20.31444685 8.17954527 -17.83807355 6.67910981 -15.375 5.1171875 C-14.70090088 4.69211914 -14.02680176 4.26705078 -13.33227539 3.82910156 C-12.1011285 3.04672603 -10.87592938 2.25488267 -9.65795898 1.45214844 C-6.07415407 -0.78647922 -4.04442478 -1.40086221 0 0 Z " fill="#A04A0E" transform="translate(111,57)"/>
<path d="M0 0 C0.495 1.485 0.495 1.485 1 3 C-2.39547447 4.9024672 -5.79106927 6.80471947 -9.18676758 8.70678711 C-10.89866143 9.66574368 -12.61046458 10.62486215 -14.32226562 11.58398438 C-20.54175406 15.06762746 -26.7650039 18.54418055 -33 22 C-32.67 20.68 -32.34 19.36 -32 18 C-31.01 18 -30.02 18 -29 18 C-28.91459961 17.39244873 -28.82919922 16.78489746 -28.74121094 16.15893555 C-27.77634137 13.34854636 -26.71903605 12.86530722 -24.140625 11.45703125 C-22.96113281 10.80637695 -22.96113281 10.80637695 -21.7578125 10.14257812 C-20.93023437 9.70365234 -20.10265625 9.26472656 -19.25 8.8125 C-18.43789062 8.36197266 -17.62578125 7.91144531 -16.7890625 7.44726562 C-10.6759717 4.12688162 -10.6759717 4.12688162 -7.28808594 3.4909668 C-6.53301758 3.32894775 -5.77794922 3.16692871 -5 3 C-4.67 2.34 -4.34 1.68 -4 1 C-1.9375 0.375 -1.9375 0.375 0 0 Z " fill="#0C0403" transform="translate(132,85)"/>
<path d="M0 0 C0.103125 1.11375 0.20625 2.2275 0.3125 3.375 C0.6528125 5.169375 0.6528125 5.169375 1 7 C1.99 7.66 2.98 8.32 4 9 C4.6875 12.625 4.6875 12.625 5 16 C2.35261084 17.4606285 1.10551666 18 -2 18 C-2.2475 17.360625 -2.495 16.72125 -2.75 16.0625 C-4.13913677 12.65911491 -5.65788809 9.32684886 -7.1953125 5.98828125 C-8 4 -8 4 -8 2 C-5.09399739 0.74335022 -3.20395416 0 0 0 Z " fill="#E16006" transform="translate(103,75)"/>
<path d="M0 0 C0.99 0.33 1.98 0.66 3 1 C3 1.99 3 2.98 3 4 C3.7645752 4.24314941 4.52915039 4.48629883 5.31689453 4.73681641 C8.41332865 6.19459167 9.23415194 7.28881794 10.9296875 10.2109375 C11.414375 11.04367188 11.8990625 11.87640625 12.3984375 12.734375 C12.88570312 13.60578125 13.37296875 14.4771875 13.875 15.375 C14.38546875 16.23867188 14.8959375 17.10234375 15.421875 17.9921875 C19.05380845 24.35297905 19.05380845 24.35297905 18.82080078 27.15478516 C18 29 18 29 15 31 C12.3125 31.125 12.3125 31.125 10 31 C10.33 30.34 10.66 29.68 11 29 C11.99 29 12.98 29 14 29 C12.03495219 22.03559301 9.04519655 16.17460254 5.3125 10 C4.30693354 8.31348878 3.30293467 6.62604154 2.30078125 4.9375 C1.85903564 4.20402344 1.41729004 3.47054687 0.9621582 2.71484375 C0 1 0 1 0 0 Z " fill="#302522" transform="translate(148,40)"/>
<path d="M0 0 C1.1875 2.5625 1.1875 2.5625 2 5 C-0.26404542 6.36680153 -2.53501021 7.71844445 -4.8125 9.0625 C-5.45509766 9.45244141 -6.09769531 9.84238281 -6.75976562 10.24414062 C-8.4628915 11.24130759 -10.22945858 12.12812687 -12 13 C-12.99 12.67 -13.98 12.34 -15 12 C-16.1875 9.4375 -16.1875 9.4375 -17 7 C-14.73595458 5.63319847 -12.46498979 4.28155555 -10.1875 2.9375 C-9.54490234 2.54755859 -8.90230469 2.15761719 -8.24023438 1.75585938 C-3.33984375 -1.11328125 -3.33984375 -1.11328125 0 0 Z " fill="#B2540F" transform="translate(129,32)"/>
<path d="M0 0 C2.3125 1.0625 2.3125 1.0625 4 2 C4 2.66 4 3.32 4 4 C3.01 4 2.02 4 1 4 C0.67 4.99 0.34 5.98 0 7 C-0.99 6.01 -1.98 5.02 -3 4 C-0.72013426 9.3576845 1.62517344 14.68376389 4 20 C3.34 20 2.68 20 2 20 C2.33 21.32 2.66 22.64 3 24 C-0.14777813 21.2506748 -2.1475858 17.80908689 -4.25 14.25 C-4.62640625 13.65445313 -5.0028125 13.05890625 -5.390625 12.4453125 C-7.38202887 9.06285446 -8.00236555 7.06544685 -7.859375 3.109375 C-7.57578125 2.08328125 -7.2921875 1.0571875 -7 0 C-4.27761216 -1.36119392 -2.90677521 -0.76129827 0 0 Z " fill="#3A2D28" transform="translate(8,107)"/>
<path d="M0 0 C0.80050781 0.22042969 1.60101563 0.44085938 2.42578125 0.66796875 C3.63814453 0.98701172 3.63814453 0.98701172 4.875 1.3125 C5.79732422 1.58126953 5.79732422 1.58126953 6.73828125 1.85546875 C5.36328125 3.35546875 5.36328125 3.35546875 3.73828125 4.85546875 C3.07828125 4.85546875 2.41828125 4.85546875 1.73828125 4.85546875 C1.39796875 5.72171875 1.39796875 5.72171875 1.05078125 6.60546875 C-2.18731046 12.15648311 -8.35789326 14.86992458 -14.26171875 16.85546875 C-15.58171875 16.85546875 -16.90171875 16.85546875 -18.26171875 16.85546875 C-18.26171875 16.19546875 -18.26171875 15.53546875 -18.26171875 14.85546875 C-19.25171875 14.52546875 -20.24171875 14.19546875 -21.26171875 13.85546875 C-20.64296875 13.58734375 -20.02421875 13.31921875 -19.38671875 13.04296875 C-16.96219545 11.89990027 -16.96219545 11.89990027 -15.26171875 8.85546875 C-14.60171875 8.85546875 -13.94171875 8.85546875 -13.26171875 8.85546875 C-13.26171875 9.51546875 -13.26171875 10.17546875 -13.26171875 10.85546875 C-9.31295777 10.29136004 -6.50537699 9.19811081 -3.26171875 6.85546875 C-2.93171875 5.86546875 -2.60171875 4.87546875 -2.26171875 3.85546875 C-3.25171875 3.52546875 -4.24171875 3.19546875 -5.26171875 2.85546875 C-2.89519796 -0.18501265 -2.89519796 -0.18501265 0 0 Z " fill="#1F0701" transform="translate(133.26171875,36.14453125)"/>
<path d="M0 0 C0 0.99 0 1.98 0 3 C-1.6960698 4.6960698 -3.88606129 4.16911822 -6.20703125 4.2109375 C-7.7993457 4.25347656 -7.7993457 4.25347656 -9.42382812 4.296875 C-11.67106281 4.34868445 -13.91848262 4.39303583 -16.16601562 4.4296875 C-17.76413086 4.47609375 -17.76413086 4.47609375 -19.39453125 4.5234375 C-20.86176636 4.5531665 -20.86176636 4.5531665 -22.35864258 4.58349609 C-25.37495377 5.05912479 -26.68337853 6.08079592 -29 8 C-29.66 8 -30.32 8 -31 8 C-30.65693498 5.51277859 -30.18161626 4.20431829 -28.5 2.3125 C-20.52088152 -1.8765372 -8.82204435 -0.09115775 0 0 Z " fill="#19191A" transform="translate(164,79)"/>
<path d="M0 0 C3.82957919 1.2765264 4.15931982 2.52093188 6.1015625 5.98828125 C6.67390625 7.00470703 7.24625 8.02113281 7.8359375 9.06835938 C8.42632812 10.13892578 9.01671875 11.20949219 9.625 12.3125 C10.223125 13.37146484 10.82125 14.43042969 11.4375 15.52148438 C16.25134112 24.14174511 16.25134112 24.14174511 17 28 C15.21801758 27.84350586 15.21801758 27.84350586 13 27 C11.24487305 24.62329102 11.24487305 24.62329102 9.51171875 21.50390625 C8.88845703 20.38822266 8.26519531 19.27253906 7.62304688 18.12304688 C7.30585693 17.539021 6.98866699 16.95499512 6.66186523 16.35327148 C5.68833876 14.56404155 4.69273625 12.78856717 3.69335938 11.01367188 C0.14196755 4.58257258 0.14196755 4.58257258 -1 2 C-0.67 1.34 -0.34 0.68 0 0 Z " fill="#793C11" transform="translate(45,94)"/>
<path d="M0 0 C3.69468402 4.75791737 6.6275505 9.94662393 9.6875 15.125 C10.29400391 16.13949219 10.90050781 17.15398437 11.52539062 18.19921875 C12.09837891 19.16730469 12.67136719 20.13539062 13.26171875 21.1328125 C13.78725342 22.01855957 14.31278809 22.90430664 14.85424805 23.81689453 C16 26 16 26 16 28 C17.32 27.67 18.64 27.34 20 27 C19.67 27.66 19.34 28.32 19 29 C17.68 29 16.36 29 15 29 C15 28.34 15 27.68 15 27 C14.10438354 26.89220215 14.10438354 26.89220215 13.19067383 26.78222656 C8.70669995 25.18112857 6.90466849 19.71092023 4.6875 15.75 C4.12482422 14.79480469 3.56214844 13.83960937 2.98242188 12.85546875 C2.45583984 11.92863281 1.92925781 11.00179687 1.38671875 10.046875 C0.90420654 9.19963867 0.42169434 8.35240234 -0.07543945 7.47949219 C-1.1700069 4.54407445 -0.88030791 2.96239006 0 0 Z " fill="#1D0600" transform="translate(53,89)"/>
<path d="M0 0 C3.10618756 2.54142619 3.8283365 5.24048843 5 9 C2.2973346 10.63456771 -0.41306423 12.2558673 -3.125 13.875 C-3.88554687 14.33519531 -4.64609375 14.79539062 -5.4296875 15.26953125 C-9.53543017 17.71174025 -13.35908849 19.71003418 -18 21 C-18.33 20.01 -18.66 19.02 -19 18 C-18.32195312 17.63648437 -17.64390625 17.27296875 -16.9453125 16.8984375 C-10.52423435 13.42998809 -4.22539739 9.80816066 2 6 C1.34 4.02 0.68 2.04 0 0 Z " fill="#BB4E01" transform="translate(152,59)"/>
<path d="M0 0 C0 0.66 0 1.32 0 2 C-1.34964844 2.74830078 -1.34964844 2.74830078 -2.7265625 3.51171875 C-14.60826952 10.13237923 -26.31137458 17.04533253 -38 24 C-38.66 23.34 -39.32 22.68 -40 22 C-30.73608854 16.23220817 -21.3880205 10.61750725 -11.95019531 5.13867188 C-10.64127712 4.3744262 -9.33854317 3.59949696 -8.04199219 2.81445312 C-3.32568102 0 -3.32568102 0 0 0 Z " fill="#913700" transform="translate(124,82)"/>
<path d="M0 0 C5 5 5 5 7.125 7.25 C8.97977175 9.22443723 8.97977175 9.22443723 12 10 C12.33 10.99 12.66 11.98 13 13 C10 15 10 15 6.625 15.9375 C3.02564466 16.81397014 3.02564466 16.81397014 0.3125 18.6875 C-2 20 -2 20 -4.14453125 19.58203125 C-4.75683594 19.38996094 -5.36914062 19.19789062 -6 19 C-4.8803014 17.99406757 -3.7540588 16.9954151 -2.625 16 C-1.99851562 15.443125 -1.37203125 14.88625 -0.7265625 14.3125 C1 13 1 13 3 13 C4.2236068 10.9254644 4.2236068 10.9254644 4 8 C2.68568305 5.98745218 1.35278115 3.98689731 0 2 C0 1.34 0 0.68 0 0 Z " fill="#251D1B" transform="translate(74,101)"/>
<path d="M0 0 C3.1920805 3.99010063 5.563675 8.41893478 8.0390625 12.8671875 C9.49679695 15.45995182 10.95330802 17.93829988 12.75 20.3125 C14 22 14 22 14 24 C13.34 24 12.68 24 12 24 C11.67 24.66 11.34 25.32 11 26 C4.07 14.12 4.07 14.12 -3 2 C-2.01 1.34 -1.02 0.68 0 0 Z " fill="#180500" transform="translate(49,92)"/>
<path d="M0 0 C0.66 1.32 1.32 2.64 2 4 C-0.79042625 7.28834617 -4.47328176 9.12735689 -8.1875 11.1875 C-8.84169922 11.55552734 -9.49589844 11.92355469 -10.16992188 12.30273438 C-11.77746961 13.2062466 -13.38840651 14.1037241 -15 15 C-12.11604263 15 -9.70522185 13.94094673 -7 13 C-11.74110429 17.96687117 -11.74110429 17.96687117 -15.375 18.0625 C-19.27504143 16.4839118 -20.85145578 13.50166994 -23 10 C-20 10 -20 10 -17 10.9375 C-11.93028309 11.78426214 -8.30160534 8.34775218 -4.35546875 5.56640625 C-2 4 -2 4 0 4 C0 2.68 0 1.36 0 0 Z " fill="#C65E13" transform="translate(100,89)"/>
<path d="M0 0 C0.99 0 1.98 0 3 0 C4.90877584 2.58246143 6.56377246 5.12754491 8 8 C7.34 8 6.68 8 6 8 C5.67 8.66 5.34 9.32 5 10 C4.34 9.34 3.68 8.68 3 8 C4.65 10.97 6.3 13.94 8 17 C6.02 17.99 6.02 17.99 4 19 C3.566875 17.948125 3.13375 16.89625 2.6875 15.8125 C1.68434768 13.45270359 0.64056505 11.40094175 -0.6875 9.1875 C-2 7 -2 7 -2 5 C-1.34 5 -0.68 5 0 5 C0 3.35 0 1.7 0 0 Z " fill="#2E0D04" transform="translate(72,95)"/>
<path d="M0 0 C0.99 0 1.98 0 3 0 C4.859375 2.44921875 4.859375 2.44921875 6.75 5.6875 C7.38421875 6.74324219 8.0184375 7.79898438 8.671875 8.88671875 C10.14768156 12.34618295 9.88793772 13.47824701 9 17 C9.66 17.99 10.32 18.98 11 20 C11 20.99 11 21.98 11 23 C10.01 23.33 9.02 23.66 8 24 C7.63648438 22.74896484 7.63648438 22.74896484 7.265625 21.47265625 C5.44044158 15.34425191 3.51484954 9.47116886 0.734375 3.70703125 C0 2 0 2 0 0 Z " fill="#2A0D06" transform="translate(121,61)"/>
<path d="M0 0 C1.8125 0.1875 1.8125 0.1875 4 1 C7 5.17857143 7 5.17857143 7 8 C6.34 8 5.68 8 5 8 C5.66 9.98 6.32 11.96 7 14 C5.68 14.33 4.36 14.66 3 15 C2.443125 14.13375 1.88625 13.2675 1.3125 12.375 C-0.90252798 9.04054927 -3.39604933 6.03794244 -6 3 C-4.3125 2.1875 -4.3125 2.1875 -2 2 C0.75 4.4375 0.75 4.4375 3 7 C2.505 6.21625 2.01 5.4325 1.5 4.625 C0 2 0 2 0 0 Z " fill="#2F0F07" transform="translate(116,53)"/>
<path d="M0 0 C3.99360692 1.33120231 4.45743665 2.9970931 6.5390625 6.609375 C6.86538666 7.17319885 7.19171082 7.73702271 7.52792358 8.31793213 C8.21637936 9.51248714 8.90032414 10.70965163 9.58007812 11.90917969 C10.61689235 13.7357169 11.6704401 15.55176142 12.7265625 17.3671875 C13.39425791 18.53066023 14.06095724 19.69470527 14.7265625 20.859375 C15.33064941 21.91608398 15.93473633 22.97279297 16.55712891 24.06152344 C17.89332837 26.78275809 18.58332097 29.01506298 19 32 C15.94364278 29.16431989 13.87268885 26.38453918 11.8359375 22.75390625 C11.27132812 21.75166016 10.70671875 20.74941406 10.125 19.71679688 C9.5475 18.67587891 8.97 17.63496094 8.375 16.5625 C7.78976563 15.52544922 7.20453125 14.48839844 6.6015625 13.41992188 C4.13278504 9.01179515 1.79109252 4.73299135 0 0 Z " fill="#AE5D26" transform="translate(143,35)"/>
<path d="M0 0 C0.804375 0.185625 1.60875 0.37125 2.4375 0.5625 C3.283125 0.706875 4.12875 0.85125 5 1 C5.33 0.67 5.66 0.34 6 0 C7.99958364 -0.04080783 10.00045254 -0.04254356 12 0 C11.0409375 0.1546875 11.0409375 0.1546875 10.0625 0.3125 C9.381875 0.539375 8.70125 0.76625 8 1 C7.67 1.99 7.34 2.98 7 4 C6.01 4 5.02 4 4 4 C3.01 5.485 3.01 5.485 2 7 C1.34 7 0.68 7 0 7 C-0.66 8.98 -1.32 10.96 -2 13 C-2.66 12.67 -3.32 12.34 -4 12 C-4.4140625 9.71484375 -4.4140625 9.71484375 -4.625 6.9375 C-4.69976563 6.01839844 -4.77453125 5.09929687 -4.8515625 4.15234375 C-4.90054687 3.44207031 -4.94953125 2.73179687 -5 2 C-3.35 2 -1.7 2 0 2 C0 1.34 0 0.68 0 0 Z " fill="#21110E" transform="translate(30,137)"/>
<path d="M0 0 C3.98032506 6.27202737 3.98032506 6.27202737 4.0625 9.3125 C2.52815779 11.74939646 0.68464625 12.173955 -2 13 C-2.33 12.34 -2.66 11.68 -3 11 C-2.67 10.34 -2.34 9.68 -2 9 C-2.99 9 -3.98 9 -5 9 C-4.34 7.68 -3.68 6.36 -3 5 C-2.34 5 -1.68 5 -1 5 C-1 4.34 -1 3.68 -1 3 C-2.98 3.66 -4.96 4.32 -7 5 C-5.64703851 0.94111554 -4.27479763 0 0 0 Z " fill="#AB490B" transform="translate(47,106)"/>
<path d="M0 0 C1.25 2.5625 1.25 2.5625 2 5 C-5.2 11 -5.2 11 -10 11 C-10 10.01 -10 9.02 -10 8 C-7.03 6.35 -4.06 4.7 -1 3 C-4.90432869 3 -7.38026598 3.68373308 -11 5 C-11.33 4.01 -11.66 3.02 -12 2 C-10.75579353 1.4654744 -9.50429064 0.94791389 -8.25 0.4375 C-7.55390625 0.14746094 -6.8578125 -0.14257812 -6.140625 -0.44140625 C-3.65140859 -1.09096455 -2.36762827 -0.97970825 0 0 Z " fill="#483F39" transform="translate(92,55)"/>
<path d="M0 0 C0.556875 0.226875 1.11375 0.45375 1.6875 0.6875 C-3.0625 5.5625 -3.0625 5.5625 -5.3125 6.6875 C-6.44600534 8.70419827 -6.44600534 8.70419827 -7.3125 10.6875 C-8.3025 10.6875 -9.2925 10.6875 -10.3125 10.6875 C-11.3025 12.1725 -11.3025 12.1725 -12.3125 13.6875 C-13.3025 13.3575 -14.2925 13.0275 -15.3125 12.6875 C-14.5625 10.25 -14.5625 10.25 -13.3125 7.6875 C-11.98946283 7.3153958 -10.65512065 6.98119827 -9.3125 6.6875 C-9.003125 6.06875 -8.69375 5.45 -8.375 4.8125 C-6.63416633 1.33083265 -3.92113737 -0.52988343 0 0 Z " fill="#271E1C" transform="translate(40.3125,94.3125)"/>
<path d="M0 0 C6.8172251 5.99089479 12.20967143 14.04835715 14 23 C13.34 23 12.68 23 12 23 C12 22.34 12 21.68 12 21 C11.34 21 10.68 21 10 21 C8.32296194 18.06830554 6.66020482 15.12875476 5 12.1875 C4.28457031 10.93743164 4.28457031 10.93743164 3.5546875 9.66210938 C3.10351562 8.85966797 2.65234375 8.05722656 2.1875 7.23046875 C1.76855469 6.49207764 1.34960938 5.75368652 0.91796875 4.99291992 C0 3 0 3 0 0 Z " fill="#DA6009" transform="translate(30,106)"/>
<path d="M0 0 C3.26737303 3.26737303 3.95672896 6.83168198 4.125 11.375 C4.08375 12.24125 4.0425 13.1075 4 14 C2 11 2 11 2 9 C1.21625 9.391875 0.4325 9.78375 -0.375 10.1875 C-4.91666667 12.45833333 -9.45833333 14.72916667 -14 17 C-14.33 15.35 -14.66 13.7 -15 12 C-13.72125 11.87625 -12.4425 11.7525 -11.125 11.625 C-7.65209064 11.30957601 -7.65209064 11.30957601 -5 9 C-4.75787127 7.01871492 -4.75787127 7.01871492 -4.875 4.875 C-4.91625 3.59625 -4.9575 2.3175 -5 1 C-4.34 1 -3.68 1 -3 1 C-3 3.31 -3 5.62 -3 8 C-1.68 8 -0.36 8 1 8 C0.67 5.36 0.34 2.72 0 0 Z " fill="#C05E16" transform="translate(122,73)"/>
<path d="M0 0 C3.20761934 1.34519879 4.64855214 2.51524984 6.32421875 5.5546875 C6.90719727 6.60076172 6.90719727 6.60076172 7.50195312 7.66796875 C7.89318359 8.39628906 8.28441406 9.12460938 8.6875 9.875 C9.09033203 10.59558594 9.49316406 11.31617187 9.90820312 12.05859375 C11.7266362 15.36649713 13.1998822 18.28807086 14 22 C10.14124767 20.75968675 8.9066695 18.4829419 7.078125 15 C5.93172027 12.87333616 4.64169589 10.891711 3.3125 8.875 C1.45013309 5.93863008 0.33041986 3.52447856 0 0 Z " fill="#DC6006" transform="translate(20,112)"/>
<path d="M0 0 C0.66 0 1.32 0 2 0 C3.39117946 1.97535438 4.64592836 3.92665156 5.875 6 C6.40963867 6.88715698 6.40963867 6.88715698 6.95507812 7.79223633 C14 19.59441235 14 19.59441235 14 23 C9.57559546 21.52189176 7.99388563 18.18369599 5.875 14.3125 C5.52824219 13.71244141 5.18148438 13.11238281 4.82421875 12.49414062 C2.53923275 8.41881119 1.12883545 4.53279801 0 0 Z " fill="#DB600A" transform="translate(25,109)"/>
<path d="M0 0 C3.625 -0.1875 3.625 -0.1875 7 0 C6.34 1.32 5.68 2.64 5 4 C3.68 3.67 2.36 3.34 1 3 C0.01 4.485 0.01 4.485 -1 6 C-1.99 6 -2.98 6 -4 6 C-4 7.32 -4 8.64 -4 10 C-5.98 10 -7.96 10 -10 10 C-10.33 10.66 -10.66 11.32 -11 12 C-13.475 11.01 -13.475 11.01 -16 10 C-16 9.67 -16 9.34 -16 9 C-14.35 9 -12.7 9 -11 9 C-11 8.01 -11 7.02 -11 6 C-9.68 6 -8.36 6 -7 6 C-6.34 5.01 -5.68 4.02 -5 3 C-4.01 3 -3.02 3 -2 3 C-1.34 2.01 -0.68 1.02 0 0 Z " fill="#1A0300" transform="translate(46,127)"/>
<path d="M0 0 C3.96335386 1.47771599 5.11880589 3.48134312 7 7.1875 C7.50789063 8.16976562 8.01578125 9.15203125 8.5390625 10.1640625 C9.02117188 11.09992188 9.50328125 12.03578125 10 13 C10.78289384 14.35925741 11.57298684 15.71443533 12.375 17.0625 C14 20 14 20 14 22 C9.69580141 20.5137969 8.04729326 17.37489027 5.875 13.625 C5.52824219 13.0475 5.18148438 12.47 4.82421875 11.875 C0 3.77918463 0 3.77918463 0 0 Z " fill="#DC6008" transform="translate(15,115)"/>
<path d="M0 0 C0.55171875 0.38929687 1.1034375 0.77859375 1.671875 1.1796875 C1.609375 2.9296875 1.609375 2.9296875 0.671875 5.1796875 C-2.25210111 7.52656306 -4.96176545 9.31982694 -8.765625 8.9296875 C-9.28125 8.6821875 -9.796875 8.4346875 -10.328125 8.1796875 C-9.998125 7.5196875 -9.668125 6.8596875 -9.328125 6.1796875 C-10.318125 5.8496875 -11.308125 5.5196875 -12.328125 5.1796875 C-10.75765757 4.11872287 -9.17117983 3.08142515 -7.578125 2.0546875 C-6.69640625 1.47460938 -5.8146875 0.89453125 -4.90625 0.296875 C-2.328125 -0.8203125 -2.328125 -0.8203125 0 0 Z " fill="#280800" transform="translate(129.328125,38.8203125)"/>
<path d="M0 0 C0.99 0 1.98 0 3 0 C5 3 5 3 5 6 C5.99 6.33 6.98 6.66 8 7 C8.33 9.64 8.66 12.28 9 15 C7.68 15 6.36 15 5 15 C5 12.69 5 10.38 5 8 C4.401875 7.896875 3.80375 7.79375 3.1875 7.6875 C0.68741714 6.90175967 -0.37535082 6.03081147 -2 4 C-2 3.34 -2 2.68 -2 2 C-1.34 2 -0.68 2 0 2 C0 1.34 0 0.68 0 0 Z " fill="#E06006" transform="translate(114,66)"/>
<path d="M0 0 C0.99 0.33 1.98 0.66 3 1 C0.64639882 2.41761307 -1.70786228 3.8341104 -4.0625 5.25 C-4.71927734 5.64574219 -5.37605469 6.04148437 -6.05273438 6.44921875 C-9.30233619 8.40218142 -12.56161408 10.32192992 -15.87109375 12.171875 C-18.97995164 13.8107397 -18.97995164 13.8107397 -21 16 C-21.28125 13.6953125 -21.28125 13.6953125 -21 11 C-19.09375 9.3046875 -19.09375 9.3046875 -16.5 7.875 C-15.59121094 7.37226562 -14.68242188 6.86953125 -13.74609375 6.3515625 C-10.22906322 4.62056312 -6.69754422 3.29738394 -3 2 C-2.01 1.34 -1.02 0.68 0 0 Z " fill="#AB4B08" transform="translate(90,67)"/>
<path d="M0 0 C0.45890625 0.92941406 0.9178125 1.85882813 1.390625 2.81640625 C4.44206283 8.9724805 7.48347376 15.09223592 11 21 C9.68 21.33 8.36 21.66 7 22 C6.54109375 21.07058594 6.0821875 20.14117187 5.609375 19.18359375 C2.55793717 13.0275195 -0.48347376 6.90776408 -4 1 C-2 0 -2 0 0 0 Z " fill="#BB4A00" transform="translate(26,111)"/>
<path d="M0 0 C1.32 0.66 2.64 1.32 4 2 C2.48065294 5.03869411 0.01995228 5.64410306 -3 7 C-3.66 7 -4.32 7 -5 7 C-5.66 8.65 -6.32 10.3 -7 12 C-8.32 11.67 -9.64 11.34 -11 11 C-10.34 10.67 -9.68 10.34 -9 10 C-9.33 8.02 -9.66 6.04 -10 4 C-9.34 4 -8.68 4 -8 4 C-8 3.34 -8 2.68 -8 2 C-7.13375 2.2784375 -7.13375 2.2784375 -6.25 2.5625 C-3.79307475 3.04023546 -2.35602466 2.75729364 0 2 C0 1.34 0 0.68 0 0 Z " fill="#2F2725" transform="translate(87,56)"/>
<path d="M0 0 C0.66 0.33 1.32 0.66 2 1 C1.62746094 1.58007812 1.25492188 2.16015625 0.87109375 2.7578125 C-2.26399184 7.78757707 -2.26399184 7.78757707 -2.8125 13.5625 C-2.544375 14.366875 -2.27625 15.17125 -2 16 C-5.28465896 13.20803989 -7.01321958 9.76803183 -9 6 C-9 5.34 -9 4.68 -9 4 C-7.54618103 3.30300448 -6.08677047 2.61766134 -4.625 1.9375 C-3.40683594 1.36322266 -3.40683594 1.36322266 -2.1640625 0.77734375 C-1.44992188 0.52082031 -0.73578125 0.26429687 0 0 Z " fill="#CE5D0A" transform="translate(128,48)"/>
<path d="M0 0 C2.33944736 0.28730055 4.6739143 0.61936779 7 1 C7.125 3.875 7.125 3.875 7 7 C6.34 7.66 5.68 8.32 5 9 C0.44444444 8.44444444 0.44444444 8.44444444 -1 7 C-1.125 4 -1.125 4 -1 1 C-0.67 0.67 -0.34 0.34 0 0 Z " fill="#8B3D0F" transform="translate(108,74)"/>
<path d="M0 0 C2.83353895 1.41676947 3.40976097 3.33876826 4.875 6.125 C5.4009375 7.11371094 5.926875 8.10242188 6.46875 9.12109375 C6.9740625 10.07113281 7.479375 11.02117187 8 12 C9.3146678 14.34475811 10.6551445 16.67236548 12 19 C10.68 19.99 9.36 20.98 8 22 C7.76925781 21.3709375 7.53851563 20.741875 7.30078125 20.09375 C5.30813009 14.86402522 3.14725171 10.32612406 -0.14453125 5.7890625 C-1 4 -1 4 -0.63671875 1.7734375 C-0.42660156 1.18820313 -0.21648438 0.60296875 0 0 Z " fill="#BB4B00" transform="translate(15,118)"/>
<path d="M0 0 C1.32 0 2.64 0 4 0 C4 0.66 4 1.32 4 2 C1.45325297 3.99600826 -1.40295093 5.54591384 -4.1875 7.1875 C-4.95642578 7.66380859 -5.72535156 8.14011719 -6.51757812 8.63085938 C-12.27737927 12.04718778 -12.27737927 12.04718778 -16.05078125 11.80078125 C-17.01564453 11.40439453 -17.01564453 11.40439453 -18 11 C-15.26801758 8.88271363 -12.50256954 7.02458161 -9.5 5.3125 C-8.7471875 4.87550781 -7.994375 4.43851562 -7.21875 3.98828125 C-5 3 -5 3 -1 3 C-0.67 2.01 -0.34 1.02 0 0 Z " fill="#A1490B" transform="translate(102,97)"/>
<path d="M0 0 C1.06063601 3.18190802 2.10405998 6.3676003 3.125 9.5625 C3.49882813 10.71878906 3.87265625 11.87507813 4.2578125 13.06640625 C5 16 5 16 4 18 C3.64808594 17.278125 3.29617187 16.55625 2.93359375 15.8125 C1.44114123 13.00684514 0.00013325 10.47304979 -2 8 C-5.75789481 7.16212879 -5.75789481 7.16212879 -9 8 C-8.360625 7.7525 -7.72125 7.505 -7.0625 7.25 C-4.80364886 6.21186805 -4.80364886 6.21186805 -4.5 4 C-4 2 -4 2 -1.9375 0.75 C-1.298125 0.5025 -0.65875 0.255 0 0 Z " fill="#37302E" transform="translate(65,76)"/>
<path d="M0 0 C0.33 0.66 0.66 1.32 1 2 C4.39132451 2.84172822 4.39132451 2.84172822 8 3 C8.99 2.34 9.98 1.68 11 1 C13.1875 1.375 13.1875 1.375 15 2 C15 2.66 15 3.32 15 4 C11.00930209 6.22736628 8.50220609 7 4 7 C3.01 8.485 3.01 8.485 2 10 C0.68 10 -0.64 10 -2 10 C-2 9.34 -2 8.68 -2 8 C-0.68 8 0.64 8 2 8 C1.67 7.4225 1.34 6.845 1 6.25 C0 4 0 4 0 0 Z " fill="#A84908" transform="translate(42,121)"/>
<path d="M0 0 C0.33 0.99 0.66 1.98 1 3 C-5.93 6.96 -12.86 10.92 -20 15 C-20.66 14.01 -21.32 13.02 -22 12 C-20.68 12 -19.36 12 -18 12 C-18 11.34 -18 10.68 -18 10 C-17.45730469 9.74605469 -16.91460937 9.49210937 -16.35546875 9.23046875 C-15.64003906 8.88628906 -14.92460938 8.54210937 -14.1875 8.1875 C-13.47980469 7.85105469 -12.77210937 7.51460938 -12.04296875 7.16796875 C-9.94242539 6.08586675 -9.94242539 6.08586675 -8.36328125 4.36328125 C-7.91339844 3.91339844 -7.46351562 3.46351562 -7 3 C-6.34 3 -5.68 3 -5 3 C-4.67 2.34 -4.34 1.68 -4 1 C-1.9375 0.375 -1.9375 0.375 0 0 Z " fill="#060405" transform="translate(132,85)"/>
<path d="M0 0 C0.66 0.33 1.32 0.66 2 1 C2 1.66 2 2.32 2 3 C0.34467377 4.01866229 -1.32260138 5.01810813 -3 6 C-3.33 6.66 -3.66 7.32 -4 8 C-2.02 7.34 -0.04 6.68 2 6 C2 8 2 8 0 10.125 C-0.66 10.74375 -1.32 11.3625 -2 12 C-1.01 12 -0.02 12 1 12 C0.67 13.65 0.34 15.3 0 17 C-3.33511388 14.0098979 -5.21521119 11.10501426 -7 7 C-7 6.34 -7 5.68 -7 5 C-6.01 5 -5.02 5 -4 5 C-4 4.34 -4 3.68 -4 3 C-2.68 2.67 -1.36 2.34 0 2 C0 1.34 0 0.68 0 0 Z " fill="#D4610F" transform="translate(44,103)"/>
<path d="M0 0 C0.66 0 1.32 0 2 0 C4.1536528 3.74556079 6.29654726 7.49716766 8.4375 11.25 C9.04916016 12.31347656 9.66082031 13.37695312 10.29101562 14.47265625 C10.87431641 15.49746094 11.45761719 16.52226563 12.05859375 17.578125 C12.86768188 18.99206543 12.86768188 18.99206543 13.69311523 20.43457031 C14.83208229 22.67037563 15.53372922 24.55018811 16 27 C15.34 27 14.68 27 14 27 C13.46375 25.88625 12.9275 24.7725 12.375 23.625 C9.85781212 18.58169805 6.92677656 13.81274756 4 9 C0 2.33742331 0 2.33742331 0 0 Z " fill="#432510" transform="translate(50,92)"/>
<path d="M0 0 C3.17951413 1.58975706 4.1148931 4.79953838 5.625 7.875 C5.94984375 8.51308594 6.2746875 9.15117188 6.609375 9.80859375 C8.05782082 12.7237431 9 14.70246267 9 18 C4.98630031 16.6621001 4.37584435 14.85163712 2.25 11.25 C1.61578125 10.20328125 0.9815625 9.1565625 0.328125 8.078125 C-1.11350928 4.73692556 -1.13056905 3.39170716 0 0 Z " fill="#200500" transform="translate(43,94)"/>
<path d="M0 0 C2.55078125 0.87890625 2.55078125 0.87890625 4.1328125 3.1640625 C4.53886719 4.08058594 4.94492188 4.99710938 5.36328125 5.94140625 C5.78222656 6.86050781 6.20117188 7.77960937 6.6328125 8.7265625 C6.93574219 9.43683594 7.23867187 10.14710937 7.55078125 10.87890625 C4.34271676 10.29441417 3.75555659 10.16135499 1.73828125 7.37890625 C-0.32923539 4.51486999 -0.32923539 4.51486999 -4.19921875 4.06640625 C-5.27171875 4.00453125 -6.34421875 3.94265625 -7.44921875 3.87890625 C-3.57012188 -0.1765132 -3.57012188 -0.1765132 0 0 Z " fill="#2C2320" transform="translate(128.44921875,27.12109375)"/>
<path d="M0 0 C-2.37417093 2.62408366 -4.84911879 4.38613402 -8 6 C-9.32 6 -10.64 6 -12 6 C-12.33 6.99 -12.66 7.98 -13 9 C-14.32 9 -15.64 9 -17 9 C-17.33 9.66 -17.66 10.32 -18 11 C-18 9.68 -18 8.36 -18 7 C-17.01 6.67 -16.02 6.34 -15 6 C-14.34 5.01 -13.68 4.02 -13 3 C-11.68 3.66 -10.36 4.32 -9 5 C-8.71125 4.195625 -8.4225 3.39125 -8.125 2.5625 C-6.19149032 -1.84160538 -4.20681292 -0.99635043 0 0 Z " fill="#4B4645" transform="translate(60,126)"/>
<path d="M0 0 C0.8638129 1.45264038 1.71580454 2.9123163 2.5625 4.375 C3.27599609 5.59316406 3.27599609 5.59316406 4.00390625 6.8359375 C4.33261719 7.55007812 4.66132812 8.26421875 5 9 C4.67 9.66 4.34 10.32 4 11 C3.360625 10.030625 2.72125 9.06125 2.0625 8.0625 C-0.32554048 5.12921328 -2.07390426 4.50829452 -5.8125 4.125 C-7.20728577 4.05673969 -8.60355817 4.00608471 -10 4 C-9.67 3.01 -9.34 2.02 -9 1 C-6.04335481 -0.4783226 -3.25770263 -0.06032783 0 0 Z " fill="#201615" transform="translate(115,51)"/>
<path d="M0 0 C2.91227269 3.28804981 4.49701212 5.59885603 5 10 C2.64031256 12.09749995 1.45383006 12.96905704 -1.75 13.1875 C-2.4925 13.125625 -3.235 13.06375 -4 13 C-3.67 12.34 -3.34 11.68 -3 11 C-2.01 11 -1.02 11 0 11 C-0.08378906 10.37351562 -0.16757813 9.74703125 -0.25390625 9.1015625 C-0.35574219 8.28429687 -0.45757812 7.46703125 -0.5625 6.625 C-0.66691406 5.81289063 -0.77132812 5.00078125 -0.87890625 4.1640625 C-1 2 -1 2 0 0 Z " fill="#3A3230" transform="translate(162,58)"/>
<path d="M0 0 C0.99 0.33 1.98 0.66 3 1 C3 1.66 3 2.32 3 3 C3.66 3 4.32 3 5 3 C5 2.01 5 1.02 5 0 C5.66 0 6.32 0 7 0 C7 0.66 7 1.32 7 2 C7.99 2.33 8.98 2.66 10 3 C9.01 3.33 8.02 3.66 7 4 C6.67 4.99 6.34 5.98 6 7 C1.66666667 10 1.66666667 10 -1 10 C-1 9.01 -1 8.02 -1 7 C-0.01 7 0.98 7 2 7 C1.67 6.401875 1.34 5.80375 1 5.1875 C0 3 0 3 0 0 Z " fill="#1C1819" transform="translate(61,116)"/>
<path d="M0 0 C3.36241563 0.45438049 6.04009971 1.35561095 9 3 C9 3.66 9 4.32 9 5 C8.01 5 7.02 5 6 5 C5.67 5.99 5.34 6.98 5 8 C4.67 7.34 4.34 6.68 4 6 C3.34 6 2.68 6 2 6 C1.67 6.66 1.34 7.32 1 8 C0.34 8 -0.32 8 -1 8 C-1.04241723 5.66705225 -1.04092937 3.33297433 -1 1 C-0.67 0.67 -0.34 0.34 0 0 Z " fill="#362D2A" transform="translate(3,106)"/>
<path d="M0 0 C0.33 0.66 0.66 1.32 1 2 C-0.95519384 3.17192047 -2.9142539 4.3373929 -4.875 5.5 C-5.96554688 6.1496875 -7.05609375 6.799375 -8.1796875 7.46875 C-11 9 -11 9 -13 9 C-13 8.34 -13 7.68 -13 7 C-12.34 7 -11.68 7 -11 7 C-10.9071875 6.1028125 -10.9071875 6.1028125 -10.8125 5.1875 C-10 3 -10 3 -7.75 1.25 C-4.87860126 -0.05518125 -3.10902534 -0.26648789 0 0 Z " fill="#362E2C" transform="translate(157,70)"/>
<path d="M0 0 C0.66 0 1.32 0 2 0 C4.18326108 4.27113698 6.31326082 8.50202887 8 13 C7.01 13.33 6.02 13.66 5 14 C3.96692229 12.23628182 2.94887951 10.46374967 1.9375 8.6875 C1.36902344 7.70136719 0.80054687 6.71523437 0.21484375 5.69921875 C-1 3 -1 3 0 0 Z " fill="#BD4D01" transform="translate(19,114)"/>
<path d="M0 0 C0.66 0.33 1.32 0.66 2 1 C2 2.32 2 3.64 2 5 C0.68 5.33 -0.64 5.66 -2 6 C-2 6.66 -2 7.32 -2 8 C-3.32 8 -4.64 8 -6 8 C-6.33 6.35 -6.66 4.7 -7 3 C-4.69631264 1.93347808 -2.35981813 0.93578995 0 0 Z " fill="#BC520B" transform="translate(42,100)"/>
<path d="M0 0 C0.556875 0.391875 1.11375 0.78375 1.6875 1.1875 C0.4809375 1.80625 0.4809375 1.80625 -0.75 2.4375 C-3.64903505 4.41732881 -3.66432485 4.94662425 -4.3125 8.1875 C-5.3025 8.5175 -6.2925 8.8475 -7.3125 9.1875 C-7.3125 8.5275 -7.3125 7.8675 -7.3125 7.1875 C-8.3025 6.8575 -9.2925 6.5275 -10.3125 6.1875 C-9.6525 6.1875 -8.9925 6.1875 -8.3125 6.1875 C-8.2196875 5.2903125 -8.2196875 5.2903125 -8.125 4.375 C-7.3125 2.1875 -7.3125 2.1875 -5 0.3125 C-2.3125 -0.8125 -2.3125 -0.8125 0 0 Z " fill="#46332B" transform="translate(76.3125,68.8125)"/>
<path d="M0 0 C0.33 1.32 0.66 2.64 1 4 C2.15811388 2.94729537 2.15811388 2.94729537 3 1 C3.66 1 4.32 1 5 1 C4.67 3.31 4.34 5.62 4 8 C0.625 7.6875 0.625 7.6875 -3 7 C-3.66 6.01 -4.32 5.02 -5 4 C-4.360625 3.71125 -3.72125 3.4225 -3.0625 3.125 C-0.84793921 2.17176549 -0.84793921 2.17176549 0 0 Z " fill="#3F3F41" transform="translate(26,145)"/>
<path d="M0 0 C0.33 0.99 0.66 1.98 1 3 C-3.625 6 -3.625 6 -7 6 C-7 6.99 -7 7.98 -7 9 C-8.65 9 -10.3 9 -12 9 C-12 9.66 -12 10.32 -12 11 C-12.66 10.67 -13.32 10.34 -14 10 C-13.34 9.01 -12.68 8.02 -12 7 C-11.01 7 -10.02 7 -9 7 C-8.773125 6.401875 -8.54625 5.80375 -8.3125 5.1875 C-6.43375091 2.05625152 -3.74574487 0 0 0 Z " fill="#8C4310" transform="translate(42,97)"/>
<path d="M0 0 C0.99 0 1.98 0 3 0 C3.84114171 1.43294498 4.67265687 2.87154405 5.5 4.3125 C6.19609375 5.51326172 6.19609375 5.51326172 6.90625 6.73828125 C8 9 8 9 8 12 C7.01 12 6.02 12 5 12 C4.67 10.68 4.34 9.36 4 8 C3.34 8 2.68 8 2 8 C1.34 5.36 0.68 2.72 0 0 Z " fill="#E06106" transform="translate(14,125)"/>
<path d="M0 0 C-2.18517099 2.40575607 -4.25919671 3.79535581 -7.1875 5.1875 C-7.90292969 5.53167969 -8.61835937 5.87585937 -9.35546875 6.23046875 C-9.89816406 6.48441406 -10.44085938 6.73835938 -11 7 C-11 6.34 -11 5.68 -11 5 C-11.99 4.67 -12.98 4.34 -14 4 C-4.67586207 -1.55862069 -4.67586207 -1.55862069 0 0 Z " fill="#2D1D1A" transform="translate(126,31)"/>
<path d="M0 0 C0.763125 0.20625 1.52625 0.4125 2.3125 0.625 C2.3125 1.945 2.3125 3.265 2.3125 4.625 C0.3325 5.615 -1.6475 6.605 -3.6875 7.625 C-4.3475 5.645 -5.0075 3.665 -5.6875 1.625 C-2.6875 -0.375 -2.6875 -0.375 0 0 Z " fill="#3F3F3F" transform="translate(144.6875,100.375)"/>
<path d="M0 0 C0.8971875 0.309375 0.8971875 0.309375 1.8125 0.625 C1.8125 1.615 1.8125 2.605 1.8125 3.625 C0.1625 3.955 -1.4875 4.285 -3.1875 4.625 C-3.1875 5.285 -3.1875 5.945 -3.1875 6.625 C-5.0625 7.25 -5.0625 7.25 -7.1875 7.625 C-7.8475 6.965 -8.5075 6.305 -9.1875 5.625 C-8.5275 5.625 -7.8675 5.625 -7.1875 5.625 C-6.919375 5.00625 -6.65125 4.3875 -6.375 3.75 C-4.77615771 0.8889138 -3.38774371 -0.58075607 0 0 Z " fill="#403C3B" transform="translate(145.1875,30.375)"/>
<path d="M0 0 C0.99 0.33 1.98 0.66 3 1 C2.2884375 1.6496875 2.2884375 1.6496875 1.5625 2.3125 C-0.23686957 4.02309613 -0.23686957 4.02309613 -1 7 C-1.66 7 -2.32 7 -3 7 C-3 7.66 -3 8.32 -3 9 C-4.98 9 -6.96 9 -9 9 C-8.67 8.34 -8.34 7.68 -8 7 C-7.34 7 -6.68 7 -6 7 C-6 5.68 -6 4.36 -6 3 C-5.195625 2.690625 -4.39125 2.38125 -3.5625 2.0625 C-1.10919595 1.23664655 -1.10919595 1.23664655 0 0 Z " fill="#272425" transform="translate(27,100)"/>
<path d="M0 0 C3.28788824 3.11016455 5.83735988 6.01618925 8 10 C4.37386801 9.43040847 2.74482259 8.07625466 0.25 5.4375 C-0.36359375 4.79683594 -0.9771875 4.15617187 -1.609375 3.49609375 C-2.06828125 3.00238281 -2.5271875 2.50867187 -3 2 C-2.01 1.34 -1.02 0.68 0 0 Z " fill="#270800" transform="translate(113,55)"/>
<path d="M0 0 C0.99 0.66 1.98 1.32 3 2 C2.34 2 1.68 2 1 2 C0.67 2.99 0.34 3.98 0 5 C-1.32 5 -2.64 5 -4 5 C-4.66 6.32 -5.32 7.64 -6 9 C-6.99 8.67 -7.98 8.34 -9 8 C-9.33 9.65 -9.66 11.3 -10 13 C-11.32 12.34 -12.64 11.68 -14 11 C-14 10.34 -14 9.68 -14 9 C-12.68 9 -11.36 9 -10 9 C-10 8.34 -10 7.68 -10 7 C-9.38125 6.896875 -8.7625 6.79375 -8.125 6.6875 C-5.63473516 6.12474627 -5.63473516 6.12474627 -4 3 C-3.01 3 -2.02 3 -1 3 C-0.67 2.01 -0.34 1.02 0 0 Z " fill="#A14C10" transform="translate(24,107)"/>
<path d="M0 0 C0.33 1.32 0.66 2.64 1 4 C5.71599818 4.92470553 8.67265609 5.22923777 13 3 C13.33 3.99 13.66 4.98 14 6 C9.87831311 7.62950412 7.29299643 8.26264601 3 7 C2.67 7.99 2.34 8.98 2 10 C0.39644899 6.49223216 -0.22036864 3.85645121 0 0 Z " fill="#C96115" transform="translate(70,81)"/>
<path d="M0 0 C3.69790046 1.23263349 3.9354846 2.20052451 5.6875 5.5625 C6.12449219 6.38878906 6.56148438 7.21507813 7.01171875 8.06640625 C7.33785156 8.70449219 7.66398437 9.34257813 8 10 C6.02 10.99 6.02 10.99 4 12 C2.18757677 7.9811485 0.66498383 4.38889325 0 0 Z " fill="#250601" transform="translate(72,102)"/>
<path d="M0 0 C0.33 0.99 0.66 1.98 1 3 C1.66 3.66 2.32 4.32 3 5 C0 7 0 7 -4 7 C-4.66 5.68 -5.32 4.36 -6 3 C-2.25 0 -2.25 0 0 0 Z " fill="#444444" transform="translate(161,90)"/>
<path d="M0 0 C-1.78881736 1.00508801 -3.58114696 2.00392736 -5.375 3 C-6.37273437 3.556875 -7.37046875 4.11375 -8.3984375 4.6875 C-11 6 -11 6 -13 6 C-13.33 5.01 -13.66 4.02 -14 3 C-9.40344275 -0.10943579 -5.43443539 -1.81147846 0 0 Z " fill="#A24B0F" transform="translate(147,74)"/>
<path d="M0 0 C0.66 0.33 1.32 0.66 2 1 C2 2.32 2 3.64 2 5 C1.360625 5.12375 0.72125 5.2475 0.0625 5.375 C-0.9584375 5.684375 -0.9584375 5.684375 -2 6 C-2.33 6.66 -2.66 7.32 -3 8 C-4.32 7.67 -5.64 7.34 -7 7 C-7 6.01 -7 5.02 -7 4 C-6.01 4 -5.02 4 -4 4 C-4 3.34 -4 2.68 -4 2 C-2.125 0.9375 -2.125 0.9375 0 0 Z " fill="#121110" transform="translate(16,107)"/>
<path d="M0 0 C0.33 1.98 0.66 3.96 1 6 C-0.98 6.99 -2.96 7.98 -5 9 C-5 7.68 -5 6.36 -5 5 C-3.68 5 -2.36 5 -1 5 C-1 4.01 -1 3.02 -1 2 C-1.598125 2.350625 -2.19625 2.70125 -2.8125 3.0625 C-5 4 -5 4 -8 3 C-4.93882432 0.37613513 -4.26826873 0 0 0 Z " fill="#8C3801" transform="translate(112,61)"/>
<path d="M0 0 C-0.639375 0.28875 -1.27875 0.5775 -1.9375 0.875 C-4.15206079 1.82823451 -4.15206079 1.82823451 -5 4 C-5.04022391 6.3329866 -5.04320247 8.66706666 -5 11 C-5.99 11.33 -6.98 11.66 -8 12 C-9.42041821 9.15916359 -9.31452272 7.14522722 -9 4 C-6.36160394 0.28670185 -4.49495424 -0.49943936 0 0 Z " fill="#3B0E01" transform="translate(113,71)"/>
<path d="M0 0 C0.66 0.33 1.32 0.66 2 1 C-4.14285714 6.57142857 -4.14285714 6.57142857 -9 7 C-9 7.66 -9 8.32 -9 9 C-10.98 9.33 -12.96 9.66 -15 10 C-12.38221206 7.0447272 -9.32416665 5.24167273 -5.9375 3.25 C-4.87402344 2.61578125 -3.81054688 1.9815625 -2.71484375 1.328125 C-1.81894531 0.88984375 -0.92304687 0.4515625 0 0 Z " fill="#1E0500" transform="translate(123,88)"/>
<path d="M0 0 C0.66 0.33 1.32 0.66 2 1 C2 1.99 2 2.98 2 4 C-3.625 7 -3.625 7 -7 7 C-7 6.01 -7 5.02 -7 4 C-1.7265625 0.77734375 -1.7265625 0.77734375 0 0 Z " fill="#B4591A" transform="translate(89,59)"/>
<path d="M0 0 C0.8971875 0.309375 0.8971875 0.309375 1.8125 0.625 C-0.44490623 2.96024782 -2.4680761 4.81205073 -5.1875 6.625 C-7.375 6.25 -7.375 6.25 -9.1875 5.625 C-3.21691176 -0.55147059 -3.21691176 -0.55147059 0 0 Z " fill="#5B473B" transform="translate(103.1875,52.375)"/>
<path d="M0 0 C0.33 0 0.66 0 1 0 C1 1.65 1 3.3 1 5 C0.01 5 -0.98 5 -2 5 C-2.99 6.485 -2.99 6.485 -4 8 C-4.99 7.67 -5.98 7.34 -7 7 C-6.1875 4.5625 -6.1875 4.5625 -5 2 C-4.01 1.67 -3.02 1.34 -2 1 C-1.34 1.33 -0.68 1.66 0 2 C0 1.34 0 0.68 0 0 Z " fill="#120100" transform="translate(32,100)"/>
<path d="M0 0 C2.33944736 0.28730055 4.6739143 0.61936779 7 1 C7 2.98 7 4.96 7 7 C6.67 7 6.34 7 6 7 C6 5.35 6 3.7 6 2 C5.67 3.32 5.34 4.64 5 6 C4.01 5.67 3.02 5.34 2 5 C2 4.01 2 3.02 2 2 C1.34 3.65 0.68 5.3 0 7 C-0.33 7 -0.66 7 -1 7 C-1.04254356 5.00045254 -1.04080783 2.99958364 -1 1 C-0.67 0.67 -0.34 0.34 0 0 Z " fill="#A7571F" transform="translate(108,74)"/>
<path d="M0 0 C0.66 0.99 1.32 1.98 2 3 C0.35 4.32 -1.3 5.64 -3 7 C-2.67 8.32 -2.34 9.64 -2 11 C-4.50037734 8.82575883 -5.43628586 7.26954202 -6 4 C-4.02 2.68 -2.04 1.36 0 0 Z " fill="#A74F14" transform="translate(60,85)"/>
<path d="M0 0 C-1.09987776 3.29963329 -1.45586748 3.61064772 -4.3125 5.25 C-4.90675781 5.60578125 -5.50101562 5.9615625 -6.11328125 6.328125 C-8.4491564 7.15994803 -9.69274206 6.7945524 -12 6 C-10.37829621 4.99466333 -8.75252763 3.99588093 -7.125 3 C-5.76761719 2.1646875 -5.76761719 2.1646875 -4.3828125 1.3125 C-2 0 -2 0 0 0 Z " fill="#7C4319" transform="translate(131,41)"/>
<path d="M0 0 C0.33 1.32 0.66 2.64 1 4 C-1.97 5.65 -4.94 7.3 -8 9 C-6.64531705 4.12314139 -4.28324091 2.51407619 0 0 Z " fill="#A14A0B" transform="translate(124,84)"/>
<path d="M0 0 C3.0916909 2.52956528 3.90931332 5.22454612 5 9 C2.03 10.65 -0.94 12.3 -4 14 C-4 13.34 -4 12.68 -4 12 C-3.195625 11.7525 -2.39125 11.505 -1.5625 11.25 C1.07299352 10.27380118 1.07299352 10.27380118 1.9375 8.25 C2.02223882 5.19940251 1.09110815 2.82404462 0 0 Z " fill="#A05018" transform="translate(152,59)"/>
<path d="M0 0 C0.598125 0.20625 1.19625 0.4125 1.8125 0.625 C1.8125 1.285 1.8125 1.945 1.8125 2.625 C-3.9375 5.625 -3.9375 5.625 -6.1875 5.625 C-5.875 3.75 -5.875 3.75 -5.1875 1.625 C-2.1875 -0.375 -2.1875 -0.375 0 0 Z " fill="#893D0C" transform="translate(55.1875,122.375)"/>
<path d="M0 0 C0.33 0 0.66 0 1 0 C1 2.31 1 4.62 1 7 C1.66 7 2.32 7 3 7 C3.33 6.34 3.66 5.68 4 5 C4.33 6.65 4.66 8.3 5 10 C4.01 10.66 3.02 11.32 2 12 C-0.48772258 8.7162062 -1.03180444 7.38801417 -0.6875 3.1875 C-0.460625 2.135625 -0.23375 1.08375 0 0 Z " fill="#5B5453" transform="translate(1,107)"/>
<path d="M0 0 C0 2 0 2 -1.5625 3.625 C-4.80680433 5.45512039 -7.33724439 5.21131282 -11 5 C-11.33 5.66 -11.66 6.32 -12 7 C-12.33 6.01 -12.66 5.02 -13 4 C-12.113125 3.71125 -11.22625 3.4225 -10.3125 3.125 C-8.2714776 2.43182258 -6.24503517 1.69115075 -4.25 0.875 C-2 0 -2 0 0 0 Z " fill="#050305" transform="translate(98,106)"/>
<path d="M0 0 C0 1.32 0 2.64 0 4 C-0.556875 3.62875 -1.11375 3.2575 -1.6875 2.875 C-4.05716353 1.70484137 -4.05716353 1.70484137 -6.75 2.875 C-7.86375 3.431875 -7.86375 3.431875 -9 4 C-8.67 2.68 -8.34 1.36 -8 0 C-4.71303767 -0.79953138 -3.28976808 -1.09658936 0 0 Z " fill="#1C0600" transform="translate(64,84)"/>
<path d="M0 0 C3.59634744 3.49359465 6.83451967 7.11098131 10 11 C7.8125 11 7.8125 11 5 10 C2.65770658 7.11961214 0 3.81180628 0 0 Z " fill="#995423" transform="translate(74,101)"/>
<path d="M0 0 C0.66 0.33 1.32 0.66 2 1 C1.67 1.66 1.34 2.32 1 3 C0.34 3 -0.32 3 -1 3 C-1.33 4.32 -1.66 5.64 -2 7 C-3.65 6.67 -5.3 6.34 -7 6 C-7 5.34 -7 4.68 -7 4 C-1.7265625 0.77734375 -1.7265625 0.77734375 0 0 Z " fill="#21100D" transform="translate(145,74)"/>
<path d="M0 0 C2.00993705 3.01490557 2.72623341 5.2149927 3.625 8.6875 C3.88539062 9.68136719 4.14578125 10.67523438 4.4140625 11.69921875 C4.60742188 12.45847656 4.80078125 13.21773437 5 14 C2.12228026 11.26778294 0.48769625 8.71924063 -1 5 C-0.6875 2.125 -0.6875 2.125 0 0 Z " fill="#935222" transform="translate(65,80)"/>
<path d="M0 0 C0 0.99 0 1.98 0 3 C-1.32 3 -2.64 3 -4 3 C-4 4.32 -4 5.64 -4 7 C-4.99 7 -5.98 7 -7 7 C-7.33 6.01 -7.66 5.02 -8 4 C-6.4425489 0.88509781 -3.40085499 0 0 0 Z " fill="#77360A" transform="translate(111,63)"/>
<path d="M0 0 C0.66 0 1.32 0 2 0 C1.34 2.64 0.68 5.28 0 8 C-0.99 8 -1.98 8 -3 8 C-3 7.34 -3 6.68 -3 6 C-3.99 5.67 -4.98 5.34 -6 5 C-5.38125 4.731875 -4.7625 4.46375 -4.125 4.1875 C-1.7004767 3.04443152 -1.7004767 3.04443152 0 0 Z " fill="#070301" transform="translate(118,45)"/>
<path d="M0 0 C0.33 1.32 0.66 2.64 1 4 C-0.32 3.34 -1.64 2.68 -3 2 C-3.33 2.33 -3.66 2.66 -4 3 C-5.99958364 3.04080783 -8.00045254 3.04254356 -10 3 C-6.46873184 -0.69178035 -5.02635024 -1.19045137 0 0 Z " fill="#454241" transform="translate(131,28)"/>
<path d="M0 0 C6 7.71428571 6 7.71428571 6 12 C5.01 12.33 4.02 12.66 3 13 C2.49487756 11.39743892 1.99608373 9.79288208 1.5 8.1875 C1.2215625 7.29417969 0.943125 6.40085937 0.65625 5.48046875 C0 3 0 3 0 0 Z " fill="#9C5727" transform="translate(126,72)"/>
<path d="M0 0 C3 0 6 0 9 0 C8.0409375 0.1546875 8.0409375 0.1546875 7.0625 0.3125 C6.381875 0.539375 5.70125 0.76625 5 1 C4.67 1.99 4.34 2.98 4 4 C3.01 4 2.02 4 1 4 C0.34 4.66 -0.32 5.32 -1 6 C-1.042721 4.33388095 -1.04063832 2.66617115 -1 1 C-0.67 0.67 -0.34 0.34 0 0 Z " fill="#41403F" transform="translate(33,137)"/>
<path d="M0 0 C1.65 0 3.3 0 5 0 C4.67 1.65 4.34 3.3 4 5 C2.68 5 1.36 5 0 5 C0 3.35 0 1.7 0 0 Z " fill="#343434" transform="translate(149,96)"/>
<path d="M0 0 C1.98 0.99 1.98 0.99 4 2 C4 2.66 4 3.32 4 4 C4.66 4.33 5.32 4.66 6 5 C6 6.98 6 8.96 6 11 C0 3.28571429 0 3.28571429 0 0 Z " fill="#CB6112" transform="translate(126,64)"/>
<path d="M0 0 C1.32 0.66 2.64 1.32 4 2 C2.37633534 5.24732932 -0.75387839 5.70155136 -4 7 C-4 5.68 -4 4.36 -4 3 C-2.68 2.67 -1.36 2.34 0 2 C0 1.34 0 0.68 0 0 Z " fill="#190400" transform="translate(87,56)"/>
<path d="M0 0 C0.99 0.33 1.98 0.66 3 1 C3 1.99 3 2.98 3 4 C4.32 4.66 5.64 5.32 7 6 C7 7.65 7 9.3 7 11 C4.59424393 8.81482901 3.20464419 6.74080329 1.8125 3.8125 C1.46832031 3.09707031 1.12414062 2.38164063 0.76953125 1.64453125 C0.51558594 1.10183594 0.26164063 0.55914062 0 0 Z " fill="#220500" transform="translate(148,40)"/>
<path d="M0 0 C3.27286682 2.7819368 4.96427697 6.27954067 7 10 C6.34 10.66 5.68 11.32 5 12 C4.34 11.67 3.68 11.34 3 11 C2.62127066 9.34305915 2.29749946 7.67343448 2 6 C1.35610218 3.99255385 0.69437747 1.99054876 0 0 Z " fill="#2B0C04" transform="translate(18,138)"/>
<path d="M0 0 C1.65 0.99 3.3 1.98 5 3 C5.33 2.34 5.66 1.68 6 1 C6 1.99 6 2.98 6 4 C5.01 4 4.02 4 3 4 C3 4.99 3 5.98 3 7 C2.01 6.67 1.02 6.34 0 6 C-0.38218767 4.34385343 -0.71395102 2.67542976 -1 1 C-0.67 0.67 -0.34 0.34 0 0 Z " fill="#110402" transform="translate(57,119)"/>
<path d="M0 0 C0.350625 0.515625 0.70125 1.03125 1.0625 1.5625 C-0.9175 2.5525 -0.9175 2.5525 -2.9375 3.5625 C-3.2675 2.5725 -3.5975 1.5825 -3.9375 0.5625 C-5.5875 0.8925 -7.2375 1.2225 -8.9375 1.5625 C-8.9375 0.9025 -8.9375 0.2425 -8.9375 -0.4375 C-2.41442308 -1.79134615 -2.41442308 -1.79134615 0 0 Z " fill="#303132" transform="translate(95.9375,111.4375)"/>
<path d="M0 0 C0.86625 0.556875 0.86625 0.556875 1.75 1.125 C-5 5.125 -5 5.125 -7.25 5.125 C-7 3.25 -7 3.25 -6.25 1.125 C-3.78477471 -0.74517091 -2.92889069 -1.13901305 0 0 Z " fill="#230600" transform="translate(79.25,70.875)"/>
<path d="M0 0 C0.99 0.66 1.98 1.32 3 2 C2.34 3.32 1.68 4.64 1 6 C-0.32 6 -1.64 6 -3 6 C-3.33 6.66 -3.66 7.32 -4 8 C-4 6.68 -4 5.36 -4 4 C-3.01 3.67 -2.02 3.34 -1 3 C-0.67 2.01 -0.34 1.02 0 0 Z " fill="#2F2E2F" transform="translate(46,129)"/>
<path d="M0 0 C0.66 0.33 1.32 0.66 2 1 C2 1.66 2 2.32 2 3 C-1.36683915 5.43160605 -2.73350364 6 -7 6 C-7 5.34 -7 4.68 -7 4 C-1.7265625 0.77734375 -1.7265625 0.77734375 0 0 Z " fill="#CC6217" transform="translate(53,119)"/>
<path d="M0 0 C2.63978826 3.18595135 5.10498388 6.30970546 7 10 C6.67 10.66 6.34 11.32 6 12 C5.67 11.01 5.34 10.02 5 9 C4.01 8.67 3.02 8.34 2 8 C2 6.68 2 5.36 2 4 C1.34 4 0.68 4 0 4 C0 2.68 0 1.36 0 0 Z " fill="#C35F16" transform="translate(63,90)"/>
<path d="M0 0 C0.66 0.33 1.32 0.66 2 1 C1.67 1.99 1.34 2.98 1 4 C0.01 4 -0.98 4 -2 4 C-2 4.99 -2 5.98 -2 7 C-2.66 7 -3.32 7 -4 7 C-4.33 5.68 -4.66 4.36 -5 3 C-2.625 1.4375 -2.625 1.4375 0 0 Z " fill="#332D2B" transform="translate(45,90)"/>
<path d="M0 0 C1.32 0 2.64 0 4 0 C7.22265625 5.2734375 7.22265625 5.2734375 8 7 C7.67 7.66 7.34 8.32 7 9 C5.14453125 6.70507812 5.14453125 6.70507812 3.2890625 4.41015625 C2.0333609 2.86733563 2.0333609 2.86733563 0 2 C0 1.34 0 0.68 0 0 Z " fill="#9D5525" transform="translate(112,53)"/>
<path d="M0 0 C0.66 0.99 1.32 1.98 2 3 C-0.3125 4.5625 -0.3125 4.5625 -3 6 C-3.99 5.67 -4.98 5.34 -6 5 C-2.25 1.125 -2.25 1.125 0 0 Z " fill="#9F4A0F" transform="translate(140,38)"/>
<path d="M0 0 C1.98 0 3.96 0 6 0 C5.34 1.98 4.68 3.96 4 6 C3.34 6 2.68 6 2 6 C1.34 4.02 0.68 2.04 0 0 Z " fill="#C6570A" transform="translate(118,36)"/>
<path d="M0 0 C0.99 0.33 1.98 0.66 3 1 C4.1875 3.5625 4.1875 3.5625 5 6 C3.35 6.66 1.7 7.32 0 8 C-0.33 7.01 -0.66 6.02 -1 5 C-0.01 5 0.98 5 2 5 C2 4.01 2 3.02 2 2 C1.01 1.67 0.02 1.34 -1 1 C-0.67 0.67 -0.34 0.34 0 0 Z " fill="#A9551A" transform="translate(126,31)"/>
<path d="M0 0 C-1.93254772 2.0245738 -3.63158688 3.42105792 -6 5 C-8.1875 4.625 -8.1875 4.625 -10 4 C-6.58908673 0.88145073 -4.68377325 -0.53528837 0 0 Z " fill="#434346" transform="translate(78,116)"/>
<path d="M0 0 C1.32 0 2.64 0 4 0 C4.33 1.32 4.66 2.64 5 4 C3.68 4.33 2.36 4.66 1 5 C0.34 3.68 -0.32 2.36 -1 1 C-0.67 0.67 -0.34 0.34 0 0 Z " fill="#303030" transform="translate(125,105)"/>
<path d="M0 0 C1.32 0.66 2.64 1.32 4 2 C4 2.66 4 3.32 4 4 C1.6875 5.125 1.6875 5.125 -1 6 C-1.99 5.34 -2.98 4.68 -4 4 C-2.68 3.67 -1.36 3.34 0 3 C0 2.01 0 1.02 0 0 Z " fill="#140300" transform="translate(158,65)"/>
<path d="M0 0 C3.39914975 1.13304992 4.05254451 2.12518475 6 5 C3.69 5.66 1.38 6.32 -1 7 C-0.34 6.01 0.32 5.02 1 4 C0.69159401 1.84725052 0.69159401 1.84725052 0 0 Z " fill="#3F4040" transform="translate(111,44)"/>
<path d="M0 0 C1.32 0.33 2.64 0.66 4 1 C3.01 1.495 3.01 1.495 2 2 C2.66 2.66 3.32 3.32 4 4 C3.01 4 2.02 4 1 4 C0.67 4.66 0.34 5.32 0 6 C-2.475 5.01 -2.475 5.01 -5 4 C-5 3.67 -5 3.34 -5 3 C-3.35 3 -1.7 3 0 3 C0 2.01 0 1.02 0 0 Z " fill="#210B04" transform="translate(35,133)"/>
<path d="M0 0 C3 1 3 1 4.6875 4.0625 C5.120625 5.031875 5.55375 6.00125 6 7 C5.34 7.66 4.68 8.32 4 9 C0 2.25 0 2.25 0 0 Z " fill="#A45923" transform="translate(143,35)"/>
<path d="M0 0 C1.5 1.3125 1.5 1.3125 3 3 C3 3.99 3 4.98 3 6 C1.02 5.34 -0.96 4.68 -3 4 C-2.67 3.01 -2.34 2.02 -2 1 C-1.34 0.67 -0.68 0.34 0 0 Z " fill="#0E0201" transform="translate(131,36)"/>
<path d="M0 0 C0.99 0 1.98 0 3 0 C3.99 2.31 4.98 4.62 6 7 C5.01 7 4.02 7 3 7 C0 2.77777778 0 2.77777778 0 0 Z " fill="#3F3C3E" transform="translate(16,140)"/>
<path d="M0 0 C-0.66 0 -1.32 0 -2 0 C-2 1.32 -2 2.64 -2 4 C-4.4375 3.625 -4.4375 3.625 -7 3 C-7.33 2.34 -7.66 1.68 -8 1 C-3.375 -1.125 -3.375 -1.125 0 0 Z " fill="#040002" transform="translate(44,133)"/>
<path d="M0 0 C0.33 1.32 0.66 2.64 1 4 C-3.75 7 -3.75 7 -6 7 C-6.33 6.01 -6.66 5.02 -7 4 C-3.535 3.505 -3.535 3.505 0 3 C0 2.01 0 1.02 0 0 Z " fill="#944812" transform="translate(75,110)"/>
<path d="M0 0 C0.99 0 1.98 0 3 0 C3 0.66 3 1.32 3 2 C3.66 2 4.32 2 5 2 C5 3.32 5 4.64 5 6 C4.01 5.67 3.02 5.34 2 5 C0.8125 2.4375 0.8125 2.4375 0 0 Z " fill="#BF5C18" transform="translate(21,141)"/>
<path d="M0 0 C0.99 0.33 1.98 0.66 3 1 C3.33 1.99 3.66 2.98 4 4 C2.02 4.99 2.02 4.99 0 6 C-0.38218767 4.34385343 -0.71395102 2.67542976 -1 1 C-0.67 0.67 -0.34 0.34 0 0 Z " fill="#484848" transform="translate(141,102)"/>
<path d="M0 0 C0.99 0 1.98 0 3 0 C2.67 2.31 2.34 4.62 2 7 C1.34 7 0.68 7 0 7 C0 5.68 0 4.36 0 3 C-0.66 2.67 -1.32 2.34 -2 2 C-1.34 2 -0.68 2 0 2 C0 1.34 0 0.68 0 0 Z " fill="#0B0100" transform="translate(66,76)"/>
<path d="M0 0 C2.475 0.99 2.475 0.99 5 2 C5.33 4.31 5.66 6.62 6 9 C3.03134491 6.45543849 1.6380249 3.51005335 0 0 Z " fill="#BE5B15" transform="translate(120,55)"/>
<path d="M0 0 C0.66 0.33 1.32 0.66 2 1 C1.67 3.31 1.34 5.62 1 8 C-0.5625 6.75 -0.5625 6.75 -2 5 C-1.74853421 2.86254078 -1.54074221 1.54074221 0 0 Z " fill="#4F4F4F" transform="translate(110,36)"/>
<path d="M0 0 C0.625 1.8125 0.625 1.8125 1 4 C0.01 5.485 0.01 5.485 -1 7 C-2.32 6.34 -3.64 5.68 -5 5 C-3.35 3.35 -1.7 1.7 0 0 Z " fill="#5D483B" transform="translate(26,145)"/>
<path d="M0 0 C3 1 3 1 4.1875 3.0625 C4.455625 3.701875 4.72375 4.34125 5 5 C3.68 5.33 2.36 5.66 1 6 C0.67 4.02 0.34 2.04 0 0 Z " fill="#A55015" transform="translate(5,111)"/>
<path d="M0 0 C0.33 0.99 0.66 1.98 1 3 C-2 5 -2 5 -5 5 C-4.1875 3.0625 -4.1875 3.0625 -3 1 C-2.01 0.67 -1.02 0.34 0 0 Z " fill="#A13900" transform="translate(47,110)"/>
<path d="M0 0 C0.99 0.99 1.98 1.98 3 3 C2.67 3.99 2.34 4.98 2 6 C1.01 6.33 0.02 6.66 -1 7 C-0.67 4.69 -0.34 2.38 0 0 Z " fill="#DE6207" transform="translate(71,106)"/>
<path d="M0 0 C0.33 1.32 0.66 2.64 1 4 C-0.875 4.625 -0.875 4.625 -3 5 C-3.66 4.34 -4.32 3.68 -5 3 C-4.34 3 -3.68 3 -3 3 C-3 2.34 -3 1.68 -3 1 C-2.01 0.67 -1.02 0.34 0 0 Z " fill="#282628" transform="translate(141,33)"/>
<path d="M0 0 C2.97 0.495 2.97 0.495 6 1 C5.67 2.65 5.34 4.3 5 6 C3.5 4.625 3.5 4.625 2 3 C2 2.34 2 1.68 2 1 C1.34 0.67 0.68 0.34 0 0 Z " fill="#20100E" transform="translate(143,33)"/>
</svg>
