<?xml version="1.0" encoding="UTF-8"?>
<svg version="1.1" xmlns="http://www.w3.org/2000/svg" width="181" height="158">
<path d="M0 0 C3.36479277 3.06925235 5.48212852 6.24091905 7.71484375 10.19921875 C8.22127159 11.09094536 8.22127159 11.09094536 8.7379303 12.00068665 C9.81060049 13.89289167 10.87412941 15.79005641 11.9375 17.6875 C12.64719535 18.94239177 13.35747689 20.19695222 14.06835938 21.45117188 C15.4367623 23.86759814 16.79736579 26.28815243 18.15185547 28.71240234 C19.29045541 30.73781672 20.44284831 32.75563583 21.61767578 34.76025391 C22.30385986 35.94047119 22.30385986 35.94047119 23.00390625 37.14453125 C23.39521729 37.80428955 23.78652832 38.46404785 24.18969727 39.14379883 C25 41 25 41 25 45 C18.25 49 18.25 49 16 49 C16.66708984 50.01320313 16.66708984 50.01320313 17.34765625 51.046875 C17.91355469 51.93890625 18.47945312 52.8309375 19.0625 53.75 C19.91521484 55.07257813 19.91521484 55.07257813 20.78515625 56.421875 C22 59 22 59 21.91381836 60.95361328 C20.54700768 64.01442203 18.52080685 64.75621863 15.59375 66.3203125 C14.46525635 66.93326172 13.3367627 67.54621094 12.17407227 68.17773438 C10.94939113 68.82684107 9.72470018 69.47592924 8.5 70.125 C6.6364163 71.13180335 4.77551206 72.14344142 2.91468811 73.15533447 C1.67782222 73.8275316 0.44014002 74.49822886 -0.7983551 75.16741943 C-5.7417884 77.84142316 -10.60865751 80.62528158 -15.4375 83.5 C-16.10152832 83.89316406 -16.76555664 84.28632812 -17.44970703 84.69140625 C-19.91004886 86.15104716 -22.36593862 87.61775595 -24.81591797 89.09472656 C-26.49942912 90.10955988 -28.1871022 91.11747955 -29.875 92.125 C-30.80054687 92.68445313 -31.72609375 93.24390625 -32.6796875 93.8203125 C-35 95 -35 95 -38 95 C-41 90.77777778 -41 90.77777778 -41 88 C-49.47143211 91.27629633 -57.21887487 95.20429859 -65 99.875 C-71 103.4296875 -71 103.4296875 -73.96875 105.18261719 C-76.08894756 106.45377945 -78.19196196 107.75384499 -80.28125 109.07519531 C-81.3434375 109.73358398 -82.405625 110.39197266 -83.5 111.0703125 C-84.4590625 111.67891113 -85.418125 112.28750977 -86.40625 112.91455078 C-89 114 -89 114 -91.234375 113.31591797 C-93.28864841 111.78487073 -94.58393885 110.12409172 -96 108 C-96.721875 108.474375 -97.44375 108.94875 -98.1875 109.4375 C-101 111 -101 111 -103.5625 111.5 C-106.43637753 112.08951334 -107.68358498 113.22862381 -110 115 C-115.78972058 118.12644911 -120.47967214 118.35422304 -127 118 C-126.90460938 118.84304687 -126.80921875 119.68609375 -126.7109375 120.5546875 C-126.60007812 121.65039062 -126.48921875 122.74609375 -126.375 123.875 C-126.20097656 125.51082031 -126.20097656 125.51082031 -126.0234375 127.1796875 C-126.01570313 128.11039063 -126.00796875 129.04109375 -126 130 C-128 132 -128 132 -130.82421875 132.1015625 C-135.4759168 130.48805838 -136.59289323 127.59202427 -138.8125 123.375 C-139.67097932 121.83023107 -140.53037458 120.28597085 -141.390625 118.7421875 C-142.03547852 117.56221191 -142.03547852 117.56221191 -142.69335938 116.35839844 C-144.72820995 112.68563003 -146.89193609 109.09366054 -149.0625 105.5 C-149.635448 104.539729 -149.635448 104.539729 -150.2199707 103.56005859 C-151.88605523 100.61391323 -151.88605523 100.61391323 -154 98 C-154.1328125 96.1875 -154.1328125 96.1875 -154.125 94 C-154.12757813 93.278125 -154.13015625 92.55625 -154.1328125 91.8125 C-154 90 -154 90 -153 89 C-150.8125 88.5625 -150.8125 88.5625 -148 89 C-146.34407455 90.4563652 -144.94093598 91.99588825 -143.52734375 93.6875 C-141.83001221 95.43449954 -141.83001221 95.43449954 -138 95 C-137.9175 94.0925 -137.835 93.185 -137.75 92.25 C-136.37736281 86.3019055 -131.78054516 84.06169097 -126.90234375 80.953125 C-125 80 -125 80 -122 80 C-122 79.01 -122 78.02 -122 77 C-118.23262357 74.03176403 -114.70238725 73.46101836 -110 73 C-110.51401546 70.3271196 -111.30891009 68.39453621 -112.5625 65.9375 C-114 63 -114 63 -114 60 C-113.03578125 59.46890625 -112.0715625 58.9378125 -111.078125 58.390625 C-109.80188759 57.6774335 -108.52585676 56.96387224 -107.25 56.25 C-106.29867187 55.72792969 -106.29867187 55.72792969 -105.328125 55.1953125 C-101.66996479 53.13759738 -98.91968306 51.05491049 -96 48 C-94.39434329 46.83818336 -92.74620649 45.7330065 -91.0625 44.6875 C-90.22847656 44.15511719 -89.39445312 43.62273437 -88.53515625 43.07421875 C-85.4821489 41.78057157 -84.08746424 41.85591427 -81 43 C-80.34 43.99 -79.68 44.98 -79 46 C-77.02 45.34 -75.04 44.68 -73 44 C-72.01 46.475 -72.01 46.475 -71 49 C-69.24528614 48.09238938 -67.49640736 47.17349289 -65.75 46.25 C-64.77546875 45.73953125 -63.8009375 45.2290625 -62.796875 44.703125 C-59.97561323 43.14510183 -59.97561323 43.14510183 -58.01953125 40.9609375 C-55.52770344 38.54140643 -53.16854909 37.61617127 -49.9375 36.375 C-46.63967967 35.09500546 -43.95309434 33.96872956 -41 32 C-40.0925 31.938125 -39.185 31.87625 -38.25 31.8125 C-31.54546301 30.13636575 -27.71758293 23.68314469 -23.5625 18.5 C-16.709619 10.05235073 -9.71822477 4.87697677 0 0 Z M-7.9375 55.3125 C-8.97293945 55.48942383 -8.97293945 55.48942383 -10.02929688 55.66992188 C-14.42726955 56.4828173 -18.14396223 57.61573237 -22 60 C-22.33 60.99 -22.66 61.98 -23 63 C-24.84765625 64.31640625 -24.84765625 64.31640625 -27.0625 65.5625 C-29.23757509 66.74543783 -29.23757509 66.74543783 -31 68 C-31 68.66 -31 69.32 -31 70 C-31.66 70.33 -32.32 70.66 -33 71 C-19.11467527 68.66529938 -7.58453626 63.92706709 4 56 C4.33 55.34 4.66 54.68 5 54 C0.57600418 53.81890076 -3.60685493 54.50427376 -7.9375 55.3125 Z " fill="#091C08" transform="translate(154,26)"/>
<path d="M0 0 C0.66 0.33 1.32 0.66 2 1 C1.67 1.99 1.34 2.98 1 4 C2.174477 6.70247169 2.174477 6.70247169 3.97265625 9.62890625 C4.62556641 10.74716797 5.27847656 11.86542969 5.95117188 13.01757812 C6.65474507 14.19933954 7.35852223 15.38097955 8.0625 16.5625 C8.73985558 17.71625532 9.41629782 18.87054737 10.09179688 20.02539062 C12.63752438 24.36081166 15.18868934 28.68968689 17.83544922 32.96435547 C18.38346191 33.8513916 18.93147461 34.73842773 19.49609375 35.65234375 C19.98134521 36.42441162 20.46659668 37.19647949 20.96655273 37.99194336 C22 40 22 40 22 43 C24.31 43 26.62 43 29 43 C27.14285714 50.57142857 27.14285714 50.57142857 24 53 C25.98 52.67 27.96 52.34 30 52 C26.1668616 55.22828956 22.20097843 57.82164716 17.875 60.3125 C17.25496094 60.68439453 16.63492188 61.05628906 15.99609375 61.43945312 C14.37551085 62.37520906 12.69006114 63.19649427 11 64 C10.01 63.67 9.02 63.34 8 63 C7.67 61.35 7.34 59.7 7 58 C10.465 56.02 10.465 56.02 14 54 C14 53.34 14 52.68 14 52 C13.01 51.505 13.01 51.505 12 51 C13.98 49.68 15.96 48.36 18 47 C9.11234293 47.75319128 0.63292263 49.82609212 -8 52 C-8.020625 52.5775 -8.04125 53.155 -8.0625 53.75 C-9.3395461 56.81491063 -11.39595459 57.51293075 -14.30859375 58.875 C-16.16447242 59.89874624 -16.16447242 59.89874624 -16.9453125 62.01171875 C-18.35431463 64.66794869 -19.60886326 64.94393667 -22.4375 65.8125 C-23.21996094 66.06644531 -24.00242187 66.32039063 -24.80859375 66.58203125 C-27 67 -27 67 -30 66 C-29.01 65.505 -29.01 65.505 -28 65 C-29.81885462 58.01237496 -33.99825675 52.27848225 -37.83203125 46.25585938 C-38.36441406 45.39669922 -38.89679688 44.53753906 -39.4453125 43.65234375 C-39.93531738 42.87882568 -40.42532227 42.10530762 -40.93017578 41.30834961 C-42.14596821 38.68504578 -42.2065549 36.8579745 -42 34 C-43.485 34.495 -43.485 34.495 -45 35 C-45 34.34 -45 33.68 -45 33 C-41.31343267 30.77269891 -37.80498779 28.83930115 -33.75 27.375 C-29.9896926 26.16238674 -29.9896926 26.16238674 -27 24 C-26.0925 23.938125 -25.185 23.87625 -24.25 23.8125 C-16.68144992 21.92036248 -11.84160487 13.48274404 -7.2109375 7.6484375 C-4.94505883 4.93418708 -2.53428449 2.46314668 0 0 Z " fill="#2D302D" transform="translate(140,34)"/>
<path d="M0 0 C3.36479277 3.06925235 5.48212852 6.24091905 7.71484375 10.19921875 C8.22127159 11.09094536 8.22127159 11.09094536 8.7379303 12.00068665 C9.81060049 13.89289167 10.87412941 15.79005641 11.9375 17.6875 C12.64719535 18.94239177 13.35747689 20.19695222 14.06835938 21.45117188 C15.4367623 23.86759814 16.79736579 26.28815243 18.15185547 28.71240234 C19.29045541 30.73781672 20.44284831 32.75563583 21.61767578 34.76025391 C22.30385986 35.94047119 22.30385986 35.94047119 23.00390625 37.14453125 C23.39521729 37.80428955 23.78652832 38.46404785 24.18969727 39.14379883 C25 41 25 41 25 45 C18.25 49 18.25 49 16 49 C16.44472656 49.67546875 16.88945312 50.3509375 17.34765625 51.046875 C17.91355469 51.93890625 18.47945313 52.8309375 19.0625 53.75 C19.63097656 54.63171875 20.19945312 55.5134375 20.78515625 56.421875 C22 59 22 59 21.91381836 60.95361328 C20.54700768 64.01442203 18.52080685 64.75621863 15.59375 66.3203125 C14.46525635 66.93326172 13.3367627 67.54621094 12.17407227 68.17773438 C10.94939113 68.82684107 9.72470018 69.47592924 8.5 70.125 C6.6364163 71.13180335 4.77551206 72.14344142 2.91468811 73.15533447 C1.67782222 73.8275316 0.44014002 74.49822886 -0.7983551 75.16741943 C-5.7417884 77.84142316 -10.60865751 80.62528158 -15.4375 83.5 C-16.10152832 83.89316406 -16.76555664 84.28632812 -17.44970703 84.69140625 C-19.91004886 86.15104716 -22.36593862 87.61775595 -24.81591797 89.09472656 C-26.49942912 90.10955988 -28.1871022 91.11747955 -29.875 92.125 C-30.80054687 92.68445313 -31.72609375 93.24390625 -32.6796875 93.8203125 C-35 95 -35 95 -38 95 C-41 90.77777778 -41 90.77777778 -41 88 C-41.99 88.495 -41.99 88.495 -43 89 C-44.99960012 89.039992 -47.00047242 89.04346799 -49 89 C-47.6875 87.5 -47.6875 87.5 -46 86 C-45.01 86 -44.02 86 -43 86 C-43 85.01 -43 84.02 -43 83 C-37.06 79.7 -31.12 76.4 -25 73 C-25.66 72.34 -26.32 71.68 -27 71 C-25.02 70.505 -25.02 70.505 -23 70 C-23 69.34 -23 68.68 -23 68 C-21.82244141 67.63648437 -21.82244141 67.63648437 -20.62109375 67.265625 C-13.6094561 65.07641464 -13.6094561 65.07641464 -7.0625 61.8125 C-4.2269768 60.13433321 -2.23518372 59.39214348 1 59 C0.62005832 61.75457718 0.1926367 62.82020574 -1.875 64.75 C-4 66 -4 66 -7 66 C-6.34 67.65 -5.68 69.3 -5 71 C-0.60616294 69.40376856 3.28995807 67.21975667 7.3125 64.875 C7.95767578 64.50246094 8.60285156 64.12992187 9.26757812 63.74609375 C10.84675945 62.83367787 12.42361864 61.91724491 14 61 C12.68 61 11.36 61 10 61 C10.33 60.01 10.66 59.02 11 58 C11.66 57.67 12.32 57.34 13 57 C13.65555119 54.47266765 13.65555119 54.47266765 14 52 C11.36 52 8.72 52 6 52 C6.66 51.67 7.32 51.34 8 51 C4.3664788 44.29423324 0.69201235 37.6112031 -3 30.9375 C-3.42877441 30.15818115 -3.85754883 29.3788623 -4.29931641 28.57592773 C-7.06470983 23.57995257 -9.98191715 18.74191444 -13.234375 14.04296875 C-14 12 -14 12 -13.5234375 9.4765625 C-11.49652 6.18152226 -9.25672799 5.02226731 -5.875 3.1875 C-4.77929688 2.58292969 -3.68359375 1.97835938 -2.5546875 1.35546875 C-1.29011719 0.68451172 -1.29011719 0.68451172 0 0 Z " fill="#222222" transform="translate(154,26)"/>
<path d="M0 0 C2.17708323 3.76491091 4.33985035 7.5378518 6.5 11.3125 C7.43005859 12.9202832 7.43005859 12.9202832 8.37890625 14.56054688 C9.25869141 16.10258789 9.25869141 16.10258789 10.15625 17.67578125 C10.97319336 19.0975769 10.97319336 19.0975769 11.80664062 20.5480957 C13 23 13 23 13 26 C12.1234375 26.48726562 11.246875 26.97453125 10.34375 27.4765625 C1.71831966 32.29078317 -6.84297655 37.20960582 -15.375 42.1875 C-16.37208984 42.76902832 -17.36917969 43.35055664 -18.39648438 43.94970703 C-23.97963072 47.21334357 -29.52744953 50.522184 -35.02587891 53.92700195 C-37 55 -37 55 -39 55 C-41.15012454 51.23159802 -43.29435886 47.45987724 -45.4375 43.6875 C-46.35499023 42.0797168 -46.35499023 42.0797168 -47.29101562 40.43945312 C-47.87431641 39.41142578 -48.45761719 38.38339844 -49.05859375 37.32421875 C-49.59798584 36.37635498 -50.13737793 35.42849121 -50.69311523 34.4519043 C-52 32 -52 32 -53 29 C-52.39414062 28.85304688 -51.78828125 28.70609375 -51.1640625 28.5546875 C-43.46165999 26.4928136 -36.30915912 23.44668811 -30.70898438 17.61376953 C-28.03632756 15.03505072 -25.5438584 13.32521216 -22.33203125 11.484375 C-21.27435547 10.87335938 -20.21667969 10.26234375 -19.12695312 9.6328125 C-18.03318359 9.01148437 -16.93941406 8.39015625 -15.8125 7.75 C-14.15444336 6.79480469 -14.15444336 6.79480469 -12.46289062 5.8203125 C-2.33926197 0 -2.33926197 0 0 0 Z " fill="#86C97E" transform="translate(96,73)"/>
<path d="M0 0 C3.40725718 3.10261608 5.54855993 6.3422837 7.8203125 10.33984375 C8.33741287 11.2458004 8.33741287 11.2458004 8.86495972 12.1700592 C9.58899081 13.44162432 10.30989847 14.71497249 11.02783203 15.98999023 C12.12183102 17.93187495 13.22605785 19.86764941 14.33203125 21.80273438 C20.18094153 32.09950443 20.18094153 32.09950443 22 37 C17.94072539 37.87000431 13.87719373 38.71820824 9.8125 39.5625 C8.08676758 39.9327832 8.08676758 39.9327832 6.32617188 40.31054688 C5.21435547 40.53935547 4.10253906 40.76816406 2.95703125 41.00390625 C1.93585205 41.21861572 0.91467285 41.4333252 -0.13745117 41.65454102 C-3.09986778 42.01205227 -5.16402332 41.91050272 -8 41 C-9.375 38.625 -9.375 38.625 -10 36 C-9.67 35.01 -9.34 34.02 -9 33 C-9.5775 33.350625 -10.155 33.70125 -10.75 34.0625 C-13.35801776 35.14917407 -14.39417629 34.93065133 -17 34 C-16.0022242 31.00667261 -15.2477975 30.05233685 -13 28 C-13.99 27.67 -14.98 27.34 -16 27 C-17.41314439 24.95094063 -18.06303991 23.69493995 -17.8359375 21.19140625 C-16.64324497 18.06476835 -14.66761362 16.1742138 -12.375 13.75 C-11.02921875 12.30947266 -11.02921875 12.30947266 -9.65625 10.83984375 C-8.7796875 9.90269531 -7.903125 8.96554688 -7 8 C-4.64566012 5.35136763 -2.31884571 2.67972567 0 0 Z " fill="#87C97E" transform="translate(140,39)"/>
<path d="M0 0 C3.83793492 1.27931164 4.18132283 2.55108325 6.13671875 6.0234375 C6.71357422 7.044375 7.29042969 8.0653125 7.88476562 9.1171875 C8.77711914 10.72980469 8.77711914 10.72980469 9.6875 12.375 C10.29400391 13.44234375 10.90050781 14.5096875 11.52539062 15.609375 C16 23.60226554 16 23.60226554 16 27 C17.32 27.33 18.64 27.66 20 28 C14.17521449 31.03901852 9.51791392 31.3540919 3 31 C3.09539063 31.84304687 3.19078125 32.68609375 3.2890625 33.5546875 C3.39992188 34.65039062 3.51078125 35.74609375 3.625 36.875 C3.79902344 38.51082031 3.79902344 38.51082031 3.9765625 40.1796875 C3.98429687 41.11039063 3.99203125 42.04109375 4 43 C2 45 2 45 -0.82421875 45.1015625 C-5.4759168 43.48805838 -6.59289323 40.59202427 -8.8125 36.375 C-9.67097932 34.83023107 -10.53037458 33.28597085 -11.390625 31.7421875 C-11.82052734 30.95553711 -12.25042969 30.16888672 -12.69335938 29.35839844 C-14.72820995 25.68563003 -16.89193609 22.09366054 -19.0625 18.5 C-19.44446533 17.85981934 -19.82643066 17.21963867 -20.2199707 16.56005859 C-21.88605523 13.61391323 -21.88605523 13.61391323 -24 11 C-24.1328125 9.1875 -24.1328125 9.1875 -24.125 7 C-24.12757812 6.278125 -24.13015625 5.55625 -24.1328125 4.8125 C-24 3 -24 3 -23 2 C-20.8125 1.5625 -20.8125 1.5625 -18 2 C-16.34407455 3.4563652 -14.94093598 4.99588825 -13.52734375 6.6875 C-11.83001221 8.43449954 -11.83001221 8.43449954 -8 8 C-7.67 6.02 -7.34 4.04 -7 2 C-5 5 -5 5 -5 6 C-4.43796875 6.52335937 -3.8759375 7.04671875 -3.296875 7.5859375 C-0.38030253 10.65131469 1.61310303 13.9915791 3.75 17.625 C4.16121094 18.305625 4.57242187 18.98625 4.99609375 19.6875 C8 24.73725602 8 24.73725602 8 27 C8.66 27 9.32 27 10 27 C5.83871581 18.5666282 1.57835962 10.21756854 -3 2 C-2.01 1.34 -1.02 0.68 0 0 Z " fill="#303730" transform="translate(24,113)"/>
<path d="M0 0 C-1.19989223 3.5996767 -1.98403808 3.86867665 -5.18359375 5.69921875 C-6.02857422 6.18583984 -6.87355469 6.67246094 -7.74414062 7.17382812 C-8.63294922 7.67333984 -9.52175781 8.17285156 -10.4375 8.6875 C-11.32244141 9.19861328 -12.20738281 9.70972656 -13.11914062 10.23632812 C-19.7168725 14 -19.7168725 14 -22 14 C-21.34 15.98 -20.68 17.96 -20 20 C-17.06133716 18.37709629 -14.12427597 16.7513153 -11.1875 15.125 C-10.35412109 14.66480469 -9.52074219 14.20460938 -8.66210938 13.73046875 C-7.85966797 13.28574219 -7.05722656 12.84101562 -6.23046875 12.3828125 C-5.49207764 11.97434082 -4.75368652 11.56586914 -3.99291992 11.14501953 C-2.28741338 10.16513154 -0.63660994 9.09107329 1 8 C1.99 8 2.98 8 4 8 C4 8.66 4 9.32 4 10 C2.02807617 11.29345703 2.02807617 11.29345703 -0.70703125 12.7578125 C-1.68607422 13.30179688 -2.66511719 13.84578125 -3.67382812 14.40625 C-5.7474284 15.54176229 -7.82811234 16.66444419 -9.91601562 17.7734375 C-16.57196583 21.50949873 -18.93078236 23.68166409 -21 31 C-24.62454241 34.43151945 -29.27282644 36.26972508 -34.25 36.5625 C-38.4659259 35.93011111 -40.09789975 35.07281203 -43 32 C-45.51794788 28.52283389 -45.29924638 25.18944931 -45 21 C-43.71465848 17.58112205 -42.19477485 16.08518454 -39.0625 14.25 C-38.37285156 13.82203125 -37.68320312 13.3940625 -36.97265625 12.953125 C-33.88562232 11.963327 -32.07105919 12.04555186 -28.875 12.234375 C-22.02133912 12.37937731 -17.59281554 9.59478898 -11.9375 6 C-10.09429611 4.87197446 -8.24933353 3.74681592 -6.40234375 2.625 C-5.60304443 2.12226562 -4.80374512 1.61953125 -3.98022461 1.1015625 C-2 0 -2 0 0 0 Z " fill="#79A672" transform="translate(95,84)"/>
<path d="M0 0 C2.63054675 2.37504972 4.21064504 4.88225732 5.92578125 7.97265625 C6.75045898 9.44702148 6.75045898 9.44702148 7.59179688 10.95117188 C8.15962891 11.97791016 8.72746094 13.00464844 9.3125 14.0625 C10.43226318 16.07495967 11.55334805 18.08668454 12.67578125 20.09765625 C13.22186035 21.08266113 13.76793945 22.06766602 14.33056641 23.08251953 C16.43100407 26.75321711 18.6995284 30.30654342 21.02026367 33.84155273 C22 36 22 36 21.75268555 38.20239258 C20.7879017 40.5065455 19.81075662 41.08795218 17.625 42.25 C17.01914063 42.58515625 16.41328125 42.9203125 15.7890625 43.265625 C14 44 14 44 11 44 C10.57702637 43.26475098 10.15405273 42.52950195 9.71826172 41.77197266 C8.11987054 38.99453344 6.52064907 36.21757435 4.92089844 33.44091797 C4.2340518 32.24839573 3.54751835 31.05569303 2.86132812 29.86279297 C-0.99707002 23.15572368 -4.88075311 16.47685079 -8.96435547 9.90380859 C-10 8 -10 8 -10 6 C-7.8125 4.4921875 -7.8125 4.4921875 -5 2.875 C-4.071875 2.33617187 -3.14375 1.79734375 -2.1875 1.2421875 C-1.465625 0.83226563 -0.74375 0.42234375 0 0 Z " fill="#86C67E" transform="translate(153,30)"/>
<path d="M0 0 C-0.99 0.33 -1.98 0.66 -3 1 C-2.01 1.66 -1.02 2.32 0 3 C-2.95449913 4.6735337 -5.9142018 6.33763985 -8.875 8 C-9.71675781 8.47695312 -10.55851562 8.95390625 -11.42578125 9.4453125 C-12.63427734 10.12207031 -12.63427734 10.12207031 -13.8671875 10.8125 C-14.61081543 11.23144531 -15.35444336 11.65039062 -16.12060547 12.08203125 C-18 13 -18 13 -20 13 C-20 13.99 -20 14.98 -20 16 C-21.65 16.66 -23.3 17.32 -25 18 C-24.34 18.66 -23.68 19.32 -23 20 C-23.83660156 20.40089844 -24.67320313 20.80179688 -25.53515625 21.21484375 C-34.66813858 25.67513745 -43.35481694 30.66032811 -52 36 C-52.33 35.01 -52.66 34.02 -53 33 C-57.62 35.31 -62.24 37.62 -67 40 C-67.99 38.35 -68.98 36.7 -70 35 C-61.59199797 29.75541336 -53.10689964 24.68351213 -44.49584961 19.78027344 C-42.66918961 18.739568 -40.84525113 17.69420321 -39.02148438 16.6484375 C-22.28935023 7.07880264 -22.28935023 7.07880264 -15.1875 5.25 C-14.27355469 5.00765625 -13.35960937 4.7653125 -12.41796875 4.515625 C-10 4 -10 4 -7 4 C-7 2.68 -7 1.36 -7 0 C-3.86650268 -1.04449911 -3.01031744 -0.93423645 0 0 Z " fill="#474747" transform="translate(131,96)"/>
<path d="M0 0 C0.66 0.99 1.32 1.98 2 3 C3.98 2.34 5.96 1.68 8 1 C8 1.99 8 2.98 8 4 C8.3062434 5.33981486 8.63451555 6.67511887 9 8 C7.78763672 8.59748047 7.78763672 8.59748047 6.55078125 9.20703125 C5.48214844 9.73683594 4.41351563 10.26664063 3.3125 10.8125 C2.25675781 11.33457031 1.20101562 11.85664062 0.11328125 12.39453125 C-2.9789783 13.93376823 -2.9789783 13.93376823 -5.70703125 15.69921875 C-8 17 -8 17 -11 17 C-10.67 18.65 -10.34 20.3 -10 22 C-10.66 22 -11.32 22 -12 22 C-12 22.66 -12 23.32 -12 24 C-16.95 26.475 -16.95 26.475 -22 29 C-22 28.01 -22 27.02 -22 26 C-21.01 25.34 -20.02 24.68 -19 24 C-20.32 23.67 -21.64 23.34 -23 23 C-22.67 22.34 -22.34 21.68 -22 21 C-24.05990478 22.29467677 -24.05990478 22.29467677 -26 24 C-26 24.99 -26 25.98 -26 27 C-27.8125 26.875 -27.8125 26.875 -30 26 C-31.95320589 22.79116175 -33 20.7794561 -33 17 C-32.03578125 16.46890625 -31.0715625 15.9378125 -30.078125 15.390625 C-28.80188759 14.6774335 -27.52585676 13.96387224 -26.25 13.25 C-25.29867187 12.72792969 -25.29867187 12.72792969 -24.328125 12.1953125 C-20.66996479 10.13759738 -17.91968306 8.05491049 -15 5 C-13.39434329 3.83818336 -11.74620649 2.7330065 -10.0625 1.6875 C-9.22847656 1.15511719 -8.39445312 0.62273437 -7.53515625 0.07421875 C-4.4821489 -1.21942843 -3.08746424 -1.14408573 0 0 Z " fill="#4E7A49" transform="translate(73,69)"/>
<path d="M0 0 C3.73305117 0.58069685 4.92533529 2.30105913 7.28515625 5.125 C8.98248779 6.87199954 8.98248779 6.87199954 12.8125 6.4375 C13.1425 4.4575 13.4725 2.4775 13.8125 0.4375 C15.8125 3.4375 15.8125 3.4375 15.8125 4.4375 C16.37453125 4.96085937 16.9365625 5.48421875 17.515625 6.0234375 C20.43219747 9.08881469 22.42560303 12.4290791 24.5625 16.0625 C24.97371094 16.743125 25.38492187 17.42375 25.80859375 18.125 C28.8125 23.17475602 28.8125 23.17475602 28.8125 25.4375 C26.61328125 25.40234375 26.61328125 25.40234375 23.8125 24.4375 C21.85168209 22.16423151 20.45287248 19.61807137 19 17 C18.38995117 15.95875977 18.38995117 15.95875977 17.76757812 14.89648438 C14.8125 9.76607143 14.8125 9.76607143 14.8125 7.4375 C13.8225 8.4275 12.8325 9.4175 11.8125 10.4375 C12.4725 10.4375 13.1325 10.4375 13.8125 10.4375 C15.17930153 12.70154542 16.53094445 14.97251021 17.875 17.25 C18.45991211 18.21389648 18.45991211 18.21389648 19.05664062 19.19726562 C20.05380759 20.9003915 20.94062687 22.66695858 21.8125 24.4375 C21.4825 25.4275 21.1525 26.4175 20.8125 27.4375 C19.8225 27.4375 18.8325 27.4375 17.8125 27.4375 C18.3075 28.46875 18.8025 29.5 19.3125 30.5625 C20.78723902 33.96201578 21.08541106 36.70771549 20.8125 40.4375 C17.48940974 37.39667996 15.36267993 34.26712677 13.140625 30.359375 C12.64970367 29.50221893 12.64970367 29.50221893 12.14886475 28.62774658 C11.11401724 26.81770782 10.08815928 25.00275794 9.0625 23.1875 C8.35866269 21.95278862 7.65424137 20.71840995 6.94921875 19.484375 C5.23020772 16.47256854 3.51921641 13.45629431 1.8125 10.4375 C0.8225 10.7675 -0.1675 11.0975 -1.1875 11.4375 C-3.1875 9.4375 -3.1875 9.4375 -3.41796875 7.52734375 C-3.28079446 0.65615889 -3.28079446 0.65615889 0 0 Z " fill="#071506" transform="translate(3.1875,114.5625)"/>
<path d="M0 0 C0.495 1.485 0.495 1.485 1 3 C-3.26682129 5.40996388 -7.52661908 7.79971109 -11.9375 9.9375 C-18.75123288 13.30348404 -25.13040788 17.16621825 -31 22 C-32.3153341 22.70151152 -33.65117592 23.36525925 -35 24 C-36.21103274 24.70370822 -37.41914783 25.41245099 -38.625 26.125 C-42 28 -42 28 -44 28 C-45.19114233 31.72231978 -45.33502383 35.11372361 -45 39 C-42.7412063 43.24028619 -42.7412063 43.24028619 -39 46 C-32.47512447 46.55295555 -29.47285883 45.50262965 -24 42 C-23.34 42 -22.68 42 -22 42 C-21.67 41.34 -21.34 40.68 -21 40 C-18.60029128 38.72851254 -16.20208028 37.53686646 -13.75 36.375 C-7.08183807 33.14338488 -0.80942007 29.56413257 5.42578125 25.56640625 C8 24 8 24 11 23 C11.33 22.34 11.66 21.68 12 21 C12.495 23.475 12.495 23.475 13 26 C12.1234375 26.48726562 11.246875 26.97453125 10.34375 27.4765625 C1.71831966 32.29078317 -6.84297655 37.20960582 -15.375 42.1875 C-16.37208984 42.76902832 -17.36917969 43.35055664 -18.39648438 43.94970703 C-23.97963072 47.21334357 -29.52744953 50.522184 -35.02587891 53.92700195 C-37 55 -37 55 -39 55 C-41.15012454 51.23159802 -43.29435886 47.45987724 -45.4375 43.6875 C-46.35499023 42.0797168 -46.35499023 42.0797168 -47.29101562 40.43945312 C-47.87431641 39.41142578 -48.45761719 38.38339844 -49.05859375 37.32421875 C-49.59798584 36.37635498 -50.13737793 35.42849121 -50.69311523 34.4519043 C-52 32 -52 32 -53 29 C-52.39414062 28.85304688 -51.78828125 28.70609375 -51.1640625 28.5546875 C-43.46165999 26.4928136 -36.30915912 23.44668811 -30.70898438 17.61376953 C-28.03632756 15.03505072 -25.5438584 13.32521216 -22.33203125 11.484375 C-21.27435547 10.87335938 -20.21667969 10.26234375 -19.12695312 9.6328125 C-18.03318359 9.01148437 -16.93941406 8.39015625 -15.8125 7.75 C-14.15444336 6.79480469 -14.15444336 6.79480469 -12.46289062 5.8203125 C-2.33926197 0 -2.33926197 0 0 0 Z " fill="#6AB062" transform="translate(96,73)"/>
<path d="M0 0 C-0.99 0.66 -1.98 1.32 -3 2 C-2.59910156 2.53625 -2.19820312 3.0725 -1.78515625 3.625 C2.13048104 9.02342964 5.62985548 14.59073771 8.9375 20.375 C9.5396936 21.40947266 9.5396936 21.40947266 10.15405273 22.46484375 C12.13462143 25.98432422 13 27.87759837 13 32 C10.525 32.495 10.525 32.495 8 33 C6.58238693 30.64639882 5.1658896 28.29213772 3.75 25.9375 C3.35425781 25.28072266 2.95851563 24.62394531 2.55078125 23.94726562 C1.36140863 21.96822758 0.17919859 19.98511509 -1 18 C-1.39251953 17.34402832 -1.78503906 16.68805664 -2.18945312 16.01220703 C-5 11.23254244 -5 11.23254244 -5 9 C-6.32 9 -7.64 9 -9 9 C-8.6596875 9.48726562 -8.319375 9.97453125 -7.96875 10.4765625 C-4.63642515 15.35097385 -1.53670846 20.33904459 1.4375 25.4375 C1.98664062 26.36006592 1.98664062 26.36006592 2.546875 27.30126953 C3.42842286 28.83249093 4.22250726 30.41340912 5 32 C4.67 32.66 4.34 33.32 4 34 C3.60167969 33.38511719 3.20335938 32.77023438 2.79296875 32.13671875 C2.26316406 31.32847656 1.73335937 30.52023438 1.1875 29.6875 C0.66542969 28.88699219 0.14335938 28.08648437 -0.39453125 27.26171875 C-2.08242718 24.7502677 -2.08242718 24.7502677 -5 22 C-2.36 26.95 0.28 31.9 3 37 C2.01 37 1.02 37 0 37 C-2.81263541 33.41560487 -4.9625943 29.3721112 -7.25 25.4375 C-7.91257812 24.35146484 -8.57515625 23.26542969 -9.2578125 22.14648438 C-9.87914062 21.08623047 -10.50046875 20.02597656 -11.140625 18.93359375 C-11.99962402 17.4803772 -11.99962402 17.4803772 -12.87597656 15.99780273 C-14.27009254 12.27965545 -13.83127929 9.83255633 -13 6 C-12.01 6 -11.02 6 -10 6 C-10 5.01 -10 4.02 -10 3 C-6.62637846 0.39749195 -4.23092172 -0.36265043 0 0 Z " fill="#6EB266" transform="translate(42,100)"/>
<path d="M0 0 C0.66 0 1.32 0 2 0 C2.26731934 0.8763208 2.53463867 1.7526416 2.81005859 2.65551758 C3.95609312 5.87659409 5.31609526 8.56656223 7.0390625 11.51171875 C7.61914062 12.51654297 8.19921875 13.52136719 8.796875 14.55664062 C10.02271431 16.6560214 11.24928527 18.75497512 12.4765625 20.85351562 C13.0540625 21.85447266 13.6315625 22.85542969 14.2265625 23.88671875 C14.75846191 24.79639404 15.29036133 25.70606934 15.83837891 26.64331055 C17 29 17 29 17 32 C17.92232422 31.65775391 17.92232422 31.65775391 18.86328125 31.30859375 C19.67152344 31.02113281 20.47976562 30.73367187 21.3125 30.4375 C22.51326172 30.00244141 22.51326172 30.00244141 23.73828125 29.55859375 C26 29 26 29 29 30 C28.67 30.66 28.34 31.32 28 32 C26.16553058 32.53854015 24.32748287 33.06673394 22.47680664 33.54663086 C9.10567019 37.09595164 -2.13845419 43.97395385 -13.87841797 51.11279297 C-18.88234092 54.13800213 -23.94097189 57.06799254 -29 60 C-29.99 58.68 -30.98 57.36 -32 56 C-26.20082895 52.61311733 -20.40034822 49.22850357 -14.59765625 45.84765625 C-10.47614251 43.44609229 -6.3588198 41.03767187 -2.24609375 38.62109375 C-0.53911431 37.62230728 1.16791398 36.6236043 2.875 35.625 C3.67010986 35.15537842 4.46521973 34.68575684 5.28442383 34.2019043 C10.77348934 31 10.77348934 31 13 31 C9.41503665 23.5937021 5.58715557 16.43595789 1.3203125 9.3984375 C0 7 0 7 0 5 C-0.66 5 -1.32 5 -2 5 C-1.34 3.35 -0.68 1.7 0 0 Z " fill="#060E05" transform="translate(96,68)"/>
<path d="M0 0 C0.495 1.485 0.495 1.485 1 3 C-3.625 7 -3.625 7 -7 7 C-6.34 9.31 -5.68 11.62 -5 14 C-5.99 13.67 -6.98 13.34 -8 13 C-8.6875 10.9375 -8.6875 10.9375 -9 9 C-10.98 9.66 -12.96 10.32 -15 11 C-14.01 13.31 -13.02 15.62 -12 18 C-12.99 18 -13.98 18 -15 18 C-15.495 16.02 -15.495 16.02 -16 14 C-22.20344209 16.98293173 -28.13832886 20.20081734 -33.96875 23.86328125 C-36 25 -36 25 -38 25 C-38 25.66 -38 26.32 -38 27 C-36.02 26.34 -34.04 25.68 -32 25 C-32.66 26.32 -33.32 27.64 -34 29 C-34.66 29 -35.32 29 -36 29 C-36 29.66 -36 30.32 -36 31 C-34.51886719 30.13375 -34.51886719 30.13375 -33.0078125 29.25 C-31.71367265 28.499774 -30.41939463 27.74978632 -29.125 27 C-28.47402344 26.6184375 -27.82304688 26.236875 -27.15234375 25.84375 C-22.2265625 23 -22.2265625 23 -20 23 C-22.08500124 29.25500371 -27.43284479 32.04210675 -32.9140625 35.08203125 C-35 36 -35 36 -38 36 C-41 31.77777778 -41 31.77777778 -41 29 C-41.66 29.33 -42.32 29.66 -43 30 C-44.99960012 30.039992 -47.00047242 30.04346799 -49 30 C-47.6875 28.5 -47.6875 28.5 -46 27 C-45.01 27 -44.02 27 -43 27 C-43 26.01 -43 25.02 -43 24 C-37.06 20.7 -31.12 17.4 -25 14 C-25.66 13.34 -26.32 12.68 -27 12 C-25.68 11.67 -24.36 11.34 -23 11 C-23 10.34 -23 9.68 -23 9 C-22.21496094 8.75765625 -21.42992187 8.5153125 -20.62109375 8.265625 C-14.60261069 6.34561814 -9.39428884 4.25904951 -4 1 C-1.5625 0.25 -1.5625 0.25 0 0 Z " fill="#131313" transform="translate(154,85)"/>
<path d="M0 0 C5.56542098 1.79225421 6.91319862 5.24117052 9.6875 10.1875 C10.48874672 11.52732298 11.29230164 12.86576721 12.09765625 14.203125 C12.9421274 15.63422471 13.78456886 17.06652401 14.625 18.5 C15.03927246 19.19359619 15.45354492 19.88719238 15.88037109 20.60180664 C18.76252514 25.65631221 18.76252514 25.65631221 18.38891602 28.30151367 C17.56284766 30.52266859 16.46038432 31.64586146 14.6875 33.1875 C16.3375 32.5275 17.9875 31.8675 19.6875 31.1875 C20.0175 31.8475 20.3475 32.5075 20.6875 33.1875 C19.25406 33.71940541 17.81554633 34.23765258 16.375 34.75 C15.57449219 35.04003906 14.77398437 35.33007812 13.94921875 35.62890625 C11.6875 36.1875 11.6875 36.1875 8.6875 35.1875 C9.6775 34.6925 9.6775 34.6925 10.6875 34.1875 C8.86864538 27.19987496 4.68924325 21.46598225 0.85546875 15.44335938 C0.32308594 14.58419922 -0.20929688 13.72503906 -0.7578125 12.83984375 C-1.24781738 12.06632568 -1.73782227 11.29280762 -2.24267578 10.49584961 C-3.45846821 7.87254578 -3.5190549 6.0454745 -3.3125 3.1875 C-4.3025 3.5175 -5.2925 3.8475 -6.3125 4.1875 C-6.3125 3.5275 -6.3125 2.8675 -6.3125 2.1875 C-3.3125 0.1875 -3.3125 0.1875 0 0 Z " fill="#71BB69" transform="translate(101.3125,64.8125)"/>
<path d="M0 0 C-1.19989223 3.5996767 -1.98403808 3.86867665 -5.18359375 5.69921875 C-6.02857422 6.18583984 -6.87355469 6.67246094 -7.74414062 7.17382812 C-8.63294922 7.67333984 -9.52175781 8.17285156 -10.4375 8.6875 C-11.32244141 9.19861328 -12.20738281 9.70972656 -13.11914062 10.23632812 C-19.7168725 14 -19.7168725 14 -22 14 C-21.34 15.98 -20.68 17.96 -20 20 C-17.06133716 18.37709629 -14.12427597 16.7513153 -11.1875 15.125 C-10.35412109 14.66480469 -9.52074219 14.20460938 -8.66210938 13.73046875 C-7.85966797 13.28574219 -7.05722656 12.84101562 -6.23046875 12.3828125 C-5.49207764 11.97434082 -4.75368652 11.56586914 -3.99291992 11.14501953 C-2.28741338 10.16513154 -0.63660994 9.09107329 1 8 C1.99 8 2.98 8 4 8 C4 8.66 4 9.32 4 10 C2.02807617 11.29345703 2.02807617 11.29345703 -0.70703125 12.7578125 C-1.68607422 13.30179688 -2.66511719 13.84578125 -3.67382812 14.40625 C-5.7474284 15.54176229 -7.82811234 16.66444419 -9.91601562 17.7734375 C-16.57196583 21.50949873 -18.93078236 23.68166409 -21 31 C-24.62454241 34.43151945 -29.27282644 36.26972508 -34.25 36.5625 C-38.4659259 35.93011111 -40.09789975 35.07281203 -43 32 C-45.51794788 28.52283389 -45.29924638 25.18944931 -45 21 C-43.71465848 17.58112205 -42.19477485 16.08518454 -39.0625 14.25 C-38.37285156 13.82203125 -37.68320312 13.3940625 -36.97265625 12.953125 C-33.88562232 11.963327 -32.07105919 12.04555186 -28.875 12.234375 C-22.02133912 12.37937731 -17.59281554 9.59478898 -11.9375 6 C-10.09429611 4.87197446 -8.24933353 3.74681592 -6.40234375 2.625 C-5.60304443 2.12226562 -4.80374512 1.61953125 -3.98022461 1.1015625 C-2 0 -2 0 0 0 Z M-42 20 C-43.0829604 23.23754131 -42.95859647 25.74077201 -42 29 C-39.63804768 32.40399011 -38.23817677 33.72484961 -34.1875 34.625 C-29.81562464 33.76776954 -26.48574983 31.74533996 -23 29 C-21.56695936 26.13391871 -21.69355845 24.18699217 -22 21 C-23.89276914 16.98732943 -25.02717741 15.38149906 -29.1875 13.75 C-34.60165031 14.10502625 -38.32793392 15.97283303 -42 20 Z " fill="#0D1F0C" transform="translate(95,84)"/>
<path d="M0 0 C0 0.66 0 1.32 0 2 C0.66 2 1.32 2 2 2 C1.8125 3.8125 1.8125 3.8125 1 6 C-1.68774058 8.0904649 -3.18536009 9.03879238 -6.625 8.875 C-7.40875 8.91625 -8.1925 8.9575 -9 9 C-10.04892238 10.63631892 -11.04906703 12.30485863 -12 14 C-14.1875 14.8125 -14.1875 14.8125 -16 15 C-15.67 16.32 -15.34 17.64 -15 19 C-16.98 19.99 -16.98 19.99 -19 21 C-19 20.01 -19 19.02 -19 18 C-25.93 21.465 -25.93 21.465 -33 25 C-33.99 23.35 -34.98 21.7 -36 20 C-28.04361092 14.98112748 -19.96617261 10.19105876 -11.8125 5.5 C-10.87962158 4.95956055 -9.94674316 4.41912109 -8.9855957 3.86230469 C-8.10991943 3.36118164 -7.23424316 2.86005859 -6.33203125 2.34375 C-5.54546143 1.89193359 -4.7588916 1.44011719 -3.94848633 0.97460938 C-2 0 -2 0 0 0 Z " fill="#494949" transform="translate(97,111)"/>
<path d="M0 0 C1.06775224 1.96466413 2.06553465 3.96855359 3 6 C2.67 6.66 2.34 7.32 2 8 C2.66 8.33 3.32 8.66 4 9 C-1.49349789 12.81492909 -6.95092327 16.14043646 -13 19 C-12 16 -12 16 -11 14 C-11.98742187 14.5775 -12.97484375 15.155 -13.9921875 15.75 C-15.28632735 16.500226 -16.58060537 17.25021368 -17.875 18 C-18.52597656 18.3815625 -19.17695312 18.763125 -19.84765625 19.15625 C-24.7734375 22 -24.7734375 22 -27 22 C-27 20 -27 20 -25 17.875 C-24.34 17.25625 -23.68 16.6375 -23 16 C-24.98 16.66 -26.96 17.32 -29 18 C-29 17.34 -29 16.68 -29 16 C-27.3034668 14.76318359 -27.3034668 14.76318359 -24.94921875 13.3984375 C-23.68368164 12.66367188 -23.68368164 12.66367188 -22.39257812 11.9140625 C-21.49990234 11.40617187 -20.60722656 10.89828125 -19.6875 10.375 C-18.80642578 9.859375 -17.92535156 9.34375 -17.01757812 8.8125 C-10.38604704 5 -10.38604704 5 -7 5 C-6.67 6.32 -6.34 7.64 -6 9 C-5.34 8.67 -4.68 8.34 -4 8 C-4.66 7.01 -5.32 6.02 -6 5 C-6 4.01 -6 3.02 -6 2 C-2.25 0 -2.25 0 0 0 Z " fill="#313131" transform="translate(145,94)"/>
<path d="M0 0 C3.36479277 3.06925235 5.48212852 6.24091905 7.71484375 10.19921875 C8.05246231 10.79370316 8.39008087 11.38818756 8.7379303 12.00068665 C9.81060049 13.89289167 10.87412941 15.79005641 11.9375 17.6875 C12.64719535 18.94239177 13.35747689 20.19695222 14.06835938 21.45117188 C15.4367623 23.86759814 16.79736579 26.28815243 18.15185547 28.71240234 C19.29045541 30.73781672 20.44284831 32.75563583 21.61767578 34.76025391 C22.07513184 35.54706543 22.53258789 36.33387695 23.00390625 37.14453125 C23.39521729 37.80428955 23.78652832 38.46404785 24.18969727 39.14379883 C25 41 25 41 25 45 C19.7265625 48.22265625 19.7265625 48.22265625 18 49 C17.34 48.67 16.68 48.34 16 48 C16 47.01 16 46.02 16 45 C17.32 44.34 18.64 43.68 20 43 C19.41158944 38.94344996 18.10756759 36.08841694 16.015625 32.578125 C15.40976563 31.55203125 14.80390625 30.5259375 14.1796875 29.46875 C13.54289062 28.4065625 12.90609375 27.344375 12.25 26.25 C11.00436398 24.15154264 9.75955903 22.05259172 8.515625 19.953125 C7.91943359 18.94958984 7.32324219 17.94605469 6.70898438 16.91210938 C4.40144553 12.98006318 2.18287089 9.0023535 0 5 C-1.299375 5.7425 -1.299375 5.7425 -2.625 6.5 C-6.10749623 8.0477761 -8.24759458 8.26802896 -12 8 C-9.69716746 5.45868642 -7.32686207 3.92889705 -4.3125 2.3125 C-3.50425781 1.87550781 -2.69601563 1.43851563 -1.86328125 0.98828125 C-1.24839844 0.66214844 -0.63351563 0.33601563 0 0 Z " fill="#2D362D" transform="translate(154,26)"/>
<path d="M0 0 C4.40073587 3.76158137 6.91580389 8.60451652 9.75 13.5625 C10.25660156 14.42552734 10.76320313 15.28855469 11.28515625 16.17773438 C11.76339844 17.00724609 12.24164063 17.83675781 12.734375 18.69140625 C13.16975586 19.44623291 13.60513672 20.20105957 14.05371094 20.97875977 C15 23 15 23 15 26 C13.02 26.66 11.04 27.32 9 28 C2.07 16.12 2.07 16.12 -5 4 C-2 1 -2 1 0 0 Z " fill="#85C47D" transform="translate(113,62)"/>
<path d="M0 0 C-1.62339805 1.70884005 -3.29319053 3.37446717 -5 5 C-5.66 5 -6.32 5 -7 5 C-6.67 6.32 -6.34 7.64 -6 9 C-6.99 9 -7.98 9 -9 9 C-8.6596875 9.48726562 -8.319375 9.97453125 -7.96875 10.4765625 C-4.63642515 15.35097385 -1.53670846 20.33904459 1.4375 25.4375 C1.98664062 26.36006592 1.98664062 26.36006592 2.546875 27.30126953 C3.42842286 28.83249093 4.22250726 30.41340912 5 32 C4.67 32.66 4.34 33.32 4 34 C3.60167969 33.38511719 3.20335938 32.77023438 2.79296875 32.13671875 C2.26316406 31.32847656 1.73335937 30.52023438 1.1875 29.6875 C0.66542969 28.88699219 0.14335938 28.08648437 -0.39453125 27.26171875 C-2.08242718 24.7502677 -2.08242718 24.7502677 -5 22 C-2.36 26.95 0.28 31.9 3 37 C2.01 37 1.02 37 0 37 C-2.81263541 33.41560487 -4.9625943 29.3721112 -7.25 25.4375 C-7.91257812 24.35146484 -8.57515625 23.26542969 -9.2578125 22.14648438 C-9.87914062 21.08623047 -10.50046875 20.02597656 -11.140625 18.93359375 C-11.99962402 17.4803772 -11.99962402 17.4803772 -12.87597656 15.99780273 C-14.27009254 12.27965545 -13.83127929 9.83255633 -13 6 C-12.01 6 -11.02 6 -10 6 C-10 5.01 -10 4.02 -10 3 C-6.62637846 0.39749195 -4.23092172 -0.36265043 0 0 Z " fill="#3B5439" transform="translate(42,100)"/>
<path d="M0 0 C0.33 1.32 0.66 2.64 1 4 C0.01 4.495 0.01 4.495 -1 5 C-0.67 5.99 -0.34 6.98 0 8 C-2.8125 10.0625 -2.8125 10.0625 -6 12 C-6.99 11.67 -7.98 11.34 -9 11 C-8.01 10.01 -7.02 9.02 -6 8 C-7.32 8.33 -8.64 8.66 -10 9 C-10 9.66 -10 10.32 -10 11 C-11.32 11 -12.64 11 -14 11 C-14 11.66 -14 12.32 -14 13 C-13.01 13.33 -12.02 13.66 -11 14 C-12.00671686 17.02015057 -12.548356 18.09316578 -15 20 C-16.32 20 -17.64 20 -19 20 C-19 19.34 -19 18.68 -19 18 C-17 16.375 -17 16.375 -15 15 C-15.33 13.68 -15.66 12.36 -16 11 C-16.763125 11.495 -17.52625 11.99 -18.3125 12.5 C-21 14 -21 14 -24 14 C-24 13.34 -24 12.68 -24 12 C-22.34151823 10.98648336 -20.67334039 9.98879205 -19 9 C-18.38511719 8.37480469 -17.77023438 7.74960938 -17.13671875 7.10546875 C-14.91367092 4.91493351 -12.71080261 3.33197758 -10.0625 1.6875 C-9.22847656 1.15511719 -8.39445312 0.62273437 -7.53515625 0.07421875 C-4.53652691 -1.1963869 -3.065923 -0.93787627 0 0 Z " fill="#353A35" transform="translate(73,69)"/>
<path d="M0 0 C-1.39195915 2.7839183 -3.15575779 2.97898997 -6 4 C-2.26271289 10.95436577 1.61361043 17.79841216 5.6796875 24.56640625 C7 27 7 27 7 29 C8.98 28.34 10.96 27.68 13 27 C11.75 28.5 11.75 28.5 10 30 C8.68 30 7.36 30 6 30 C6.33 31.65 6.66 33.3 7 35 C4.69 35.99 2.38 36.98 0 38 C1.75 34.125 1.75 34.125 4 33 C3.06040544 26.81288472 -0.08618857 22.0318768 -3.1875 16.6875 C-3.75275391 15.66076172 -4.31800781 14.63402344 -4.90039062 13.57617188 C-5.46306641 12.60615234 -6.02574219 11.63613281 -6.60546875 10.63671875 C-7.36573364 9.30193481 -7.36573364 9.30193481 -8.14135742 7.94018555 C-9.92586148 5.65207284 -9.92586148 5.65207284 -13.2121582 5.71020508 C-14.59213989 5.85365356 -14.59213989 5.85365356 -16 6 C-15.67 5.01 -15.34 4.02 -15 3 C-12.3828125 1.796875 -12.3828125 1.796875 -9.125 0.75 C-7.52011719 0.21632812 -7.52011719 0.21632812 -5.8828125 -0.328125 C-3 -1 -3 -1 0 0 Z " fill="#061605" transform="translate(115,61)"/>
<path d="M0 0 C2.0625 0.4375 2.0625 0.4375 4 1 C4.33 2.32 4.66 3.64 5 5 C-14.36893204 17 -14.36893204 17 -17 17 C-19 14 -19 14 -19 11 C-18.18994507 10.55346069 -18.18994507 10.55346069 -17.36352539 10.09790039 C-14.92887423 8.75452698 -12.4956726 7.40854945 -10.0625 6.0625 C-9.21236328 5.59392578 -8.36222656 5.12535156 -7.48632812 4.64257812 C-6.67744141 4.19462891 -5.86855469 3.74667969 -5.03515625 3.28515625 C-3.91185913 2.66459351 -3.91185913 2.66459351 -2.76586914 2.03149414 C-1.03748855 1.1221285 -1.03748855 1.1221285 0 0 Z " fill="#A6D2A0" transform="translate(92,87)"/>
<path d="M0 0 C0.66 0.33 1.32 0.66 2 1 C0.58083133 5.4602444 -1.86594306 8.32863587 -5.0625 11.625 C-10.33275816 17.2029017 -15.21425283 22.99713688 -20 29 C-19.34 29.99 -18.68 30.98 -18 32 C-18.33 32.99 -18.66 33.98 -19 35 C-19.45375 34.505 -19.9075 34.01 -20.375 33.5 C-21.87635519 31.77390663 -21.87635519 31.77390663 -24 32 C-24.2475 31.195625 -24.495 30.39125 -24.75 29.5625 C-25.72238859 26.828919 -25.72238859 26.828919 -28.125 26.1875 C-29.053125 26.0946875 -29.053125 26.0946875 -30 26 C-27 24 -27 24 -24.25 23.8125 C-16.68144992 21.92036248 -11.84160487 13.48274404 -7.2109375 7.6484375 C-4.94505883 4.93418708 -2.53428449 2.46314668 0 0 Z " fill="#30372F" transform="translate(140,34)"/>
<path d="M0 0 C1.32 0.33 2.64 0.66 4 1 C3.01 1.33 2.02 1.66 1 2 C3.18494603 5.84237214 5.37212877 9.68345999 7.5612793 13.5234375 C8.30373834 14.8264829 9.04561407 16.12986086 9.78686523 17.43359375 C10.86023515 19.32121934 11.93535359 21.20783087 13.01171875 23.09375 C13.35886932 23.70226807 13.7060199 24.31078613 14.06369019 24.93774414 C15.97484969 28.26998134 17.94704087 31.54714156 20.01953125 34.78125 C22 38 22 38 22 40 C24.31 39.34 26.62 38.68 29 38 C28 41 28 41 25.75 42.6875 C22.8635748 44.06511203 21.14826764 44.26985151 18 44 C18.99 43.505 18.99 43.505 20 43 C16.36648124 36.29423774 12.6923036 29.61103787 9 22.9375 C8.57122559 22.15890625 8.14245117 21.3803125 7.70068359 20.578125 C4.92156799 15.56107324 1.99605094 10.68893796 -1.234375 5.9453125 C-2 4 -2 4 -1.140625 1.7421875 C-0.76421875 1.16726562 -0.3878125 0.59234375 0 0 Z " fill="#081707" transform="translate(142,34)"/>
<path d="M0 0 C3.8688358 1.28961193 4.19502904 2.61079519 6.13671875 6.12890625 C6.71357422 7.16337891 7.29042969 8.19785156 7.88476562 9.26367188 C8.47966797 10.35228516 9.07457031 11.44089844 9.6875 12.5625 C10.29400391 13.65498047 10.90050781 14.74746094 11.52539062 15.87304688 C13.02527302 18.57755922 14.51634906 21.28655955 16 24 C15.34 24.99 14.68 25.98 14 27 C13.01 27 12.02 27 11 27 C9.37426758 24.796875 9.37426758 24.796875 7.64453125 21.75 C7.02255859 20.6671875 6.40058594 19.584375 5.75976562 18.46875 C5.11716797 17.3240625 4.47457031 16.179375 3.8125 15 C2.83120117 13.28296875 2.83120117 13.28296875 1.83007812 11.53125 C0.20994001 8.69305184 -1.39948218 5.8492943 -3 3 C-2.01 2.01 -1.02 1.02 0 0 Z " fill="#86C17E" transform="translate(24,113)"/>
<path d="M0 0 C4.53240526 1.47996906 6.20817652 5.08780741 8.4375 9 C8.82929443 9.67409912 9.22108887 10.34819824 9.62475586 11.04272461 C10.76470624 13.02047838 11.88558701 15.00776772 13 17 C13.55945312 17.99128906 14.11890625 18.98257813 14.6953125 20.00390625 C17.08098744 24.4685265 18.68498218 27.79413546 18 33 C13.26468698 28.64387814 10.40371065 23.27114989 7.23461914 17.75463867 C6.18470574 15.93265092 5.11743619 14.12161824 4.04882812 12.31054688 C3.3791321 11.1542685 2.71047495 9.99738767 2.04296875 8.83984375 C1.43477295 7.79175537 0.82657715 6.74366699 0.19995117 5.66381836 C-1 3 -1 3 0 0 Z " fill="#83BC7B" transform="translate(6,122)"/>
<path d="M0 0 C2.25 0.25 2.25 0.25 4 1 C2.84826645 3.46800047 1.95216435 5.04783565 0 7 C0.99 7.99 1.98 8.98 3 10 C4.15628906 9.3503125 4.15628906 9.3503125 5.3359375 8.6875 C6.33882812 8.130625 7.34171875 7.57375 8.375 7 C9.37273437 6.443125 10.37046875 5.88625 11.3984375 5.3125 C14 4 14 4 16 4 C15.86328125 5.7578125 15.86328125 5.7578125 15 8 C12.41796875 9.9921875 12.41796875 9.9921875 9.1875 11.875 C8.12917969 12.51179687 7.07085937 13.14859375 5.98046875 13.8046875 C3 15 3 15 0.72265625 14.328125 C-1.28618283 12.77936018 -2.59732137 11.10401795 -4 9 C-4.763125 9.515625 -5.52625 10.03125 -6.3125 10.5625 C-7.199375 11.036875 -8.08625 11.51125 -9 12 C-9.99 11.67 -10.98 11.34 -12 11 C-11.34 11 -10.68 11 -10 11 C-9.67 9.68 -9.34 8.36 -9 7 C-8.34 7 -7.68 7 -7 7 C-6.67 6.01 -6.34 5.02 -6 4 C-5.34 4 -4.68 4 -4 4 C-3.071875 2.9790625 -3.071875 2.9790625 -2.125 1.9375 C-1.42375 1.298125 -0.7225 0.65875 0 0 Z " fill="#1D1F1E" transform="translate(62,125)"/>
<path d="M0 0 C0.66 0 1.32 0 2 0 C2.66 1.65 3.32 3.3 4 5 C-0.29 7.64 -4.58 10.28 -9 13 C-8.34 13 -7.68 13 -7 13 C-7.33 13.99 -7.66 14.98 -8 16 C-9.8125 15.875 -9.8125 15.875 -12 15 C-13.95320589 11.79116175 -15 9.7794561 -15 6 C-10.18053184 2.95094872 -6.77405135 1.57740514 -1 1 C-0.67 0.67 -0.34 0.34 0 0 Z " fill="#598A54" transform="translate(55,80)"/>
<path d="M0 0 C0.495 1.485 0.495 1.485 1 3 C-3.26682129 5.40996388 -7.52661908 7.79971109 -11.9375 9.9375 C-18.75123288 13.30348404 -25.13040788 17.16621825 -31 22 C-32.3153341 22.70151152 -33.65117592 23.36525925 -35 24 C-36.18762813 24.72895796 -37.37511686 25.45814306 -38.5625 26.1875 C-40.2640625 27.0846875 -40.2640625 27.0846875 -42 28 C-42.99 27.67 -43.98 27.34 -45 27 C-44.19175781 26.55269531 -43.38351563 26.10539062 -42.55078125 25.64453125 C-41.48214844 25.03996094 -40.41351563 24.43539062 -39.3125 23.8125 C-38.25675781 23.22082031 -37.20101562 22.62914063 -36.11328125 22.01953125 C-32.96183106 20.13891879 -32.96183106 20.13891879 -30.65966797 17.59350586 C-28.00974848 15.00950597 -25.53320479 13.31910612 -22.33203125 11.484375 C-20.74551758 10.56785156 -20.74551758 10.56785156 -19.12695312 9.6328125 C-17.48629883 8.70082031 -17.48629883 8.70082031 -15.8125 7.75 C-14.70712891 7.11320312 -13.60175781 6.47640625 -12.46289062 5.8203125 C-2.33926197 0 -2.33926197 0 0 0 Z " fill="#69A662" transform="translate(96,73)"/>
<path d="M0 0 C0 3 0 3 -1.5 4.6875 C-1.995 5.120625 -2.49 5.55375 -3 6 C-1.02 5.67 0.96 5.34 3 5 C-0.8331384 8.22828956 -4.79902157 10.82164716 -9.125 13.3125 C-9.74503906 13.68439453 -10.36507812 14.05628906 -11.00390625 14.43945312 C-12.62448915 15.37520906 -14.30993886 16.19649427 -16 17 C-16.99 16.67 -17.98 16.34 -19 16 C-19.33 14.35 -19.66 12.7 -20 11 C-19.31035156 10.62488281 -18.62070313 10.24976562 -17.91015625 9.86328125 C-11.92430667 6.6034976 -5.95192711 3.32132229 0 0 Z " fill="#3A3A3A" transform="translate(167,81)"/>
<path d="M0 0 C2.1796875 -0.046875 2.1796875 -0.046875 5 1 C7.08806619 3.70994336 8.57575185 6.70835685 10.125 9.75 C10.98130562 11.37003765 11.83806455 12.98983579 12.6953125 14.609375 C13.09395508 15.37185547 13.49259766 16.13433594 13.90332031 16.91992188 C16.14160871 21.73029891 16.14160871 21.73029891 20 25 C20 25.99 20 26.98 20 28 C18.35 27.67 16.7 27.34 15 27 C14.67 27.66 14.34 28.32 14 29 C9.82093105 25.44005237 7.31440569 20.91336946 5 16 C5 15.34 5 14.68 5 14 C8.82053924 15.27351308 9.23021375 16.62637525 11.1875 20.0625 C11.71730469 20.98160156 12.24710938 21.90070313 12.79296875 22.84765625 C13.19128906 23.55792969 13.58960938 24.26820313 14 25 C10.27220067 18.06328917 6.41501572 11.21886774 2.41796875 4.43359375 C1.57049801 2.97911918 0.75282175 1.5056435 0 0 Z " fill="#081907" transform="translate(32,108)"/>
<path d="M0 0 C3 3.75 3 3.75 3 6 C4.32 6.33 5.64 6.66 7 7 C6.34 7.61875 5.68 8.2375 5 8.875 C2.7715451 10.75637427 2.7715451 10.75637427 3 13 C6.465 12.505 6.465 12.505 10 12 C10.144375 12.928125 10.28875 13.85625 10.4375 14.8125 C10.92100111 18.00725111 10.92100111 18.00725111 12 21 C11.360625 20.835 10.72125 20.67 10.0625 20.5 C8.19173179 19.96073333 8.19173179 19.96073333 7 20 C7 20.99 7 21.98 7 23 C6.34 23 5.68 23 5 23 C3.33162878 20.59078898 1.80613412 18.20151477 0.3125 15.6875 C-0.33041992 14.65206055 -0.33041992 14.65206055 -0.98632812 13.59570312 C-1.38658203 12.92861328 -1.78683594 12.26152344 -2.19921875 11.57421875 C-2.56877686 10.96151123 -2.93833496 10.34880371 -3.3190918 9.7175293 C-4 8 -4 8 -3 5 C-2.01 5.33 -1.02 5.66 0 6 C-0.99 4.68 -1.98 3.36 -3 2 C-2.01 2 -1.02 2 0 2 C0 1.34 0 0.68 0 0 Z " fill="#081707" transform="translate(121,60)"/>
<path d="M0 0 C1.5 1.375 1.5 1.375 3 3 C3 3.66 3 4.32 3 5 C-1.05927461 5.87000431 -5.12280627 6.71820824 -9.1875 7.5625 C-10.33798828 7.80935547 -11.48847656 8.05621094 -12.67382812 8.31054688 C-14.34155273 8.65375977 -14.34155273 8.65375977 -16.04296875 9.00390625 C-17.06414795 9.21861572 -18.08532715 9.4333252 -19.13745117 9.65454102 C-22.0551693 10.00665796 -24.17548343 9.74639836 -27 9 C-24.6349916 6.21294336 -22.7582833 5.43342553 -19.21875 4.6484375 C-18.29449219 4.43703125 -17.37023437 4.225625 -16.41796875 4.0078125 C-15.45503906 3.79898438 -14.49210938 3.59015625 -13.5 3.375 C-11.59354156 2.94623826 -9.68728241 2.51658917 -7.78125 2.0859375 C-6.93626953 1.9007959 -6.09128906 1.7156543 -5.22070312 1.52490234 C-2.84788641 0.99903043 -2.84788641 0.99903043 0 0 Z " fill="#6BB363" transform="translate(159,71)"/>
<path d="M0 0 C1.32 1.32 2.64 2.64 4 4 C-0.75 8 -0.75 8 -3 8 C-3.25136719 8.56460938 -3.50273437 9.12921875 -3.76171875 9.7109375 C-5.18083507 12.33428818 -6.84947601 14.38047162 -8.8125 16.625 C-9.47894531 17.40101562 -10.14539063 18.17703125 -10.83203125 18.9765625 C-13.13133294 21.12257741 -15.03080068 22.03617614 -18 23 C-17.47403544 18.83124387 -15.19493533 16.73180473 -12.375 13.75 C-11.02921875 12.30947266 -11.02921875 12.30947266 -9.65625 10.83984375 C-8.7796875 9.90269531 -7.903125 8.96554688 -7 8 C-4.64566012 5.35136763 -2.31884571 2.67972567 0 0 Z " fill="#69B062" transform="translate(140,39)"/>
<path d="M0 0 C3.5625 0.1875 3.5625 0.1875 5.5625 2.1875 C5.875 5.6875 5.875 5.6875 5.5625 9.1875 C2.32996204 11.34252531 1.31099077 11.65606135 -2.4375 11.1875 C-4.3125 10.125 -4.3125 10.125 -5.4375 8.1875 C-4.89124449 0.26679515 -4.89124449 0.26679515 0 0 Z " fill="#7CBC76" transform="translate(62.4375,102.8125)"/>
<path d="M0 0 C5 5.64516129 5 5.64516129 5 10 C3.0625 12.3125 3.0625 12.3125 1 14 C2.65 13.34 4.3 12.68 6 12 C6.33 12.66 6.66 13.32 7 14 C5.56656 14.53190541 4.12804633 15.05015258 2.6875 15.5625 C1.88699219 15.85253906 1.08648437 16.14257812 0.26171875 16.44140625 C-2 17 -2 17 -5 16 C-4.34 15.67 -3.68 15.34 -3 15 C-4.1094072 11.51329166 -5.26337666 8.22515763 -7 5 C-5.5459375 4.5978125 -5.5459375 4.5978125 -4.0625 4.1875 C-3.051875 3.795625 -2.04125 3.40375 -1 3 C-0.67 2.01 -0.34 1.02 0 0 Z " fill="#5A8555" transform="translate(115,84)"/>
<path d="M0 0 C-0.165 0.515625 -0.33 1.03125 -0.5 1.5625 C-1.47326509 6.3071673 -1.55299738 9.80183901 0.5 14.25 C3.7715086 17.84865946 6.3797216 18.61391648 11 20 C9.35 21.32 7.7 22.64 6 24 C2.55472666 22.59968668 1.21478543 21.22455573 -0.54296875 17.97265625 C-0.97673828 17.18052734 -1.41050781 16.38839844 -1.85742188 15.57226562 C-2.29634766 14.74404297 -2.73527344 13.91582031 -3.1875 13.0625 C-3.63802734 12.23814453 -4.08855469 11.41378906 -4.55273438 10.56445312 C-6.27194256 7.39152167 -7.8564884 4.43053479 -9 1 C-6.04335481 -0.4783226 -3.25770263 -0.06032783 0 0 Z " fill="#89BB82" transform="translate(52,101)"/>
<path d="M0 0 C0.10884521 0.7216333 0.21769043 1.4432666 0.32983398 2.18676758 C1.05145823 5.2160121 2.14033344 7.33727289 3.72265625 10.01171875 C4.26083984 10.93404297 4.79902344 11.85636719 5.35351562 12.80664062 C5.91748047 13.75732422 6.48144531 14.70800781 7.0625 15.6875 C8.18219003 17.58499967 9.29827145 19.48463491 10.41015625 21.38671875 C10.90652588 22.22420654 11.40289551 23.06169434 11.91430664 23.92456055 C13 26 13 26 13 28 C13.66 28.33 14.32 28.66 15 29 C14.01 29.66 13.02 30.32 12 31 C11.34773438 29.88882813 10.69546875 28.77765625 10.0234375 27.6328125 C7.77111724 23.79774575 5.51509034 19.964876 3.25683594 16.13330078 C2.19323459 14.32798832 1.13155934 12.52154131 0.0703125 10.71484375 C-0.44789062 9.83957031 -0.96609375 8.96429688 -1.5 8.0625 C-1.9434375 7.31097656 -2.386875 6.55945313 -2.84375 5.78515625 C-4.00561319 3.8549964 -4.00561319 3.8549964 -6 2 C-2.25 0 -2.25 0 0 0 Z " fill="#091808" transform="translate(44,100)"/>
<path d="M0 0 C-0.99 0.33 -1.98 0.66 -3 1 C-2.01 1.66 -1.02 2.32 0 3 C-2.8859723 4.68419305 -5.7852118 6.34410697 -8.6875 8 C-9.91243164 8.71542969 -9.91243164 8.71542969 -11.16210938 9.4453125 C-11.95810547 9.89648438 -12.75410156 10.34765625 -13.57421875 10.8125 C-14.30213623 11.23144531 -15.03005371 11.65039062 -15.7800293 12.08203125 C-18.33372919 13.13799865 -20.26261386 13.16832505 -23 13 C-23.33 12.34 -23.66 11.68 -24 11 C-23.34 11 -22.68 11 -22 11 C-21.67 9.68 -21.34 8.36 -21 7 C-19.23050388 6.49528803 -17.45934777 5.99639315 -15.6875 5.5 C-14.70136719 5.2215625 -13.71523437 4.943125 -12.69921875 4.65625 C-10 4 -10 4 -7 4 C-7 2.68 -7 1.36 -7 0 C-3.86650268 -1.04449911 -3.01031744 -0.93423645 0 0 Z " fill="#494849" transform="translate(131,96)"/>
<path d="M0 0 C0.33 0.66 0.66 1.32 1 2 C-0.20757436 5.62272308 -1.01854049 5.87798637 -4.25390625 7.69921875 C-5.10791016 8.18583984 -5.96191406 8.67246094 -6.84179688 9.17382812 C-7.73962891 9.67333984 -8.63746094 10.17285156 -9.5625 10.6875 C-10.91504883 11.45416992 -10.91504883 11.45416992 -12.29492188 12.23632812 C-14.52546969 13.49912504 -16.76047358 14.75321746 -19 16 C-19.99 15.01 -20.98 14.02 -22 13 C-19.45543849 10.03134491 -16.51005335 8.6380249 -13 7 C-13.66 5.68 -14.32 4.36 -15 3 C-13.68 3.33 -12.36 3.66 -11 4 C-11 4.66 -11 5.32 -11 6 C-7.37 4.02 -3.74 2.04 0 0 Z " fill="#051404" transform="translate(94,69)"/>
<path d="M0 0 C0.66 0.33 1.32 0.66 2 1 C0.38001014 5.85996958 -4.01672425 7.28897683 -8.3125 9.75 C-9.18068359 10.26949219 -10.04886719 10.78898437 -10.94335938 11.32421875 C-11.78318359 11.81019531 -12.62300781 12.29617187 -13.48828125 12.796875 C-14.25696533 13.24385742 -15.02564941 13.69083984 -15.81762695 14.15136719 C-18.35529829 15.13816052 -19.48752061 14.93258436 -22 14 C-20.06745228 11.9754262 -18.36841312 10.57894208 -16 9 C-15.7525 8.319375 -15.505 7.63875 -15.25 6.9375 C-14.8375 6.298125 -14.425 5.65875 -14 5 C-11.67145135 4.63473747 -9.33701038 4.30649316 -7 4 C-5.03717967 3.04958328 -5.03717967 3.04958328 -3.1875 1.875 C-2.135625 1.25625 -1.08375 0.6375 0 0 Z " fill="#303030" transform="translate(102,114)"/>
<path d="M0 0 C0.66 0 1.32 0 2 0 C3.09741211 1.54467773 3.09741211 1.54467773 4.27734375 3.68359375 C4.70853516 4.44607422 5.13972656 5.20855469 5.58398438 5.99414062 C6.48375541 7.61840262 7.38220117 9.24339949 8.27929688 10.86914062 C8.71177734 11.63291016 9.14425781 12.39667969 9.58984375 13.18359375 C9.98034912 13.89056396 10.37085449 14.59753418 10.77319336 15.32592773 C11.98337574 17.31572839 11.98337574 17.31572839 15 18 C15 18.66 15 19.32 15 20 C13.35 20 11.7 20 10 20 C9.67 22.97 9.34 25.94 9 29 C6.3144406 26.3144406 5.93950026 23.62378672 5 20 C5.99 19.67 6.98 19.34 8 19 C6.47690613 14.70764454 4.30437885 10.91070929 2.0234375 6.98828125 C1 5 1 5 1 3 C0.34 3 -0.32 3 -1 3 C-0.67 2.01 -0.34 1.02 0 0 Z " fill="#091808" transform="translate(16,122)"/>
<path d="M0 0 C1.91015625 0.44921875 1.91015625 0.44921875 4.47265625 2.57421875 C6.25212063 6.13314751 6.13291975 7.69941069 4.91015625 11.44921875 C3.15900678 14.27051512 1.77702453 14.48866519 -1.46484375 15.44921875 C-5.08984375 15.44921875 -5.08984375 15.44921875 -8.02734375 13.38671875 C-10.08984375 10.44921875 -10.08984375 10.44921875 -10.65234375 7.38671875 C-10.08984375 4.44921875 -10.08984375 4.44921875 -8.58984375 2.07421875 C-5.55617063 0.10233122 -3.57032574 -0.19353168 0 0 Z M-6.08984375 2.44921875 C-8.24486906 5.68175671 -8.5584051 6.70072798 -8.08984375 10.44921875 C-7.1538706 12.46872937 -7.1538706 12.46872937 -5.08984375 13.44921875 C-0.74475159 13.39855255 -0.74475159 13.39855255 2.91015625 11.44921875 C3.16019589 7.99100473 3.16019589 7.99100473 2.91015625 4.44921875 C0.96557311 2.07702185 0.96557311 2.07702185 -2.58984375 2.13671875 C-3.74484375 2.23984375 -4.89984375 2.34296875 -6.08984375 2.44921875 Z " fill="#0E230C" transform="translate(65.08984375,100.55078125)"/>
<path d="M0 0 C2.33944736 0.28730055 4.6739143 0.61936779 7 1 C3.55554033 4.87167947 -0.36761858 7.26377298 -4.8125 9.8125 C-5.84213867 10.44188477 -5.84213867 10.44188477 -6.89257812 11.08398438 C-11.76436371 13.88168906 -14.53335378 14.39345884 -20 13 C-20 12.01 -20 11.02 -20 10 C-18.35 9.67 -16.7 9.34 -15 9 C-15 9.66 -15 10.32 -15 11 C-14.34 11 -13.68 11 -13 11 C-13.33 10.01 -13.66 9.02 -14 8 C-11.24921116 7.08307039 -9.64051087 6.89113917 -6.8125 6.9375 C-4.9253125 6.9684375 -4.9253125 6.9684375 -3 7 C-2.67 6.01 -2.34 5.02 -2 4 C-1.01 4 -0.02 4 1 4 C1 3.34 1 2.68 1 2 C0.34 1.67 -0.32 1.34 -1 1 C-0.67 0.67 -0.34 0.34 0 0 Z " fill="#88C481" transform="translate(85,83)"/>
<path d="M0 0 C3.80770654 3.40597604 6.18867418 7.26991181 8.75 11.625 C9.16121094 12.305625 9.57242187 12.98625 9.99609375 13.6875 C13 18.73725602 13 18.73725602 13 21 C10.76953125 20.91796875 10.76953125 20.91796875 8 20 C6.29542317 17.75400435 5.00520202 15.76537605 3.6875 13.3125 C3.32849609 12.69955078 2.96949219 12.08660156 2.59960938 11.45507812 C0.38614507 7.47927461 -0.41054256 4.52988482 0 0 Z " fill="#83B77C" transform="translate(19,119)"/>
<path d="M0 0 C3.29007607 0.95283293 4.74900481 1.65699139 6.80078125 4.4609375 C7.29964844 5.42257813 7.79851562 6.38421875 8.3125 7.375 C8.82425781 8.33148438 9.33601562 9.28796875 9.86328125 10.2734375 C11 13 11 13 11 17 C5.7265625 20.22265625 5.7265625 20.22265625 4 21 C3.34 20.67 2.68 20.34 2 20 C2 19.01 2 18.02 2 17 C3.32 16.34 4.64 15.68 6 15 C5.57357674 10.45148524 3.55065884 7.461741 1.05859375 3.76953125 C0 2 0 2 0 0 Z " fill="#2C322D" transform="translate(168,54)"/>
<path d="M0 0 C0 0.66 0 1.32 0 2 C-2.93517601 3.65000386 -5.87352474 5.29427432 -8.8125 6.9375 C-9.64587891 7.40607422 -10.47925781 7.87464844 -11.33789062 8.35742188 C-12.14033203 8.80537109 -12.94277344 9.25332031 -13.76953125 9.71484375 C-14.50792236 10.12855225 -15.24631348 10.54226074 -16.00708008 10.96850586 C-18 12 -18 12 -21 13 C-21.33 12.01 -21.66 11.02 -22 10 C-20.68 9.01 -19.36 8.02 -18 7 C-18.33 6.34 -18.66 5.68 -19 5 C-17.783125 4.731875 -16.56625 4.46375 -15.3125 4.1875 C-12.55245697 3.51325399 -10.82923671 2.89428939 -8.375 1.375 C-5.42350501 -0.33376026 -3.3540853 -0.23400595 0 0 Z " fill="#67AA60" transform="translate(78,115)"/>
<path d="M0 0 C0.33 0.99 0.66 1.98 1 3 C-3.625 7 -3.625 7 -7 7 C-6.34 9.31 -5.68 11.62 -5 14 C-5.99 13.67 -6.98 13.34 -8 13 C-8.6875 10.9375 -8.6875 10.9375 -9 9 C-10.65 9.66 -12.3 10.32 -14 11 C-14.66 9.68 -15.32 8.36 -16 7 C-14.08588443 6.01585567 -12.1686033 5.03786651 -10.25 4.0625 C-9.18265625 3.51722656 -8.1153125 2.97195312 -7.015625 2.41015625 C-4.61554115 1.28783725 -2.58143248 0.49498341 0 0 Z " fill="#1E1E1E" transform="translate(154,85)"/>
<path d="M0 0 C-2.66814645 3.11601389 -5.89438703 4.68254639 -9.5 6.5625 C-12.77804182 8.27904217 -15.92053772 9.94702515 -19 12 C-19.99 12 -20.98 12 -22 12 C-22 11.34 -22 10.68 -22 10 C-20.34151823 8.98648336 -18.67334039 7.98879205 -17 7 C-16.34 6.34 -15.68 5.68 -15 5 C-10.13272255 0.13272255 -6.63434925 -0.33733979 0 0 Z " fill="#2F3D2D" transform="translate(71,71)"/>
<path d="M0 0 C0.66 0.99 1.32 1.98 2 3 C4.05003955 4.19232613 4.05003955 4.19232613 6 5 C4.21118264 6.00508801 2.41885304 7.00392736 0.625 8 C-0.37273437 8.556875 -1.37046875 9.11375 -2.3984375 9.6875 C-5 11 -5 11 -7 11 C-9 8 -9 8 -9 5 C-6.03 3.35 -3.06 1.7 0 0 Z " fill="#85BF7E" transform="translate(82,93)"/>
<path d="M0 0 C0 1.32 0 2.64 0 4 C-2.1171875 5.703125 -2.1171875 5.703125 -4.875 7.25 C-5.77992187 7.77078125 -6.68484375 8.2915625 -7.6171875 8.828125 C-10 10 -10 10 -12 10 C-12 8 -12 8 -10 5.875 C-9.34 5.25625 -8.68 4.6375 -8 4 C-9.98 4.66 -11.96 5.32 -14 6 C-14 5.34 -14 4.68 -14 4 C-12.61518672 3.12808053 -11.21654754 2.27809616 -9.8125 1.4375 C-8.64654297 0.72400391 -8.64654297 0.72400391 -7.45703125 -0.00390625 C-4.51639033 -1.19605797 -2.99553637 -0.88855164 0 0 Z " fill="#403E3F" transform="translate(130,106)"/>
<path d="M0 0 C0.33 0.66 0.66 1.32 1 2 C2.65 1.34 4.3 0.68 6 0 C6 0.66 6 1.32 6 2 C7.32 2.33 8.64 2.66 10 3 C4.06818762 6.09485864 -0.32040507 6.2745039 -7 6 C-6.67 9.96 -6.34 13.92 -6 18 C-6.33 18 -6.66 18 -7 18 C-7 16.35 -7 14.7 -7 13 C-7.66 13 -8.32 13 -9 13 C-9 10.03 -9 7.06 -9 4 C-6.50907189 2.75453595 -5.58919267 3.2232422 -3 4 C-3 3.34 -3 2.68 -3 2 C-2.01 2 -1.02 2 0 2 C0 1.34 0 0.68 0 0 Z " fill="#414741" transform="translate(34,138)"/>
<path d="M0 0 C3.76854223 1.25618074 4.07958456 2.66014706 6 6 C6.66 6.33 7.32 6.66 8 7 C8 7.66 8 8.32 8 9 C7.34 9 6.68 9 6 9 C5.979375 9.5775 5.95875 10.155 5.9375 10.75 C4.63374779 13.8790053 2.63766396 14.58180652 -0.30859375 16.0703125 C-2.18565151 16.99960775 -2.18565151 16.99960775 -4 19 C-4.33 17.35 -4.66 15.7 -5 14 C-3.02 13.34 -1.04 12.68 1 12 C1.02712066 10.56260487 1.04645067 9.12506137 1.0625 7.6875 C1.07410156 6.88699219 1.08570312 6.08648437 1.09765625 5.26171875 C1.09657855 2.83138666 1.09657855 2.83138666 0 0 Z " fill="#323A32" transform="translate(126,77)"/>
<path d="M0 0 C0.66 0 1.32 0 2 0 C7 9 12 18 17 27 C16.01 27 15.02 27 14 27 C12.37426758 24.84448242 12.37426758 24.84448242 10.64453125 21.85546875 C10.02255859 20.78619141 9.40058594 19.71691406 8.75976562 18.61523438 C8.11716797 17.48408203 7.47457031 16.35292969 6.8125 15.1875 C5.83120117 13.50817383 5.83120117 13.50817383 4.83007812 11.79492188 C0 3.40901981 0 3.40901981 0 0 Z " fill="#6B9D64" transform="translate(28,110)"/>
<path d="M0 0 C0.99 0.33 1.98 0.66 3 1 C3 1.99 3 2.98 3 4 C2.34 4 1.68 4 1 4 C1 4.66 1 5.32 1 6 C-3.95 8.475 -3.95 8.475 -9 11 C-9 10.01 -9 9.02 -9 8 C-8.01 7.34 -7.02 6.68 -6 6 C-7.32 5.67 -8.64 5.34 -10 5 C-9.34 3.68 -8.68 2.36 -8 1 C-7.05125 1.020625 -6.1025 1.04125 -5.125 1.0625 C-2.09333717 1.22551826 -2.09333717 1.22551826 0 0 Z " fill="#283927" transform="translate(60,87)"/>
<path d="M0 0 C0.99 0.99 1.98 1.98 3 3 C2 6 2 6 -0.28515625 7.38671875 C-1.20167969 7.81597656 -2.11820313 8.24523438 -3.0625 8.6875 C-4.44115234 9.34298828 -4.44115234 9.34298828 -5.84765625 10.01171875 C-6.55792969 10.33785156 -7.26820313 10.66398437 -8 11 C-8.66 9.35 -9.32 7.7 -10 6 C-6.7 4.02 -3.4 2.04 0 0 Z " fill="#68AE61" transform="translate(153,30)"/>
<path d="M0 0 C0 3 0 3 -1.5 4.6875 C-1.995 5.120625 -2.49 5.55375 -3 6 C-1.02 5.67 0.96 5.34 3 5 C-0.5087188 8.09592835 -3.49197399 9.74194623 -8 11 C-8.66 10.34 -9.32 9.68 -10 9 C-9.91015625 7.046875 -9.91015625 7.046875 -9 5 C-6.93359375 3.515625 -6.93359375 3.515625 -4.4375 2.25 C-3.61121094 1.82203125 -2.78492188 1.3940625 -1.93359375 0.953125 C-1.29550781 0.63859375 -0.65742188 0.3240625 0 0 Z " fill="#484848" transform="translate(167,81)"/>
<path d="M0 0 C2 2 2 2 2.0625 3.875 C0.39895482 7.20209035 -2.62357995 8.61404592 -6 10 C-6.99 10 -7.98 10 -9 10 C-9.66 8.68 -10.32 7.36 -11 6 C-7.37 4.02 -3.74 2.04 0 0 Z " fill="#67B15F" transform="translate(173,64)"/>
<path d="M0 0 C1.2065625 0.0309375 1.2065625 0.0309375 2.4375 0.0625 C3.0975 2.3725 3.7575 4.6825 4.4375 7.0625 C3.798125 7.165625 3.15875 7.26875 2.5 7.375 C1.819375 7.601875 1.13875 7.82875 0.4375 8.0625 C0.1075 9.0525 -0.2225 10.0425 -0.5625 11.0625 C-1.5525 10.4025 -2.5425 9.7425 -3.5625 9.0625 C-4.03364738 6.3197492 -3.74055784 3.86691103 -3.5625 1.0625 C-2.5625 0.0625 -2.5625 0.0625 0 0 Z " fill="#61775E" transform="translate(3.5625,114.9375)"/>
<path d="M0 0 C0.66 0.33 1.32 0.66 2 1 C0.51299286 5.82829428 -2.21283256 8.7487769 -5.625 12.3125 C-6.3984375 13.13717773 -6.3984375 13.13717773 -7.1875 13.97851562 C-8.45200618 15.32498054 -9.72514922 16.66332535 -11 18 C-11 12.11888788 -8.28163249 8.87317766 -4.375 4.6875 C-3.55773437 3.80449219 -2.74046875 2.92148437 -1.8984375 2.01171875 C-0.95871094 1.01591797 -0.95871094 1.01591797 0 0 Z " fill="#262D27" transform="translate(140,34)"/>
<path d="M0 0 C-0.33 0.99 -0.66 1.98 -1 3 C-3.0625 3.6875 -3.0625 3.6875 -5 4 C-5 4.66 -5 5.32 -5 6 C-6.32 6 -7.64 6 -9 6 C-9 6.66 -9 7.32 -9 8 C-8.01 8.33 -7.02 8.66 -6 9 C-7.00671686 12.02015057 -7.548356 13.09316578 -10 15 C-11.32 15 -12.64 15 -14 15 C-14 14.34 -14 13.68 -14 13 C-12 11.375 -12 11.375 -10 10 C-10.66 8.35 -11.32 6.7 -12 5 C-10.37750059 4.16180842 -8.75191503 3.3295884 -7.125 2.5 C-6.22007813 2.0359375 -5.31515625 1.571875 -4.3828125 1.09375 C-2 0 -2 0 0 0 Z " fill="#031202" transform="translate(68,74)"/>
<path d="M0 0 C0.99 0 1.98 0 3 0 C4.36680153 2.26404542 5.71844445 4.53501021 7.0625 6.8125 C7.45244141 7.45509766 7.84238281 8.09769531 8.24414062 8.75976562 C9.24130759 10.4628915 10.12812687 12.22945858 11 14 C10.67 14.99 10.34 15.98 10 17 C7.04185281 14.38772848 5.28123892 11.33429693 3.3125 7.9375 C2.37857422 6.34228516 2.37857422 6.34228516 1.42578125 4.71484375 C0 2 0 2 0 0 Z " fill="#78AA72" transform="translate(14,125)"/>
<path d="M0 0 C3.75376152 1.25125384 4.24073289 2.5652404 6 6 C6 6.66 6 7.32 6 8 C5.01 8 4.02 8 3 8 C2.67 9.32 2.34 10.64 2 12 C0.35 8.7 -1.3 5.4 -3 2 C-2.01 1.34 -1.02 0.68 0 0 Z " fill="#83B97D" transform="translate(24,113)"/>
<path d="M0 0 C0.99 1.98 1.98 3.96 3 6 C1.1875 7.5625 1.1875 7.5625 -1 9 C-4 8 -4 8 -6 5 C-6 4.01 -6 3.02 -6 2 C-2.25 0 -2.25 0 0 0 Z " fill="#464546" transform="translate(145,94)"/>
<path d="M0 0 C-1.12783937 3.38351811 -1.45088872 3.52883475 -4.4375 5.0625 C-6.74149765 6.26019398 -8.13152817 7.13152817 -10 9 C-10.66 7.02 -11.32 5.04 -12 3 C-10.75823305 2.29773859 -9.50614401 1.61370891 -8.25 0.9375 C-7.20585938 0.36322266 -7.20585938 0.36322266 -6.140625 -0.22265625 C-3.63859372 -1.1312406 -2.4667645 -0.88336837 0 0 Z " fill="#020E03" transform="translate(74,83)"/>
<path d="M0 0 C-0.33 1.32 -0.66 2.64 -1 4 C-1.66 4 -2.32 4 -3 4 C-3 5.65 -3 7.3 -3 9 C-6.75376152 7.74874616 -7.24073289 6.4347596 -9 3 C-9 2.34 -9 1.68 -9 1 C-6.04335481 -0.4783226 -3.25770263 -0.06032783 0 0 Z " fill="#78B171" transform="translate(52,101)"/>
<path d="M0 0 C4.04836816 1.48733526 5.28137826 3.69413593 7.25 7.4375 C7.77078125 8.40558594 8.2915625 9.37367188 8.828125 10.37109375 C10 13 10 13 10 16 C9.34 16 8.68 16 8 16 C6.66141476 13.71125827 5.32898986 11.41930344 4 9.125 C3.6184375 8.47402344 3.236875 7.82304687 2.84375 7.15234375 C0 2.2265625 0 2.2265625 0 0 Z " fill="#081807" transform="translate(24,124)"/>
<path d="M0 0 C0.66 0 1.32 0 2 0 C2.66 1.65 3.32 3.3 4 5 C5.98 4.34 7.96 3.68 10 3 C8.75 4.5 8.75 4.5 7 6 C5.68 6 4.36 6 3 6 C3.33 7.65 3.66 9.3 4 11 C0.535 12.485 0.535 12.485 -3 14 C-1.25 10.125 -1.25 10.125 1 9 C0.67 6.03 0.34 3.06 0 0 Z " fill="#061605" transform="translate(118,85)"/>
<path d="M0 0 C0.99 0.33 1.98 0.66 3 1 C3 2.65 3 4.3 3 6 C0.64561267 7.42944945 -0.48032433 8.08661261 -3.25 7.625 C-3.8275 7.41875 -4.405 7.2125 -5 7 C-4.6189482 4.23737447 -4.16402868 3.15856106 -2.125 1.1875 C-1.42375 0.795625 -0.7225 0.40375 0 0 Z " fill="#72BB6A" transform="translate(112,81)"/>
<path d="M0 0 C0.66 0 1.32 0 2 0 C6 6.625 6 6.625 6 10 C4.02 10.66 2.04 11.32 0 12 C-0.33 11.01 -0.66 10.02 -1 9 C0.32 8.67 1.64 8.34 3 8 C3 7.34 3 6.68 3 6 C2.01 5.67 1.02 5.34 0 5 C-0.75 3 -0.75 3 -1 1 C-0.67 0.67 -0.34 0.34 0 0 Z " fill="#70AB68" transform="translate(122,78)"/>
<path d="M0 0 C2.40575607 2.18517099 3.79535581 4.25919671 5.1875 7.1875 C5.53167969 7.90292969 5.87585938 8.61835937 6.23046875 9.35546875 C6.48441406 9.89816406 6.73835938 10.44085938 7 11 C6.34 11 5.68 11 5 11 C4.67 10.67 4.34 10.34 4 10 C3.67 11.98 3.34 13.96 3 16 C1.68 15.67 0.36 15.34 -1 15 C-0.34 15 0.32 15 1 15 C1 14.34 1 13.68 1 13 C0.34 13 -0.32 13 -1 13 C-0.66226563 12.43796875 -0.32453125 11.8759375 0.0234375 11.296875 C1.1689058 8.60273356 1.0470026 7.11961767 0.625 4.25 C0.51414062 3.45078125 0.40328125 2.6515625 0.2890625 1.828125 C0.19367188 1.22484375 0.09828125 0.6215625 0 0 Z " fill="#86BF82" transform="translate(98,79)"/>
<path d="M0 0 C-0.33 0.66 -0.66 1.32 -1 2 C-3.32156597 2.40729228 -5.6568787 2.74438677 -8 3 C-8 3.66 -8 4.32 -8 5 C-10.64 5.33 -13.28 5.66 -16 6 C-15.67 5.01 -15.34 4.02 -15 3 C-12.3828125 1.796875 -12.3828125 1.796875 -9.125 0.75 C-7.52011719 0.21632812 -7.52011719 0.21632812 -5.8828125 -0.328125 C-3 -1 -3 -1 0 0 Z " fill="#1B231B" transform="translate(115,61)"/>
<path d="M0 0 C-9.42857143 8 -9.42857143 8 -15 8 C-13.69432208 4.08296623 -12.19905398 3.68242813 -8.625 1.75 C-7.64789063 1.20859375 -6.67078125 0.6671875 -5.6640625 0.109375 C-3 -1 -3 -1 0 0 Z " fill="#76B36E" transform="translate(59,84)"/>
<path d="M0 0 C-1.2544963 3.7634889 -3.04721767 5.39056445 -6 8 C-8.3125 8.8125 -8.3125 8.8125 -10 9 C-9.9375 6.75 -9.9375 6.75 -9 4 C-6.34257905 1.9101187 -3.46449449 0 0 0 Z " fill="#191919" transform="translate(134,108)"/>
<path d="M0 0 C3 1 3 1 4.1875 3.1875 C5.07334979 6.25390311 5.14770318 8.82438155 5 12 C2.368276 9.54372427 0.18472737 7.44647963 -1 4 C-0.625 1.75 -0.625 1.75 0 0 Z " fill="#84C37C" transform="translate(19,143)"/>
<path d="M0 0 C0.99 0.99 1.98 1.98 3 3 C3.33 2.01 3.66 1.02 4 0 C4.99 0 5.98 0 7 0 C7 1.98 7 3.96 7 6 C4.6875 6.6875 4.6875 6.6875 2 7 C0.125 5.8125 0.125 5.8125 -1 4 C-0.6875 1.8125 -0.6875 1.8125 0 0 Z " fill="#222D22" transform="translate(20,151)"/>
<path d="M0 0 C1.98 0.66 3.96 1.32 6 2 C6 2.66 6 3.32 6 4 C4.35 4 2.7 4 1 4 C0.67 6.97 0.34 9.94 0 13 C-2.6855594 10.3144406 -3.06049974 7.62378672 -4 4 C-3.01 3.67 -2.02 3.34 -1 3 C-0.67 2.01 -0.34 1.02 0 0 Z " fill="#020F02" transform="translate(25,138)"/>
<path d="M0 0 C0.66 0.33 1.32 0.66 2 1 C0.71814628 4.84556115 -0.78579777 5.42068027 -4.2109375 7.28125 C-6 8 -6 8 -8.4375 7.75 C-8.953125 7.5025 -9.46875 7.255 -10 7 C-7.20283196 3.70921407 -3.80471422 1.93694542 0 0 Z " fill="#212121" transform="translate(102,114)"/>
<path d="M0 0 C-1.65 0.66 -3.3 1.32 -5 2 C-4.67 3.65 -4.34 5.3 -4 7 C-2.68 7.33 -1.36 7.66 0 8 C-0.33 8.99 -0.66 9.98 -1 11 C-2.8125 10.875 -2.8125 10.875 -5 10 C-6.95320589 6.79116175 -8 4.7794561 -8 1 C-2.25 -1.125 -2.25 -1.125 0 0 Z " fill="#3E4A3F" transform="translate(48,85)"/>
<path d="M0 0 C0 0.99 0 1.98 0 3 C-1.43333021 3.39063507 -2.87192679 3.76198474 -4.3125 4.125 C-5.51326172 4.43824219 -5.51326172 4.43824219 -6.73828125 4.7578125 C-9 5 -9 5 -12 3 C-12 2.34 -12 1.68 -12 1 C-7.93631321 0.22596442 -4.13574827 -0.0984702 0 0 Z " fill="#1B241B" transform="translate(143,80)"/>
<path d="M0 0 C3.4375 0.8125 3.4375 0.8125 5.4375 3.8125 C4.32375 4.10125 3.21 4.39 2.0625 4.6875 C-1.56541092 5.50491329 -1.56541092 5.50491329 -3.5625 7.8125 C-3.5625 6.1625 -3.5625 4.5125 -3.5625 2.8125 C-4.5525 3.1425 -5.5425 3.4725 -6.5625 3.8125 C-6.5625 3.1525 -6.5625 2.4925 -6.5625 1.8125 C-3.5625 -0.1875 -3.5625 -0.1875 0 0 Z " fill="#558650" transform="translate(101.5625,65.1875)"/>
<path d="M0 0 C1.32 0.66 2.64 1.32 4 2 C4 2.99 4 3.98 4 5 C1.625 6.75 1.625 6.75 -1 8 C-1.66 7.67 -2.32 7.34 -3 7 C-2.67 5.35 -2.34 3.7 -2 2 C-1.34 2 -0.68 2 0 2 C0 1.34 0 0.68 0 0 Z " fill="#4C4B4B" transform="translate(126,105)"/>
<path d="M0 0 C3 3.75 3 3.75 3 6 C4.32 6.33 5.64 6.66 7 7 C5.6875 8.5 5.6875 8.5 4 10 C3.01 10 2.02 10 1 10 C0.566875 8.576875 0.566875 8.576875 0.125 7.125 C-0.76825109 3.94788422 -0.76825109 3.94788422 -3 2 C-2.01 2 -1.02 2 0 2 C0 1.34 0 0.68 0 0 Z " fill="#0F210E" transform="translate(121,60)"/>
<path d="M0 0 C0.33 0.66 0.66 1.32 1 2 C0 5 0 5 -2.875 6.75 C-6 8 -6 8 -9 7 C-9 6.34 -9 5.68 -9 5 C-6.03 3.35 -3.06 1.7 0 0 Z " fill="#2D312C" transform="translate(94,69)"/>
<path d="M0 0 C-6.75961538 6.94230769 -6.75961538 6.94230769 -10.6875 7.125 C-11.8321875 7.063125 -11.8321875 7.063125 -13 7 C-12.01 6.67 -11.02 6.34 -10 6 C-10 5.01 -10 4.02 -10 3 C-6.62637846 0.39749195 -4.23092172 -0.36265043 0 0 Z " fill="#434544" transform="translate(42,100)"/>
<path d="M0 0 C-0.33 0.99 -0.66 1.98 -1 3 C-2.60875 3.12375 -2.60875 3.12375 -4.25 3.25 C-8.33500175 4.06700035 -9.34891677 4.9561637 -12 8 C-12.66 8 -13.32 8 -14 8 C-12.72726053 4.04036611 -10.31700287 2.62270446 -6.8203125 0.75 C-4.46705106 -0.21958411 -2.51260766 -0.3045585 0 0 Z " fill="#6C9168" transform="translate(67,98)"/>
<path d="M0 0 C0.99 1.32 1.98 2.64 3 4 C0.36 5.65 -2.28 7.3 -5 9 C-5.66 7.68 -6.32 6.36 -7 5 C-6.030625 4.54625 -5.06125 4.0925 -4.0625 3.625 C-0.92920418 2.34213779 -0.92920418 2.34213779 0 0 Z " fill="#5AA754" transform="translate(111,77)"/>
<path d="M0 0 C1.8125 0.1875 1.8125 0.1875 4 1 C6.92900057 4.66125071 7.32215416 7.3824571 7 12 C3.76140913 10.38070456 3.32339087 7.25333589 2 4 C1.34711373 2.65986503 0.68774405 1.32258472 0 0 Z " fill="#88B784" transform="translate(66,99)"/>
<path d="M0 0 C-1 2 -1 2 -2.92578125 2.81640625 C-4.10720703 3.18572266 -4.10720703 3.18572266 -5.3125 3.5625 C-6.09238281 3.81128906 -6.87226562 4.06007813 -7.67578125 4.31640625 C-9.77386182 4.93348877 -11.87386388 5.4891435 -14 6 C-14 5.34 -14 4.68 -14 4 C-9.02495953 0.75099398 -6.11774896 -0.49940808 0 0 Z " fill="#061505" transform="translate(68,96)"/>
<path d="M0 0 C-0.99 0.33 -1.98 0.66 -3 1 C-2.01 1.66 -1.02 2.32 0 3 C-2.75 4.625 -2.75 4.625 -6 6 C-8.375 5.1875 -8.375 5.1875 -10 4 C-9.01 4 -8.02 4 -7 4 C-7 2.68 -7 1.36 -7 0 C-3.86650268 -1.04449911 -3.01031744 -0.93423645 0 0 Z " fill="#3B3B3B" transform="translate(131,96)"/>
<path d="M0 0 C-1.23263349 3.69790046 -2.20052451 3.9354846 -5.5625 5.6875 C-6.80193359 6.34298828 -6.80193359 6.34298828 -8.06640625 7.01171875 C-8.70449219 7.33785156 -9.34257813 7.66398437 -10 8 C-10.33 7.01 -10.66 6.02 -11 5 C-9.54462432 4.16151196 -8.08559627 3.32936066 -6.625 2.5 C-5.81289062 2.0359375 -5.00078125 1.571875 -4.1640625 1.09375 C-2 0 -2 0 0 0 Z " fill="#122710" transform="translate(95,84)"/>
<path d="M0 0 C2.375 0.5 2.375 0.5 5 2 C6.08241903 4.66525288 6.49272107 7.1407915 7 10 C2.57320993 8.52440331 2.08567304 6.09942632 0 2 C0 1.34 0 0.68 0 0 Z " fill="#152114" transform="translate(168,54)"/>
<path d="M0 0 C0.66 0.66 1.32 1.32 2 2 C1.01 2.495 1.01 2.495 0 3 C-0.72159424 4.64363134 -1.39351421 6.31050386 -2 8 C-2.99 8 -3.98 8 -5 8 C-5.33 8.66 -5.66 9.32 -6 10 C-6 7 -6 7 -4 5 C-4.99 4.67 -5.98 4.34 -7 4 C-4.69 2.68 -2.38 1.36 0 0 Z " fill="#030C03" transform="translate(51,89)"/>
<path d="M0 0 C0 0.66 0 1.32 0 2 C1.32 2.33 2.64 2.66 4 3 C0.37 3.33 -3.26 3.66 -7 4 C-7 3.34 -7 2.68 -7 2 C-7.66 1.67 -8.32 1.34 -9 1 C-2.25 0 -2.25 0 0 0 Z " fill="#303E2F" transform="translate(150,78)"/>
<path d="M0 0 C0.33 0.99 0.66 1.98 1 3 C-8.41002278 6.25968109 -8.41002278 6.25968109 -13 7 C-4.79310345 0 -4.79310345 0 0 0 Z " fill="#65A45F" transform="translate(96,73)"/>
<path d="M0 0 C0 0.99 0 1.98 0 3 C-3.465 4.485 -3.465 4.485 -7 6 C-7.33 4.68 -7.66 3.36 -8 2 C-4.91190305 0.23537317 -3.76687864 0 0 0 Z " fill="#73BE67" transform="translate(107,69)"/>
<path d="M0 0 C-1.625 2 -1.625 2 -4 4 C-7.25 4.25 -7.25 4.25 -10 4 C-10 3.01 -10 2.02 -10 1 C-3.375 -1.125 -3.375 -1.125 0 0 Z " fill="#1D231D" transform="translate(50,136)"/>
<path d="M0 0 C0.66 0.33 1.32 0.66 2 1 C1.67 2.65 1.34 4.3 1 6 C-1.64 6 -4.28 6 -7 6 C-2.25 1.125 -2.25 1.125 0 0 Z " fill="#323932" transform="translate(27,107)"/>
<path d="M0 0 C0.99 0 1.98 0 3 0 C3 1.98 3 3.96 3 6 C1.35 6.33 -0.3 6.66 -2 7 C-1.125 1.125 -1.125 1.125 0 0 Z " fill="#7EC677" transform="translate(65,105)"/>
<path d="M0 0 C0.33 0.66 0.66 1.32 1 2 C-0.8125 3.5625 -0.8125 3.5625 -3 5 C-3.99 4.67 -4.98 4.34 -6 4 C-6.33 3.01 -6.66 2.02 -7 1 C-3.375 -1.125 -3.375 -1.125 0 0 Z " fill="#70BC68" transform="translate(117,91)"/>
<path d="M0 0 C-1 3 -1 3 -2.84765625 4.16796875 C-3.57855469 4.50441406 -4.30945312 4.84085937 -5.0625 5.1875 C-5.79597656 5.53167969 -6.52945313 5.87585938 -7.28515625 6.23046875 C-8.13400391 6.61138672 -8.13400391 6.61138672 -9 7 C-9 6.01 -9 5.02 -9 4 C-3.85714286 0 -3.85714286 0 0 0 Z " fill="#6AA161" transform="translate(60,91)"/>
<path d="M0 0 C1.32 0.33 2.64 0.66 4 1 C4 1.66 4 2.32 4 3 C4.99 3.33 5.98 3.66 7 4 C7.33 4.66 7.66 5.32 8 6 C6.35 6.66 4.7 7.32 3 8 C3 7.34 3 6.68 3 6 C2.34 5.67 1.68 5.34 1 5 C1 4.01 1 3.02 1 2 C0.67 1.34 0.34 0.68 0 0 Z " fill="#131F12" transform="translate(79,72)"/>
<path d="M0 0 C0.66 1.32 1.32 2.64 2 4 C-1.96 5.98 -1.96 5.98 -6 8 C-6.33 7.01 -6.66 6.02 -7 5 C-2.25 2 -2.25 2 0 2 C0 1.34 0 0.68 0 0 Z " fill="#5BA650" transform="translate(107,70)"/>
<path d="M0 0 C2.51570636 0.97382182 3.73944098 1.46151135 4.9375 3.9375 C5 6 5 6 3.5625 7.75 C2.7890625 8.36875 2.7890625 8.36875 2 9 C0 3.375 0 3.375 0 0 Z " fill="#87C180" transform="translate(15,137)"/>
<path d="M0 0 C0.99 0 1.98 0 3 0 C6 4.22222222 6 4.22222222 6 7 C4.35 6.67 2.7 6.34 1 6 C0.67 4.02 0.34 2.04 0 0 Z " fill="#78AE71" transform="translate(26,133)"/>
<path d="M0 0 C2.72426311 2.35277269 3.8141763 4.62496331 5 8 C3.68 8 2.36 8 1 8 C-0.42944945 5.64561267 -1.08661261 4.51967567 -0.625 1.75 C-0.41875 1.1725 -0.2125 0.595 0 0 Z " fill="#1F271F" transform="translate(10,134)"/>
<path d="M0 0 C-0.33 0.99 -0.66 1.98 -1 3 C-2.65204456 3.70211894 -4.31923769 4.36971413 -6 5 C-6.33 5.66 -6.66 6.32 -7 7 C-7.33 5.35 -7.66 3.7 -8 2 C-2.25 0 -2.25 0 0 0 Z " fill="#071506" transform="translate(81,102)"/>
<path d="M0 0 C0.5534764 2.07553648 1 3.84365964 1 6 C-0.65 6.33 -2.3 6.66 -4 7 C-4 5.68 -4 4.36 -4 3 C-2 1.25 -2 1.25 0 0 Z " fill="#84B97D" transform="translate(128,67)"/>
<path d="M0 0 C0 0.99 0 1.98 0 3 C-2.97 3 -5.94 3 -9 3 C-9 2.34 -9 1.68 -9 1 C-5.8035914 -0.06546953 -3.34252724 -0.07427838 0 0 Z " fill="#161D16" transform="translate(159,77)"/>
<path d="M0 0 C2 3 2 3 2 6 C1.67 6.99 1.34 7.98 1 9 C1 8.34 1 7.68 1 7 C0.401875 7.350625 -0.19625 7.70125 -0.8125 8.0625 C-3 9 -3 9 -6 8 C-5.67 7.34 -5.34 6.68 -5 6 C-3.68 6 -2.36 6 -1 6 C-0.67 4.02 -0.34 2.04 0 0 Z " fill="#444844" transform="translate(17,115)"/>
<path d="M0 0 C-1 1.625 -1 1.625 -3 3 C-5.8158905 2.65009645 -8.2716858 1.84980278 -11 1 C-11 0.67 -11 0.34 -11 0 C-3.375 -2.25 -3.375 -2.25 0 0 Z " fill="#619A59" transform="translate(70,120)"/>
<path d="M0 0 C-3.03525486 2.02350324 -4.19426202 2.32124018 -7.6875 2.625 C-8.49574219 2.69976562 -9.30398437 2.77453125 -10.13671875 2.8515625 C-10.75160156 2.90054688 -11.36648437 2.94953125 -12 3 C-12 2.34 -12 1.68 -12 1 C-7.67265609 -1.22923777 -4.71599818 -0.92470553 0 0 Z " fill="#66A75F" transform="translate(156,76)"/>
<path d="M0 0 C2.475 0.495 2.475 0.495 5 1 C5.33 1.99 5.66 2.98 6 4 C5.34 4.66 4.68 5.32 4 6 C3.01 6 2.02 6 1 6 C1.33 4.35 1.66 2.7 2 1 C1.34 0.67 0.68 0.34 0 0 Z " fill="#6FB968" transform="translate(42,113)"/>
<path d="M0 0 C0.66 0 1.32 0 2 0 C2.66 2.97 3.32 5.94 4 9 C3.01 9 2.02 9 1 9 C-0.4783226 6.04335481 -0.06032783 3.25770263 0 0 Z " fill="#8BB886" transform="translate(53,106)"/>
<path d="M0 0 C0.99 0 1.98 0 3 0 C2.125 5.75 2.125 5.75 1 8 C0.01 8 -0.98 8 -2 8 C-1.34 5.36 -0.68 2.72 0 0 Z " fill="#193017" transform="translate(73,107)"/>
<path d="M0 0 C0.66 0.33 1.32 0.66 2 1 C1.01 1.680625 1.01 1.680625 0 2.375 C-0.99 3.179375 -0.99 3.179375 -2 4 C-2 4.66 -2 5.32 -2 6 C-5 7 -5 7 -8 6 C-8 5.34 -8 4.68 -8 4 C-6.68 4 -5.36 4 -4 4 C-4 3.34 -4 2.68 -4 2 C-2.125 0.9375 -2.125 0.9375 0 0 Z " fill="#3D4E3B" transform="translate(67,76)"/>
<path d="M0 0 C1.32 0 2.64 0 4 0 C3.67 2.31 3.34 4.62 3 7 C2.34 7 1.68 7 1 7 C0.67 4.69 0.34 2.38 0 0 Z " fill="#151B14" transform="translate(0,116)"/>
<path d="M0 0 C-0.6875 1.9375 -0.6875 1.9375 -2 4 C-4.625 4.75 -4.625 4.75 -7 5 C-7.33 4.01 -7.66 3.02 -8 2 C-2.25 0 -2.25 0 0 0 Z " fill="#59A751" transform="translate(116,87)"/>
<path d="M0 0 C2.57644287 2.57644287 3.68769359 4.03273479 5.1875 7.1875 C5.53167969 7.90292969 5.87585938 8.61835937 6.23046875 9.35546875 C6.48441406 9.89816406 6.73835938 10.44085938 7 11 C6.34 11 5.68 11 5 11 C5 10.34 5 9.68 5 9 C4.01 9 3.02 9 2 9 C1.34 6.03 0.68 3.06 0 0 Z " fill="#84B57A" transform="translate(98,79)"/>
<path d="M0 0 C0.99 0.99 1.98 1.98 3 3 C-0.465 4.485 -0.465 4.485 -4 6 C-4.33 5.01 -4.66 4.02 -5 3 C-3.35 2.01 -1.7 1.02 0 0 Z " fill="#69A263" transform="translate(113,62)"/>
<path d="M0 0 C1.5 1.375 1.5 1.375 3 3 C3 3.66 3 4.32 3 5 C3.66 5.33 4.32 5.66 5 6 C4.01 6.66 3.02 7.32 2 8 C0.4375 5.6875 0.4375 5.6875 -1 3 C-0.67 2.01 -0.34 1.02 0 0 Z " fill="#051503" transform="translate(54,123)"/>
<path d="M0 0 C3 0 3 0 5.1875 2 C5.785625 2.66 6.38375 3.32 7 4 C6.67 4.99 6.34 5.98 6 7 C1.125 3.375 1.125 3.375 0 0 Z " fill="#0C230B" transform="translate(51,113)"/>
<path d="M0 0 C-0.33 0.99 -0.66 1.98 -1 3 C-4.0625 4.1875 -4.0625 4.1875 -7 5 C-7 4.01 -7 3.02 -7 2 C-4.35261084 0.5393715 -3.10551666 0 0 0 Z " fill="#5EA257" transform="translate(50,85)"/>
<path d="M0 0 C0.33 0.66 0.66 1.32 1 2 C1.99 1.67 2.98 1.34 4 1 C4 1.66 4 2.32 4 3 C1.1875 5.1875 1.1875 5.1875 -2 7 C-2.99 6.67 -3.98 6.34 -5 6 C-4.360625 5.566875 -3.72125 5.13375 -3.0625 4.6875 C-0.73253997 3.08760823 -0.73253997 3.08760823 0 0 Z " fill="#031602" transform="translate(69,74)"/>
<path d="M0 0 C0.66 0 1.32 0 2 0 C2.99 1.98 3.98 3.96 5 6 C3.68 6 2.36 6 1 6 C0.34 4.35 -0.32 2.7 -1 1 C-0.67 0.67 -0.34 0.34 0 0 Z " fill="#6AAE63" transform="translate(115,66)"/>
<path d="M0 0 C1 3 1 3 -0.4375 6.1875 C-1.2109375 7.5796875 -1.2109375 7.5796875 -2 9 C-2.33 8.34 -2.66 7.68 -3 7 C-3.66 6.67 -4.32 6.34 -5 6 C-3.35 4.02 -1.7 2.04 0 0 Z " fill="#454C42" transform="translate(129,46)"/>
<path d="M0 0 C0.66 0.33 1.32 0.66 2 1 C1.34 2.32 0.68 3.64 0 5 C-1.98 5 -3.96 5 -6 5 C-4.06745228 2.9754262 -2.36841312 1.57894208 0 0 Z " fill="#3C3F3A" transform="translate(148,29)"/>
<path d="M0 0 C1.65 0.33 3.3 0.66 5 1 C2.6875 3.0625 2.6875 3.0625 0 5 C-0.99 4.67 -1.98 4.34 -3 4 C-2.34 4 -1.68 4 -1 4 C-0.67 2.68 -0.34 1.36 0 0 Z " fill="#424942" transform="translate(53,132)"/>
<path d="M0 0 C0.66 0.33 1.32 0.66 2 1 C2 1.99 2 2.98 2 4 C0.02 4.33 -1.96 4.66 -4 5 C-3 2 -3 2 0 0 Z " fill="#282B28" transform="translate(91,120)"/>
<path d="M0 0 C1.9375 0.8125 1.9375 0.8125 4 2 C4.33 2.99 4.66 3.98 5 5 C4.34 5.66 3.68 6.32 3 7 C0 3.375 0 3.375 0 0 Z " fill="#1F241F" transform="translate(6,117)"/>
<path d="M0 0 C0.99 0.33 1.98 0.66 3 1 C2.67 2.32 2.34 3.64 2 5 C0.68 5 -0.64 5 -2 5 C-2.33 4.01 -2.66 3.02 -3 2 C-2.01 1.34 -1.02 0.68 0 0 Z " fill="#6AA562" transform="translate(24,113)"/>
<path d="M0 0 C0.33 0 0.66 0 1 0 C2 3 3 6 4 9 C2.0625 8.375 2.0625 8.375 0 7 C-0.8125 3.9375 -0.8125 3.9375 -1 1 C-0.67 0.67 -0.34 0.34 0 0 Z " fill="#061B06" transform="translate(56,106)"/>
<path d="M0 0 C0.66 0.33 1.32 0.66 2 1 C0.68 1.99 -0.64 2.98 -2 4 C-2 3.01 -2 2.02 -2 1 C-1.34 0.67 -0.68 0.34 0 0 Z M-5 4 C-4.01 4.33 -3.02 4.66 -2 5 C-2.66 5.66 -3.32 6.32 -4 7 C-6.125 6.625 -6.125 6.625 -8 6 C-7.01 5.34 -6.02 4.68 -5 4 Z " fill="#070707" transform="translate(113,108)"/>
<path d="M0 0 C0.99 0.33 1.98 0.66 3 1 C2.01 1.495 2.01 1.495 1 2 C0.34786708 4.02463255 0.34786708 4.02463255 0 6 C-0.99 5.67 -1.98 5.34 -3 5 C-3 4.01 -3 3.02 -3 2 C-2.01 1.34 -1.02 0.68 0 0 Z " fill="#619E5E" transform="translate(38,103)"/>
<path d="M0 0 C2 2 2 2 2 5 C0.35 5.66 -1.3 6.32 -3 7 C-2.67 5.35 -2.34 3.7 -2 2 C-1.34 2 -0.68 2 0 2 C0 1.34 0 0.68 0 0 Z " fill="#70AA69" transform="translate(107,94)"/>
<path d="M0 0 C0.33 0.99 0.66 1.98 1 3 C-2.75 6 -2.75 6 -5 6 C-4.67 4.35 -4.34 2.7 -4 1 C-2.68 0.67 -1.36 0.34 0 0 Z " fill="#0E0E0E" transform="translate(154,85)"/>
<path d="M0 0 C0.66 0 1.32 0 2 0 C2.66 1.65 3.32 3.3 4 5 C2.68 5 1.36 5 0 5 C-0.5625 3.0625 -0.5625 3.0625 -1 1 C-0.67 0.67 -0.34 0.34 0 0 Z " fill="#66AF63" transform="translate(122,78)"/>
<path d="M0 0 C0 0.66 0 1.32 0 2 C0.66 2 1.32 2 2 2 C2 2.99 2 3.98 2 5 C1.01 5.33 0.02 5.66 -1 6 C-1 5.01 -1 4.02 -1 3 C-1.99 3 -2.98 3 -4 3 C-4 2.34 -4 1.68 -4 1 C-2 0 -2 0 0 0 Z " fill="#30602A" transform="translate(78,73)"/>
<path d="M0 0 C2.29013653 3.4352048 2.17842973 4.985331 2 9 C0.68 7.68 -0.64 6.36 -2 5 C-1.34 4.67 -0.68 4.34 0 4 C0 2.68 0 1.36 0 0 Z " fill="#6B9E65" transform="translate(22,146)"/>
<path d="M0 0 C0.66 0.99 1.32 1.98 2 3 C1.34 3.66 0.68 4.32 0 5 C-0.99 5 -1.98 5 -3 5 C-3.66 3.68 -4.32 2.36 -5 1 C-3.35 0.67 -1.7 0.34 0 0 Z " fill="#6DA766" transform="translate(38,135)"/>
<path d="M0 0 C0.99 0.99 1.98 1.98 3 3 C1.66666667 4.33333333 0.33333333 5.66666667 -1 7 C-1.66 5.35 -2.32 3.7 -3 2 C-2.01 1.34 -1.02 0.68 0 0 Z " fill="#7EB179" transform="translate(15,134)"/>
<path d="M0 0 C0.66 0.99 1.32 1.98 2 3 C0.02 3.99 -1.96 4.98 -4 6 C-4.33 5.01 -4.66 4.02 -5 3 C-3.35 2.01 -1.7 1.02 0 0 Z " fill="#57A750" transform="translate(50,121)"/>
<path d="M0 0 C0.99 0.33 1.98 0.66 3 1 C1.8125 2.5 1.8125 2.5 0 4 C-2.6875 4.1875 -2.6875 4.1875 -5 4 C-5.33 3.34 -5.66 2.68 -6 2 C-4.02 1.67 -2.04 1.34 0 1 C0 0.67 0 0.34 0 0 Z " fill="#68A062" transform="translate(65,110)"/>
<path d="M0 0 C0.66 0.99 1.32 1.98 2 3 C4.05003955 4.19232613 4.05003955 4.19232613 6 5 C4.02 5.66 2.04 6.32 0 7 C-0.38133299 5.0085944 -0.71325582 3.00720923 -1 1 C-0.67 0.67 -0.34 0.34 0 0 Z " fill="#94C18D" transform="translate(82,93)"/>
<path d="M0 0 C0.99 0.33 1.98 0.66 3 1 C-2.14285714 5.42857143 -2.14285714 5.42857143 -6 6 C-6 5.34 -6 4.68 -6 4 C-4.35 3.67 -2.7 3.34 -1 3 C-0.67 2.01 -0.34 1.02 0 0 Z " fill="#88B981" transform="translate(83,87)"/>
<path d="M0 0 C0.53625 0.2475 1.0725 0.495 1.625 0.75 C-3.79038462 4.81153846 -3.79038462 4.81153846 -6.75 4.5 C-7.28625 4.2525 -7.8225 4.005 -8.375 3.75 C-2.95961538 -0.31153846 -2.95961538 -0.31153846 0 0 Z " fill="#69BC5F" transform="translate(91.375,77.25)"/>
<path d="M0 0 C0.99 0.33 1.98 0.66 3 1 C2.2884375 1.61875 2.2884375 1.61875 1.5625 2.25 C-0.16266518 4.182185 -0.56584875 5.48192275 -1 8 C-1.66 6.02 -2.32 4.04 -3 2 C-2.01 1.34 -1.02 0.68 0 0 Z " fill="#80BF77" transform="translate(113,65)"/>
<path d="M0 0 C2.8290723 2.8290723 3.37611108 3.38144425 4 7 C3.34 7 2.68 7 2 7 C1.67 7.66 1.34 8.32 1 9 C0.67 6.03 0.34 3.06 0 0 Z " fill="#394038" transform="translate(174,60)"/>
<path d="M0 0 C1.65 0 3.3 0 5 0 C5 0.66 5 1.32 5 2 C3.02 2.99 1.04 3.98 -1 5 C-0.67 3.35 -0.34 1.7 0 0 Z " fill="#142013" transform="translate(150,28)"/>
<path d="M0 0 C1.32 1.65 2.64 3.3 4 5 C3.67 5.66 3.34 6.32 3 7 C2.01 6.67 1.02 6.34 0 6 C-0.75 4.0625 -0.75 4.0625 -1 2 C-0.67 1.34 -0.34 0.68 0 0 Z " fill="#0D1F0C" transform="translate(44,123)"/>
<path d="M0 0 C1.65 0.33 3.3 0.66 5 1 C5 1.66 5 2.32 5 3 C2.5 4.625 2.5 4.625 0 6 C0 5.34 0 4.68 0 4 C-0.66 3.67 -1.32 3.34 -2 3 C-1.34 3 -0.68 3 0 3 C0 2.01 0 1.02 0 0 Z " fill="#3E4A3C" transform="translate(44,96)"/>
<path d="M0 0 C1.37562854 1.28965176 2.70766393 2.62689293 4 4 C4 4.66 4 5.32 4 6 C3.01 6.33 2.02 6.66 1 7 C0.67 6.01 0.34 5.02 0 4 C0.33 3.34 0.66 2.68 1 2 C0.01 1.67 -0.98 1.34 -2 1 C-1.34 0.67 -0.68 0.34 0 0 Z " fill="#4F534E" transform="translate(154,26)"/>
</svg>
