<?xml version="1.0" encoding="UTF-8"?>
<svg version="1.1" xmlns="http://www.w3.org/2000/svg" width="181" height="158">
<path d="M0 0 C3.1167133 2.19089994 4.95171459 5.15010291 6.9921875 8.30078125 C7.42764893 8.9656958 7.86311035 9.63061035 8.31176758 10.31567383 C18.31574427 25.92706952 18.31574427 25.92706952 17.99609375 31.66015625 C16.85255778 34.03871108 15.51781376 35.03483229 13.3671875 36.55078125 C12.27857422 37.32035156 12.27857422 37.32035156 11.16796875 38.10546875 C7.79470131 40.3800148 4.64268087 42.2759416 0.859375 43.8046875 C-2.81521777 45.35688206 -5.89427569 47.49728434 -9.1953125 49.73828125 C-15.73874284 53.85862011 -21.12044524 54.01955901 -28.6652832 52.89941406 C-32.64430785 52.35021535 -34.98280343 52.15523949 -38.4140625 54.44140625 C-39.22875 55.116875 -40.0434375 55.79234375 -40.8828125 56.48828125 C-40.41230469 57.42929687 -39.94179687 58.3703125 -39.45703125 59.33984375 C-36.59895833 65.05598958 -33.74088542 70.77213542 -30.8828125 76.48828125 C-33.2627863 79.11877861 -35.6720902 80.95936587 -38.8828125 82.48828125 C-41.21484375 82.6015625 -41.21484375 82.6015625 -43.8828125 81.48828125 C-46.00237009 78.82879263 -47.57763573 75.90949618 -49.1953125 72.92578125 C-49.64970703 72.11947266 -50.10410156 71.31316406 -50.57226562 70.48242188 C-51.69101059 68.49223346 -52.79351034 66.49469021 -53.8828125 64.48828125 C-54.3778125 65.97328125 -54.3778125 65.97328125 -54.8828125 67.48828125 C-57.45556641 69.23413086 -57.45556641 69.23413086 -60.859375 71.140625 C-61.4628476 71.48203018 -62.06632019 71.82343536 -62.68807983 72.17518616 C-64.62325073 73.26740508 -66.56527551 74.34672769 -68.5078125 75.42578125 C-69.79344516 76.14824141 -71.0786072 76.87153973 -72.36328125 77.59570312 C-74.75057589 78.94008295 -77.1408761 80.27844463 -79.53369141 81.61303711 C-81.27585688 82.58851262 -83.01601641 83.56909557 -84.7230835 84.60476685 C-89.04886001 87.2055938 -91.81734017 87.9017892 -96.8828125 87.48828125 C-92.92911195 95.63268961 -92.92911195 95.63268961 -88.4453125 103.48828125 C-86.8828125 106.48828125 -86.8828125 106.48828125 -86.6953125 108.67578125 C-88.6293641 111.62775474 -91.56010354 113.36695297 -94.8828125 114.48828125 C-97.49716881 114.19210714 -98.56583889 113.87502289 -100.25488281 111.81420898 C-100.65288086 111.10723877 -101.05087891 110.40026855 -101.4609375 109.671875 C-102.11835937 108.5262207 -102.11835937 108.5262207 -102.7890625 107.35742188 C-103.2325 106.55498047 -103.6759375 105.75253906 -104.1328125 104.92578125 C-104.82117188 103.71631836 -104.82117188 103.71631836 -105.5234375 102.48242188 C-106.65489497 100.49058528 -107.77396295 98.49276443 -108.8828125 96.48828125 C-110.75496848 98.26760304 -111.95479241 99.62195822 -113.1953125 101.92578125 C-115.32521892 105.16008359 -117.60244496 106.42286465 -120.8828125 108.48828125 C-122.41370946 109.66277892 -123.93395164 110.85124858 -125.4453125 112.05078125 C-133.58286902 118.36791611 -133.58286902 118.36791611 -138.2578125 118.80078125 C-144.77897566 116.43967045 -147.69181026 109.90746624 -150.8203125 103.98828125 C-151.8828125 101.48828125 -151.8828125 101.48828125 -151.8828125 99.48828125 C-152.5428125 99.48828125 -153.2028125 99.48828125 -153.8828125 99.48828125 C-154.25158481 91.98991093 -154.25158481 91.98991093 -152.72265625 89.91015625 C-148.57295556 86.70316888 -143.59241437 84.7399307 -138.8828125 82.48828125 C-138.09003906 82.07835938 -137.29726562 81.6684375 -136.48046875 81.24609375 C-132.31952652 79.18443341 -129.03883081 78.31347066 -124.3828125 78.11328125 C-119.08778487 77.82365141 -116.03166895 76.13797204 -111.85546875 72.9609375 C-109.8828125 71.48828125 -109.8828125 71.48828125 -107.80859375 70.515625 C-105.55505082 69.3134307 -104.53217621 68.0207662 -103.0078125 65.98828125 C-100.28309531 62.6326499 -98.07729751 61.65883521 -93.8828125 60.48828125 C-93.5528125 59.49828125 -93.2228125 58.50828125 -92.8828125 57.48828125 C-90.84375 56.20703125 -90.84375 56.20703125 -88.2578125 54.98828125 C-87.35546875 54.55902344 -86.453125 54.12976562 -85.5234375 53.6875 C-82.32887081 52.23671306 -79.11764203 50.84690965 -75.8828125 49.48828125 C-74.94308594 48.97201172 -74.94308594 48.97201172 -73.984375 48.4453125 C-71.63217384 47.37414283 -69.69980175 47.0897803 -67.1328125 46.86328125 C-66.33359375 46.78851563 -65.534375 46.71375 -64.7109375 46.63671875 C-64.10765625 46.58773437 -63.504375 46.53875 -62.8828125 46.48828125 C-62.8828125 45.82828125 -62.8828125 45.16828125 -62.8828125 44.48828125 C-62.34914063 44.26914062 -61.81546875 44.05 -61.265625 43.82421875 C-48.65395134 38.7899681 -48.65395134 38.7899681 -40.59887695 28.56738281 C-40.34195068 27.8812793 -40.08502441 27.19517578 -39.8203125 26.48828125 C-36.13129177 16.67385574 -28.96453965 13.71800627 -19.83789062 9.48950195 C-17.22771433 8.15279703 -15.11288961 6.37891299 -12.8828125 4.48828125 C-10.75 3.2578125 -10.75 3.2578125 -8.7578125 2.30078125 C-8.09523437 1.97722656 -7.43265625 1.65367188 -6.75 1.3203125 C-2.35231953 -0.63932336 -2.35231953 -0.63932336 0 0 Z " fill="#2D0907" transform="translate(153.8828125,3.51171875)"/>
<path d="M0 0 C3.1167133 2.19089994 4.95171459 5.15010291 6.9921875 8.30078125 C7.42764893 8.9656958 7.86311035 9.63061035 8.31176758 10.31567383 C18.31574427 25.92706952 18.31574427 25.92706952 17.99609375 31.66015625 C16.85255778 34.03871108 15.51781376 35.03483229 13.3671875 36.55078125 C12.27857422 37.32035156 12.27857422 37.32035156 11.16796875 38.10546875 C7.79470131 40.3800148 4.64268087 42.2759416 0.859375 43.8046875 C-2.81521777 45.35688206 -5.89427569 47.49728434 -9.1953125 49.73828125 C-15.81742437 53.90603759 -20.9874908 53.79520263 -28.59057617 52.90161133 C-33.15483676 52.41079327 -35.9862287 52.330291 -40.0078125 54.92578125 C-40.9565625 55.77140625 -41.9053125 56.61703125 -42.8828125 57.48828125 C-42.5528125 56.16828125 -42.2228125 54.84828125 -41.8828125 53.48828125 C-41.2228125 53.48828125 -40.5628125 53.48828125 -39.8828125 53.48828125 C-39.8828125 52.82828125 -39.8828125 52.16828125 -39.8828125 51.48828125 C-41.5328125 52.14828125 -43.1828125 52.80828125 -44.8828125 53.48828125 C-46.8628125 50.51828125 -48.8428125 47.54828125 -50.8828125 44.48828125 C-50.8828125 45.47828125 -50.8828125 46.46828125 -50.8828125 47.48828125 C-51.2128125 48.47828125 -51.5428125 49.46828125 -51.8828125 50.48828125 C-54.4453125 51.67578125 -54.4453125 51.67578125 -56.8828125 52.48828125 C-57.27726562 51.9984375 -57.67171875 51.50859375 -58.078125 51.00390625 C-60.43268868 49.02648048 -61.72173692 49.14599932 -64.7578125 49.23828125 C-65.63953125 49.2640625 -66.52125 49.28984375 -67.4296875 49.31640625 C-69.98328616 49.49532081 -72.40693249 49.82804658 -74.8828125 50.48828125 C-73.19101922 48.44608419 -72.24553584 47.57034819 -69.62109375 46.9765625 C-68.82058594 46.91855469 -68.02007812 46.86054687 -67.1953125 46.80078125 C-65.98294922 46.70216797 -65.98294922 46.70216797 -64.74609375 46.6015625 C-64.13121094 46.56417969 -63.51632813 46.52679688 -62.8828125 46.48828125 C-62.8828125 45.82828125 -62.8828125 45.16828125 -62.8828125 44.48828125 C-62.34914063 44.26914062 -61.81546875 44.05 -61.265625 43.82421875 C-48.65395134 38.7899681 -48.65395134 38.7899681 -40.59887695 28.56738281 C-40.34195068 27.8812793 -40.08502441 27.19517578 -39.8203125 26.48828125 C-36.13129177 16.67385574 -28.96453965 13.71800627 -19.83789062 9.48950195 C-17.22771433 8.15279703 -15.11288961 6.37891299 -12.8828125 4.48828125 C-10.75 3.2578125 -10.75 3.2578125 -8.7578125 2.30078125 C-8.09523438 1.97722656 -7.43265625 1.65367188 -6.75 1.3203125 C-2.35231953 -0.63932336 -2.35231953 -0.63932336 0 0 Z " fill="#3B0200" transform="translate(153.8828125,3.51171875)"/>
<path d="M0 0 C2.6486859 3.19668988 4.93992341 6.39486597 7 10 C8.65 9.67 10.3 9.34 12 9 C12 9.66 12 10.32 12 11 C11.34 11 10.68 11 10 11 C9.67 12.32 9.34 13.64 9 15 C9.66 15 10.32 15 11 15 C12.70400669 17.92821855 14.38524739 20.868888 16.0625 23.8125 C16.54783203 24.64587891 17.03316406 25.47925781 17.53320312 26.33789062 C17.98759766 27.14033203 18.44199219 27.94277344 18.91015625 28.76953125 C19.33433838 29.50792236 19.75852051 30.24631348 20.19555664 31.00708008 C21 33 21 33 20 36 C14.33854373 39.91946973 14.33854373 39.91946973 10.59765625 40.14453125 C6.32764201 38.26315656 4.84767363 34.42182025 2.6875 30.4375 C2.23310547 29.63119141 1.77871094 28.82488281 1.31054688 27.99414062 C0.19180191 26.00395221 -0.91069784 24.00640896 -2 22 C-2.33 22.99 -2.66 23.98 -3 25 C-4.98 25 -6.96 25 -9 25 C-9.33 25.66 -9.66 26.32 -10 27 C-10.66 26.34 -11.32 25.68 -12 25 C-10.68 24.01 -9.36 23.02 -8 22 C-8.3609375 21.51789063 -8.721875 21.03578125 -9.09375 20.5390625 C-9.5578125 19.90742187 -10.021875 19.27578125 -10.5 18.625 C-10.9640625 17.99851562 -11.428125 17.37203125 -11.90625 16.7265625 C-13 15 -13 15 -13 13 C-15.9806408 11.34408844 -18.65469056 10.60044016 -22 10 C-22.99 9.67 -23.98 9.34 -25 9 C-19.44338869 6.10089845 -14.27499918 4.92788959 -8 6 C-5.69921875 7.5234375 -5.69921875 7.5234375 -4 9 C-2.68 8.34 -1.36 7.68 0 7 C-0.185625 6.21625 -0.37125 5.4325 -0.5625 4.625 C-1 2 -1 2 0 0 Z " fill="#090406" transform="translate(102,46)"/>
<path d="M0 0 C3.89278501 1.297595 4.31642705 2.73739571 6.35546875 6.2421875 C6.97744141 7.30824219 7.59941406 8.37429687 8.24023438 9.47265625 C8.88283203 10.59542969 9.52542969 11.71820313 10.1875 12.875 C10.84169922 13.99003906 11.49589844 15.10507812 12.16992188 16.25390625 C17 24.60455227 17 24.60455227 17 28 C14.75820623 29.36965208 12.50827662 30.72052808 10.25 32.0625 C9.61578125 32.45244141 8.9815625 32.84238281 8.328125 33.24414062 C3.58257807 36.03709273 3.58257807 36.03709273 0.95239258 35.86962891 C-1.71663616 34.68079805 -2.33279927 33.30332499 -3.69140625 30.73828125 C-4.16126953 29.86623047 -4.63113281 28.99417969 -5.11523438 28.09570312 C-5.59283203 27.17724609 -6.07042969 26.25878906 -6.5625 25.3125 C-7.28469727 23.96381836 -7.28469727 23.96381836 -8.02148438 22.58789062 C-10.41864632 18.09362415 -12.74943362 13.56933175 -15 9 C-12.87562549 7.68647829 -10.75053408 6.37414287 -8.625 5.0625 C-8.02171875 4.68931641 -7.4184375 4.31613281 -6.796875 3.93164062 C-2.2265625 1.11328125 -2.2265625 1.11328125 0 0 Z " fill="#EE190E" transform="translate(136,16)"/>
<path d="M0 0 C5.20151625 3.47506125 8.03307746 7.86402044 10.8918457 13.26391602 C4.5841534 17.0485314 4.5841534 17.0485314 1.0793457 18.13891602 C-2.92349137 19.55168204 -6.19405865 21.71237087 -9.7409668 24.02172852 C-12.1081543 25.26391602 -12.1081543 25.26391602 -16.1081543 25.26391602 C-16.1081543 25.92391602 -16.1081543 26.58391602 -16.1081543 27.26391602 C-19.21967453 28.81967613 -20.65048774 28.99534548 -24.1081543 28.26391602 C-27.2429954 24.40565004 -30.1081543 20.32132621 -30.1081543 15.26391602 C-29.57230713 14.97186279 -29.03645996 14.67980957 -28.484375 14.37890625 C-24.34026583 12.10096513 -20.24849243 9.76594949 -16.21362305 7.29907227 C-15.40344727 6.80987305 -14.59327148 6.32067383 -13.75854492 5.81665039 C-12.09017121 4.80715861 -10.42885548 3.78592566 -8.77416992 2.75415039 C-7.97043945 2.27397461 -7.16670898 1.79379883 -6.33862305 1.29907227 C-5.62085693 0.85958252 -4.90309082 0.42009277 -4.16357422 -0.03271484 C-2.1081543 -0.73608398 -2.1081543 -0.73608398 0 0 Z " fill="#D21109" transform="translate(84.108154296875,55.736083984375)"/>
<path d="M0 0 C0.66 1.32 1.32 2.64 2 4 C2.66 2.68 3.32 1.36 4 0 C7.72615287 1.24205096 8.02494476 2.27127114 9.91796875 5.62109375 C10.44970703 6.55630859 10.98144531 7.49152344 11.52929688 8.45507812 C12.07650391 9.43927734 12.62371094 10.42347656 13.1875 11.4375 C14.02571289 12.90799805 14.02571289 12.90799805 14.88085938 14.40820312 C19 21.71603136 19 21.71603136 19 24 C16.87465341 23.85930804 14.74972471 23.71229079 12.625 23.5625 C11.44164062 23.48128906 10.25828125 23.40007813 9.0390625 23.31640625 C6 23 6 23 4 22 C4 22.99 4 23.98 4 25 C5.65 25 7.3 25 9 25 C8.14148438 25.41378906 8.14148438 25.41378906 7.265625 25.8359375 C5.01035733 26.99467848 2.89143622 28.26875706 0.75 29.625 C0.04359375 30.07101563 -0.6628125 30.51703125 -1.390625 30.9765625 C-1.92171875 31.31429687 -2.4528125 31.65203125 -3 32 C-2.67 30.68 -2.34 29.36 -2 28 C-1.34 28 -0.68 28 0 28 C0 27.34 0 26.68 0 26 C-1.65 26.66 -3.3 27.32 -5 28 C-6.98 25.03 -8.96 22.06 -11 19 C-11 19.99 -11 20.98 -11 22 C-11.33 22.99 -11.66 23.98 -12 25 C-14.5625 26.1875 -14.5625 26.1875 -17 27 C-17.39445312 26.51015625 -17.78890625 26.0203125 -18.1953125 25.515625 C-20.54987618 23.53819923 -21.83892442 23.65771807 -24.875 23.75 C-25.75671875 23.77578125 -26.6384375 23.8015625 -27.546875 23.828125 C-30.10047366 24.00703956 -32.52411999 24.33976533 -35 25 C-33.30820672 22.95780294 -32.36272334 22.08206694 -29.73828125 21.48828125 C-28.93777344 21.43027344 -28.13726562 21.37226562 -27.3125 21.3125 C-26.10013672 21.21388672 -26.10013672 21.21388672 -24.86328125 21.11328125 C-23.94095703 21.05720703 -23.94095703 21.05720703 -23 21 C-23 20.34 -23 19.68 -23 19 C-22.44538086 18.74420166 -21.89076172 18.48840332 -21.31933594 18.22485352 C-18.78117095 17.03352952 -16.26652205 15.79884647 -13.75 14.5625 C-12.87730469 14.16095703 -12.00460938 13.75941406 -11.10546875 13.34570312 C-5.29842106 10.44217928 -2.75040367 7.92112734 -0.53222656 1.77319336 C-0.3565918 1.18803955 -0.18095703 0.60288574 0 0 Z " fill="#382829" transform="translate(114,29)"/>
<path d="M0 0 C2.7578125 -0.3125 2.7578125 -0.3125 6 0 C8.1171875 2.1875 8.1171875 2.1875 9.875 5 C10.47054687 5.928125 11.06609375 6.85625 11.6796875 7.8125 C12.11539063 8.534375 12.55109375 9.25625 13 10 C14.65 9.67 16.3 9.34 18 9 C17.34 8.01 16.68 7.02 16 6 C16 5.01 16 4.02 16 3 C17.98 2.34 19.96 1.68 22 1 C26 6.625 26 6.625 26 10 C26.66 10 27.32 10 28 10 C28 8.35 28 6.7 28 5 C30.37840497 8.56760745 32.5390474 12.22834768 34.6875 15.9375 C35.11611328 16.65357422 35.54472656 17.36964844 35.98632812 18.10742188 C36.38658203 18.80287109 36.78683594 19.49832031 37.19921875 20.21484375 C37.56877686 20.84511475 37.93833496 21.47538574 38.3190918 22.12475586 C39.17733291 24.48838081 38.88811552 25.67799277 38 28 C36.51171875 29.30078125 36.51171875 29.30078125 34.6875 30.3125 C34.09324219 30.65925781 33.49898437 31.00601563 32.88671875 31.36328125 C30.45613673 32.18353978 29.38599609 31.90889659 27 31 C25.62792969 29.32592773 25.62792969 29.32592773 24.421875 27.18359375 C23.98359375 26.41982422 23.5453125 25.65605469 23.09375 24.86914062 C22.6503125 24.06669922 22.206875 23.26425781 21.75 22.4375 C21.29109375 21.63119141 20.8321875 20.82488281 20.359375 19.99414062 C19.22791753 18.00230403 18.10884955 16.00448318 17 14 C14.75234632 16.19728609 12.84536736 18.45163555 11 21 C7.16968276 14.07647124 3.48307384 7.10485416 0 0 Z " fill="#282828" transform="translate(28,86)"/>
<path d="M0 0 C2.6484375 0.2890625 2.6484375 0.2890625 4.421875 1.765625 C17.47820042 19.28020789 17.47820042 19.28020789 16.6484375 28.2890625 C15.6584375 28.2890625 14.6684375 28.2890625 13.6484375 28.2890625 C13.6484375 28.9490625 13.6484375 29.6090625 13.6484375 30.2890625 C9.1934375 31.7740625 9.1934375 31.7740625 4.6484375 33.2890625 C3.99617187 32.17789063 3.34390625 31.06671875 2.671875 29.921875 C2.25075439 29.20531738 1.82963379 28.48875977 1.39575195 27.75048828 C0.47900252 26.189682 -0.4365204 24.62815469 -1.35083008 23.06591797 C-4.29967023 18.0373032 -7.32343406 13.06843103 -10.48828125 8.171875 C-11.3515625 6.2890625 -11.3515625 6.2890625 -10.3515625 3.2890625 C-8.04127165 2.54646901 -5.7058105 1.8776245 -3.3515625 1.2890625 C-2.3515625 0.2890625 -2.3515625 0.2890625 0 0 Z " fill="#D61B12" transform="translate(151.3515625,8.7109375)"/>
<path d="M0 0 C2.31873577 2.07238185 3.62580561 4.51800821 5.0625 7.25 C5.46404297 7.93191406 5.86558594 8.61382812 6.27929688 9.31640625 C9.08764032 14.31225037 9.08764032 14.31225037 8.73120117 17.109375 C7.62812534 19.96153502 5.73306598 21.03095432 3.25 22.75 C2.38890625 23.36359375 1.5278125 23.9771875 0.640625 24.609375 C-2.33693808 26.17744076 -3.71249124 26.79809296 -7 26 C-8.663725 23.9188202 -9.86610716 22.11881158 -11.125 19.8125 C-11.45886719 19.23435547 -11.79273438 18.65621094 -12.13671875 18.06054688 C-13.10442988 16.38128345 -14.05253496 14.6907692 -15 13 C-15.57492188 12.11699219 -16.14984375 11.23398438 -16.7421875 10.32421875 C-18 8 -18 8 -18 4 C-12.87889223 0.58592815 -6.14974264 -1.505966 0 0 Z " fill="#DC1D14" transform="translate(21,92)"/>
<path d="M0 0 C0.495 0.99 0.495 0.99 1 2 C-2.63 2 -6.26 2 -10 2 C-7.4522167 8.50497863 -4.96635374 14.62078651 -0.8203125 20.28125 C0 22 0 22 -0.3671875 24.21875 C-0.57601562 24.8065625 -0.78484375 25.394375 -1 26 C-4.59346399 22.77799521 -6.87388502 19.11763363 -9.1875 14.9375 C-9.54263672 14.31294922 -9.89777344 13.68839844 -10.26367188 13.04492188 C-11.75740832 10.38907549 -13.03409615 7.89771156 -14 5 C-14 6.98 -14 8.96 -14 11 C-17 12 -17 12 -20.1875 12.4375 C-24.23771259 13.03507235 -28.04377927 13.95888928 -32 15 C-29.93876598 20.05229915 -27.56653963 24.73122974 -24.8125 29.4375 C-24.44447266 30.07365234 -24.07644531 30.70980469 -23.69726562 31.36523438 C-22.80166504 32.91218085 -21.9013332 34.45638662 -21 36 C-17.25159348 36.24946733 -15.47616132 36.01728036 -12.625 33.5625 C-9.06549882 30.79312985 -6.46337909 30.27326811 -2 30 C-6.84703401 35.31610182 -12.30155903 40.48987021 -19.625 41.5 C-26.38851346 38.49399402 -30.17718257 30.64192335 -33 24 C-33 23.34 -33 22.68 -33 22 C-33.66 22 -34.32 22 -35 22 C-35.36877231 14.50162968 -35.36877231 14.50162968 -33.83984375 12.421875 C-29.69014306 9.21488763 -24.70960187 7.25164945 -20 5 C-19.20722656 4.59007813 -18.41445313 4.18015625 -17.59765625 3.7578125 C-11.82188666 0.89603878 -6.40856652 0.23957258 0 0 Z " fill="#3F2B2B" transform="translate(35,81)"/>
<path d="M0 0 C2.61527381 2.36620011 4.26440562 4.942048 6 8 C6.33 7.67 6.66 7.34 7 7 C7.66 7.33 8.32 7.66 9 8 C9 8.66 9 9.32 9 10 C10.65 10 12.3 10 14 10 C14 10.66 14 11.32 14 12 C12.35 12 10.7 12 9 12 C9 13.65 9 15.3 9 17 C8.34 17 7.68 17 7 17 C3 10.25 3 10.25 3 8 C1.02 8.66 -0.96 9.32 -3 10 C-2.01 12.31 -1.02 14.62 0 17 C-2.31 17.33 -4.62 17.66 -7 18 C-7.37511719 17.278125 -7.75023438 16.55625 -8.13671875 15.8125 C-8.64847656 14.884375 -9.16023438 13.95625 -9.6875 13 C-10.18636719 12.071875 -10.68523438 11.14375 -11.19921875 10.1875 C-12.81953975 7.70351402 -12.81953975 7.70351402 -15.70703125 7.6875 C-16.84205078 7.8421875 -16.84205078 7.8421875 -18 8 C-17.69707031 8.4940332 -17.39414062 8.98806641 -17.08203125 9.49707031 C-15.71216884 11.74259092 -14.3560108 13.99609016 -13 16.25 C-12.52304687 17.02730469 -12.04609375 17.80460937 -11.5546875 18.60546875 C-10.87792969 19.73662109 -10.87792969 19.73662109 -10.1875 20.890625 C-9.76855469 21.58188477 -9.34960938 22.27314453 -8.91796875 22.98535156 C-8 25 -8 25 -8 29 C-11.45523687 31.74386457 -14.66956925 32.49646154 -19 33 C-18.7421875 32.34 -18.484375 31.68 -18.21875 31 C-17.88888309 26.47611094 -20.13450286 23.73789928 -22.5 20 C-27.05813953 12.79734219 -27.05813953 12.79734219 -26.78125 9 C-26.5234375 8.34 -26.265625 7.68 -26 7 C-25.01 7.33 -24.02 7.66 -23 8 C-23.66 8 -24.32 8 -25 8 C-21.48945091 14.43082887 -17.80394506 20.73852342 -14 27 C-13.67 26.01 -13.34 25.02 -13 24 C-14.21628523 21.63500094 -15.46824734 19.43406988 -16.875 17.1875 C-19.63743628 12.77043039 -21.49521318 9.31654508 -22 4 C-18.37 4 -14.74 4 -11 4 C-11 3.34 -11 2.68 -11 2 C-10.01 2.33 -9.02 2.66 -8 3 C-6.8125 5.5625 -6.8125 5.5625 -6 8 C-3.69 7.34 -1.38 6.68 1 6 C0.34 4.35 -0.32 2.7 -1 1 C-0.67 0.67 -0.34 0.34 0 0 Z " fill="#380100" transform="translate(47,79)"/>
<path d="M0 0 C4.04500194 1.34833398 4.63621086 3.23264433 6.75 6.875 C7.38421875 7.94492187 8.0184375 9.01484375 8.671875 10.1171875 C10 13 10 13 9 16 C8.34 16.66 7.68 17.32 7 18 C7.66 18.66 8.32 19.32 9 20 C9.99 20 10.98 20 12 20 C12.66 20.33 13.32 20.66 14 21 C14 21.99 14 22.98 14 24 C14.99 24 15.98 24 17 24 C16.505 21.525 16.505 21.525 16 19 C18.2477975 21.05233685 19.0022242 22.00667261 20 25 C17.6200262 27.63049736 15.2107223 29.47108462 12 31 C9.6640625 31.10546875 9.6640625 31.10546875 7 30 C4.89957584 27.38357345 3.34697159 24.50542219 1.75 21.5625 C1.30398437 20.77294922 0.85796875 19.98339844 0.3984375 19.16992188 C-1.12005591 16.47114495 -2.61506374 13.76987251 -4 11 C-3.34 10.01 -2.68 9.02 -2 8 C-2.80161791 5.32854463 -2.80161791 5.32854463 -4 3 C-2.1875 1.4375 -2.1875 1.4375 0 0 Z " fill="#2A2A2A" transform="translate(103,55)"/>
<path d="M0 0 C0.66 0.33 1.32 0.66 2 1 C2 2.65 2 4.3 2 6 C3.175625 5.7525 3.175625 5.7525 4.375 5.5 C7 5 7 5 9 5 C10.67745682 4.36096883 12.34561387 3.69658363 14 3 C14 2.01 14 1.02 14 0 C15.32 0.33 16.64 0.66 18 1 C17.65978036 4.17538332 16.97533396 5.02276865 14.5625 7.25 C12 9 12 9 10 9 C9.67 9.99 9.34 10.98 9 12 C6.85546875 13.60546875 6.85546875 13.60546875 4.1875 15.1875 C3.31480469 15.71730469 2.44210938 16.24710938 1.54296875 16.79296875 C-1 18 -1 18 -5 18 C-5 18.66 -5 19.32 -5 20 C-7.31 20.33 -9.62 20.66 -12 21 C-13.0625 19.1875 -13.0625 19.1875 -14 17 C-13.505 15.515 -13.505 15.515 -13 14 C-12.278125 14.0825 -11.55625 14.165 -10.8125 14.25 C-7.16130033 13.92544892 -5.72241284 12.35451921 -3 10 C-2.34 10 -1.68 10 -1 10 C-1.66 8.35 -2.32 6.7 -3 5 C-4.98 5.66 -6.96 6.32 -9 7 C-9 6.01 -9 5.02 -9 4 C-7.54618103 3.30300448 -6.08677047 2.61766134 -4.625 1.9375 C-3.81289062 1.55464844 -3.00078125 1.17179687 -2.1640625 0.77734375 C-1.09285156 0.39255859 -1.09285156 0.39255859 0 0 Z " fill="#E8180E" transform="translate(73,63)"/>
<path d="M0 0 C3.72615287 1.24205096 4.02494476 2.27127114 5.91796875 5.62109375 C6.44970703 6.55630859 6.98144531 7.49152344 7.52929688 8.45507812 C8.07650391 9.43927734 8.62371094 10.42347656 9.1875 11.4375 C9.74630859 12.41783203 10.30511719 13.39816406 10.88085938 14.40820312 C15 21.71603136 15 21.71603136 15 24 C10.46391786 24.28939396 6.39218277 24.24375792 2 23 C-1.10227041 19.75129375 -2.85147207 16.33362083 -4 12 C-3.54843694 7.60871287 -1.79792817 3.98671028 0 0 Z " fill="#E31A10" transform="translate(118,29)"/>
<path d="M0 0 C2.0625 0.4375 2.0625 0.4375 4 1 C0.42548451 3.0631792 -3.14914562 5.12615964 -6.72387695 7.18896484 C-7.93712377 7.88910701 -9.15034056 8.58930122 -10.36352539 9.28955078 C-10.95061279 9.62841309 -11.5377002 9.96727539 -12.14257812 10.31640625 C-13.01201553 10.8183551 -13.01201553 10.8183551 -13.89901733 11.33044434 C-15.59724038 12.30986231 -17.29689822 13.28679111 -18.99658203 14.26367188 C-20.77035745 15.28912227 -22.53920703 16.32331784 -24.29638672 17.37695312 C-28.69241898 20 -28.69241898 20 -32 20 C-32 19.34 -32 18.68 -32 18 C-33.65 18 -35.3 18 -37 18 C-37.71614583 16.27473958 -38.43229167 14.54947917 -39.1484375 12.82421875 C-40.06806692 10.73466068 -40.06806692 10.73466068 -42 8 C-41.625 5.8125 -41.625 5.8125 -41 4 C-40.51789062 4.7940625 -40.03578125 5.588125 -39.5390625 6.40625 C-38.59160156 7.93765625 -38.59160156 7.93765625 -37.625 9.5 C-36.99851562 10.5209375 -36.37203125 11.541875 -35.7265625 12.59375 C-34.87191406 13.78484375 -34.87191406 13.78484375 -34 15 C-33.34 15 -32.68 15 -32 15 C-32 14.34 -32 13.68 -32 13 C-28.535 12.505 -28.535 12.505 -25 12 C-25 11.34 -25 10.68 -25 10 C-23.824375 9.608125 -22.64875 9.21625 -21.4375 8.8125 C-18.37277564 7.68876773 -16.09372698 6.42493734 -13.5625 4.375 C-10.11416575 1.71508397 -7.10549271 1.34398948 -2.8203125 1.140625 C-0.98016303 1.19701042 -0.98016303 1.19701042 0 0 Z " fill="#2C1A1A" transform="translate(93,71)"/>
<path d="M0 0 C4 5.29411765 4 5.29411765 4 9 C4.66 9 5.32 9 6 9 C6 7.35 6 5.7 6 4 C7.98422969 6.97634454 9.8493302 9.99391229 11.6875 13.0625 C12.33074219 14.12597656 12.97398438 15.18945312 13.63671875 16.28515625 C14.08660156 17.18105469 14.53648438 18.07695313 15 19 C14.67 19.66 14.34 20.32 14 21 C13.34 21 12.68 21 12 21 C11.34 21.66 10.68 22.32 10 23 C9.34 22.67 8.68 22.34 8 22 C8 22.66 8 23.32 8 24 C8.99 24.33 9.98 24.66 11 25 C9.35 24.67 7.7 24.34 6 24 C6 23.01 6 22.02 6 21 C5.34 21.33 4.68 21.66 4 22 C3.896875 21.401875 3.79375 20.80375 3.6875 20.1875 C3.16745356 17.92027543 3.16745356 17.92027543 1.4375 16.5 C0 15 0 15 0 11 C-0.99 10.67 -1.98 10.34 -3 10 C-5.07530387 7.07920195 -6 5.62453269 -6 2 C-2.25 0 -2.25 0 0 0 Z " fill="#343434" transform="translate(50,87)"/>
<path d="M0 0 C-0.2276001 0.54205078 -0.4552002 1.08410156 -0.68969727 1.64257812 C-1.14497724 5.10141635 0.25065058 6.76383883 2.03515625 9.71875 C2.67904297 10.81574219 3.32292969 11.91273437 3.98632812 13.04296875 C5.02425786 14.77719993 6.06740823 16.5081033 7.11450195 18.23681641 C8.12225844 19.91031446 9.11026614 21.59565525 10.09765625 23.28125 C10.70101807 24.28220703 11.30437988 25.28316406 11.92602539 26.31445312 C13 29 13 29 12.18139648 31.35742188 C11.79153564 31.89947266 11.4016748 32.44152344 11 33 C9.2709226 33.02725341 7.54171824 33.04650987 5.8125 33.0625 C4.84957031 33.07410156 3.88664062 33.08570313 2.89453125 33.09765625 C0.14423487 33.00486622 -2.32479591 32.62111685 -5 32 C-5 31.01 -5 30.02 -5 29 C-3.06215735 29.14120714 -1.12473045 29.28812873 0.8125 29.4375 C1.89144531 29.51871094 2.97039062 29.59992187 4.08203125 29.68359375 C7 30 7 30 10 31 C8.39725825 28.10337586 6.79255217 25.20784446 5.1875 22.3125 C4.73568359 21.49587891 4.28386719 20.67925781 3.81835938 19.83789062 C0.43332447 12.41345448 0.43332447 12.41345448 -5 7 C-5.99 10.465 -5.99 10.465 -7 14 C-8.37677187 10.17563368 -7.72799754 6.93118669 -7 3 C-6.67 2.34 -6.34 1.68 -6 1 C-3.911361 0.32624548 -2.19636905 0 0 0 Z " fill="#3A0E0D" transform="translate(123,22)"/>
<path d="M0 0 C0.33 0.66 0.66 1.32 1 2 C-2.63 2 -6.26 2 -10 2 C-7.4522167 8.50497863 -4.96635374 14.62078651 -0.8203125 20.28125 C0 22 0 22 -0.3671875 24.21875 C-0.57601562 24.8065625 -0.78484375 25.394375 -1 26 C-4.59346399 22.77799521 -6.87388502 19.11763363 -9.1875 14.9375 C-9.54263672 14.31294922 -9.89777344 13.68839844 -10.26367188 13.04492188 C-11.75740832 10.38907549 -13.03409615 7.89771156 -14 5 C-14 6.98 -14 8.96 -14 11 C-16.85082796 11.95027599 -19.21103374 12.29191216 -22.1875 12.5625 C-23.53908203 12.68818359 -23.53908203 12.68818359 -24.91796875 12.81640625 C-25.60503906 12.87699219 -26.29210938 12.93757813 -27 13 C-26.0409375 12.38125 -26.0409375 12.38125 -25.0625 11.75 C-22.82756932 10.2147822 -22.82756932 10.2147822 -22.5625 7.94921875 C-22.376875 7.30597656 -22.19125 6.66273437 -22 6 C-19.75 4.76953125 -19.75 4.76953125 -17 3.8125 C-13.7389803 2.8395483 -13.7389803 2.8395483 -11 1 C-9.15108054 0.76636119 -7.29511969 0.58696365 -5.4375 0.4375 C-3.91962891 0.31181641 -3.91962891 0.31181641 -2.37109375 0.18359375 C-1.58863281 0.12300781 -0.80617188 0.06242187 0 0 Z " fill="#701614" transform="translate(35,81)"/>
<path d="M0 0 C4.46206761 1.51134548 6.43243874 5.04096016 8.875 8.8125 C9.31046143 9.47741455 9.74592285 10.1423291 10.19458008 10.82739258 C20.16956223 26.39354175 20.16956223 26.39354175 19.8984375 32.16015625 C18.69315748 34.62836012 17.17812033 35.68512231 14.9375 37.25 C14.20402344 37.77078125 13.47054687 38.2915625 12.71484375 38.828125 C12.14894531 39.21484375 11.58304688 39.6015625 11 40 C10.34 39.67 9.68 39.34 9 39 C9 38.34 9 37.68 9 37 C10.98 36.505 10.98 36.505 13 36 C13 35.34 13 34.68 13 34 C13.99 34 14.98 34 16 34 C13.37651029 24.89494748 9.17687909 16.58386245 3.77734375 8.79296875 C2 6 2 6 2 3 C0.35 2.67 -1.3 2.34 -3 2 C-2.01 1.34 -1.02 0.68 0 0 Z " fill="#2D1616" transform="translate(152,3)"/>
<path d="M0 0 C0.495 1.98 0.495 1.98 1 4 C-0.010625 4.28875 -1.02125 4.5775 -2.0625 4.875 C-2.69542969 5.05933594 -3.32835937 5.24367188 -3.98046875 5.43359375 C-5.93291788 5.98118587 -7.90407592 6.46066353 -9.875 6.9375 C-10.90625 7.288125 -11.9375 7.63875 -13 8 C-13.33 8.99 -13.66 9.98 -14 11 C-16.0390625 12.02734375 -16.0390625 12.02734375 -18.625 12.9375 C-23.07021468 14.5916819 -26.9532685 16.53677213 -31 19 C-31 18.34 -31 17.68 -31 17 C-31.66 17 -32.32 17 -33 17 C-33.33 17.66 -33.66 18.32 -34 19 C-34.66 18.34 -35.32 17.68 -36 17 C-35.48091064 16.71801758 -34.96182129 16.43603516 -34.42700195 16.14550781 C-32.0527215 14.85203478 -29.68261184 13.55109455 -27.3125 12.25 C-26.49587891 11.8065625 -25.67925781 11.363125 -24.83789062 10.90625 C-20.57594134 8.55958967 -16.69972061 6.19521326 -13 3 C-8.5417074 -0.37384305 -5.41157394 -0.27516478 0 0 Z " fill="#302221" transform="translate(154,5)"/>
<path d="M0 0 C0.33 0.66 0.66 1.32 1 2 C3.02463255 2.65213292 3.02463255 2.65213292 5 3 C-21.56374958 18.58892049 -21.56374958 18.58892049 -28 20 C-26.5039904 16.19197555 -24.33936849 14.30575443 -21 12 C-19.66666667 11.66666667 -18.33333333 11.33333333 -17 11 C-16.67 10.01 -16.34 9.02 -16 8 C-13.92578125 6.71875 -13.92578125 6.71875 -11.3125 5.5 C-10.41402344 5.07332031 -9.51554687 4.64664063 -8.58984375 4.20703125 C-7.73519531 3.80871094 -6.88054687 3.41039062 -6 3 C-4.7893067 2.4005765 -3.58042879 1.79744118 -2.375 1.1875 C-1.59125 0.795625 -0.8075 0.40375 0 0 Z " fill="#190101" transform="translate(77,53)"/>
<path d="M0 0 C1.859375 2.65234375 1.859375 2.65234375 3.75 5.9375 C4.38421875 7.01902344 5.0184375 8.10054687 5.671875 9.21484375 C6.32929688 10.59349609 6.32929688 10.59349609 7 12 C6.67 12.66 6.34 13.32 6 14 C5.67 13.01 5.34 12.02 5 11 C1.99152582 9.77479736 1.99152582 9.77479736 -1 9 C-0.67 7.68 -0.34 6.36 0 5 C-3.38023517 5 -5.83468937 5.87455622 -9 7 C-9 7.66 -9 8.32 -9 9 C-10.98 9.99 -10.98 9.99 -13 11 C-12.484375 12.093125 -11.96875 13.18625 -11.4375 14.3125 C-10 18 -10 18 -11 21 C-14.465 15.06 -14.465 15.06 -18 9 C-14.68994108 5.68994108 -12.42187224 3.87212859 -8.4375 1.6875 C-7.48746094 1.15511719 -6.53742188 0.62273438 -5.55859375 0.07421875 C-3 -1 -3 -1 0 0 Z " fill="#BC1A11" transform="translate(139,17)"/>
<path d="M0 0 C2.625 0.25 2.625 0.25 4.4375 1.75 C4.829375 2.245 5.22125 2.74 5.625 3.25 C5.295 3.91 4.965 4.57 4.625 5.25 C3.305 4.59 1.985 3.93 0.625 3.25 C1.12 4.1575 1.615 5.065 2.125 6 C3.625 9.25 3.625 9.25 3.625 13.25 C1.975 13.58 0.325 13.91 -1.375 14.25 C-2.695 12.6 -4.015 10.95 -5.375 9.25 C-5.375 10.9 -5.375 12.55 -5.375 14.25 C-7.99385488 11.88055987 -9.79366551 9.41266898 -11.375 6.25 C-11.045 5.26 -10.715 4.27 -10.375 3.25 C-8.06470915 2.50740651 -5.729248 1.838562 -3.375 1.25 C-2.375 0.25 -2.375 0.25 0 0 Z " fill="#C51C13" transform="translate(151.375,8.75)"/>
<path d="M0 0 C2.64255498 2.32474213 4.02496912 4.62402602 5 8 C4.94422482 11.24003076 4.47386425 14.09674154 3 17 C2.01 17.33 1.02 17.66 0 18 C-0.33 18.66 -0.66 19.32 -1 20 C-1.66 19.34 -2.32 18.68 -3 18 C-1.68 17.01 -0.36 16.02 1 15 C0.6390625 14.51789063 0.278125 14.03578125 -0.09375 13.5390625 C-0.5578125 12.90742187 -1.021875 12.27578125 -1.5 11.625 C-1.9640625 10.99851562 -2.428125 10.37203125 -2.90625 9.7265625 C-4 8 -4 8 -4 6 C-6.9806408 4.34408844 -9.65469056 3.60044016 -13 3 C-13.99 2.67 -14.98 2.34 -16 2 C-10.64500469 -0.84840176 -5.88112843 -2.31083445 0 0 Z " fill="#1F090A" transform="translate(93,53)"/>
<path d="M0 0 C3.12910468 1.25164187 4.92874253 3.42801274 7.1875 5.875 C6.8575 3.895 6.5275 1.915 6.1875 -0.125 C9.33708831 3.29846555 9.74929109 6.31762737 10.1875 10.875 C9.1975 10.875 8.2075 10.875 7.1875 10.875 C7.1875 11.535 7.1875 12.195 7.1875 12.875 C2.7325 14.36 2.7325 14.36 -1.8125 15.875 C-2.4725 14.555 -3.1325 13.235 -3.8125 11.875 C-3.1525 11.875 -2.4925 11.875 -1.8125 11.875 C-1.8125 12.535 -1.8125 13.195 -1.8125 13.875 C-1.1525 13.875 -0.4925 13.875 0.1875 13.875 C-0.81443437 10.08196275 -1.62274227 7.15963659 -3.8125 3.875 C-3.8125 2.885 -3.8125 1.895 -3.8125 0.875 C-1.8125 -0.125 -1.8125 -0.125 0 0 Z " fill="#BD1C15" transform="translate(157.8125,26.125)"/>
<path d="M0 0 C1.203125 1.7421875 1.203125 1.7421875 2.25 3.875 C2.60578125 4.57367188 2.9615625 5.27234375 3.328125 5.9921875 C4 8 4 8 3 11 C0.625 12.75 0.625 12.75 -2 14 C-5.84141263 12.71952912 -6.43695439 11.22255522 -8.26171875 7.77734375 C-9 6 -9 6 -9.0625 3.75 C-6.78436506 -0.00222226 -4.12236308 -1.37412103 0 0 Z " fill="#EA1A0F" transform="translate(113,43)"/>
<path d="M0 0 C4.04500194 1.34833398 4.63621086 3.23264433 6.75 6.875 C7.38421875 7.94492187 8.0184375 9.01484375 8.671875 10.1171875 C10 13 10 13 9 16 C7.35 16.66 5.7 17.32 4 18 C0.04 11.07 0.04 11.07 -4 4 C-2.68 2.68 -1.36 1.36 0 0 Z " fill="#333434" transform="translate(103,55)"/>
<path d="M0 0 C4.87186815 4.05989013 7.93419444 8.00764505 10.875 13.5625 C3.58928571 18.13392857 3.58928571 18.13392857 -1.125 17.5625 C-0.34125 16.94375 0.4425 16.325 1.25 15.6875 C3.84337647 13.66391339 3.84337647 13.66391339 5.875 11.5625 C5.875 10.5725 5.875 9.5825 5.875 8.5625 C4.885 8.2325 3.895 7.9025 2.875 7.5625 C2.875 8.5525 2.875 9.5425 2.875 10.5625 C1.555 10.8925 0.235 11.2225 -1.125 11.5625 C-0.795 9.5825 -0.465 7.6025 -0.125 5.5625 C-6.065 6.0575 -6.065 6.0575 -12.125 6.5625 C-4.61280488 -0.94969512 -4.61280488 -0.94969512 0 0 Z M-4.125 11.5625 C-3.135 11.8925 -2.145 12.2225 -1.125 12.5625 C-2.115 13.2225 -3.105 13.8825 -4.125 14.5625 C-4.125 13.5725 -4.125 12.5825 -4.125 11.5625 Z " fill="#DD1C12" transform="translate(84.125,55.4375)"/>
<path d="M0 0 C7 8.44827586 7 8.44827586 7 13 C4.75820623 14.36965208 2.50827662 15.72052808 0.25 17.0625 C-0.70132813 17.64741211 -0.70132813 17.64741211 -1.671875 18.24414062 C-6.46067182 21.06254709 -6.46067182 21.06254709 -9.109375 20.75537109 C-12.09722967 19.56161821 -12.8112357 17.35646401 -14.25 14.5625 C-14.77078125 13.57378906 -15.2915625 12.58507812 -15.828125 11.56640625 C-17 9 -17 9 -17 7 C-16.34 7 -15.68 7 -15 7 C-15 7.99 -15 8.98 -15 10 C-14.34 10 -13.68 10 -13 10 C-11.5393715 12.64738916 -11 13.89448334 -11 17 C-2.73829376 13.75944313 -2.73829376 13.75944313 2.8125 7.8125 C2.9053125 6.9153125 2.9053125 6.9153125 3 6 C2.34 6 1.68 6 1 6 C0.67 4.02 0.34 2.04 0 0 Z " fill="#C11508" transform="translate(146,31)"/>
<path d="M0 0 C0.78375 0.28875 1.5675 0.5775 2.375 0.875 C2.03776015 3.80639253 1.48630019 4.77359316 -0.734375 6.796875 C-1.60578125 7.40015625 -2.4771875 8.0034375 -3.375 8.625 C-4.66664062 9.54539062 -4.66664062 9.54539062 -5.984375 10.484375 C-8.8589319 11.99819491 -10.42870706 12.33395488 -13.625 11.875 C-15.4375 9.875 -15.4375 9.875 -16.625 7.875 C-16.295 7.215 -15.965 6.555 -15.625 5.875 C-14.965 5.875 -14.305 5.875 -13.625 5.875 C-12.02423714 4.88172089 -10.44358808 3.85584874 -8.875 2.8125 C-4.10165991 -0.14143655 -4.10165991 -0.14143655 0 0 Z " fill="#B31109" transform="translate(27.625,106.125)"/>
<path d="M0 0 C2.61527381 2.36620011 4.26440562 4.942048 6 8 C6.33 7.67 6.66 7.34 7 7 C7.66 7.33 8.32 7.66 9 8 C9 8.66 9 9.32 9 10 C10.65 10 12.3 10 14 10 C14 10.66 14 11.32 14 12 C12.35 12 10.7 12 9 12 C9 13.65 9 15.3 9 17 C8.34 17 7.68 17 7 17 C3 10.25 3 10.25 3 8 C1.02 8.66 -0.96 9.32 -3 10 C-2.01 12.31 -1.02 14.62 0 17 C-3.75 18.125 -3.75 18.125 -6 17 C-5.67 16.01 -5.34 15.02 -5 14 C-5.87914688 11.3430809 -5.87914688 11.3430809 -7 9 C-1.25 6 -1.25 6 1 6 C0.34 4.35 -0.32 2.7 -1 1 C-0.67 0.67 -0.34 0.34 0 0 Z " fill="#0B0403" transform="translate(47,79)"/>
<path d="M0 0 C2.0625 0.4375 2.0625 0.4375 4 1 C0.07223881 3.37071462 -3.86865095 5.71866265 -7.8125 8.0625 C-9.49182617 9.07666992 -9.49182617 9.07666992 -11.20507812 10.11132812 C-12.27822266 10.74619141 -13.35136719 11.38105469 -14.45703125 12.03515625 C-15.9416687 12.92279663 -15.9416687 12.92279663 -17.45629883 13.82836914 C-20 15 -20 15 -23 14 C-22.01 13.34 -21.02 12.68 -20 12 C-20 11.34 -20 10.68 -20 10 C-18.57421875 8.5625 -18.57421875 8.5625 -16.6875 7 C-16.07261719 6.484375 -15.45773438 5.96875 -14.82421875 5.4375 C-11.5617034 2.86660996 -9.47479658 1.75132808 -5.375 1.4375 C-2.38885578 1.41022777 -2.38885578 1.41022777 0 0 Z " fill="#690E0E" transform="translate(93,71)"/>
<path d="M0 0 C5.67739046 1.89246349 8.2129709 7.67471204 10.9609375 12.70703125 C12.39093735 15.8627076 12.78024367 18.55715089 13 22 C12.01 22 11.02 22 10 22 C10 21.01 10 20.02 10 19 C8.02 19.33 6.04 19.66 4 20 C3.34 18.35 2.68 16.7 2 15 C2.99 14.34 3.98 13.68 5 13 C3.92050292 10.17669994 2.74966197 7.50895232 1.375 4.8125 C0 2 0 2 0 0 Z " fill="#191919" transform="translate(107,57)"/>
<path d="M0 0 C0.99 0.33 1.98 0.66 3 1 C3.70211894 2.65204456 4.36971413 4.31923769 5 6 C5.66 6.33 6.32 6.66 7 7 C6.01 7 5.02 7 4 7 C4.53625 7.7425 5.0725 8.485 5.625 9.25 C6.07875 10.1575 6.5325 11.065 7 12 C6.1875 14.3125 6.1875 14.3125 5 16 C2.91099105 13.4787823 1.09383034 11.18766068 -0.375 8.25 C-1.87274585 5.66981309 -1.87274585 5.66981309 -5.1875 5.1875 C-6.5796875 5.0946875 -6.5796875 5.0946875 -8 5 C-8 5.66 -8 6.32 -8 7 C-8.66 7 -9.32 7 -10 7 C-10.33 5.35 -10.66 3.7 -11 2 C-7.37 2 -3.74 2 0 2 C0 1.34 0 0.68 0 0 Z " fill="#2C0807" transform="translate(36,81)"/>
<path d="M0 0 C2.88395737 1.44197868 4.76525152 3.70644235 7 6 C6.67 6.99 6.34 7.98 6 9 C3.4375 10.1875 3.4375 10.1875 1 11 C0.60554688 10.51015625 0.21109375 10.0203125 -0.1953125 9.515625 C-2.54987618 7.53819923 -3.83892442 7.65771807 -6.875 7.75 C-7.75671875 7.77578125 -8.6384375 7.8015625 -9.546875 7.828125 C-12.10047366 8.00703956 -14.52411999 8.33976533 -17 9 C-15.30820672 6.95780294 -14.36272334 6.08206694 -11.73828125 5.48828125 C-10.93777344 5.43027344 -10.13726562 5.37226562 -9.3125 5.3125 C-8.50425781 5.24675781 -7.69601563 5.18101563 -6.86328125 5.11328125 C-5.94095703 5.05720703 -5.94095703 5.05720703 -5 5 C-5 4.34 -5 3.68 -5 3 C-2.625 1.3125 -2.625 1.3125 0 0 Z " fill="#3E3C3B" transform="translate(96,45)"/>
<path d="M0 0 C1.98422969 2.97634454 3.8493302 5.99391229 5.6875 9.0625 C6.33074219 10.12597656 6.97398438 11.18945312 7.63671875 12.28515625 C8.08660156 13.18105469 8.53648438 14.07695313 9 15 C8.67 15.66 8.34 16.32 8 17 C7.34 17 6.68 17 6 17 C5.34 17.66 4.68 18.32 4 19 C3.34 18.67 2.68 18.34 2 18 C2 18.66 2 19.32 2 20 C2.99 20.33 3.98 20.66 5 21 C3.35 20.67 1.7 20.34 0 20 C0 19.01 0 18.02 0 17 C-0.66 17.33 -1.32 17.66 -2 18 C-1.45276317 14.62537285 -0.9451 12.91765 1 10 C0.3409159 8.33032028 -0.32650839 6.66392045 -1 5 C-0.625 2.1875 -0.625 2.1875 0 0 Z " fill="#2D2D2D" transform="translate(56,91)"/>
<path d="M0 0 C1.36365959 3.68188089 0.44698622 5.47297109 -1 9 C-0.67 9.99 -0.34 10.98 0 12 C-2.64738916 13.4606285 -3.89448334 14 -7 14 C-8.5625 11.625 -8.5625 11.625 -10 9 C-10.66 8.34 -11.32 7.68 -12 7 C-10.75146327 6.20602761 -9.50109957 5.41492783 -8.25 4.625 C-7.20585938 3.96371094 -7.20585938 3.96371094 -6.140625 3.2890625 C-4.13482617 2.08119094 -2.10821704 1.01612263 0 0 Z " fill="#373736" transform="translate(48,73)"/>
<path d="M0 0 C0 1.32 0 2.64 0 4 C-1.79296875 5.703125 -1.79296875 5.703125 -4.1875 7.25 C-4.96480469 7.77078125 -5.74210938 8.2915625 -6.54296875 8.828125 C-9.25766705 10.12289366 -11.03084834 10.23204738 -14 10 C-14.33 8.02 -14.66 6.04 -15 4 C-10.34714182 0.89809455 -5.58467324 -0.33846504 0 0 Z " fill="#A30D05" transform="translate(18,92)"/>
<path d="M0 0 C2.625 -0.5625 2.625 -0.5625 6 0 C9.18207221 3.55514274 11.49392396 7.48177188 13 12 C11.0625 14.6875 11.0625 14.6875 9 17 C7.49743011 14.35559624 5.9978388 11.70958148 4.5 9.0625 C4.07074219 8.30775391 3.64148438 7.55300781 3.19921875 6.77539062 C2.79316406 6.05673828 2.38710938 5.33808594 1.96875 4.59765625 C1.59169922 3.93258057 1.21464844 3.26750488 0.82617188 2.58227539 C0 1 0 1 0 0 Z " fill="#E01D13" transform="translate(28,86)"/>
<path d="M0 0 C1.0209375 0.37125 1.0209375 0.37125 2.0625 0.75 C-2.44829893 5.78679315 -10.10366297 11.11093059 -16.96142578 12.01757812 C-21.01913391 12.07668531 -24.96340529 11.52307617 -28.9375 10.75 C-28.9375 10.42 -28.9375 10.09 -28.9375 9.75 C-25.3075 9.75 -21.6775 9.75 -17.9375 9.75 C-17.6075 8.76 -17.2775 7.77 -16.9375 6.75 C-15.278456 5.98683976 -13.6114926 5.23547462 -11.90625 4.58203125 C-9.88424649 3.72749405 -8.16047318 2.67929868 -6.3125 1.5 C-2.9375 -0.25 -2.9375 -0.25 0 0 Z " fill="#362223" transform="translate(151.9375,45.25)"/>
<path d="M0 0 C-0.31399807 3.17246324 -0.59407454 4.61995026 -2.9609375 6.8359375 C-4.15589844 7.59777344 -4.15589844 7.59777344 -5.375 8.375 C-6.16648437 8.89835937 -6.95796875 9.42171875 -7.7734375 9.9609375 C-10 11 -10 11 -13 10 C-13.33 8.35 -13.66 6.7 -14 5 C-12.61217515 4.1533966 -11.21430603 3.32324661 -9.8125 2.5 C-9.03519531 2.0359375 -8.25789062 1.571875 -7.45703125 1.09375 C-4.75896614 -0.10729647 -2.9193018 -0.20741043 0 0 Z " fill="#A60E07" transform="translate(23,99)"/>
<path d="M0 0 C0.99 0.33 1.98 0.66 3 1 C2.34 1 1.68 1 1 1 C4.10094787 6.68049743 7.34022263 12.20961271 10.86328125 17.640625 C12.14482121 20.30059111 12.22229792 22.08427844 12 25 C10.35 25.33 8.7 25.66 7 26 C7.2578125 25.34 7.515625 24.68 7.78125 24 C8.11111691 19.47611094 5.86549714 16.73789928 3.5 13 C-1.05813953 5.79734219 -1.05813953 5.79734219 -0.78125 2 C-0.5234375 1.34 -0.265625 0.68 0 0 Z " fill="#2B0100" transform="translate(21,86)"/>
<path d="M0 0 C3.20748823 2.77102623 5.15548776 6.31324578 7.25 9.9375 C7.62640625 10.55818359 8.0028125 11.17886719 8.390625 11.81835938 C11.0620659 16.42954137 11.0620659 16.42954137 10.734375 19.44140625 C10.49203125 19.95574219 10.2496875 20.47007813 10 21 C6.3304964 17.7106702 4.11629795 14.12557223 1.75 9.875 C1.38648438 9.24207031 1.02296875 8.60914062 0.6484375 7.95703125 C-2 3.2675047 -2 3.2675047 -2 1 C-1.34 0.67 -0.68 0.34 0 0 Z " fill="#891813" transform="translate(24,86)"/>
<path d="M0 0 C0.33 1.65 0.66 3.3 1 5 C-2.3340947 7.19097652 -5.04179141 8.43454163 -9 9 C-9.33 7.35 -9.66 5.7 -10 4 C-10.66 4 -11.32 4 -12 4 C-12 3.34 -12 2.68 -12 2 C-7.82262526 0.40861915 -4.46839215 -0.21278058 0 0 Z " fill="#D1120B" transform="translate(84,60)"/>
<path d="M0 0 C3 0.4375 3 0.4375 6 2.4375 C7.1875 6.0625 7.1875 6.0625 8 9.4375 C7.34 9.4375 6.68 9.4375 6 9.4375 C5.67 10.0975 5.34 10.7575 5 11.4375 C3.02 7.9725 3.02 7.9725 1 4.4375 C-1.27521866 6.60437491 -3.15794162 8.89370509 -5 11.4375 C-5.89186894 7.95110322 -6.1999374 5.97850708 -4.9375 2.5625 C-3 0.4375 -3 0.4375 0 0 Z " fill="#222121" transform="translate(44,95.5625)"/>
<path d="M0 0 C3.08355386 1.32567055 4.69548231 2.54095391 6.54296875 5.3359375 C6.97673828 5.98820313 7.41050781 6.64046875 7.85742188 7.3125 C8.29634766 7.993125 8.73527344 8.67375 9.1875 9.375 C9.63802734 10.04789063 10.08855469 10.72078125 10.55273438 11.4140625 C12.65413453 14.61499587 14.21887325 17.21161341 15 21 C14.01 20.67 13.02 20.34 12 20 C12 19.34 12 18.68 12 18 C11.01 17.67 10.02 17.34 9 17 C7.17578125 14.6015625 7.17578125 14.6015625 5.3125 11.625 C4.68988281 10.64789063 4.06726563 9.67078125 3.42578125 8.6640625 C2 6 2 6 2 3 C0.35 2.67 -1.3 2.34 -3 2 C-2.01 1.34 -1.02 0.68 0 0 Z " fill="#4B4544" transform="translate(152,3)"/>
<path d="M0 0 C0.66 0.66 1.32 1.32 2 2 C1.34 2 0.68 2 0 2 C0 2.66 0 3.32 0 4 C-3 6 -3 6 -6 6 C-6 6.66 -6 7.32 -6 8 C-11.2734375 11.22265625 -11.2734375 11.22265625 -13 12 C-13.66 11.67 -14.32 11.34 -15 11 C-15.33 12.65 -15.66 14.3 -16 16 C-17.65 16.33 -19.3 16.66 -21 17 C-19.5039904 13.19197555 -17.33936849 11.30575443 -14 9 C-12.66666667 8.66666667 -11.33333333 8.33333333 -10 8 C-9.67 7.01 -9.34 6.02 -9 5 C-6.93359375 3.61328125 -6.93359375 3.61328125 -4.4375 2.3125 C-3.61121094 1.87550781 -2.78492187 1.43851563 -1.93359375 0.98828125 C-1.29550781 0.66214844 -0.65742187 0.33601563 0 0 Z " fill="#515152" transform="translate(70,56)"/>
<path d="M0 0 C2.74277578 3.19990508 4.6302836 6.00499382 6 10 C5.34 10 4.68 10 4 10 C4 10.99 4 11.98 4 13 C5.65 13 7.3 13 9 13 C8.14148438 13.41378906 8.14148438 13.41378906 7.265625 13.8359375 C5.01035733 14.99467848 2.89143622 16.26875706 0.75 17.625 C0.04359375 18.07101563 -0.6628125 18.51703125 -1.390625 18.9765625 C-1.92171875 19.31429687 -2.4528125 19.65203125 -3 20 C-2.67 18.68 -2.34 17.36 -2 16 C-1.34 16 -0.68 16 0 16 C0 15.01 0 14.02 0 13 C0.66 12.67 1.32 12.34 2 12 C1.690625 11.0925 1.38125 10.185 1.0625 9.25 C-1.18604651 2.37209302 -1.18604651 2.37209302 0 0 Z " fill="#421F1F" transform="translate(114,41)"/>
<path d="M0 0 C-13.20046637 10.49710288 -13.20046637 10.49710288 -19 10 C-18.38125 9.938125 -17.7625 9.87625 -17.125 9.8125 C-16.073125 9.4103125 -16.073125 9.4103125 -15 9 C-14.566875 7.8553125 -14.566875 7.8553125 -14.125 6.6875 C-12.57918287 2.99471464 -10.43920557 1.92595512 -7 0 C-3.89029928 -1.1550317 -3.26714381 -1.08904794 0 0 Z " fill="#3B2E2E" transform="translate(33,112)"/>
<path d="M0 0 C3.79491646 2.65644152 5.82186584 6.46676232 7.5 10.75 C7.17 11.41 6.84 12.07 6.5 12.75 C6.17 11.76 5.84 10.77 5.5 9.75 C2.49152582 8.52479736 2.49152582 8.52479736 -0.5 7.75 C-0.17 6.43 0.16 5.11 0.5 3.75 C-2.88023517 3.75 -5.33468937 4.62455622 -8.5 5.75 C-7.5 2.75 -7.5 2.75 -5.25 0.9375 C-2.5 -0.25 -2.5 -0.25 0 0 Z " fill="#CF1E15" transform="translate(138.5,18.25)"/>
<path d="M0 0 C0.66 0.33 1.32 0.66 2 1 C2 1.99 2 2.98 2 4 C2.66 3.67 3.32 3.34 4 3 C4.33 5.31 4.66 7.62 5 10 C3.68 10.33 2.36 10.66 1 11 C-3 5.5 -3 5.5 -3 1 C-2.01 0.67 -1.02 0.34 0 0 Z " fill="#1F1F1F" transform="translate(53,104)"/>
<path d="M0 0 C0.99 0.66 1.98 1.32 3 2 C0.56969216 3.53351528 -1.86805103 5.05183502 -4.3125 6.5625 C-5.00279297 7.00013672 -5.69308594 7.43777344 -6.40429688 7.88867188 C-7.07138672 8.29794922 -7.73847656 8.70722656 -8.42578125 9.12890625 C-9.34484253 9.70233765 -9.34484253 9.70233765 -10.2824707 10.28735352 C-12 11 -12 11 -15 10 C-14.01 9.34 -13.02 8.68 -12 8 C-12 7.34 -12 6.68 -12 6 C-8.17057052 3.09891706 -4.72463088 2.46319911 0 2 C0 1.34 0 0.68 0 0 Z " fill="#3D2C2E" transform="translate(85,75)"/>
<path d="M0 0 C-0.33723985 2.93139253 -0.88869981 3.89859316 -3.109375 5.921875 C-3.98078125 6.52515625 -4.8521875 7.1284375 -5.75 7.75 C-7.04164062 8.67039062 -7.04164062 8.67039062 -8.359375 9.609375 C-11.2339319 11.12319491 -12.80370706 11.45895488 -16 11 C-17.8125 9 -17.8125 9 -19 7 C-18.67 6.34 -18.34 5.68 -18 5 C-16.5 6.375 -16.5 6.375 -15 8 C-15 8.66 -15 9.32 -15 10 C-14.01 10 -13.02 10 -12 10 C-12 9.34 -12 8.68 -12 8 C-11.01 8 -10.02 8 -9 8 C-8.6596875 7.13375 -8.6596875 7.13375 -8.3125 6.25 C-6.47530093 3.10051589 -3.84497849 0 0 0 Z " fill="#A71C1A" transform="translate(30,107)"/>
<path d="M0 0 C1.8871875 0.061875 1.8871875 0.061875 3.8125 0.125 C4.1425 1.445 4.4725 2.765 4.8125 4.125 C0.83189223 5.29576699 -3.10371717 6.38249403 -7.1875 7.125 C-6.8575 6.465 -6.5275 5.805 -6.1875 5.125 C-5.5275 5.125 -4.8675 5.125 -4.1875 5.125 C-4.1875 4.465 -4.1875 3.805 -4.1875 3.125 C-5.1775 2.795 -6.1675 2.465 -7.1875 2.125 C-4.09861478 0.06574319 -3.47814073 -0.1140374 0 0 Z " fill="#742C2B" transform="translate(150.1875,4.875)"/>
<path d="M0 0 C0 0.66 0 1.32 0 2 C-5.75 5 -5.75 5 -8 5 C-8 5.99 -8 6.98 -8 8 C-9.28913487 8.67154933 -10.58140204 9.33708859 -11.875 10 C-12.59429687 10.37125 -13.31359375 10.7425 -14.0546875 11.125 C-16 12 -16 12 -18 12 C-18 11.01 -18 10.02 -18 9 C-17.43152344 8.68546875 -16.86304688 8.3709375 -16.27734375 8.046875 C-15.11912109 7.40492187 -15.11912109 7.40492187 -13.9375 6.75 C-13.12023438 6.29753906 -12.30296875 5.84507813 -11.4609375 5.37890625 C-9.31134414 4.17445156 -7.18583904 2.93731348 -5.0625 1.6875 C-2 0 -2 0 0 0 Z " fill="#A61912" transform="translate(72,62)"/>
<path d="M0 0 C0.99 0.33 1.98 0.66 3 1 C2.34 2.32 1.68 3.64 1 5 C-0.7290774 5.02725341 -2.45828176 5.04650987 -4.1875 5.0625 C-5.63189453 5.07990234 -5.63189453 5.07990234 -7.10546875 5.09765625 C-9.85576513 5.00486622 -12.32479591 4.62111685 -15 4 C-15 3.01 -15 2.02 -15 1 C-13.06215735 1.14120714 -11.12473045 1.28812873 -9.1875 1.4375 C-8.10855469 1.51871094 -7.02960938 1.59992187 -5.91796875 1.68359375 C-3 2 -3 2 0 3 C0 2.01 0 1.02 0 0 Z " fill="#170301" transform="translate(133,50)"/>
<path d="M0 0 C0 0.66 0 1.32 0 2 C1.32 1.67 2.64 1.34 4 1 C4 1.66 4 2.32 4 3 C3.01 3 2.02 3 1 3 C1 3.66 1 4.32 1 5 C-3.455 6.485 -3.455 6.485 -8 8 C-8.66 6.68 -9.32 5.36 -10 4 C-9.34 4 -8.68 4 -8 4 C-8 4.66 -8 5.32 -8 6 C-7.34 6 -6.68 6 -6 6 C-5.814375 4.7934375 -5.814375 4.7934375 -5.625 3.5625 C-5.41875 2.716875 -5.2125 1.87125 -5 1 C-3 0 -3 0 0 0 Z " fill="#81120B" transform="translate(164,34)"/>
<path d="M0 0 C2.4294516 3.6441774 2.16179575 5.71241272 2 10 C0.62437146 8.71034824 -0.70766393 7.37310707 -2 6 C-2 5.34 -2 4.68 -2 4 C-2.9590625 3.566875 -2.9590625 3.566875 -3.9375 3.125 C-6 2 -6 2 -7 0 C-4.27584084 -1.36207958 -2.87220643 -0.86166193 0 0 Z " fill="#430C0A" transform="translate(91,55)"/>
<path d="M0 0 C0.66 1.98 1.32 3.96 2 6 C0.02 6.66 -1.96 7.32 -4 8 C-6 5 -6 5 -6 2 C-2.25 0 -2.25 0 0 0 Z " fill="#434244" transform="translate(50,87)"/>
<path d="M0 0 C0.99 0.33 1.98 0.66 3 1 C3.66 2.65 4.32 4.3 5 6 C0.71 5.34 -3.58 4.68 -8 4 C-8 4.99 -8 5.98 -8 7 C-8.66 7 -9.32 7 -10 7 C-10.33 5.35 -10.66 3.7 -11 2 C-7.37 2 -3.74 2 0 2 C0 1.34 0 0.68 0 0 Z " fill="#0B0001" transform="translate(36,81)"/>
<path d="M0 0 C0.99 0.33 1.98 0.66 3 1 C3.33 2.98 3.66 4.96 4 7 C2.02 7.33 0.04 7.66 -2 8 C-2.66 6.35 -3.32 4.7 -4 3 C-2.1875 1.4375 -2.1875 1.4375 0 0 Z " fill="#444241" transform="translate(103,55)"/>
<path d="M0 0 C1.32 0 2.64 0 4 0 C4.33 1.65 4.66 3.3 5 5 C4.19175781 4.98839844 3.38351563 4.97679687 2.55078125 4.96484375 C0.94783203 4.95130859 0.94783203 4.95130859 -0.6875 4.9375 C-1.74324219 4.92589844 -2.79898438 4.91429687 -3.88671875 4.90234375 C-6.72410262 4.99134575 -9.2438919 5.35060162 -12 6 C-10.30820672 3.95780294 -9.36272334 3.08206694 -6.73828125 2.48828125 C-5.93777344 2.43027344 -5.13726562 2.37226562 -4.3125 2.3125 C-3.10013672 2.21388672 -3.10013672 2.21388672 -1.86328125 2.11328125 C-1.24839844 2.07589844 -0.63351563 2.03851563 0 2 C0 1.34 0 0.68 0 0 Z " fill="#333434" transform="translate(91,48)"/>
<path d="M0 0 C8 9.42857143 8 9.42857143 8 14 C7.01 14.33 6.02 14.66 5 15 C-0.74031891 5.77448747 -0.74031891 5.77448747 0 0 Z " fill="#360101" transform="translate(53,72)"/>
<path d="M0 0 C3 1 3 1 4.60546875 3.72265625 C5.12753906 4.82480469 5.64960938 5.92695312 6.1875 7.0625 C6.71730469 8.16722656 7.24710938 9.27195312 7.79296875 10.41015625 C8.19128906 11.26480469 8.58960938 12.11945312 9 13 C8.01 13.33 7.02 13.66 6 14 C4.9923048 12.2335343 3.99408286 10.46166177 3 8.6875 C2.443125 7.70136719 1.88625 6.71523438 1.3125 5.69921875 C0 3 0 3 0 0 Z " fill="#350000" transform="translate(126,37)"/>
<path d="M0 0 C0.99 0.33 1.98 0.66 3 1 C3.33 2.98 3.66 4.96 4 7 C1.625 7.625 1.625 7.625 -1 8 C-1.66 7.34 -2.32 6.68 -3 6 C-2.75 3.4375 -2.75 3.4375 -2 1 C-1.34 0.67 -0.68 0.34 0 0 Z " fill="#9F0E03" transform="translate(151,15)"/>
<path d="M0 0 C-0.33 0.99 -0.66 1.98 -1 3 C-1.66 3 -2.32 3 -3 3 C-2.979375 3.78375 -2.95875 4.5675 -2.9375 5.375 C-3 8 -3 8 -4 10 C-3.60061233 12.09821215 -3.60061233 12.09821215 -3 14 C-5.61885488 11.63055987 -7.41866551 9.16266898 -9 6 C-8 3 -8 3 -5.0625 1.3125 C-2 0 -2 0 0 0 Z " fill="#D61E14" transform="translate(64,70)"/>
<path d="M0 0 C0.33 0.66 0.66 1.32 1 2 C-2.63 2 -6.26 2 -10 2 C-9.67 3.32 -9.34 4.64 -9 6 C-10.65 5.67 -12.3 5.34 -14 5 C-14.33 5.99 -14.66 6.98 -15 8 C-17.475 7.01 -17.475 7.01 -20 6 C-13.28459126 1.52306084 -7.9635345 0.41092972 0 0 Z " fill="#5F5B5B" transform="translate(35,81)"/>
<path d="M0 0 C1.1875 3.0625 1.1875 3.0625 2 6 C0.68 5.01 -0.64 4.02 -2 3 C-4.0162233 3.71563266 -4.0162233 3.71563266 -6 5 C-6.80528889 7.05000871 -6.80528889 7.05000871 -7 9 C-9 6 -9 6 -8.9375 4 C-7.04549801 -0.03627091 -4.12153773 -1.37384591 0 0 Z " fill="#B01C17" transform="translate(113,43)"/>
<path d="M0 0 C-4.30769231 4.92307692 -4.30769231 4.92307692 -7.8125 5.3125 C-8.8953125 5.1578125 -8.8953125 5.1578125 -10 5 C-10.33 4.34 -10.66 3.68 -11 3 C-7.46647659 -0.87004945 -5.02196482 -1.22155901 0 0 Z " fill="#2C1F1E" transform="translate(108,43)"/>
<path d="M0 0 C-0.0625 1.75 -0.0625 1.75 -1 4 C-3.24164322 5.59501537 -5.53566643 6.74543018 -8 8 C-8 7.34 -8 6.68 -8 6 C-8.66 6 -9.32 6 -10 6 C-10.33 6.66 -10.66 7.32 -11 8 C-11.66 7.34 -12.32 6.68 -13 6 C-11.21118264 4.99491199 -9.41885304 3.99607264 -7.625 3 C-6.62726563 2.443125 -5.62953125 1.88625 -4.6015625 1.3125 C-2 0 -2 0 0 0 Z " fill="#453837" transform="translate(131,16)"/>
<path d="M0 0 C-0.99 0.33 -1.98 0.66 -3 1 C-2.67 1.99 -2.34 2.98 -2 4 C-4.66666667 4.66666667 -7.33333333 5.33333333 -10 6 C-10.74765625 6.18691406 -11.4953125 6.37382813 -12.265625 6.56640625 C-12.83796875 6.70949219 -13.4103125 6.85257812 -14 7 C-14.33 6.01 -14.66 5.02 -15 4 C-11.535 3.505 -11.535 3.505 -8 3 C-8 2.34 -8 1.68 -8 1 C-2.25 -1.125 -2.25 -1.125 0 0 Z " fill="#901611" transform="translate(76,80)"/>
<path d="M0 0 C2.6486859 3.19668988 4.93992341 6.39486597 7 10 C8.65 9.67 10.3 9.34 12 9 C12 9.66 12 10.32 12 11 C11.34 11 10.68 11 10 11 C9.67 11.99 9.34 12.98 9 14 C8.67 13.34 8.34 12.68 8 12 C6.68 12 5.36 12 4 12 C3.9175 11.2575 3.835 10.515 3.75 9.75 C2.8603054 6.48778646 1.51496251 5.19045122 -1 3 C-0.67 2.01 -0.34 1.02 0 0 Z " fill="#200202" transform="translate(102,46)"/>
<path d="M0 0 C2.475 0.99 2.475 0.99 5 2 C3.9169419 4.1661162 2.70541306 5.29458694 1 7 C-0.01800576 8.31963709 -1.02248365 9.65009646 -2 11 C-2.94693195 7.2983569 -3.30443767 5.60887535 -1.5625 2.125 C-1.046875 1.42375 -0.53125 0.7225 0 0 Z " fill="#392C2D" transform="translate(41,96)"/>
<path d="M0 0 C1.2065625 0.0309375 1.2065625 0.0309375 2.4375 0.0625 C3.0975 1.3825 3.7575 2.7025 4.4375 4.0625 C1.79011084 5.5231285 0.54301666 6.0625 -2.5625 6.0625 C-2.94468767 4.40635343 -3.27645102 2.73792976 -3.5625 1.0625 C-2.5625 0.0625 -2.5625 0.0625 0 0 Z " fill="#404040" transform="translate(43.5625,80.9375)"/>
<path d="M0 0 C0.66 0.66 1.32 1.32 2 2 C1.82376561 4.79701033 1.22215632 5.79522166 -0.84765625 7.703125 C-1.57855469 8.21359375 -2.30945313 8.7240625 -3.0625 9.25 C-3.79597656 9.77078125 -4.52945313 10.2915625 -5.28515625 10.828125 C-5.85105469 11.21484375 -6.41695312 11.6015625 -7 12 C-7.66 11.67 -8.32 11.34 -9 11 C-9 10.34 -9 9.68 -9 9 C-7.68 8.67 -6.36 8.34 -5 8 C-5 7.34 -5 6.68 -5 6 C-4.01 6 -3.02 6 -2 6 C-1.34 4.02 -0.68 2.04 0 0 Z " fill="#514D4C" transform="translate(170,31)"/>
<path d="M0 0 C6.28378378 7.75 6.28378378 7.75 6 13 C2.02502456 9.59287819 0.13206212 5.67239145 -2 1 C-1.34 0.67 -0.68 0.34 0 0 Z " fill="#310100" transform="translate(140,15)"/>
<path d="M0 0 C0.33 1.32 0.66 2.64 1 4 C-0.65 4.66 -2.3 5.32 -4 6 C-6 3 -6 3 -6 0 C-3.50907189 -1.24546405 -2.58919267 -0.7767578 0 0 Z " fill="#A00A02" transform="translate(160,27)"/>
<path d="M0 0 C2.31 0.33 4.62 0.66 7 1 C4.77837553 3.55486814 3.330932 4.45244953 0 5 C-2.08674954 4.91620565 -4.17149066 4.76583244 -6.25 4.5625 C-7.32765625 4.46066406 -8.4053125 4.35882813 -9.515625 4.25390625 C-10.33546875 4.17011719 -11.1553125 4.08632813 -12 4 C-12 3.67 -12 3.34 -12 3 C-8.37 3 -4.74 3 -1 3 C-0.67 2.01 -0.34 1.02 0 0 Z " fill="#615F5F" transform="translate(135,52)"/>
<path d="M0 0 C0.33 1.32 0.66 2.64 1 4 C-1.64738916 5.4606285 -2.89448334 6 -6 6 C-6.33 6.99 -6.66 7.98 -7 9 C-7.66 7.35 -8.32 5.7 -9 4 C-8.43410156 3.79503906 -7.86820313 3.59007812 -7.28515625 3.37890625 C-6.55167969 3.10949219 -5.81820312 2.84007812 -5.0625 2.5625 C-4.33160156 2.29566406 -3.60070312 2.02882813 -2.84765625 1.75390625 C-1.01694322 1.14613052 -1.01694322 1.14613052 0 0 Z " fill="#A2130E" transform="translate(149,9)"/>
<path d="M0 0 C0.391875 0.474375 0.78375 0.94875 1.1875 1.4375 C3.40808374 3.35179633 5.13375709 3.61266988 8 4 C7.67 4.99 7.34 5.98 7 7 C4.125 7.125 4.125 7.125 1 7 C0.34 6.34 -0.32 5.68 -1 5 C-0.625 2.375 -0.625 2.375 0 0 Z " fill="#301615" transform="translate(11,114)"/>
<path d="M0 0 C0.99 1.32 1.98 2.64 3 4 C-0.625 7 -0.625 7 -4 7 C-4.33 5.68 -4.66 4.36 -5 3 C-3.35 2.01 -1.7 1.02 0 0 Z " fill="#B40F06" transform="translate(10,95)"/>
<path d="M0 0 C-0.38597015 2.79828356 -0.80136573 3.8205884 -2.9375 5.75 C-5 7 -5 7 -7 7 C-7 6.34 -7 5.68 -7 5 C-7.66 4.67 -8.32 4.34 -9 4 C-3.375 0 -3.375 0 0 0 Z " fill="#A70A04" transform="translate(27,106)"/>
<path d="M0 0 C0.99 0.99 1.98 1.98 3 3 C0.86725921 5.34601486 -1.02537789 6.86264449 -4 8 C-6.75 8.125 -6.75 8.125 -9 8 C-6.31158141 5.74754119 -4.35358125 4.11786042 -1 3 C-0.67 2.01 -0.34 1.02 0 0 Z " fill="#B21914" transform="translate(92,65)"/>
<path d="M0 0 C0.99 0.33 1.98 0.66 3 1 C2.67 1.66 2.34 2.32 2 3 C1.34 3 0.68 3 0 3 C-0.33 3.99 -0.66 4.98 -1 6 C-5.455 6.495 -5.455 6.495 -10 7 C-6.71301551 3.71301551 -4.13409279 2.06704639 0 0 Z " fill="#AB1A15" transform="translate(82,55)"/>
<path d="M0 0 C0.66 0 1.32 0 2 0 C2 0.99 2 1.98 2 3 C2.66 3 3.32 3 4 3 C4.25394531 3.55429687 4.50789062 4.10859375 4.76953125 4.6796875 C5.11371094 5.40414062 5.45789063 6.12859375 5.8125 6.875 C6.14894531 7.59429687 6.48539063 8.31359375 6.83203125 9.0546875 C7.99467097 11.30542806 7.99467097 11.30542806 11 13 C9.68 13.33 8.36 13.66 7 14 C5.82807953 12.04480616 4.6626071 10.0857461 3.5 8.125 C2.8503125 7.03445312 2.200625 5.94390625 1.53125 4.8203125 C0 2 0 2 0 0 Z " fill="#B51F1B" transform="translate(129,38)"/>
<path d="M0 0 C3 1 3 1 4.75 3.3125 C6 6 6 6 5.6875 8.3125 C5.460625 8.869375 5.23375 9.42625 5 10 C1.32769295 6.92000054 0.43197635 4.7517398 0 0 Z " fill="#931B17" transform="translate(29,97)"/>
<path d="M0 0 C-0.62648438 0.31453125 -1.25296875 0.6290625 -1.8984375 0.953125 C-2.71570312 1.38109375 -3.53296875 1.8090625 -4.375 2.25 C-5.59316406 2.87648438 -5.59316406 2.87648438 -6.8359375 3.515625 C-9.20801205 5.14267975 -9.97094804 6.35386639 -11 9 C-11.33 7.02 -11.66 5.04 -12 3 C-8.52582963 0.68388642 -4.04642977 -2.02321489 0 0 Z " fill="#A51A15" transform="translate(15,93)"/>
<path d="M0 0 C-1 3 -1 3 -4 5 C-5.32 5 -6.64 5 -8 5 C-8 3.68 -8 2.36 -8 1 C-3.375 -1.125 -3.375 -1.125 0 0 Z " fill="#352727" transform="translate(162,41)"/>
<path d="M0 0 C0.99 0.33 1.98 0.66 3 1 C2.67 2.32 2.34 3.64 2 5 C1.01 5 0.02 5 -1 5 C-1.33 7.97 -1.66 10.94 -2 14 C-2.66 13.34 -3.32 12.68 -4 12 C-3.62793814 7.65927829 -1.77048085 3.92584885 0 0 Z " fill="#A71C15" transform="translate(118,29)"/>
<path d="M0 0 C0.66 1.32 1.32 2.64 2 4 C-0.8125 6.0625 -0.8125 6.0625 -4 8 C-4.99 7.67 -5.98 7.34 -7 7 C-7.6875 4.9375 -7.6875 4.9375 -8 3 C-7.34 3 -6.68 3 -6 3 C-6 3.66 -6 4.32 -6 5 C-4.02 4.34 -2.04 3.68 0 3 C0 2.01 0 1.02 0 0 Z " fill="#AD1E17" transform="translate(115,49)"/>
<path d="M0 0 C0.66 0 1.32 0 2 0 C2 0.99 2 1.98 2 3 C2.66 3 3.32 3 4 3 C4.33 2.01 4.66 1.02 5 0 C7.1519437 3.22791555 7.20086443 4.28400809 7 8 C6.34 8 5.68 8 5 8 C5 7.34 5 6.68 5 6 C4.360625 5.7525 3.72125 5.505 3.0625 5.25 C1 4 1 4 0.25 1.875 C0.1675 1.25625 0.085 0.6375 0 0 Z " fill="#CB1913" transform="translate(151,32)"/>
<path d="M0 0 C3.34163899 1.38274717 5.25766748 2.79044009 7 6 C6.6875 8.75 6.6875 8.75 6 11 C2 6.375 2 6.375 2 3 C0.35 2.67 -1.3 2.34 -3 2 C-2.01 1.34 -1.02 0.68 0 0 Z " fill="#5A4A4D" transform="translate(152,3)"/>
<path d="M0 0 C0.33 0.66 0.66 1.32 1 2 C2.32 1.67 3.64 1.34 5 1 C5.33 1.99 5.66 2.98 6 4 C5.34 4 4.68 4 4 4 C4.350625 4.763125 4.70125 5.52625 5.0625 6.3125 C6 9 6 9 5 12 C4.15885829 10.56705502 3.32734313 9.12845595 2.5 7.6875 C1.80390625 6.48673828 1.80390625 6.48673828 1.09375 5.26171875 C0 3 0 3 0 0 Z " fill="#D1221C" transform="translate(5,100)"/>
<path d="M0 0 C-0.33 1.32 -0.66 2.64 -1 4 C-1.33 3.34 -1.66 2.68 -2 2 C-8.435 2.495 -8.435 2.495 -15 3 C-14 1 -14 1 -11.4375 -0.1875 C-7.1803944 -1.19372496 -4.28929715 -0.73953399 0 0 Z " fill="#130101" transform="translate(92,53)"/>
<path d="M0 0 C2.72675159 2.40689803 4.11966596 4.92471023 5.6875 8.1875 C6.12449219 9.08855469 6.56148437 9.98960938 7.01171875 10.91796875 C7.33785156 11.60503906 7.66398437 12.29210937 8 13 C4.55137873 11.85045958 4.15804191 11.17472849 2.3125 8.1875 C1.87550781 7.50042969 1.43851563 6.81335938 0.98828125 6.10546875 C0 4 0 4 0 0 Z " fill="#912524" transform="translate(51,75)"/>
<path d="M0 0 C0.33 0.66 0.66 1.32 1 2 C1.66 2 2.32 2 3 2 C2.67 4.31 2.34 6.62 2 9 C0.68 8.67 -0.64 8.34 -2 8 C-1.125 1.125 -1.125 1.125 0 0 Z " fill="#120F0F" transform="translate(97,62)"/>
<path d="M0 0 C1.65 0.33 3.3 0.66 5 1 C0.28429204 5.94026549 0.28429204 5.94026549 -3.6875 6.125 C-4.8321875 6.063125 -4.8321875 6.063125 -6 6 C-5.38125 5.938125 -4.7625 5.87625 -4.125 5.8125 C-1.72238859 5.171081 -1.72238859 5.171081 -0.75 2.4375 C-0.5025 1.633125 -0.255 0.82875 0 0 Z " fill="#4E4948" transform="translate(20,116)"/>
<path d="M0 0 C0.82638376 2.89234315 1 4.88742431 1 8 C-0.32 7.67 -1.64 7.34 -3 7 C-3 5.68 -3 4.36 -3 3 C-2.34 3 -1.68 3 -1 3 C-0.67 2.01 -0.34 1.02 0 0 Z " fill="#111111" transform="translate(56,107)"/>
<path d="M0 0 C0.33 0.66 0.66 1.32 1 2 C3.02463255 2.65213292 3.02463255 2.65213292 5 3 C0.25 6 0.25 6 -2 6 C-2.33 5.34 -2.66 4.68 -3 4 C-3.66 3.67 -4.32 3.34 -5 3 C-3.35 2.01 -1.7 1.02 0 0 Z " fill="#452C2A" transform="translate(77,53)"/>
<path d="M0 0 C0.66 0.33 1.32 0.66 2 1 C1.67 1.99 1.34 2.98 1 4 C2.32 4.33 3.64 4.66 5 5 C3.35 5.66 1.7 6.32 0 7 C-2 4 -2 4 -2 1 C-1.34 0.67 -0.68 0.34 0 0 Z " fill="#BC0D07" transform="translate(11,103)"/>
<path d="M0 0 C-0.6875 1.9375 -0.6875 1.9375 -2 4 C-4.625 4.75 -4.625 4.75 -7 5 C-7 4.01 -7 3.02 -7 2 C-4 0 -4 0 0 0 Z " fill="#E61916" transform="translate(17,98)"/>
<path d="M0 0 C-1.15173355 2.46800047 -2.04783565 4.04783565 -4 6 C-4.99 4.68 -5.98 3.36 -7 2 C-4 0 -4 0 0 0 Z " fill="#252525" transform="translate(43,78)"/>
<path d="M0 0 C1.98 0.495 1.98 0.495 4 1 C3.67 2.32 3.34 3.64 3 5 C1.68 5 0.36 5 -1 5 C-0.67 3.35 -0.34 1.7 0 0 Z " fill="#323232" transform="translate(113,75)"/>
<path d="M0 0 C0.66 0.33 1.32 0.66 2 1 C2 1.66 2 2.32 2 3 C2.66 3.33 3.32 3.66 4 4 C3.34 5.65 2.68 7.3 2 9 C1.34 9 0.68 9 0 9 C-0.33 9.66 -0.66 10.32 -1 11 C-1.66 10.34 -2.32 9.68 -3 9 C-1.68 8.01 -0.36 7.02 1 6 C0.67 4.02 0.34 2.04 0 0 Z " fill="#200101" transform="translate(93,62)"/>
<path d="M0 0 C-0.3125 1.9375 -0.3125 1.9375 -1 4 C-4 5 -4 5 -6.1875 4.0625 C-6.785625 3.711875 -7.38375 3.36125 -8 3 C-3.375 0 -3.375 0 0 0 Z " fill="#524546" transform="translate(13,88)"/>
<path d="M0 0 C0.99 0.33 1.98 0.66 3 1 C2.67 1.99 2.34 2.98 2 4 C-0.5625 5.1875 -0.5625 5.1875 -3 6 C-2.625 3.5625 -2.625 3.5625 -2 1 C-1.34 0.67 -0.68 0.34 0 0 Z " fill="#3C3C3C" transform="translate(110,67)"/>
<path d="M0 0 C-1.25125384 3.75376152 -2.5652404 4.24073289 -6 6 C-6.66 6 -7.32 6 -8 6 C-8 5.01 -8 4.02 -8 3 C-2.25 0 -2.25 0 0 0 Z " fill="#D8160F" transform="translate(72,64)"/>
<path d="M0 0 C0.99 0.33 1.98 0.66 3 1 C3.6875 3.0625 3.6875 3.0625 4 5 C2.68 5.33 1.36 5.66 0 6 C-0.38218767 4.34385343 -0.71395102 2.67542976 -1 1 C-0.67 0.67 -0.34 0.34 0 0 Z " fill="#3F4345" transform="translate(99,48)"/>
<path d="M0 0 C0.66 0.33 1.32 0.66 2 1 C2 1.99 2 2.98 2 4 C-1.96 5.98 -1.96 5.98 -6 8 C-6.33 7.01 -6.66 6.02 -7 5 C-5.5459375 4.5978125 -5.5459375 4.5978125 -4.0625 4.1875 C-3.051875 3.795625 -2.04125 3.40375 -1 3 C-0.67 2.01 -0.34 1.02 0 0 Z " fill="#A01B16" transform="translate(151,40)"/>
<path d="M0 0 C0.99 0.33 1.98 0.66 3 1 C1.47058649 4.05882701 -0.94219546 4.68951234 -4 6 C-4.66 5.67 -5.32 5.34 -6 5 C-2.25 1.125 -2.25 1.125 0 0 Z " fill="#CC1109" transform="translate(136,18)"/>
<path d="M0 0 C0.66 0.33 1.32 0.66 2 1 C2 1.66 2 2.32 2 3 C2.66 3.33 3.32 3.66 4 4 C2.02 4.99 0.04 5.98 -2 7 C-2 3 -2 3 0 0 Z " fill="#342525" transform="translate(35,104)"/>
<path d="M0 0 C2.8125 -0.25 2.8125 -0.25 6 0 C7.875 2 7.875 2 9 4 C8.67 4.66 8.34 5.32 8 6 C7.34 5.01 6.68 4.02 6 3 C5.01 2.67 4.02 2.34 3 2 C2.67 2.66 2.34 3.32 2 4 C1.34 2.68 0.68 1.36 0 0 Z " fill="#AF201D" transform="translate(28,86)"/>
<path d="M0 0 C0.66 0 1.32 0 2 0 C2 0.66 2 1.32 2 2 C5.3 2 8.6 2 12 2 C12.33 1.34 12.66 0.68 13 0 C13.33 1.32 13.66 2.64 14 4 C9.71 3.67 5.42 3.34 1 3 C0.67 2.01 0.34 1.02 0 0 Z " fill="#951C18" transform="translate(119,49)"/>
<path d="M0 0 C-0.66 1.98 -1.32 3.96 -2 6 C-3.32 5.67 -4.64 5.34 -6 5 C-6 3.68 -6 2.36 -6 1 C-3.92446352 0.4465236 -2.15634036 0 0 0 Z " fill="#140D0E" transform="translate(123,22)"/>
<path d="M0 0 C1.98 0 3.96 0 6 0 C6.33 1.32 6.66 2.64 7 4 C6.236875 3.814375 5.47375 3.62875 4.6875 3.4375 C1.91032625 2.77180827 1.91032625 2.77180827 -1 4 C-0.67 2.68 -0.34 1.36 0 0 Z " fill="#140202" transform="translate(148,5)"/>
<path d="M0 0 C0.66 0.66 1.32 1.32 2 2 C1.34 2 0.68 2 0 2 C0 2.66 0 3.32 0 4 C-3 6 -3 6 -6 6 C-4.95125002 3.37812506 -4.35068687 2.20628639 -1.875 0.75 C-1.25625 0.5025 -0.6375 0.255 0 0 Z " fill="#635B5A" transform="translate(70,56)"/>
<path d="M0 0 C-1 2 -1 2 -3.3125 3.1875 C-6.11989571 4.03624754 -7.301935 3.99928333 -10 3 C-3.375 -1.125 -3.375 -1.125 0 0 Z " fill="#9B1A18" transform="translate(139,17)"/>
<path d="M0 0 C0.99 0.33 1.98 0.66 3 1 C3.33 3.64 3.66 6.28 4 9 C0 4.5 0 4.5 0 0 Z " fill="#301413" transform="translate(158,11)"/>
<path d="M0 0 C0.99 0.66 1.98 1.32 3 2 C-2.75 6 -2.75 6 -5 6 C-5 5.01 -5 4.02 -5 3 C-3.35 2.67 -1.7 2.34 0 2 C0 1.34 0 0.68 0 0 Z " fill="#4E4544" transform="translate(85,75)"/>
<path d="M0 0 C-6.75 4 -6.75 4 -9 4 C-8.1875 2.0625 -8.1875 2.0625 -7 0 C-3.86650268 -1.04449911 -3.01031744 -0.93423645 0 0 Z " fill="#434242" transform="translate(97,72)"/>
<path d="M0 0 C4.42857143 5.14285714 4.42857143 5.14285714 5 9 C2 8 2 8 0.8125 6.1875 C0 4 0 4 0 0 Z " fill="#CB1F1A" transform="translate(124,37)"/>
<path d="M0 0 C0.66 0 1.32 0 2 0 C2 0.66 2 1.32 2 2 C3.32 2.33 4.64 2.66 6 3 C6.33 4.32 6.66 5.64 7 7 C4.625 6.3125 4.625 6.3125 2 5 C0.6875 2.375 0.6875 2.375 0 0 Z " fill="#442225" transform="translate(162,21)"/>
<path d="M0 0 C3 1 3 1 5 4 C5 4.99 5 5.98 5 7 C4.34 7 3.68 7 3 7 C0.70351351 4.4385343 0 3.52032428 0 0 Z " fill="#160101" transform="translate(34,100)"/>
<path d="M0 0 C0.66 0 1.32 0 2 0 C2.33 0.99 2.66 1.98 3 3 C1.02 3.99 -0.96 4.98 -3 6 C-3 5.01 -3 4.02 -3 3 C-2.34 3 -1.68 3 -1 3 C-0.67 2.01 -0.34 1.02 0 0 Z " fill="#3B3B3B" transform="translate(55,99)"/>
<path d="M0 0 C0.33 0 0.66 0 1 0 C1 1.98 1 3.96 1 6 C0.01 5.67 -0.98 5.34 -2 5 C-2 5.99 -2 6.98 -2 8 C-2.66 7.67 -3.32 7.34 -4 7 C-3.34 5.35 -2.68 3.7 -2 2 C-1.34 2 -0.68 2 0 2 C0 1.34 0 0.68 0 0 Z " fill="#0E0002" transform="translate(52,70)"/>
<path d="M0 0 C0.66 0.33 1.32 0.66 2 1 C1.3125 3.4375 1.3125 3.4375 0 6 C-2.625 6.8125 -2.625 6.8125 -5 7 C-3.70700306 4.11562221 -2.34058637 2.12780579 0 0 Z " fill="#453E41" transform="translate(54,66)"/>
<path d="M0 0 C1.32 1.65 2.64 3.3 4 5 C3.67 5.66 3.34 6.32 3 7 C2.01 6.67 1.02 6.34 0 6 C-0.38218767 4.34385343 -0.71395102 2.67542976 -1 1 C-0.67 0.67 -0.34 0.34 0 0 Z " fill="#E61B11" transform="translate(146,17)"/>
<path d="M0 0 C0.66 0.99 1.32 1.98 2 3 C0.68 4.65 -0.64 6.3 -2 8 C-2.66 6.35 -3.32 4.7 -4 3 C-3.01 3 -2.02 3 -1 3 C-0.67 2.01 -0.34 1.02 0 0 Z " fill="#9E1F18" transform="translate(39,95)"/>
<path d="M0 0 C0.99 0.33 1.98 0.66 3 1 C3.33 1.99 3.66 2.98 4 4 C3.34 4 2.68 4 2 4 C1.67 5.32 1.34 6.64 1 8 C0.34 7.34 -0.32 6.68 -1 6 C-0.34 6 0.32 6 1 6 C0.67 4.02 0.34 2.04 0 0 Z " fill="#220000" transform="translate(152,38)"/>
<path d="M0 0 C4.42857143 5.14285714 4.42857143 5.14285714 5 9 C4.34 9 3.68 9 3 9 C3 8.01 3 7.02 3 6 C2.34 6 1.68 6 1 6 C0.67 4.02 0.34 2.04 0 0 Z " fill="#C92118" transform="translate(146,31)"/>
<path d="M0 0 C1.32 0 2.64 0 4 0 C3.67 1.65 3.34 3.3 3 5 C2.01 4.67 1.02 4.34 0 4 C0 2.68 0 1.36 0 0 Z " fill="#920E01" transform="translate(155,28)"/>
</svg>
