<?xml version="1.0" encoding="UTF-8" standalone="no"?>
<!-- Created with Inkscape (http://www.inkscape.org/) -->

<svg
   version="1.1"
   id="svg1"
   width="64"
   height="64"
   viewBox="0 0 64 64"
   sodipodi:docname="5x_thermal_scope.svg"
   inkscape:version="1.3.2 (091e20e, 2023-11-25, custom)"
   xml:space="preserve"
   xmlns:inkscape="http://www.inkscape.org/namespaces/inkscape"
   xmlns:sodipodi="http://sodipodi.sourceforge.net/DTD/sodipodi-0.dtd"
   xmlns:xlink="http://www.w3.org/1999/xlink"
   xmlns="http://www.w3.org/2000/svg"
   xmlns:svg="http://www.w3.org/2000/svg"><defs
     id="defs1"><linearGradient
       id="a"><stop
         offset="0"
         style="stop-color:#333;stop-opacity:1"
         id="stop1" /><stop
         offset="1"
         style="stop-color:#262626;stop-opacity:1"
         id="stop2" /></linearGradient><linearGradient
       xlink:href="#a"
       id="b"
       x1="586.184"
       x2="586.184"
       y1="458.777"
       y2="502.143"
       gradientTransform="matrix(0.16279,0,0,0.16279,-53.72,-25.157)"
       gradientUnits="userSpaceOnUse" /><clipPath
       id="a-6"
       clipPathUnits="userSpaceOnUse"><path
         d="M177.814 223.069h283.95v259.075h-283.95Zm82.401 47.046.16 31.112h9.033c1.294-.088 14.262-.901 17.376 1.534 15.608 6.837 13.913 24.1 13.913 24.1 0 19.268-20.683 20.682-20.683 20.682h-18.738v6.364h-5.303v31.113h2.828v9.9h124.804c9.546 0 8.84-8.84 8.84-8.84V283.55c0-10.96-13.436-13.435-13.436-13.435z"
         class="powerclip"
         style="fill:#a7a7a7;fill-opacity:1;stroke:#000;stroke-width:2.016;stroke-linecap:square;stroke-linejoin:round;stroke-miterlimit:29;stroke-dasharray:none;stroke-opacity:1"
         id="path1-7" /></clipPath><clipPath
       id="b-7"
       clipPathUnits="userSpaceOnUse"><path
         d="M160.843 259.838h149.693v105.053H160.843Zm116.52 44.926a4.773 4.773 0 0 0-4.773 4.771 4.773 4.773 0 0 0 4.773 4.774 4.773 4.773 0 0 0 4.772-4.774 4.773 4.773 0 0 0-4.772-4.771m0 14.537a4.773 4.773 0 0 0-4.773 4.773 4.773 4.773 0 0 0 4.773 4.774 4.773 4.773 0 0 0 4.772-4.774 4.773 4.773 0 0 0-4.772-4.773m12.418 0a4.773 4.773 0 0 0-4.773 4.773 4.773 4.773 0 0 0 4.773 4.774 4.773 4.773 0 0 0 4.774-4.774 4.773 4.773 0 0 0-4.774-4.773m-12.418 13.707a4.773 4.773 0 0 0-4.773 4.773 4.773 4.773 0 0 0 4.773 4.774 4.773 4.773 0 0 0 4.772-4.774 4.773 4.773 0 0 0-4.772-4.773"
         class="powerclip"
         style="fill:#999;fill-opacity:1;stroke:none;stroke-width:2.016;stroke-linecap:square;stroke-linejoin:round;stroke-miterlimit:29;stroke-dasharray:none;stroke-opacity:1"
         id="path2-6" /></clipPath><linearGradient
       id="b-4"><stop
         offset="0"
         style="stop-color:#0af;stop-opacity:1"
         id="stop1-3" /><stop
         offset="1"
         style="stop-color:#609;stop-opacity:1"
         id="stop2-6" /></linearGradient><linearGradient
       xlink:href="#a-8"
       id="d"
       x1="454.481"
       x2="605.581"
       y1="35.102"
       y2="35.102"
       gradientUnits="userSpaceOnUse" /><linearGradient
       id="a-8"><stop
         offset="0"
         style="stop-color:#3bf;stop-opacity:1"
         id="stop3" /><stop
         offset="1"
         style="stop-color:#80c;stop-opacity:1"
         id="stop4" /></linearGradient><linearGradient
       xlink:href="#b-4"
       id="c"
       x1="452.756"
       x2="607.535"
       y1="35.102"
       y2="35.102"
       gradientTransform="translate(-0.13,0.033)"
       gradientUnits="userSpaceOnUse" /><linearGradient
       xlink:href="#a"
       id="b-5"
       x1="586.184"
       x2="586.184"
       y1="458.777"
       y2="502.143"
       gradientTransform="matrix(.16279 0 0 .16279 -53.72 -25.157)"
       gradientUnits="userSpaceOnUse" /><clipPath
       id="a-3"
       clipPathUnits="userSpaceOnUse"><path
         d="M177.814 223.069h283.95v259.075h-283.95Zm82.401 47.046.16 31.112h9.033c1.294-.088 14.262-.901 17.376 1.534 15.608 6.837 13.913 24.1 13.913 24.1 0 19.268-20.683 20.682-20.683 20.682h-18.738v6.364h-5.303v31.113h2.828v9.9h124.804c9.546 0 8.84-8.84 8.84-8.84V283.55c0-10.96-13.436-13.435-13.436-13.435z"
         class="powerclip"
         style="fill:#a7a7a7;fill-opacity:1;stroke:#000;stroke-width:2.016;stroke-linecap:square;stroke-linejoin:round;stroke-miterlimit:29;stroke-dasharray:none;stroke-opacity:1"
         id="path1-3" /></clipPath><clipPath
       id="b-3"
       clipPathUnits="userSpaceOnUse"><path
         d="M160.843 259.838h149.693v105.053H160.843Zm116.52 44.926a4.773 4.773 0 0 0-4.773 4.771 4.773 4.773 0 0 0 4.773 4.774 4.773 4.773 0 0 0 4.772-4.774 4.773 4.773 0 0 0-4.772-4.771m0 14.537a4.773 4.773 0 0 0-4.773 4.773 4.773 4.773 0 0 0 4.773 4.774 4.773 4.773 0 0 0 4.772-4.774 4.773 4.773 0 0 0-4.772-4.773m12.418 0a4.773 4.773 0 0 0-4.773 4.773 4.773 4.773 0 0 0 4.773 4.774 4.773 4.773 0 0 0 4.774-4.774 4.773 4.773 0 0 0-4.774-4.773m-12.418 13.707a4.773 4.773 0 0 0-4.773 4.773 4.773 4.773 0 0 0 4.773 4.774 4.773 4.773 0 0 0 4.772-4.774 4.773 4.773 0 0 0-4.772-4.773"
         class="powerclip"
         style="fill:#999;fill-opacity:1;stroke:none;stroke-width:2.016;stroke-linecap:square;stroke-linejoin:round;stroke-miterlimit:29;stroke-dasharray:none;stroke-opacity:1"
         id="path2-6-7" /></clipPath><linearGradient
       xlink:href="#a-8"
       id="d-2"
       x1="454.481"
       x2="605.581"
       y1="35.102"
       y2="35.102"
       gradientUnits="userSpaceOnUse" /><linearGradient
       xlink:href="#b-4"
       id="c-0"
       x1="452.756"
       x2="607.535"
       y1="35.102"
       y2="35.102"
       gradientTransform="translate(-0.13,0.033)"
       gradientUnits="userSpaceOnUse" /><clipPath
       id="a-3-5"
       clipPathUnits="userSpaceOnUse"><path
         d="M177.814 223.069h283.95v259.075h-283.95Zm82.401 47.046.16 31.112h9.033c1.294-.088 14.262-.901 17.376 1.534 15.608 6.837 13.913 24.1 13.913 24.1 0 19.268-20.683 20.682-20.683 20.682h-18.738v6.364h-5.303v31.113h2.828v9.9h124.804c9.546 0 8.84-8.84 8.84-8.84V283.55c0-10.96-13.436-13.435-13.436-13.435z"
         class="powerclip"
         style="fill:#a7a7a7;fill-opacity:1;stroke:#000;stroke-width:2.016;stroke-linecap:square;stroke-linejoin:round;stroke-miterlimit:29;stroke-dasharray:none;stroke-opacity:1"
         id="path1-3-0" /></clipPath><clipPath
       id="b-3-6"
       clipPathUnits="userSpaceOnUse"><path
         d="M160.843 259.838h149.693v105.053H160.843Zm116.52 44.926a4.773 4.773 0 0 0-4.773 4.771 4.773 4.773 0 0 0 4.773 4.774 4.773 4.773 0 0 0 4.772-4.774 4.773 4.773 0 0 0-4.772-4.771m0 14.537a4.773 4.773 0 0 0-4.773 4.773 4.773 4.773 0 0 0 4.773 4.774 4.773 4.773 0 0 0 4.772-4.774 4.773 4.773 0 0 0-4.772-4.773m12.418 0a4.773 4.773 0 0 0-4.773 4.773 4.773 4.773 0 0 0 4.773 4.774 4.773 4.773 0 0 0 4.774-4.774 4.773 4.773 0 0 0-4.774-4.773m-12.418 13.707a4.773 4.773 0 0 0-4.773 4.773 4.773 4.773 0 0 0 4.773 4.774 4.773 4.773 0 0 0 4.772-4.774 4.773 4.773 0 0 0-4.772-4.773"
         class="powerclip"
         style="fill:#999;fill-opacity:1;stroke:none;stroke-width:2.016;stroke-linecap:square;stroke-linejoin:round;stroke-miterlimit:29;stroke-dasharray:none;stroke-opacity:1"
         id="path2-6-3" /></clipPath></defs><sodipodi:namedview
     id="namedview1"
     pagecolor="#ffffff"
     bordercolor="#000000"
     borderopacity="0.25"
     inkscape:showpageshadow="2"
     inkscape:pageopacity="0.0"
     inkscape:pagecheckerboard="0"
     inkscape:deskcolor="#d1d1d1"
     inkscape:zoom="2.8284271"
     inkscape:cx="91.216774"
     inkscape:cy="9.3691648"
     inkscape:window-width="1920"
     inkscape:window-height="1017"
     inkscape:window-x="-8"
     inkscape:window-y="-8"
     inkscape:window-maximized="1"
     inkscape:current-layer="layer2"
     showguides="true" /><g
     inkscape:groupmode="layer"
     id="layer2"
     inkscape:label="Layer 2"
     style="display:inline;opacity:1;stroke-width:1.04951"
     transform="matrix(0.82531654,-0.47633114,0.47649673,0.82502974,-177.16531,117.43759)"><path
       style="display:inline;opacity:1;fill:#c1140b;fill-opacity:1;stroke:none;stroke-width:1.02432;stroke-linecap:round;stroke-linejoin:round;stroke-miterlimit:10.8;stroke-dasharray:none;paint-order:fill markers stroke"
       d="m 267.7596,32.39625 c 0,-2.822358 -0.56521,-6.283468 -0.56521,-6.283468 h -0.41449 c 0,0 -0.87246,-0.433329 -1.69563,-0.433329 h -3.89996 L 260.902,25.962 h -8.215 l -5.049,3.584 h -9.269 l -2.45,-1.008 h -13.627 l -1.746,1.008 h -5.968 l -3.076,-1.775 -2.298,-2.64e-4 V 27.607 c 0,0 -1.29408,-0.58988 -7.00893,-0.58988 l -1.05506,1.05488 c 0,0 -0.10658,1.842121 -0.1068,4.324125 -2.1e-4,2.482004 0.10637,4.324125 0.10637,4.324125 l 1.05506,1.05488 c 5.71485,0 7.00893,-0.58988 7.00893,-0.58988 v -0.163736 l 2.298,-2.64e-4 3.076,-1.775452 5.968,4.52e-4 1.746,1.008 H 237.385 l 0.98357,-1.008 h 9.269 l 5.049,3.584 h 8.215 l 0.28231,0.282547 h 3.89996 c 0.82317,0 1.69563,-0.433329 1.69563,-0.433329 h 0.41449 c 0,0 0.56521,-3.46111 0.56521,-6.283468 z"
       id="path98"
       sodipodi:nodetypes="cccscccccccccccccccccccccccccccccscccc" /><path
       style="display:inline;opacity:1;fill:#f1190e;fill-opacity:1;stroke:none;stroke-width:1.02432;stroke-linecap:round;stroke-linejoin:round;stroke-miterlimit:10.8;stroke-dasharray:none;paint-order:fill markers stroke"
       d="m 267.19439,28.173154 h -0.41449 c 0,0 -0.87246,-0.284308 -1.69563,-0.284308 h -3.89996 l -0.28231,0.185379 h -8.215 l -5.049,2.952275 h -9.269 l -2.45,-0.961 h -13.627 l -1.746,0.961 h -5.968 l -3.076,-1.66492 -2.298,-1.73e-4 v -0.107428 c 0,0 -1.29408,-0.38702 -7.00893,-0.38702 l -1.05506,0.692107 c 0,0 -0.10658,1.208615 -0.1068,2.837059 -2.1e-4,1.628443 0.10637,2.837059 0.10637,2.837059 l 1.05506,0.692106 c 5.71485,0 7.00893,-0.38702 7.00893,-0.38702 v -0.107428 l 2.298,-1.73e-4 3.076,-1.665244 5.968,2.97e-4 1.746,0.960852 H 237.385 l 0.98357,-0.961 h 9.269 l 5.049,2.952201 h 8.215 l 0.28231,0.185379 h 3.89996 c 0.82317,0 1.69563,-0.284308 1.69563,-0.284308 h 0.41449 c 0,0 0.56521,-2.371054 0.56542,-4.222721 2.2e-4,-1.851667 -0.56499,-4.222971 -0.56499,-4.222971 z"
       id="path99"
       sodipodi:nodetypes="ccscccccccccccccccccccccccccccccscccc" /><rect
       style="display:inline;opacity:1;fill:#f1190e;fill-opacity:1;stroke:none;stroke-width:0.604517;stroke-linecap:round;stroke-linejoin:round;stroke-miterlimit:10.8;stroke-dasharray:none;stroke-opacity:1;paint-order:fill markers stroke"
       id="rect112"
       width="2.2514465"
       height="9.1523294"
       x="209.19801"
       y="27.790043" /><g
       id="g101"
       transform="translate(0,0.137678)"
       style="stroke-width:1.04951"><path
         style="display:inline;opacity:1;fill:none;fill-opacity:1;stroke:#780c07;stroke-width:0.604517;stroke-linecap:round;stroke-linejoin:round;stroke-miterlimit:10.8;stroke-dasharray:none;stroke-opacity:1;paint-order:fill markers stroke"
         d="m 209.38347,34.110322 h 1.17446"
         id="path106" /><path
         style="display:inline;opacity:1;fill:none;fill-opacity:1;stroke:#780c07;stroke-width:0.604517;stroke-linecap:round;stroke-linejoin:round;stroke-miterlimit:10.8;stroke-dasharray:none;stroke-opacity:1;paint-order:fill markers stroke"
         d="m 209.60994,35.036322 h 0.72151"
         id="path103"
         sodipodi:nodetypes="cc" /><path
         style="display:inline;opacity:1;fill:none;fill-opacity:1;stroke:#780c07;stroke-width:0.604517;stroke-linecap:round;stroke-linejoin:round;stroke-miterlimit:10.8;stroke-dasharray:none;stroke-opacity:1;paint-order:fill markers stroke"
         d="m 209.38347,35.962322 h 1.17446"
         id="path104" /><path
         style="display:inline;opacity:1;fill:none;fill-opacity:1;stroke:#780c07;stroke-width:0.604517;stroke-linecap:round;stroke-linejoin:round;stroke-miterlimit:10.8;stroke-dasharray:none;stroke-opacity:1;paint-order:fill markers stroke"
         d="m 209.60994,31.332322 h 0.72151"
         id="path107"
         sodipodi:nodetypes="cc" /><path
         style="display:inline;opacity:1;fill:none;fill-opacity:1;stroke:#780c07;stroke-width:0.604517;stroke-linecap:round;stroke-linejoin:round;stroke-miterlimit:10.8;stroke-dasharray:none;stroke-opacity:1;paint-order:fill markers stroke"
         d="m 209.38347,32.258322 h 1.17446"
         id="path100" /><path
         style="display:inline;opacity:1;fill:none;fill-opacity:1;stroke:#780c07;stroke-width:0.604516;stroke-linecap:round;stroke-linejoin:round;stroke-miterlimit:10.8;stroke-dasharray:none;stroke-opacity:1;paint-order:fill markers stroke"
         d="m 209.6097,33.184322 h 0.722"
         id="path101"
         sodipodi:nodetypes="cc" /><path
         style="display:inline;opacity:1;fill:none;fill-opacity:1;stroke:#780c07;stroke-width:0.604517;stroke-linecap:round;stroke-linejoin:round;stroke-miterlimit:10.8;stroke-dasharray:none;stroke-opacity:1;paint-order:fill markers stroke"
         d="m 209.38347,28.554322 h 1.17446"
         id="path102" /><path
         style="display:inline;opacity:1;fill:none;fill-opacity:1;stroke:#780c07;stroke-width:0.604517;stroke-linecap:round;stroke-linejoin:round;stroke-miterlimit:10.8;stroke-dasharray:none;stroke-opacity:1;paint-order:fill markers stroke"
         d="m 209.60994,29.480322 h 0.72151"
         id="path105"
         sodipodi:nodetypes="cc" /><path
         style="display:inline;opacity:1;fill:none;fill-opacity:1;stroke:#780c07;stroke-width:0.604517;stroke-linecap:round;stroke-linejoin:round;stroke-miterlimit:10.8;stroke-dasharray:none;stroke-opacity:1;paint-order:fill markers stroke"
         d="m 209.38347,30.406322 h 1.17446"
         id="path108" /></g><path
       style="display:inline;fill:#ea1717;fill-opacity:1;stroke:#000000;stroke-width:1.02432;stroke-linecap:round;stroke-linejoin:round;stroke-miterlimit:10.8;stroke-dasharray:none;stroke-opacity:1;paint-order:fill markers stroke"
       d="m 247.638,29.546 v 5.7"
       id="path66"
       sodipodi:nodetypes="cc" /><path
       style="display:inline;fill:#ea1717;fill-opacity:1;stroke:#000000;stroke-width:1.02432;stroke-linecap:round;stroke-linejoin:round;stroke-miterlimit:10.8;stroke-dasharray:none;stroke-opacity:1;paint-order:fill markers stroke"
       d="M 252.687,25.962 V 38.831"
       id="path67"
       sodipodi:nodetypes="cc" /><path
       style="display:inline;fill:#ea1717;fill-opacity:1;stroke:#000000;stroke-width:1.02432;stroke-linecap:round;stroke-linejoin:round;stroke-miterlimit:10.8;stroke-dasharray:none;stroke-opacity:1;paint-order:fill markers stroke"
       d="m 238.369,29.546 v 5.7"
       id="path79"
       sodipodi:nodetypes="cc" /><path
       style="fill:#ea1717;fill-opacity:1;stroke:#000000;stroke-width:1.02432;stroke-linecap:round;stroke-linejoin:round;stroke-miterlimit:10.8;stroke-dasharray:none;stroke-opacity:1;paint-order:fill markers stroke"
       d="m 235.919,28.538 c 1.13941,2.452188 1.466,4.414574 1.466,7.717"
       id="path80"
       sodipodi:nodetypes="cc" /><path
       style="display:inline;fill:#ea1717;fill-opacity:1;stroke:#000000;stroke-width:1.02432;stroke-linecap:round;stroke-linejoin:round;stroke-miterlimit:10.8;stroke-dasharray:none;stroke-opacity:1;paint-order:fill markers stroke"
       d="m 220.546,29.546 v 5.7"
       id="path88"
       sodipodi:nodetypes="cc" /><path
       style="fill:#ea1717;fill-opacity:1;stroke:#000000;stroke-width:1.02432;stroke-linecap:round;stroke-linejoin:round;stroke-miterlimit:10.8;stroke-dasharray:none;stroke-opacity:1;paint-order:fill markers stroke"
       d="m 222.292,28.538 v 7.717"
       id="path90"
       sodipodi:nodetypes="cc" /><path
       style="display:inline;fill:#ea1717;fill-opacity:1;stroke:#000000;stroke-width:1.02432;stroke-linecap:round;stroke-linejoin:round;stroke-miterlimit:10.8;stroke-dasharray:none;stroke-opacity:1;paint-order:fill markers stroke"
       d="m 214.578,29.546 v 5.7"
       id="path91"
       sodipodi:nodetypes="cc" /><path
       style="fill:#ea1717;fill-opacity:1;stroke:#000000;stroke-width:1.02432;stroke-linecap:round;stroke-linejoin:round;stroke-miterlimit:10.8;stroke-dasharray:none;stroke-opacity:1;paint-order:fill markers stroke"
       d="m 211.502,27.771 v 9.251"
       id="path92"
       sodipodi:nodetypes="cc" /><path
       style="fill:#ea1717;fill-opacity:1;stroke:#000000;stroke-width:1.02432;stroke-linecap:round;stroke-linejoin:round;stroke-miterlimit:10.8;stroke-dasharray:none;stroke-opacity:1;paint-order:fill markers stroke"
       d="m 209.204,27.771 v 9.251"
       id="path93"
       sodipodi:nodetypes="cc" /><path
       style="display:inline;fill:none;fill-opacity:1;stroke:#000000;stroke-width:1.02432;stroke-linecap:round;stroke-linejoin:round;stroke-miterlimit:10.8;stroke-dasharray:none;stroke-opacity:1;paint-order:fill markers stroke"
       d="M 260.902,25.962 V 38.83"
       id="path95"
       sodipodi:nodetypes="cc" /><rect
       style="display:inline;opacity:1;fill:#f1190e;fill-opacity:1;stroke:#000000;stroke-width:0.604517;stroke-linecap:round;stroke-linejoin:round;stroke-miterlimit:10.8;stroke-dasharray:none;stroke-opacity:1;paint-order:fill markers stroke"
       id="rect183"
       width="1.813"
       height="0.91904628"
       x="228.101"
       y="27.640623"
       rx="0.35246468"
       ry="0.31983861" /><g
       id="g198"
       style="display:inline;opacity:1;stroke-width:1.04951"><rect
         style="display:inline;opacity:1;fill:#d7190e;fill-opacity:1;stroke:none;stroke-width:0.604517;stroke-linecap:round;stroke-linejoin:round;stroke-miterlimit:10.8;stroke-dasharray:none;stroke-opacity:1;paint-order:fill markers stroke"
         id="rect186"
         width="5.46875"
         height="2.2053962"
         x="261.51562"
         y="31.293303"
         rx="0.171875"
         ry="0.171875" /><g
         id="g199"
         transform="translate(0,0.00471212)"
         style="stroke-width:1.04951"><path
           id="rect187"
           style="display:inline;opacity:1;fill:#d7190e;stroke-width:0.604517;stroke-linecap:round;stroke-linejoin:round;stroke-miterlimit:10.8;paint-order:fill markers stroke"
           d="m 261.68112,27.62957 h 4.93464 c 0.0917,0 0.1615,0.05144 0.16549,0.115074 l 0.0781,1.246414 c 0.004,0.06363 -0.0738,0.115074 -0.16549,0.115074 h -5.01276 c -0.0917,0 -0.1655,-0.05132 -0.1655,-0.115074 v -1.246414 c 0,-0.06375 0.0738,-0.115074 0.1655,-0.115074 z"
           sodipodi:nodetypes="sssssssss" /><path
           id="path199"
           style="display:inline;opacity:1;fill:#d7190e;stroke-width:0.604517;stroke-linecap:round;stroke-linejoin:round;stroke-miterlimit:10.8;paint-order:fill markers stroke"
           d="m 261.69674,37.153007 h 4.93464 c 0.0917,0 0.1615,-0.05144 0.16549,-0.115074 l 0.0781,-1.246414 c 0.004,-0.06363 -0.0738,-0.115074 -0.16549,-0.115074 h -5.01276 c -0.0917,0 -0.1655,0.05132 -0.1655,0.115074 v 1.246414 c 0,0.06375 0.0738,0.115074 0.1655,0.115074 z"
           sodipodi:nodetypes="sssssssss" /></g></g><g
       id="g186"
       transform="translate(0,5.8684462)"
       style="display:inline;opacity:1;stroke-width:1.04951"><g
         id="g200"
         transform="translate(0,-0.00847933)"
         style="stroke-width:1.04951"><rect
           style="fill:#8d1007;fill-opacity:1;stroke:none;stroke-width:0.604516;stroke-linecap:round;stroke-linejoin:round;stroke-miterlimit:10.8;stroke-dasharray:none;stroke-opacity:1;paint-order:fill markers stroke"
           id="rect185"
           width="2.2472324"
           height="2.3525546"
           x="263.00623"
           y="27.555069"
           rx="0.26516503"
           ry="0.25664231" /><rect
           style="display:inline;opacity:1;fill:#8d1007;fill-opacity:1;stroke:none;stroke-width:0.604516;stroke-linecap:round;stroke-linejoin:round;stroke-miterlimit:10.8;stroke-dasharray:none;stroke-opacity:1;paint-order:fill markers stroke"
           id="rect199"
           width="2.2472324"
           height="2.3525546"
           x="263.00623"
           y="23.164444"
           rx="0.26516503"
           ry="0.25664231" /></g><g
         id="g197"
         transform="translate(0,-0.03839609)"
         style="stroke-width:1.04951"><rect
           style="display:inline;opacity:1;fill:#8d1007;fill-opacity:1;stroke:none;stroke-width:0.604516;stroke-linecap:round;stroke-linejoin:round;stroke-miterlimit:10.8;stroke-dasharray:none;stroke-opacity:1;paint-order:fill markers stroke"
           id="rect196"
           width="2.2472324"
           height="1.5869296"
           x="263.00623"
           y="20.288111"
           rx="0.26516503"
           ry="0.17311959" /><rect
           style="display:inline;opacity:1;fill:#8d1007;fill-opacity:1;stroke:none;stroke-width:0.604516;stroke-linecap:round;stroke-linejoin:round;stroke-miterlimit:10.8;stroke-dasharray:none;stroke-opacity:1;paint-order:fill markers stroke"
           id="rect197"
           width="2.2472324"
           height="1.5869296"
           x="263.00623"
           y="31.256861"
           rx="0.26516503"
           ry="0.17311959" /></g></g><path
       style="display:inline;opacity:1;fill:none;fill-opacity:1;stroke:#000000;stroke-width:1.02432;stroke-linecap:round;stroke-linejoin:round;stroke-miterlimit:10.8;stroke-dasharray:none;stroke-opacity:1;paint-order:fill markers stroke"
       d="m 267.19439,26.112782 h -0.41449 c 0,0 -0.87246,-0.433329 -1.69563,-0.433329 h -3.89996 L 260.902,25.962 h -8.215 l -5.049,3.584 h -9.269 l -2.45,-1.008 h -13.627 l -1.746,1.008 h -5.968 l -3.076,-1.775 -2.298,-2.64e-4 V 27.607 c 0,0 -1.29408,-0.58988 -7.00893,-0.58988 l -1.05506,1.05488 c 0,0 -0.10658,1.842121 -0.1068,4.324125 -2.1e-4,2.482004 0.10637,4.324125 0.10637,4.324125 l 1.05506,1.05488 c 5.71485,0 7.00893,-0.58988 7.00893,-0.58988 v -0.163736 l 2.298,-2.64e-4 3.07643,-1.775452 5.968,4.52e-4 1.74557,1.008 H 237.385 l 0.98357,-1.008 h 9.269 l 5.049,3.584 h 8.215 l 0.28231,0.282547 h 3.89996 c 0.82317,0 1.69563,-0.433329 1.69563,-0.433329 h 0.41449 c 0,0 0.56521,-3.46111 0.56542,-6.283343 2.2e-4,-2.822233 -0.56499,-6.283343 -0.56499,-6.283343 z"
       id="path96"
       sodipodi:nodetypes="ccsccccccccccccccsccccccccccccccsccsc" /><g
       id="g158"
       style="stroke-width:1.04951"><g
         id="g149"
         transform="translate(-0.01953,0.13008986)"
         style="stroke-width:1.04951"><path
           style="fill:#4a4a4a;fill-opacity:1;stroke:none;stroke-width:1.02432;stroke-linecap:round;stroke-linejoin:round;stroke-miterlimit:10.8;stroke-dasharray:none;stroke-opacity:1;paint-order:fill markers stroke"
           d="m 215.81339,29.081162 -8.6e-4,14.791842 h 3.53755 l 3.1e-4,-14.791842 z"
           id="path147"
           sodipodi:nodetypes="ccccc" /><rect
           style="display:inline;opacity:1;fill:#5c5c5c;fill-opacity:1;stroke:none;stroke-width:1.02432;stroke-linecap:round;stroke-linejoin:round;stroke-miterlimit:10.8;stroke-dasharray:none;stroke-opacity:1;paint-order:fill markers stroke"
           id="rect154"
           width="3.1481752"
           height="1.645637"
           x="216.00795"
           y="31.573181" /><rect
           style="display:inline;fill:#3d3d3d;fill-opacity:1;stroke:none;stroke-width:1.02432;stroke-linecap:round;stroke-linejoin:round;stroke-miterlimit:10.8;stroke-dasharray:none;stroke-opacity:1;paint-order:fill markers stroke"
           id="rect155"
           width="2.8884056"
           height="0.62551463"
           x="216.13783"
           y="29.416275" /><rect
           style="display:inline;opacity:1;fill:#3d3d3d;fill-opacity:1;stroke:none;stroke-width:1.02432;stroke-linecap:round;stroke-linejoin:round;stroke-miterlimit:10.8;stroke-dasharray:none;stroke-opacity:1;paint-order:fill markers stroke"
           id="rect157"
           width="2.8884056"
           height="3.5146863"
           x="216.13783"
           y="35.285072" /><rect
           style="display:inline;opacity:1;fill:#303030;fill-opacity:1;stroke:none;stroke-width:1.02432;stroke-linecap:round;stroke-linejoin:round;stroke-miterlimit:10.8;stroke-dasharray:none;stroke-opacity:1;paint-order:fill markers stroke"
           id="rect158"
           width="2.8884056"
           height="1.6476122"
           x="216.13783"
           y="36.495228" /><path
           style="display:inline;opacity:1;fill:#a13730;fill-opacity:1;stroke:#000000;stroke-width:1.02432;stroke-linecap:round;stroke-linejoin:round;stroke-miterlimit:10.8;stroke-dasharray:none;stroke-opacity:1;paint-order:fill markers stroke"
           d="m 215.81353,32.396 h 3.537"
           id="path149"
           sodipodi:nodetypes="cc" /><path
           style="display:inline;opacity:1;fill:#a13730;fill-opacity:1;stroke:#000000;stroke-width:1.02432;stroke-linecap:round;stroke-linejoin:round;stroke-miterlimit:10.8;stroke-dasharray:none;stroke-opacity:1;paint-order:fill markers stroke"
           d="m 215.81353,39.773393 h 3.537"
           id="path155"
           sodipodi:nodetypes="cc" /><path
           style="fill:none;fill-opacity:1;stroke:#000000;stroke-width:1.02432;stroke-linecap:round;stroke-linejoin:round;stroke-miterlimit:10.8;stroke-dasharray:none;stroke-opacity:1;paint-order:fill markers stroke"
           d="m 215.81339,29.081162 -8.6e-4,14.791842 h 3.53755 l 3.1e-4,-14.791842 z"
           id="path154"
           sodipodi:nodetypes="ccccc" /></g><g
         id="g145"
         transform="matrix(0.76028283,-2.8348412,2.8344432,0.75879742,96.874453,172.06573)"
         style="display:inline;opacity:1;stroke-width:1.35168"><path
           sodipodi:type="star"
           style="fill:#4d4d4d;fill-opacity:1;stroke:none;stroke-width:0.230087;stroke-linecap:round;stroke-linejoin:round;stroke-miterlimit:10.8;stroke-dasharray:none;stroke-opacity:1;paint-order:fill markers stroke"
           id="path112"
           inkscape:flatsided="true"
           sodipodi:sides="8"
           sodipodi:cx="52.949154"
           sodipodi:cy="27.821615"
           sodipodi:r1="0.53447801"
           sodipodi:r2="0.49379325"
           sodipodi:arg1="1.0471976"
           sodipodi:arg2="1.4398966"
           inkscape:rounded="0"
           inkscape:randomized="0"
           d="m 53.216393,28.284487 -0.405572,0.05339 -0.324539,-0.249027 -0.05339,-0.405572 0.249027,-0.324538 0.405572,-0.0534 0.324538,0.249027 0.0534,0.405572 z"
           inkscape:transform-center-x="1.2110917e-06"
           transform="matrix(0.84909735,0.11178579,-0.11178579,0.84909735,11.51057,-1.2759182)" /><rect
           style="fill:#333333;fill-opacity:1;stroke:none;stroke-width:0.197052;stroke-linecap:round;stroke-linejoin:round;stroke-miterlimit:10.8;stroke-dasharray:none;stroke-opacity:1;paint-order:fill markers stroke"
           id="rect113"
           width="0.17586239"
           height="0.87931186"
           x="57.630226"
           y="-18.183222"
           transform="rotate(45)" /><path
           sodipodi:type="star"
           style="fill:none;fill-opacity:1;stroke:#000000;stroke-width:0.209209;stroke-linecap:round;stroke-linejoin:round;stroke-miterlimit:10.8;stroke-dasharray:none;stroke-opacity:1;paint-order:fill markers stroke"
           id="path145"
           inkscape:flatsided="true"
           sodipodi:sides="8"
           sodipodi:cx="52.949154"
           sodipodi:cy="27.821615"
           sodipodi:r1="0.53447801"
           sodipodi:r2="0.49379325"
           sodipodi:arg1="1.0471976"
           sodipodi:arg2="1.4398966"
           inkscape:rounded="0"
           inkscape:randomized="0"
           d="m 53.216393,28.284487 -0.405572,0.05339 -0.324539,-0.249027 -0.05339,-0.405572 0.249027,-0.324538 0.405572,-0.0534 0.324538,0.249027 0.0534,0.405572 z"
           inkscape:transform-center-x="1.2110917e-06"
           transform="matrix(0.84909735,0.11178579,-0.11178579,0.84909735,11.51057,-1.2759182)" /><circle
           style="display:inline;opacity:1;fill:#1a1a1a;fill-opacity:1;stroke:none;stroke-width:0.181036;stroke-linecap:round;stroke-linejoin:round;stroke-miterlimit:10.8;stroke-dasharray:none;stroke-opacity:1;paint-order:fill markers stroke"
           id="circle145"
           cx="53.350903"
           cy="28.298491"
           r="0.17713164"
           transform="matrix(1.0884742,0,0,1.0884742,-4.7115839,-2.5358719)" /></g><g
         id="g153"
         transform="translate(0.069245)"
         style="stroke-width:1.04951"><path
           id="path150"
           style="display:inline;opacity:1;fill:#292929;fill-opacity:1;stroke-width:1.02432;stroke-linecap:round;stroke-linejoin:round;stroke-miterlimit:10.8;paint-order:fill markers stroke"
           d="m 217.18079,31.325523 c 0,0.323264 -0.12388,0.434818 -0.2767,0.434815 -0.15281,-3e-6 -0.27669,-0.111556 -0.27669,-0.434815 0,-0.32326 0.12388,-0.62294 0.27669,-0.622943 0.15282,-4e-6 0.2767,0.299678 0.2767,0.622943 z"
           sodipodi:nodetypes="sssss" /><path
           id="path151"
           style="display:inline;opacity:1;fill:#292929;fill-opacity:1;stroke-width:1.02432;stroke-linecap:round;stroke-linejoin:round;stroke-miterlimit:10.8;paint-order:fill markers stroke"
           d="m 218.35811,31.325523 c 0,0.323264 -0.12388,0.434818 -0.2767,0.434815 -0.15281,-3e-6 -0.27669,-0.111556 -0.27669,-0.434815 0,-0.32326 0.12388,-0.62294 0.27669,-0.622943 0.15282,-4e-6 0.2767,0.299678 0.2767,0.622943 z"
           sodipodi:nodetypes="sssss" /><path
           id="path152"
           style="display:inline;opacity:1;fill:#292929;fill-opacity:1;stroke-width:1.02432;stroke-linecap:round;stroke-linejoin:round;stroke-miterlimit:10.8;paint-order:fill markers stroke"
           d="m 217.18079,33.797733 c 0,-0.323264 -0.12388,-0.434818 -0.2767,-0.434815 -0.15281,3e-6 -0.27669,0.111556 -0.27669,0.434815 0,0.32326 0.12388,0.62294 0.27669,0.622943 0.15282,4e-6 0.2767,-0.299678 0.2767,-0.622943 z"
           sodipodi:nodetypes="sssss" /><path
           id="path153"
           style="display:inline;opacity:1;fill:#292929;fill-opacity:1;stroke-width:1.02432;stroke-linecap:round;stroke-linejoin:round;stroke-miterlimit:10.8;paint-order:fill markers stroke"
           d="m 218.35811,33.797733 c 0,-0.323264 -0.12388,-0.434818 -0.2767,-0.434815 -0.15281,3e-6 -0.27669,0.111556 -0.27669,0.434815 0,0.32326 0.12388,0.62294 0.27669,0.622943 0.15282,4e-6 0.2767,-0.299678 0.2767,-0.622943 z"
           sodipodi:nodetypes="sssss" /></g></g><g
       id="g173"
       transform="translate(23.701)"
       style="stroke-width:1.04951"><g
         id="g164"
         transform="translate(-0.01953,0.13008986)"
         style="stroke-width:1.04951"><path
           style="fill:#4a4a4a;fill-opacity:1;stroke:none;stroke-width:1.02432;stroke-linecap:round;stroke-linejoin:round;stroke-miterlimit:10.8;stroke-dasharray:none;stroke-opacity:1;paint-order:fill markers stroke"
           d="m 215.81339,29.081162 -8.6e-4,14.791842 h 3.53755 l 3.1e-4,-14.791842 z"
           id="path158"
           sodipodi:nodetypes="ccccc" /><rect
           style="display:inline;opacity:1;fill:#5c5c5c;fill-opacity:1;stroke:none;stroke-width:1.02432;stroke-linecap:round;stroke-linejoin:round;stroke-miterlimit:10.8;stroke-dasharray:none;stroke-opacity:1;paint-order:fill markers stroke"
           id="rect159"
           width="3.1481752"
           height="1.645637"
           x="216.00795"
           y="31.573181" /><rect
           style="display:inline;fill:#3d3d3d;fill-opacity:1;stroke:none;stroke-width:1.02432;stroke-linecap:round;stroke-linejoin:round;stroke-miterlimit:10.8;stroke-dasharray:none;stroke-opacity:1;paint-order:fill markers stroke"
           id="rect160"
           width="2.8884056"
           height="0.62551463"
           x="216.13783"
           y="29.416275" /><rect
           style="display:inline;opacity:1;fill:#3d3d3d;fill-opacity:1;stroke:none;stroke-width:1.02432;stroke-linecap:round;stroke-linejoin:round;stroke-miterlimit:10.8;stroke-dasharray:none;stroke-opacity:1;paint-order:fill markers stroke"
           id="rect161"
           width="2.8884056"
           height="3.5146863"
           x="216.13783"
           y="35.285072" /><rect
           style="display:inline;opacity:1;fill:#303030;fill-opacity:1;stroke:none;stroke-width:1.02432;stroke-linecap:round;stroke-linejoin:round;stroke-miterlimit:10.8;stroke-dasharray:none;stroke-opacity:1;paint-order:fill markers stroke"
           id="rect162"
           width="2.8884056"
           height="1.6476122"
           x="216.13783"
           y="36.495228" /><path
           style="display:inline;opacity:1;fill:#a13730;fill-opacity:1;stroke:#000000;stroke-width:1.02432;stroke-linecap:round;stroke-linejoin:round;stroke-miterlimit:10.8;stroke-dasharray:none;stroke-opacity:1;paint-order:fill markers stroke"
           d="m 215.81353,32.396 h 3.537"
           id="path162"
           sodipodi:nodetypes="cc" /><path
           style="display:inline;opacity:1;fill:#a13730;fill-opacity:1;stroke:#000000;stroke-width:1.02432;stroke-linecap:round;stroke-linejoin:round;stroke-miterlimit:10.8;stroke-dasharray:none;stroke-opacity:1;paint-order:fill markers stroke"
           d="m 215.81353,39.773393 h 3.537"
           id="path163"
           sodipodi:nodetypes="cc" /><path
           style="fill:none;fill-opacity:1;stroke:#000000;stroke-width:1.02432;stroke-linecap:round;stroke-linejoin:round;stroke-miterlimit:10.8;stroke-dasharray:none;stroke-opacity:1;paint-order:fill markers stroke"
           d="m 215.81339,29.081162 -8.6e-4,14.791842 h 3.53755 l 3.1e-4,-14.791842 z"
           id="path164"
           sodipodi:nodetypes="ccccc" /></g><g
         id="g166"
         transform="matrix(0.76028283,-2.8348412,2.8344432,0.75879742,96.874453,172.06573)"
         style="display:inline;opacity:1;stroke-width:1.35168"><path
           sodipodi:type="star"
           style="fill:#4d4d4d;fill-opacity:1;stroke:none;stroke-width:0.230087;stroke-linecap:round;stroke-linejoin:round;stroke-miterlimit:10.8;stroke-dasharray:none;stroke-opacity:1;paint-order:fill markers stroke"
           id="path165"
           inkscape:flatsided="true"
           sodipodi:sides="8"
           sodipodi:cx="52.949154"
           sodipodi:cy="27.821615"
           sodipodi:r1="0.53447801"
           sodipodi:r2="0.49379325"
           sodipodi:arg1="1.0471976"
           sodipodi:arg2="1.4398966"
           inkscape:rounded="0"
           inkscape:randomized="0"
           d="m 53.216393,28.284487 -0.405572,0.05339 -0.324539,-0.249027 -0.05339,-0.405572 0.249027,-0.324538 0.405572,-0.0534 0.324538,0.249027 0.0534,0.405572 z"
           inkscape:transform-center-x="1.2110917e-06"
           transform="matrix(0.84909735,0.11178579,-0.11178579,0.84909735,11.51057,-1.2759182)" /><rect
           style="fill:#333333;fill-opacity:1;stroke:none;stroke-width:0.197052;stroke-linecap:round;stroke-linejoin:round;stroke-miterlimit:10.8;stroke-dasharray:none;stroke-opacity:1;paint-order:fill markers stroke"
           id="rect165"
           width="0.17586239"
           height="0.87931186"
           x="57.630226"
           y="-18.183222"
           transform="rotate(45)" /><path
           sodipodi:type="star"
           style="fill:none;fill-opacity:1;stroke:#000000;stroke-width:0.209209;stroke-linecap:round;stroke-linejoin:round;stroke-miterlimit:10.8;stroke-dasharray:none;stroke-opacity:1;paint-order:fill markers stroke"
           id="path166"
           inkscape:flatsided="true"
           sodipodi:sides="8"
           sodipodi:cx="52.949154"
           sodipodi:cy="27.821615"
           sodipodi:r1="0.53447801"
           sodipodi:r2="0.49379325"
           sodipodi:arg1="1.0471976"
           sodipodi:arg2="1.4398966"
           inkscape:rounded="0"
           inkscape:randomized="0"
           d="m 53.216393,28.284487 -0.405572,0.05339 -0.324539,-0.249027 -0.05339,-0.405572 0.249027,-0.324538 0.405572,-0.0534 0.324538,0.249027 0.0534,0.405572 z"
           inkscape:transform-center-x="1.2110917e-06"
           transform="matrix(0.84909735,0.11178579,-0.11178579,0.84909735,11.51057,-1.2759182)" /><circle
           style="display:inline;opacity:1;fill:#1a1a1a;fill-opacity:1;stroke:none;stroke-width:0.181036;stroke-linecap:round;stroke-linejoin:round;stroke-miterlimit:10.8;stroke-dasharray:none;stroke-opacity:1;paint-order:fill markers stroke"
           id="circle166"
           cx="53.350903"
           cy="28.298491"
           r="0.17713164"
           transform="matrix(1.0884742,0,0,1.0884742,-4.7115839,-2.5358719)" /></g><g
         id="g172"
         transform="translate(0.069245)"
         style="stroke-width:1.04951"><path
           id="path167"
           style="display:inline;opacity:1;fill:#292929;fill-opacity:1;stroke-width:1.02432;stroke-linecap:round;stroke-linejoin:round;stroke-miterlimit:10.8;paint-order:fill markers stroke"
           d="m 217.18079,31.325523 c 0,0.323264 -0.12388,0.434818 -0.2767,0.434815 -0.15281,-3e-6 -0.27669,-0.111556 -0.27669,-0.434815 0,-0.32326 0.12388,-0.62294 0.27669,-0.622943 0.15282,-4e-6 0.2767,0.299678 0.2767,0.622943 z"
           sodipodi:nodetypes="sssss" /><path
           id="path168"
           style="display:inline;opacity:1;fill:#292929;fill-opacity:1;stroke-width:1.02432;stroke-linecap:round;stroke-linejoin:round;stroke-miterlimit:10.8;paint-order:fill markers stroke"
           d="m 218.35811,31.325523 c 0,0.323264 -0.12388,0.434818 -0.2767,0.434815 -0.15281,-3e-6 -0.27669,-0.111556 -0.27669,-0.434815 0,-0.32326 0.12388,-0.62294 0.27669,-0.622943 0.15282,-4e-6 0.2767,0.299678 0.2767,0.622943 z"
           sodipodi:nodetypes="sssss" /><path
           id="path169"
           style="display:inline;opacity:1;fill:#292929;fill-opacity:1;stroke-width:1.02432;stroke-linecap:round;stroke-linejoin:round;stroke-miterlimit:10.8;paint-order:fill markers stroke"
           d="m 217.18079,33.797733 c 0,-0.323264 -0.12388,-0.434818 -0.2767,-0.434815 -0.15281,3e-6 -0.27669,0.111556 -0.27669,0.434815 0,0.32326 0.12388,0.62294 0.27669,0.622943 0.15282,4e-6 0.2767,-0.299678 0.2767,-0.622943 z"
           sodipodi:nodetypes="sssss" /><path
           id="path172"
           style="display:inline;opacity:1;fill:#292929;fill-opacity:1;stroke-width:1.02432;stroke-linecap:round;stroke-linejoin:round;stroke-miterlimit:10.8;paint-order:fill markers stroke"
           d="m 218.35811,33.797733 c 0,-0.323264 -0.12388,-0.434818 -0.2767,-0.434815 -0.15281,3e-6 -0.27669,0.111556 -0.27669,0.434815 0,0.32326 0.12388,0.62294 0.27669,0.622943 0.15282,4e-6 0.2767,-0.299678 0.2767,-0.622943 z"
           sodipodi:nodetypes="sssss" /></g></g><g
       id="g174"
       transform="translate(0.02934361,0.04925192)"
       style="stroke-width:1.04951"><ellipse
         style="fill:#911008;fill-opacity:1;stroke:none;stroke-width:1.02432;stroke-linecap:round;stroke-linejoin:round;stroke-miterlimit:10.8;stroke-dasharray:none;stroke-opacity:1;paint-order:fill markers stroke"
         id="path173"
         cx="221.41211"
         cy="30.691475"
         rx="0.29270092"
         ry="0.47360003" /><ellipse
         style="fill:#911008;fill-opacity:1;stroke:none;stroke-width:1.02432;stroke-linecap:round;stroke-linejoin:round;stroke-miterlimit:10.8;stroke-dasharray:none;stroke-opacity:1;paint-order:fill markers stroke"
         id="ellipse173"
         cx="221.41211"
         cy="34.003021"
         rx="0.29270092"
         ry="0.47360003" /></g><g
       id="g177"
       transform="translate(0.10270265,-0.23410409)"
       style="display:inline;fill:#cd120e;fill-opacity:1;stroke-width:1.04951"><g
         id="g175"
         transform="matrix(1.6460923,0,0,1.6460923,-151.27786,-20.844229)"
         style="fill:#cd120e;fill-opacity:1;stroke-width:0.637576"><rect
           style="display:inline;fill:#cd120e;fill-opacity:1;stroke:none;stroke-width:0.622273;stroke-linecap:round;stroke-linejoin:round;stroke-miterlimit:10.8;stroke-dasharray:none;stroke-opacity:1;paint-order:fill markers stroke"
           id="rect175"
           width="2.6409256"
           height="1.3204628"
           x="231.88792"
           y="31.353657"
           rx="0.2909494"
           ry="0.2909494" /><ellipse
           style="fill:#cd120e;fill-opacity:1;stroke:none;stroke-width:0.622273;stroke-linecap:round;stroke-linejoin:round;stroke-miterlimit:10.8;stroke-dasharray:none;stroke-opacity:1;paint-order:fill markers stroke"
           id="ellipse175"
           cx="231.88791"
           cy="32.013527"
           rx="0.1295"
           ry="0.259" /></g><g
         id="g178"
         transform="matrix(1.6460923,0,0,1.6460923,-157.42535,-20.844229)"
         style="fill:#cd120e;fill-opacity:1;stroke-width:0.637576"><rect
           style="display:inline;fill:#cd120e;fill-opacity:1;stroke:none;stroke-width:0.622273;stroke-linecap:round;stroke-linejoin:round;stroke-miterlimit:10.8;stroke-dasharray:none;stroke-opacity:1;paint-order:fill markers stroke"
           id="rect177"
           width="2.6409256"
           height="1.3204628"
           x="231.88792"
           y="31.353657"
           rx="0.2909494"
           ry="0.2909494" /><ellipse
           style="fill:#cd120e;fill-opacity:1;stroke:none;stroke-width:0.622273;stroke-linecap:round;stroke-linejoin:round;stroke-miterlimit:10.8;stroke-dasharray:none;stroke-opacity:1;paint-order:fill markers stroke"
           id="ellipse177"
           cx="231.88791"
           cy="32.013527"
           rx="0.1295"
           ry="0.259" /></g></g><g
       id="g182"
       style="display:inline;stroke-width:1.04951"
       transform="translate(-0.00837)"><path
         style="fill:none;fill-opacity:1;stroke:#000000;stroke-width:0.604517;stroke-linecap:round;stroke-linejoin:round;stroke-miterlimit:10.8;stroke-dasharray:none;stroke-opacity:1;paint-order:fill markers stroke"
         d="M 227.10937,28.265625 V 27.6875"
         id="path181"
         sodipodi:nodetypes="cc" /><path
         style="fill:none;fill-opacity:1;stroke:#000000;stroke-width:0.604517;stroke-linecap:round;stroke-linejoin:round;stroke-miterlimit:10.8;stroke-dasharray:none;stroke-opacity:1;paint-order:fill markers stroke"
         d="M 230.92187,28.265625 V 27.6875"
         id="path182"
         sodipodi:nodetypes="cc" /><path
         style="display:inline;opacity:1;fill:none;fill-opacity:1;stroke:#000000;stroke-width:1.02432;stroke-linecap:round;stroke-linejoin:round;stroke-miterlimit:10.8;stroke-dasharray:none;stroke-opacity:1;paint-order:fill markers stroke"
         d="m 224.3125,28.1875 h 1.8125"
         id="path178"
         transform="translate(0.00837)" /><path
         style="display:inline;opacity:1;fill:none;fill-opacity:1;stroke:#000000;stroke-width:1.02432;stroke-linecap:round;stroke-linejoin:round;stroke-miterlimit:10.8;stroke-dasharray:none;stroke-opacity:1;paint-order:fill markers stroke"
         d="m 231.8895,28.1875 h 1.8125"
         id="path179"
         transform="translate(0.00837)" /></g><g
       id="g188"
       style="stroke-width:1.04951"><path
         id="rect188"
         style="display:inline;fill:#980f0b;fill-opacity:1;stroke-width:0.604517;stroke-linecap:round;stroke-linejoin:round;stroke-miterlimit:10.8;paint-order:fill markers stroke"
         d="m 202.57165,31.3335 h 3.9596 c 1.69074,0 1.70736,2.125 0,2.125 h -3.9596 c -0.10894,0 -0.19665,-0.08771 -0.19665,-0.196653 v -1.731694 c 0,-0.108946 0.0877,-0.196653 0.19665,-0.196653 z"
         sodipodi:nodetypes="sssssss"
         inkscape:label="rect188" /><path
         id="path188"
         style="display:inline;fill:#ad110b;fill-opacity:1;stroke-width:0.604517;stroke-linecap:round;stroke-linejoin:round;stroke-miterlimit:10.8;paint-order:fill markers stroke"
         d="m 202.57165,31.3335 h 2.22415 l 2e-4,2.125 h -2.22435 c -0.10894,0 -0.19665,-0.08771 -0.19665,-0.196653 v -1.731694 c 0,-0.108946 0.0877,-0.196653 0.19665,-0.196653 z"
         sodipodi:nodetypes="sccssss" /></g><g
       id="g193"
       transform="translate(0,-0.07949315)"
       style="stroke-width:1.04951"><g
         id="g190"
         transform="matrix(1,0,0,0.68945574,0,7.1008225)"
         style="display:inline;opacity:1;stroke-width:1.26395"><path
           id="path189"
           style="display:inline;fill:#980e0b;fill-opacity:1;stroke-width:0.72804;stroke-linecap:round;stroke-linejoin:round;stroke-miterlimit:10.8;paint-order:fill markers stroke"
           d="m 202.57165,31.3335 h 3.9596 c 1.69074,0 1.70736,2.125 0,2.125 h -3.9596 c -0.10894,0 -0.19665,-0.08771 -0.19665,-0.196653 v -1.731694 c 0,-0.108946 0.0877,-0.196653 0.19665,-0.196653 z"
           sodipodi:nodetypes="sssssss"
           inkscape:label="rect188" /><path
           id="path190"
           style="display:inline;fill:#ad110b;fill-opacity:1;stroke-width:0.72804;stroke-linecap:round;stroke-linejoin:round;stroke-miterlimit:10.8;paint-order:fill markers stroke"
           d="m 202.57165,31.3335 h 2.22415 l 2e-4,2.125 h -2.22435 c -0.10894,0 -0.19665,-0.08771 -0.19665,-0.196653 v -1.731694 c 0,-0.108946 0.0877,-0.196653 0.19665,-0.196653 z"
           sodipodi:nodetypes="sccssss" /></g><g
         id="g195"
         transform="translate(0,6.078125)"
         style="display:inline;opacity:1;stroke-width:1.04951"><g
           id="g194"
           transform="matrix(1,0,0,0.68945574,0,7.1008225)"
           style="display:inline;opacity:1;stroke-width:1.26395"><path
             id="path193"
             style="display:inline;fill:#990e0a;fill-opacity:1;stroke-width:0.72804;stroke-linecap:round;stroke-linejoin:round;stroke-miterlimit:10.8;paint-order:fill markers stroke"
             d="m 202.57165,31.3335 h 3.9596 c 1.69074,0 1.70736,2.125 0,2.125 h -3.9596 c -0.10894,0 -0.19665,-0.08771 -0.19665,-0.196653 v -1.731694 c 0,-0.108946 0.0877,-0.196653 0.19665,-0.196653 z"
             sodipodi:nodetypes="sssssss"
             inkscape:label="rect188" /><path
             id="path194"
             style="display:inline;fill:#ad110b;fill-opacity:1;stroke-width:0.72804;stroke-linecap:round;stroke-linejoin:round;stroke-miterlimit:10.8;paint-order:fill markers stroke"
             d="m 202.57165,31.3335 h 2.22415 l 2e-4,2.125 h -2.22435 c -0.10894,0 -0.19665,-0.08771 -0.19665,-0.196653 v -1.731694 c 0,-0.108946 0.0877,-0.196653 0.19665,-0.196653 z"
             sodipodi:nodetypes="sccssss" /></g></g></g></g></svg>
