<?xml version="1.0" encoding="UTF-8"?>
<svg version="1.1" xmlns="http://www.w3.org/2000/svg" width="72" height="49">
<path d="M0 0 C23.76 0 47.52 0 72 0 C72 16.17 72 32.34 72 49 C48.24 49 24.48 49 0 49 C0 32.83 0 16.66 0 0 Z " fill="#DD01FC" transform="translate(0,0)"/>
<path d="M0 0 C23.76 0 47.52 0 72 0 C72 16.17 72 32.34 72 49 C48.24 49 24.48 49 0 49 C0 32.83 0 16.66 0 0 Z M3 3 C3 13.89 3 24.78 3 36 C3.99 36 4.98 36 6 36 C6.78688445 33.22276075 7.11949924 30.77389923 7.09765625 27.890625 C7.09443359 27.13652344 7.09121094 26.38242187 7.08789062 25.60546875 C7.07951172 24.82816406 7.07113281 24.05085938 7.0625 23.25 C7.05573242 22.06083984 7.05573242 22.06083984 7.04882812 20.84765625 C7.03708565 18.89840492 7.01915146 16.94919262 7 15 C7.99 14.67 8.98 14.34 10 14 C10 13.34 10 12.68 10 12 C8.68 11.34 7.36 10.68 6 10 C6 8.68 6 7.36 6 6 C7.65 6.33 9.3 6.66 11 7 C11 8.98 11 10.96 11 13 C11.66 13 12.32 13 13 13 C13.495 12.34 13.99 11.68 14.5 11 C14.995 10.34 15.49 9.68 16 9 C16.66 9 17.32 9 18 9 C18.33 9.66 18.66 10.32 19 11 C17.35 11.66 15.7 12.32 14 13 C14.33 13.66 14.66 14.32 15 15 C16.65 14.67 18.3 14.34 20 14 C19.67 14.66 19.34 15.32 19 16 C18.92966231 17.87379605 18.9156978 19.75001102 18.9375 21.625 C18.95103516 23.12933594 18.95103516 23.12933594 18.96484375 24.6640625 C18.97644531 25.43492188 18.98804688 26.20578125 19 27 C21.27216848 25.16262173 21.27216848 25.16262173 21.1953125 22.3984375 C21.17210938 21.40070312 21.14890625 20.40296875 21.125 19.375 C21.08375 17.60125 21.0425 15.8275 21 14 C25.95 14 30.9 14 36 14 C36 15.32 36 16.64 36 18 C32.7 18 29.4 18 26 18 C26 19.32 26 20.64 26 22 C26.95712891 22.09087891 26.95712891 22.09087891 27.93359375 22.18359375 C28.75988281 22.26738281 29.58617188 22.35117187 30.4375 22.4375 C31.67306641 22.55931641 31.67306641 22.55931641 32.93359375 22.68359375 C35 23 35 23 36 24 C36.07205511 25.68608966 36.08386068 27.37500659 36.0625 29.0625 C36.05347656 29.98160156 36.04445312 30.90070312 36.03515625 31.84765625 C36.02355469 32.55792969 36.01195312 33.26820312 36 34 C34.85402344 33.98839844 33.70804688 33.97679688 32.52734375 33.96484375 C30.99739748 33.95545758 29.46744942 33.94635827 27.9375 33.9375 C27.18533203 33.92912109 26.43316406 33.92074219 25.65820312 33.91210938 C20.99366882 33.89191659 16.60076827 34.22404041 12 35 C12 35.66 12 36.32 12 37 C12.99 37.33 13.98 37.66 15 38 C14.75 40.3125 14.75 40.3125 14 43 C12.68 43.99 11.36 44.98 10 46 C29.47 46 48.94 46 69 46 C69 31.81 69 17.62 69 3 C47.22 3 25.44 3 3 3 Z " fill="#DC01FB" transform="translate(0,0)"/>
<path d="M0 0 C17.49 0 34.98 0 53 0 C53 14.19 53 28.38 53 43 C50.69 43 48.38 43 46 43 C45.26919734 41.02253397 44.60578253 39.01927511 44 37 C44.495 36.01 44.495 36.01 45 35 C43.68 35 42.36 35 41 35 C40.01 35 39.02 35 38 35 C38 34.01 38 33.02 38 32 C35.36 32 32.72 32 30 32 C30.68936071 28.08878502 31.78250181 24.44491404 33.0625 20.6875 C33.60583984 19.08455078 33.60583984 19.08455078 34.16015625 17.44921875 C34.43730469 16.64097656 34.71445312 15.83273438 35 15 C31.37 15 27.74 15 24 15 C24 13.68 24 12.36 24 11 C33.9 10.505 33.9 10.505 44 10 C44 10.66 44 11.32 44 12 C44.66 12 45.32 12 46 12 C45.505 10.02 45.505 10.02 45 8 C44.34 8.33 43.68 8.66 43 9 C42.01 6.69 41.02 4.38 40 2 C20.2 1.505 20.2 1.505 0 1 C0 0.67 0 0.34 0 0 Z " fill="#DC01FB" transform="translate(16,3)"/>
<path d="M0 0 C23.76 0 47.52 0 72 0 C72 16.17 72 32.34 72 49 C48.24 49 24.48 49 0 49 C0 32.83 0 16.66 0 0 Z M3 3 C3 17.19 3 31.38 3 46 C24.78 46 46.56 46 69 46 C69 31.81 69 17.62 69 3 C47.22 3 25.44 3 3 3 Z " fill="#540361" transform="translate(0,0)"/>
<path d="M0 0 C4.95 0 9.9 0 15 0 C15 1.32 15 2.64 15 4 C11.7 4 8.4 4 5 4 C5 5.32 5 6.64 5 8 C5.62648438 7.97679687 6.25296875 7.95359375 6.8984375 7.9296875 C7.71570313 7.91164063 8.53296875 7.89359375 9.375 7.875 C10.18710937 7.85179687 10.99921875 7.82859375 11.8359375 7.8046875 C14 8 14 8 16 10 C16.23046875 12.34765625 16.23046875 12.34765625 16.1875 15.0625 C16.18105469 15.96097656 16.17460938 16.85945313 16.16796875 17.78515625 C16 20 16 20 15 21 C12.4672235 21.07320163 9.96896082 21.09227569 7.4375 21.0625 C4.983125 21.041875 2.52875 21.02125 0 21 C0 14.07 0 7.14 0 0 Z " fill="#650274" transform="translate(21,14)"/>
<path d="M0 0 C0 15.51 0 31.02 0 47 C-0.99 47.33 -1.98 47.66 -3 48 C-3.66 47.34 -4.32 46.68 -5 46 C-4.34 46 -3.68 46 -3 46 C-3 31.81 -3 17.62 -3 3 C-20.49 2.67 -37.98 2.34 -56 2 C-56 1.67 -56 1.34 -56 1 C-50.27495579 0.85535435 -44.54985964 0.71304353 -38.82470703 0.57275391 C-36.88328544 0.52486915 -34.94187859 0.47638269 -33.00048828 0.42724609 C-30.18525947 0.35610313 -27.36998206 0.2872361 -24.5546875 0.21875 C-23.70824677 0.19687622 -22.86180603 0.17500244 -21.98971558 0.15246582 C-14.65344169 -0.0224273 -7.34579919 0 0 0 Z " fill="#470253" transform="translate(72,0)"/>
<path d="M0 0 C5.94 0 11.88 0 18 0 C18 5.6878385 17.73774933 8.71213197 16.0625 13.875 C15.70285156 15.00679687 15.34320313 16.13859375 14.97265625 17.3046875 C14 20 14 20 13 21 C10.66702567 21.04092937 8.33294775 21.04241723 6 21 C6.68936071 17.08878502 7.78250181 13.44491404 9.0625 9.6875 C9.42472656 8.61886719 9.78695312 7.55023438 10.16015625 6.44921875 C10.43730469 5.64097656 10.71445312 4.83273438 11 4 C7.37 4 3.74 4 0 4 C0 2.68 0 1.36 0 0 Z " fill="#650275" transform="translate(40,14)"/>
<path d="M0 0 C19.14 0 38.28 0 58 0 C58 0.33 58 0.66 58 1 C60.97 1.33 63.94 1.66 67 2 C67 2.33 67 2.66 67 3 C45.88 3 24.76 3 3 3 C3 4.65 3 6.3 3 8 C2.34 8 1.68 8 1 8 C1 9.65 1 11.3 1 13 C0.67 13 0.34 13 0 13 C0 8.71 0 4.42 0 0 Z " fill="#570463" transform="translate(0,0)"/>
<path d="M0 0 C17.49 0 34.98 0 53 0 C53 3.3 53 6.6 53 10 C50.69 10.66 48.38 11.32 46 12 C45.505 10.02 45.505 10.02 45 8 C44.34 8.33 43.68 8.66 43 9 C42.01 6.69 41.02 4.38 40 2 C20.2 1.505 20.2 1.505 0 1 C0 0.67 0 0.34 0 0 Z " fill="#DA02F8" transform="translate(16,3)"/>
<path d="M0 0 C0.66 0 1.32 0 2 0 C2 12.54 2 25.08 2 38 C3.65 38.33 5.3 38.66 7 39 C6.67 39.66 6.34 40.32 6 41 C3.69 41 1.38 41 -1 41 C-1.02477487 35.96460323 -1.04289549 30.92924219 -1.05493164 25.89379883 C-1.05995099 24.18187848 -1.06676785 22.46996239 -1.07543945 20.75805664 C-1.08761021 18.29312078 -1.09325238 15.82824175 -1.09765625 13.36328125 C-1.10281754 12.60163162 -1.10797882 11.83998199 -1.11329651 11.05525208 C-1.11369638 7.24150175 -0.92590961 3.70684229 0 0 Z " fill="#470352" transform="translate(1,8)"/>
<path d="M0 0 C2.50357861 0.8345262 4.66785852 1.79371992 7 3 C7 3.66 7 4.32 7 5 C7.99 4.67 8.98 4.34 10 4 C10.86325845 6.41712366 11.1132654 7.64990694 10.3125 10.125 C8.67684604 12.46164852 7.71902246 13.11815488 5 14 C2.66796188 14.0777346 0.33160941 14.08967728 -2 14 C-2 10.7 -2 7.4 -2 4 C-1.01 4 -0.02 4 1 4 C0.67 2.68 0.34 1.36 0 0 Z " fill="#DB03F8" transform="translate(5,32)"/>
<path d="M0 0 C4.95 0 9.9 0 15 0 C15 1.32 15 2.64 15 4 C11.7 4 8.4 4 5 4 C5.37125 5.11375 5.37125 5.11375 5.75 6.25 C5.8325 7.1575 5.915 8.065 6 9 C4.0625 11.3125 4.0625 11.3125 2 13 C2.33 13.99 2.66 14.98 3 16 C2.01 16 1.02 16 0 16 C0 10.72 0 5.44 0 0 Z " fill="#660175" transform="translate(21,14)"/>
<path d="M0 0 C1.65 0 3.3 0 5 0 C5 6.6 5 13.2 5 20 C4.01 20.33 3.02 20.66 2 21 C1 20 1 20 0.90234375 16.18359375 C0.90901911 14.60153318 0.92098125 13.01948841 0.9375 11.4375 C0.94201172 10.63119141 0.94652344 9.82488281 0.95117188 8.99414062 C0.96299482 6.99606244 0.98093086 4.99802217 1 3 C0.34 3 -0.32 3 -1 3 C-0.67 2.01 -0.34 1.02 0 0 Z " fill="#DC01FC" transform="translate(64,13)"/>
<path d="M0 0 C1.32 0.66 2.64 1.32 4 2 C3.67 3.65 3.34 5.3 3 7 C1.35 6.67 -0.3 6.34 -2 6 C-2.33 5.01 -2.66 4.02 -3 3 C-2.01 2.01 -1.02 1.02 0 0 Z " fill="#9203A6" transform="translate(63,37)"/>
<path d="M0 0 C0.99 0.33 1.98 0.66 3 1 C3.8125 2.9375 3.8125 2.9375 4 5 C3.34 5.66 2.68 6.32 2 7 C-0.625 6.625 -0.625 6.625 -3 6 C-2.625 3.5625 -2.625 3.5625 -2 1 C-1.34 0.67 -0.68 0.34 0 0 Z " fill="#9203A6" transform="translate(8,37)"/>
<path d="M0 0 C1.65 0.33 3.3 0.66 5 1 C5.33 1.99 5.66 2.98 6 4 C5.01 4.99 4.02 5.98 3 7 C1.68 6.34 0.36 5.68 -1 5 C-0.67 3.35 -0.34 1.7 0 0 Z " fill="#9103A4" transform="translate(6,5)"/>
<path d="M0 0 C1.65 0.33 3.3 0.66 5 1 C4.67 2.65 4.34 4.3 4 6 C3.01 6.33 2.02 6.66 1 7 C0.01 6.01 -0.98 5.02 -2 4 C-1.34 2.68 -0.68 1.36 0 0 Z " fill="#9004A4" transform="translate(62,5)"/>
<path d="M0 0 C1.98 0 3.96 0 6 0 C6 1.65 6 3.3 6 5 C4.02 5 2.04 5 0 5 C0 3.35 0 1.7 0 0 Z " fill="#DD01FA" transform="translate(26,26)"/>
<path d="M0 0 C1.65 0 3.3 0 5 0 C5 1.32 5 2.64 5 4 C3.35 4 1.7 4 0 4 C0 2.68 0 1.36 0 0 Z " fill="#670277" transform="translate(13,31)"/>
<path d="M0 0 C0.66 0.33 1.32 0.66 2 1 C1.835 1.598125 1.67 2.19625 1.5 2.8125 C0.8885876 5.11344336 0.8885876 5.11344336 1 8 C-1.2477975 5.94766315 -2.0022242 4.99332739 -3 2 C-2.01 1.34 -1.02 0.68 0 0 Z " fill="#D705F5" transform="translate(60,37)"/>
</svg>
