<?xml version="1.0" encoding="UTF-8"?>
<svg xmlns="http://www.w3.org/2000/svg" xmlns:xlink="http://www.w3.org/1999/xlink" width="65px" height="38px" viewBox="0 0 65 38" version="1.1">
<g id="surface1">
<path style=" stroke:none;fill-rule:nonzero;fill:rgb(1.176471%,1.176471%,1.176471%);fill-opacity:1;" d="M 44.761719 2.027344 C 45.132812 2.179688 45.132812 2.179688 45.515625 2.339844 C 51.40625 4.804688 56.949219 8.578125 61.933594 13.332031 C 62.332031 13.703125 62.332031 13.703125 62.738281 14.085938 C 63.851562 15.191406 64.507812 15.863281 65.019531 17.585938 C 65 18.746094 65 18.746094 64.269531 19.917969 C 63.867188 20.375 63.460938 20.828125 63.054688 21.28125 C 62.839844 21.558594 62.625 21.839844 62.402344 22.128906 C 53.679688 33.121094 41.957031 38.269531 30.058594 38.105469 C 20.957031 37.820312 12.425781 31.992188 5.3125 24.953125 C 4.886719 24.53125 4.457031 24.113281 4.023438 23.699219 C 3.414062 23.113281 2.8125 22.511719 2.214844 21.914062 C 1.871094 21.570312 1.527344 21.230469 1.171875 20.875 C 0.210938 19.507812 0.105469 18.539062 0 16.71875 C 11.777344 3.007812 29.34375 -4.65625 44.761719 2.027344 Z M 44.761719 2.027344 "/>
<path style=" stroke:none;fill-rule:nonzero;fill:rgb(16.078432%,16.078432%,54.901963%);fill-opacity:1;" d="M 26.855469 3.039062 C 28.519531 3.011719 30.179688 2.992188 31.84375 2.976562 C 32.542969 2.964844 32.542969 2.964844 33.253906 2.949219 C 40.359375 2.902344 40.359375 2.902344 42.691406 4.988281 C 43.414062 6.175781 44.109375 7.359375 44.761719 8.613281 C 45.027344 9.097656 45.027344 9.097656 45.296875 9.589844 C 47.09375 13.652344 46.851562 19.847656 46.046875 24.292969 C 45.6875 25.417969 45.285156 26.355469 44.761719 27.359375 C 44.5 27.921875 44.5 27.921875 44.234375 28.492188 C 43.355469 30.214844 42.691406 31.242188 41.257812 32.171875 C 40.566406 32.328125 40.566406 32.328125 39.699219 32.425781 C 39.308594 32.484375 38.914062 32.542969 38.507812 32.601562 C 34.367188 32.933594 31.078125 31.375 27.910156 27.902344 C 24.988281 23.863281 24 19.0625 24.046875 13.632812 C 24.265625 9.847656 25.34375 6.734375 26.855469 3.546875 C 26.855469 3.378906 26.855469 3.210938 26.855469 3.039062 Z M 26.855469 3.039062 "/>
<path style=" stroke:none;fill-rule:nonzero;fill:rgb(53.333336%,49.411765%,15.686275%);fill-opacity:1;" d="M 27.246094 3.546875 C 27.113281 3.871094 26.984375 4.195312 26.847656 4.53125 C 24.773438 9.769531 23.78125 14.488281 24.957031 20.328125 C 26.207031 25.074219 28.175781 27.988281 31.527344 30.398438 C 31.9375 30.714844 32.347656 31.027344 32.769531 31.351562 C 35.765625 32.5 38.988281 32.160156 42.035156 31.414062 C 40.539062 33.726562 39.21875 34.515625 36.976562 34.960938 C 35.410156 35.097656 33.851562 35.101562 32.28125 35.085938 C 31.667969 35.09375 31.667969 35.09375 31.042969 35.097656 C 27.257812 35.085938 25.03125 34.46875 22.21875 31.015625 C 18.960938 26.507812 18.390625 21.453125 18.507812 15.472656 C 18.714844 11.453125 20.160156 8.171875 22.210938 5.226562 C 23.917969 3.472656 25.148438 3.539062 27.246094 3.546875 Z M 27.246094 3.546875 "/>
<path style=" stroke:none;fill-rule:nonzero;fill:rgb(73.725492%,73.725492%,73.725492%);fill-opacity:1;" d="M 19.070312 5.574219 C 19.070312 7.671875 18.347656 8.992188 17.589844 10.808594 C 16.0625 15.265625 16.3125 20.757812 17.589844 25.238281 C 18.429688 27.816406 19.414062 30.121094 20.628906 32.425781 C 15.886719 30.695312 11.75 27.390625 7.734375 23.75 C 7.460938 23.5 7.183594 23.253906 6.898438 22.996094 C 5.230469 21.445312 3.96875 19.859375 2.722656 17.734375 C 7.351562 12.417969 13.210938 8.117188 19.070312 5.574219 Z M 19.070312 5.574219 "/>
<path style=" stroke:none;fill-rule:nonzero;fill:rgb(73.725492%,73.725492%,73.725492%);fill-opacity:1;" d="M 45.929688 6.078125 C 48.617188 7.007812 51.019531 8.230469 53.46875 9.941406 C 53.945312 10.273438 53.945312 10.273438 54.433594 10.613281 C 57.0625 12.476562 59.730469 14.488281 61.886719 17.226562 C 61.886719 18.746094 61.886719 18.746094 61.378906 19.566406 C 56.789062 24.960938 50.976562 29.695312 45.148438 32.425781 C 44.894531 32.257812 44.636719 32.09375 44.371094 31.921875 C 44.597656 31.523438 44.597656 31.523438 44.828125 31.117188 C 47.566406 26.078125 48.75 21.40625 48.261719 15.199219 C 47.835938 12.21875 47.246094 9.621094 45.929688 7.09375 C 45.929688 6.757812 45.929688 6.425781 45.929688 6.078125 Z M 45.929688 6.078125 "/>
<path style=" stroke:none;fill-rule:nonzero;fill:rgb(41.568628%,38.82353%,12.54902%);fill-opacity:1;" d="M 21.40625 29.386719 C 22.175781 29.457031 22.949219 29.53125 23.71875 29.609375 C 24.148438 29.648438 24.574219 29.691406 25.019531 29.734375 C 26.078125 29.894531 26.078125 29.894531 26.46875 30.398438 C 27.261719 30.398438 28.058594 30.371094 28.851562 30.335938 C 30.453125 30.3125 31.382812 30.320312 32.863281 31.160156 C 35.695312 32.710938 39.070312 32.140625 42.035156 31.414062 C 40.539062 33.726562 39.21875 34.515625 36.976562 34.960938 C 35.410156 35.097656 33.851562 35.101562 32.28125 35.085938 C 31.667969 35.09375 31.667969 35.09375 31.042969 35.097656 C 27.804688 35.089844 25.449219 34.902344 22.988281 31.886719 C 22.6875 31.527344 22.386719 31.164062 22.078125 30.792969 C 21.40625 29.894531 21.40625 29.894531 21.40625 29.386719 Z M 21.40625 29.386719 "/>
<path style=" stroke:none;fill-rule:nonzero;fill:rgb(41.176471%,65.490198%,77.64706%);fill-opacity:1;" d="M 32.304688 6.585938 C 32.433594 6.585938 32.5625 6.585938 32.695312 6.585938 C 33.199219 9.503906 33.574219 12.203125 33.472656 15.199219 C 33.71875 15.296875 33.960938 15.394531 34.210938 15.496094 C 34.53125 15.628906 34.847656 15.761719 35.175781 15.898438 C 35.492188 16.027344 35.808594 16.15625 36.132812 16.289062 C 36.976562 16.71875 36.976562 16.71875 37.753906 17.734375 C 37.1875 18.074219 36.621094 18.410156 36.050781 18.746094 C 35.734375 18.933594 35.417969 19.121094 35.09375 19.316406 C 34.25 19.761719 34.25 19.761719 33.472656 19.761719 C 33.453125 20.21875 33.433594 20.675781 33.414062 21.148438 C 33.386719 21.746094 33.355469 22.34375 33.328125 22.957031 C 33.300781 23.550781 33.273438 24.144531 33.246094 24.757812 C 33.082031 26.347656 33.082031 26.347656 32.304688 27.867188 C 31.765625 25.101562 31.433594 22.613281 31.527344 19.761719 C 31.28125 19.660156 31.039062 19.5625 30.789062 19.464844 C 30.46875 19.332031 30.152344 19.199219 29.824219 19.0625 C 29.507812 18.933594 29.191406 18.804688 28.867188 18.671875 C 28.023438 18.238281 28.023438 18.238281 27.246094 17.226562 C 27.8125 16.886719 28.378906 16.550781 28.949219 16.214844 C 29.265625 16.023438 29.582031 15.835938 29.90625 15.644531 C 30.75 15.199219 30.75 15.199219 31.527344 15.199219 C 31.550781 14.707031 31.574219 14.210938 31.597656 13.703125 C 31.632812 13.058594 31.664062 12.414062 31.695312 11.75 C 31.730469 11.109375 31.761719 10.46875 31.792969 9.808594 C 31.917969 8.105469 31.917969 8.105469 32.304688 6.585938 Z M 32.304688 6.585938 "/>
<path style=" stroke:none;fill-rule:nonzero;fill:rgb(57.254905%,57.254905%,57.254905%);fill-opacity:1;" d="M 58.773438 20.773438 C 59.03125 20.941406 59.285156 21.109375 59.550781 21.28125 C 55.371094 25.867188 50.320312 30.019531 45.148438 32.425781 C 44.894531 32.257812 44.636719 32.09375 44.371094 31.921875 C 44.742188 31.179688 45.117188 30.441406 45.492188 29.703125 C 45.699219 29.292969 45.90625 28.878906 46.121094 28.457031 C 46.707031 27.359375 46.707031 27.359375 47.484375 26.347656 C 47.484375 26.679688 47.484375 27.015625 47.484375 27.359375 C 51.113281 25.703125 54.480469 23.925781 57.808594 21.394531 C 58.125 21.1875 58.445312 20.984375 58.773438 20.773438 Z M 58.773438 20.773438 "/>
<path style=" stroke:none;fill-rule:nonzero;fill:rgb(56.862748%,56.862748%,56.862748%);fill-opacity:1;" d="M 5.058594 20.773438 C 6.886719 21.082031 8.367188 22.109375 9.972656 23.210938 C 12.429688 24.859375 14.878906 26.253906 17.515625 27.359375 C 17.644531 27.027344 17.773438 26.691406 17.902344 26.347656 C 18.285156 27.167969 18.667969 27.992188 19.046875 28.816406 C 19.257812 29.273438 19.472656 29.734375 19.691406 30.207031 C 20.019531 30.933594 20.339844 31.671875 20.628906 32.425781 C 14.886719 30.328125 9.796875 25.890625 5.058594 21.28125 C 5.058594 21.113281 5.058594 20.945312 5.058594 20.773438 Z M 5.058594 20.773438 "/>
<path style=" stroke:none;fill-rule:nonzero;fill:rgb(41.960785%,66.666669%,78.431374%);fill-opacity:1;" d="M 33.082031 11.652344 C 33.210938 11.652344 33.339844 11.652344 33.472656 11.652344 C 33.472656 12.824219 33.472656 13.992188 33.472656 15.199219 C 33.71875 15.296875 33.960938 15.394531 34.210938 15.496094 C 34.6875 15.695312 34.6875 15.695312 35.175781 15.898438 C 35.492188 16.027344 35.808594 16.15625 36.132812 16.289062 C 36.976562 16.71875 36.976562 16.71875 37.753906 17.734375 C 37.1875 18.074219 36.621094 18.410156 36.050781 18.746094 C 35.578125 19.027344 35.578125 19.027344 35.09375 19.316406 C 34.25 19.761719 34.25 19.761719 33.472656 19.761719 C 33.472656 20.929688 33.472656 22.101562 33.472656 23.308594 C 33.34375 22.972656 33.214844 22.636719 33.082031 22.292969 C 32.828125 22.292969 32.570312 22.292969 32.304688 22.292969 C 32.257812 21.320312 32.257812 21.320312 32.207031 20.328125 C 32.125 19.226562 32.125 19.226562 31.917969 18.238281 C 31.167969 17.433594 31.167969 17.433594 30.359375 17.226562 C 30.875 17.058594 31.386719 16.890625 31.917969 16.71875 C 32.042969 15.382812 32.171875 14.042969 32.304688 12.667969 C 32.5625 12.667969 32.820312 12.667969 33.082031 12.667969 C 33.082031 12.332031 33.082031 11.996094 33.082031 11.652344 Z M 33.082031 11.652344 "/>
<path style=" stroke:none;fill-rule:nonzero;fill:rgb(16.470589%,19.215687%,63.529414%);fill-opacity:1;" d="M 36.976562 17.734375 C 37.46875 19.011719 37.445312 19.859375 37.367188 21.28125 C 36.980469 22.03125 36.980469 22.03125 36.585938 22.800781 C 36.457031 23.300781 36.328125 23.804688 36.199219 24.320312 C 35.476562 25.246094 35.476562 25.246094 34.617188 26.1875 C 34.332031 26.503906 34.046875 26.820312 33.75 27.144531 C 33.421875 27.5 33.421875 27.5 33.082031 27.867188 C 32.394531 25.175781 32.757812 22.40625 33.472656 19.761719 C 34.558594 18.613281 35.621094 18.121094 36.976562 17.734375 Z M 36.976562 17.734375 "/>
<path style=" stroke:none;fill-rule:nonzero;fill:rgb(16.470589%,19.215687%,64.705884%);fill-opacity:1;" d="M 31.917969 8.105469 C 31.789062 10.449219 31.660156 12.789062 31.527344 15.199219 C 30.242188 15.867188 28.957031 16.539062 27.632812 17.226562 C 27.335938 14.167969 27.988281 12.609375 29.308594 10.089844 C 30 9.074219 30.804688 8.105469 31.917969 8.105469 Z M 31.917969 8.105469 "/>
<path style=" stroke:none;fill-rule:nonzero;fill:rgb(16.862746%,21.176471%,68.627453%);fill-opacity:1;" d="M 32.695312 8.105469 C 33.65625 8.609375 33.65625 8.609375 34.640625 9.121094 C 34.910156 10.164062 34.910156 10.164062 35.03125 11.148438 C 35.285156 11.3125 35.542969 11.480469 35.808594 11.652344 C 36.585938 13.171875 36.585938 13.171875 36.585938 14.691406 C 36.84375 14.691406 37.101562 14.691406 37.367188 14.691406 C 37.367188 15.53125 37.367188 16.367188 37.367188 17.226562 C 35.4375 16.222656 35.4375 16.222656 33.472656 15.199219 C 33.214844 12.859375 32.960938 10.519531 32.695312 8.105469 Z M 32.695312 8.105469 "/>
<path style=" stroke:none;fill-rule:nonzero;fill:rgb(13.725491%,13.333334%,42.745098%);fill-opacity:1;" d="M 43.59375 29.894531 C 42.566406 31.621094 41.300781 32.121094 39.699219 32.425781 C 34.554688 32.804688 34.554688 32.804688 32.304688 31.414062 C 32.304688 31.246094 32.304688 31.078125 32.304688 30.90625 C 33.96875 30.636719 35.628906 30.375 37.292969 30.113281 C 37.765625 30.039062 38.238281 29.960938 38.726562 29.882812 C 39.179688 29.8125 39.632812 29.742188 40.097656 29.667969 C 40.722656 29.570312 40.722656 29.570312 41.363281 29.46875 C 42.425781 29.386719 42.425781 29.386719 43.59375 29.894531 Z M 43.59375 29.894531 "/>
<path style=" stroke:none;fill-rule:nonzero;fill:rgb(16.862746%,23.137255%,75.294119%);fill-opacity:1;" d="M 35.808594 18.746094 C 35.929688 20.363281 35.929688 20.363281 35.808594 22.292969 C 34.960938 23.625 34.273438 24.558594 33.082031 25.332031 C 33.105469 24.425781 33.140625 23.515625 33.179688 22.609375 C 33.199219 22.105469 33.21875 21.597656 33.234375 21.078125 C 33.472656 19.761719 33.472656 19.761719 34.222656 19.074219 C 35.03125 18.746094 35.03125 18.746094 35.808594 18.746094 Z M 35.808594 18.746094 "/>
<path style=" stroke:none;fill-rule:nonzero;fill:rgb(60.392159%,74.117649%,86.274511%);fill-opacity:1;" d="M 32.304688 12.667969 C 32.992188 14.230469 33.082031 14.8125 33.082031 16.71875 C 33.597656 17.054688 34.113281 17.390625 34.640625 17.734375 C 34.125 17.902344 33.613281 18.066406 33.082031 18.238281 C 32.957031 19.578125 32.828125 20.914062 32.695312 22.292969 C 32.566406 22.292969 32.4375 22.292969 32.304688 22.292969 C 32.257812 21.320312 32.257812 21.320312 32.207031 20.328125 C 32.125 19.226562 32.125 19.226562 31.917969 18.238281 C 31.167969 17.433594 31.167969 17.433594 30.359375 17.226562 C 30.875 17.058594 31.386719 16.890625 31.917969 16.71875 C 32.042969 15.382812 32.171875 14.042969 32.304688 12.667969 Z M 32.304688 12.667969 "/>
<path style=" stroke:none;fill-rule:nonzero;fill:rgb(18.039216%,26.274511%,79.607844%);fill-opacity:1;" d="M 31.917969 10.132812 C 31.789062 11.804688 31.660156 13.476562 31.527344 15.199219 C 30.757812 15.535156 29.984375 15.867188 29.191406 16.214844 C 29.023438 13.558594 29.023438 13.558594 29.191406 12.160156 C 30.671875 10.132812 30.671875 10.132812 31.917969 10.132812 Z M 31.917969 10.132812 "/>
<path style=" stroke:none;fill-rule:nonzero;fill:rgb(18.431373%,27.843139%,81.960785%);fill-opacity:1;" d="M 29.191406 18.746094 C 29.960938 19.082031 30.734375 19.414062 31.527344 19.761719 C 31.65625 21.265625 31.785156 22.769531 31.917969 24.320312 C 30.644531 23.40625 30.011719 22.882812 29.191406 21.28125 C 29.144531 19.917969 29.144531 19.917969 29.191406 18.746094 Z M 29.191406 18.746094 "/>
<path style=" stroke:none;fill-rule:nonzero;fill:rgb(44.313726%,41.176471%,12.54902%);fill-opacity:1;" d="M 23.351562 22.800781 C 24.179688 22.988281 24.179688 22.988281 24.910156 23.308594 C 25.128906 24.289062 25.128906 24.289062 25.300781 25.332031 C 24.910156 25.839844 24.910156 25.839844 23.914062 25.871094 C 23.441406 25.855469 23.441406 25.855469 22.964844 25.839844 C 22.722656 24.890625 22.722656 24.890625 22.574219 23.8125 C 22.832031 23.480469 23.089844 23.144531 23.351562 22.800781 Z M 23.351562 22.800781 "/>
<path style=" stroke:none;fill-rule:nonzero;fill:rgb(19.215687%,29.411766%,83.92157%);fill-opacity:1;" d="M 33.082031 10.640625 C 34.25 11.148438 34.25 11.148438 34.933594 12.570312 C 35.414062 14.167969 35.527344 14.679688 35.03125 16.214844 C 34.269531 15.851562 34.269531 15.851562 33.472656 15.199219 C 33.234375 14.105469 33.234375 14.105469 33.179688 12.855469 C 33.160156 12.441406 33.136719 12.027344 33.113281 11.601562 C 33.105469 11.285156 33.09375 10.96875 33.082031 10.640625 Z M 33.082031 10.640625 "/>
<path style=" stroke:none;fill-rule:nonzero;fill:rgb(43.921569%,40.784314%,12.54902%);fill-opacity:1;" d="M 21.796875 10.640625 C 22.4375 10.808594 23.082031 10.972656 23.742188 11.148438 C 23.613281 11.984375 23.484375 12.820312 23.351562 13.679688 C 22.710938 13.511719 22.070312 13.34375 21.40625 13.171875 C 21.535156 12.335938 21.664062 11.5 21.796875 10.640625 Z M 21.796875 10.640625 "/>
<path style=" stroke:none;fill-rule:nonzero;fill:rgb(16.862746%,21.176471%,69.01961%);fill-opacity:1;" d="M 27.632812 17.734375 C 28.363281 18.050781 28.363281 18.050781 29.191406 18.746094 C 29.464844 19.753906 29.722656 20.765625 29.96875 21.785156 C 30.753906 23.210938 30.753906 23.210938 31.527344 24.320312 C 30.683594 24.0625 29.96875 23.8125 29.191406 23.308594 C 28.773438 22.296875 28.773438 22.296875 28.363281 21.058594 C 28.226562 20.652344 28.089844 20.246094 27.949219 19.824219 C 27.632812 18.746094 27.632812 18.746094 27.632812 17.734375 Z M 27.632812 17.734375 "/>
<path style=" stroke:none;fill-rule:nonzero;fill:rgb(34.509805%,32.156864%,9.803922%);fill-opacity:1;" d="M 29.191406 31.414062 C 30.15625 31.664062 30.15625 31.664062 31.136719 31.921875 C 31.007812 32.589844 30.878906 33.257812 30.75 33.945312 C 30.234375 33.78125 29.722656 33.613281 29.191406 33.441406 C 29.191406 32.769531 29.191406 32.101562 29.191406 31.414062 Z M 29.191406 31.414062 "/>
<path style=" stroke:none;fill-rule:nonzero;fill:rgb(43.529412%,40.392157%,12.54902%);fill-opacity:1;" d="M 19.851562 17.734375 C 20.363281 17.734375 20.878906 17.734375 21.40625 17.734375 C 21.277344 18.570312 21.148438 19.40625 21.019531 20.265625 C 20.503906 20.097656 19.992188 19.933594 19.460938 19.761719 C 19.589844 19.089844 19.71875 18.421875 19.851562 17.734375 Z M 19.851562 17.734375 "/>
<path style=" stroke:none;fill-rule:nonzero;fill:rgb(20%,32.156864%,87.058824%);fill-opacity:1;" d="M 35.03125 18.746094 C 35.285156 18.914062 35.542969 19.082031 35.808594 19.253906 C 35.492188 19.847656 35.175781 20.4375 34.859375 21.027344 C 34.683594 21.355469 34.507812 21.683594 34.324219 22.023438 C 34.171875 22.28125 34.019531 22.535156 33.863281 22.800781 C 33.734375 22.800781 33.605469 22.800781 33.472656 22.800781 C 33.472656 21.796875 33.472656 20.792969 33.472656 19.761719 C 34.203125 19.222656 34.203125 19.222656 35.03125 18.746094 Z M 35.03125 18.746094 "/>
<path style=" stroke:none;fill-rule:nonzero;fill:rgb(17.254902%,21.568628%,67.450982%);fill-opacity:1;" d="M 36.976562 17.734375 C 37.105469 18.066406 37.234375 18.402344 37.367188 18.746094 C 37 19.777344 36.613281 20.792969 36.199219 21.785156 C 36.070312 21.785156 35.941406 21.785156 35.808594 21.785156 C 35.734375 20.328125 35.734375 20.328125 35.808594 18.746094 C 36.195312 18.414062 36.578125 18.078125 36.976562 17.734375 Z M 36.976562 17.734375 "/>
</g>
</svg>
