<?xml version="1.0" encoding="UTF-8" standalone="no"?>
<!-- Created with Inkscape (http://www.inkscape.org/) -->

<svg
   width="83.528999"
   height="40.181999"
   viewBox="0 0 22.100381 10.631488"
   version="1.1"
   id="svg1"
   xml:space="preserve"
   inkscape:version="1.3.2 (091e20e, 2023-11-25, custom)"
   sodipodi:docname="thermal_vision.svg"
   xmlns:inkscape="http://www.inkscape.org/namespaces/inkscape"
   xmlns:sodipodi="http://sodipodi.sourceforge.net/DTD/sodipodi-0.dtd"
   xmlns:xlink="http://www.w3.org/1999/xlink"
   xmlns="http://www.w3.org/2000/svg"
   xmlns:svg="http://www.w3.org/2000/svg"><sodipodi:namedview
     id="namedview1"
     pagecolor="#ffffff"
     bordercolor="#000000"
     borderopacity="0.25"
     inkscape:showpageshadow="2"
     inkscape:pageopacity="0.0"
     inkscape:pagecheckerboard="0"
     inkscape:deskcolor="#d1d1d1"
     inkscape:document-units="px"
     inkscape:zoom="8.2747366"
     inkscape:cx="39.638724"
     inkscape:cy="40.665947"
     inkscape:window-width="1920"
     inkscape:window-height="1017"
     inkscape:window-x="-8"
     inkscape:window-y="-8"
     inkscape:window-maximized="1"
     inkscape:current-layer="layer1" /><defs
     id="defs1"><radialGradient
       xlink:href="#a"
       id="b"
       cx="23.613001"
       cy="-2.2349999"
       r="3.6110001"
       fx="23.613001"
       fy="-2.2349999"
       gradientTransform="matrix(1.9433,0,0,5.53572,-23.363,9.893)"
       gradientUnits="userSpaceOnUse" /><linearGradient
       id="a"><stop
         offset=".315"
         style="stop-color:#ccc;stop-opacity:0"
         id="stop1" /><stop
         offset="1"
         style="stop-color:#ccc;stop-opacity:1"
         id="stop2" /></linearGradient></defs><g
     inkscape:label="Layer 1"
     inkscape:groupmode="layer"
     id="layer1"
     transform="translate(33.710155,-10.260243)"
     style="display:inline;opacity:1"><path
       id="path1"
       style="display:inline;opacity:1;fill:#bfbfbf;fill-opacity:1;stroke:none;stroke-width:0.691621;stroke-linecap:round;stroke-linejoin:round;stroke-miterlimit:10.8;stroke-dasharray:none;paint-order:fill markers stroke"
       d="m -11.955572,13.884462 c 0,0 -4.792523,4.815851 -10.704395,4.815851 -5.911874,0 -10.704397,-4.815851 -10.704397,-4.815851 0,0 4.792521,-3.278397 10.704397,-3.278397 5.911876,0 10.704395,3.278397 10.704395,3.278397 z"
       sodipodi:nodetypes="cscsc" /><path
       id="path22"
       style="display:inline;opacity:1;fill:#29288b;fill-opacity:1;stroke:none;stroke-width:0.691621;stroke-linecap:round;stroke-linejoin:round;stroke-miterlimit:10.8;stroke-dasharray:none;paint-order:fill markers stroke"
       d="m -22.659872,10.606054 c -1.549187,0 -3.020243,0.225846 -4.349605,0.558106 a 5.1339788,5.1339788 0 0 0 -0.784448,2.720247 5.1339788,5.1339788 0 0 0 2.834969,4.579049 c 0.740838,0.148839 1.50957,0.236678 2.299084,0.236678 0.789642,0 1.558136,-0.08779 2.299085,-0.236678 a 5.1339788,5.1339788 0 0 0 2.834969,-4.579049 5.1339788,5.1339788 0 0 0 -0.781348,-2.719214 c -1.33024,-0.33272 -2.802214,-0.559139 -4.352706,-0.559139 z" /><path
       style="display:inline;opacity:1;fill:#363ab9;fill-opacity:1;stroke:none;stroke-width:0.691621;stroke-linecap:round;stroke-linejoin:round;stroke-miterlimit:10.8;stroke-dasharray:none;stroke-opacity:1;paint-order:fill markers stroke"
       d="m -17.501683,15.114778 c 0.324133,-0.364649 -0.903297,0.0086 -0.932179,-0.509659 -0.02892,-0.518232 1.149269,-0.353204 1.071967,-0.898299 -0.05221,-0.3684 -0.362707,-0.441718 -0.683701,-0.671088 -0.293252,-0.209741 -0.489132,-0.504811 -0.549738,-0.821906 -0.06576,-0.343902 0.669114,-0.397703 0.417115,-0.679409 -0.246469,-0.275486 -0.87913,0.163829 -1.195902,-0.05231 -0.489137,-0.333699 0.431663,-0.334398 -0.111054,-0.595954 -0.434452,-0.209275 -0.504315,-0.04505 -0.974721,-0.174447 -0.673344,-0.18524 0.07653,-0.147668 -0.619435,-0.195712 -0.44777,-0.03091 -0.371377,-0.103752 -0.816888,-0.08609 -0.646721,0.02569 -0.07533,-0.04286 -0.721305,-0.01199 -0.19326,0.0092 -0.190661,-0.02611 -0.192392,0.140625 -0.0027,0.270391 -0.06657,0.02336 -0.314222,0.178532 -0.346245,0.216945 -0.279466,-0.275221 -0.699509,-0.180965 -0.407503,0.09144 -0.09551,0.261224 -0.471557,0.417432 -0.383728,0.159366 -0.771822,-0.61514 -1.130781,-0.419979 -0.478921,0.260346 0.119118,0.426783 -0.352131,0.696787 -0.388953,0.222836 -1.094735,-0.678157 -1.398108,-0.373535 -0.29635,0.297595 0.758731,0.903865 0.525722,1.241894 -0.267407,0.388131 -0.738294,-0.222293 -1.092222,0.108794 -0.14959,0.13999 -0.04965,0.40328 0.04017,0.587425 0.123376,0.252916 0.50614,0.160715 0.494102,0.428441 -0.01055,0.234346 -0.648637,0.222894 -0.752624,0.435149 -0.123127,0.251352 0.597302,0.237354 0.745772,0.492307 0.103121,0.177052 -0.511273,0.436359 -0.413579,0.615477 0.185646,0.340266 -0.338976,0.125427 -0.0959,0.440005 0.186264,0.241073 0.625739,-0.02157 0.803654,0.223857 0.09715,0.134022 -0.40778,0.370545 -0.381528,0.68361 0.01726,0.20605 0.866781,-0.0452 1.0111,0.159483 0.103727,0.147108 -0.437046,0.467492 -0.544371,0.709544 -0.07825,0.176456 0.267223,0.299571 0.308523,0.341081 0.32839,0.329901 0.817988,-0.279768 1.212643,-0.009 0.511978,0.351411 -0.549253,0.875414 0.0878,0.887825 0.309881,0.006 0.564492,-0.265854 0.865787,-0.313644 0.399393,-0.06336 0.651878,0.844678 1.048641,0.956697 0.248924,0.07029 0.411079,0.139296 0.578423,-0.02067 0.186379,-0.177982 -0.13011,-0.618202 0.120714,-0.725449 0.380369,-0.162635 0.695885,0.641507 1.094101,0.510481 0.383536,-0.126174 -0.192041,-0.543843 0.17578,-0.698108 0.471579,-0.197803 1.098463,0.685284 1.542276,0.447274 0.478723,-0.256743 0.05952,-1.061719 0.40103,-1.446609 0.43883,-0.494449 1.292952,0.06798 1.336484,-0.567806 0.02562,-0.374124 -0.693203,-0.510445 -0.396361,-0.772329 0.533122,-0.470343 0.537767,-0.0046 0.958357,-0.477723 z"
       id="path21"
       sodipodi:nodetypes="szssssssssssssssssssssssssssssssssssssssssssss" /><path
       style="display:inline;opacity:1;fill:#44b936;fill-opacity:1;stroke:none;stroke-width:0.691621;stroke-linecap:round;stroke-linejoin:round;stroke-miterlimit:10.8;stroke-dasharray:none;stroke-opacity:1;paint-order:fill markers stroke"
       d="m -18.516855,14.928536 c 0.101497,-0.389007 -0.917052,-0.161585 -0.938968,-0.591272 -0.02194,-0.429668 0.872086,-0.292843 0.813428,-0.744783 -0.03962,-0.305442 -0.309542,-0.309993 -0.553118,-0.500164 -0.222525,-0.173898 -0.328271,-0.174847 -0.37426,-0.437751 -0.0499,-0.285131 0.499158,-0.479703 0.307936,-0.713267 -0.187025,-0.228407 -0.589895,0.22956 -0.830268,0.05036 -0.371166,-0.276671 0.327554,-1.008333 -0.08427,-1.22519 -0.32967,-0.173511 -0.459887,0.6 -0.81684,0.49272 -0.510946,-0.153583 0.05574,-0.733524 -0.472366,-0.773357 -0.339776,-0.02563 -0.305215,0.19702 -0.643277,0.211661 -0.490744,0.0213 0.09334,-0.361792 -0.396854,-0.336198 -0.146649,0.0077 -0.427761,0.203302 -0.429074,0.341542 -0.0021,0.224182 0.02203,-0.235501 -0.165888,-0.106844 -0.262737,0.179871 -0.173494,-0.212368 -0.49223,-0.13422 -0.309221,0.07581 -0.111043,0.200764 -0.396397,0.330276 -0.291179,0.132131 -0.551758,-0.340443 -0.824142,-0.178634 -0.363415,0.215854 0.142257,0.81197 -0.215335,1.035832 -0.295145,0.184754 -0.830705,-0.505739 -1.06091,-0.253176 -0.224876,0.246737 0.644365,0.646297 0.467553,0.926558 -0.202913,0.321801 -0.954832,-0.249912 -1.223399,0.02459 -0.113512,0.116066 -0.03767,0.334361 0.03048,0.487037 0.09362,0.209693 0.495587,0.292588 0.486452,0.514561 -0.008,0.194296 -0.38068,0.194174 -0.459588,0.370156 -0.09343,0.208397 -0.07861,0.393622 0.03405,0.605003 0.07825,0.146796 0.45271,0.146212 0.526841,0.294719 0.140872,0.282116 -0.548882,0.141484 -0.364431,0.402302 0.141341,0.199874 0.560605,-0.03663 0.69561,0.166854 0.07372,0.111119 -0.309431,0.307221 -0.28951,0.566784 0.01309,0.170837 0.657729,-0.03748 0.767241,0.132228 0.07871,0.121968 -0.331638,0.3876 -0.413079,0.588287 -0.05938,0.1463 0.202774,0.248375 0.234113,0.282791 0.249188,0.273522 0.818006,-0.119482 1.117477,0.10503 0.388498,0.291356 -0.313844,0.922639 0.169562,0.932928 0.235143,0.005 0.291094,-0.417249 0.519722,-0.456873 0.303067,-0.05253 0.33167,0.587851 0.632741,0.680727 0.188888,0.05828 0.311934,0.115491 0.438918,-0.01714 0.141428,-0.147565 -0.09873,-0.512553 0.0916,-0.601473 0.288631,-0.134841 0.605254,0.531877 0.907428,0.423242 0.291034,-0.104611 1.07e-4,-0.497766 0.279216,-0.625668 0.357843,-0.163999 0.850692,0.540054 1.187465,0.342718 0.363264,-0.212866 -0.09209,-0.899022 0.167056,-1.218135 0.332992,-0.40995 1.229886,0.253193 1.262919,-0.27394 0.01944,-0.310187 -0.800521,-0.638788 -0.575272,-0.855917 0.404543,-0.389963 0.749928,0.23991 0.881628,-0.264861 z"
       id="path20"
       sodipodi:nodetypes="szssssssssssssssssssssssssssssssssssssssssssss" /><path
       style="display:inline;opacity:1;fill:#b9b136;fill-opacity:1;stroke:none;stroke-width:0.691621;stroke-linecap:round;stroke-linejoin:round;stroke-miterlimit:10.8;stroke-dasharray:none;stroke-opacity:1;paint-order:fill markers stroke"
       d="m -19.645231,12.482398 c -0.128186,-0.308837 -0.644762,0.335519 -0.869002,0.05919 -0.224241,-0.27631 0.394172,-0.617223 0.136361,-0.890646 -0.174227,-0.184803 -0.342911,-0.05733 -0.586381,-0.06654 -0.222507,-0.0085 -0.288182,0.04197 -0.445474,-0.111347 -0.170609,-0.166268 0.07256,-0.561679 -0.159905,-0.625182 -0.227347,-0.06209 -0.25119,0.438517 -0.487302,0.435085 -0.36457,-0.0053 -0.292512,-0.8317 -0.652819,-0.777382 -0.28839,0.04354 0.01065,0.62302 -0.262081,0.723979 -0.390405,0.144498 -0.480429,-0.787744 -0.825631,-0.558989 -0.2221,0.147173 0.06347,0.550116 -0.137818,0.723354 -0.292182,0.251507 -0.530428,-0.726143 -0.820195,-0.472006 -0.08668,0.07602 -0.164086,0.342589 -0.0971,0.435534 0.108632,0.150727 0.308686,0.271486 0.255895,0.448263 -0.07381,0.247149 -0.548393,-0.352589 -0.706624,-0.146288 -0.153505,0.20014 0.367238,0.48242 0.254784,0.706878 -0.114762,0.229025 -0.611286,-0.05737 -0.699903,0.182375 -0.118247,0.319858 0.617725,0.607992 0.506995,0.930381 -0.0914,0.266081 -0.788013,0.02621 -0.806113,0.306173 -0.01767,0.273493 0.714316,0.120002 0.742726,0.39264 0.03268,0.312999 -0.711377,0.294805 -0.742373,0.607965 -0.01308,0.13239 0.140743,0.241488 0.257643,0.310488 0.160564,0.09476 0.449104,-0.04425 0.552329,0.108389 0.09036,0.133605 -0.139526,0.313729 -0.101883,0.469396 0.04458,0.18434 0.144564,0.300853 0.317706,0.387527 0.120247,0.06019 0.350877,-0.121263 0.469422,-0.05794 0.225226,0.12027 -0.269092,0.359874 -0.02744,0.444851 0.185183,0.06512 0.327742,-0.295529 0.510789,-0.224927 0.09995,0.03856 -0.04015,0.354766 0.09943,0.518457 0.09185,0.107752 0.387221,-0.343054 0.53798,-0.282682 0.108351,0.04339 -0.01443,0.419176 0.03377,0.592565 0.03513,0.126406 0.246852,0.06781 0.283056,0.07564 0.287807,0.06216 0.445843,-0.475311 0.740622,-0.470194 0.382461,0.0067 0.25894,0.767848 0.562087,0.540981 0.147454,-0.110364 -0.02512,-0.419371 0.09644,-0.556379 0.161131,-0.181616 0.492822,0.232171 0.724032,0.148614 0.14506,-0.05241 0.248998,-0.07371 0.26226,-0.223675 0.01484,-0.166922 -0.31225,-0.294521 -0.238484,-0.445929 0.11186,-0.2296 0.634083,0.06251 0.767147,-0.156141 0.128169,-0.210576 -0.244047,-0.332438 -0.134654,-0.552802 0.140243,-0.282536 0.789447,-0.05071 0.900348,-0.345316 0.119619,-0.31779 -0.497692,-0.555795 -0.494377,-0.894192 0.0043,-0.434757 0.882603,-0.42561 0.644459,-0.793578 -0.140132,-0.21653 -0.80693,-0.03949 -0.77451,-0.293385 0.05823,-0.456006 0.580114,-0.202407 0.413781,-0.603151 z"
       id="path19"
       sodipodi:nodetypes="szsssssssssssssssssssssssssssssssssssssssssss" /><path
       style="display:inline;opacity:1;fill:#b93636;fill-opacity:1;stroke:none;stroke-width:0.691621;stroke-linecap:round;stroke-linejoin:round;stroke-miterlimit:10.8;stroke-dasharray:none;stroke-opacity:1;paint-order:fill markers stroke"
       d="m -23.968931,12.008928 c -0.199625,0.11439 0.288654,0.397516 0.120087,0.57277 -0.168568,0.175253 -0.458504,-0.204218 -0.622021,-0.0069 -0.110521,0.133355 -0.0078,0.233613 0.0081,0.396518 0.01459,0.148882 0.0551,0.187846 -0.03541,0.30696 -0.09817,0.129197 -0.391041,0.0046 -0.413215,0.165285 -0.02168,0.157152 0.323109,0.125884 0.342378,0.283346 0.02975,0.24313 -0.542409,0.272985 -0.472245,0.507665 0.05617,0.187843 0.425402,-0.06576 0.519469,0.106254 0.134642,0.246219 -0.495119,0.39391 -0.306959,0.602112 0.121063,0.133957 0.37068,-0.09401 0.507663,0.02361 0.198878,0.170775 -0.448385,0.421386 -0.247928,0.590305 0.05997,0.05053 0.249484,0.07695 0.306959,0.02361 0.09321,-0.08649 0.157533,-0.231001 0.283347,-0.212512 0.175901,0.02585 -0.191089,0.398169 -0.03541,0.484052 0.151024,0.08332 0.29653,-0.289831 0.460439,-0.236123 0.167245,0.05481 0.01671,0.412228 0.188898,0.448632 0.229728,0.04857 0.359532,-0.468359 0.590305,-0.42502 0.190465,0.03577 0.09009,0.521978 0.283347,0.507663 0.188791,-0.01398 0.01672,-0.486696 0.200705,-0.531275 0.211226,-0.05118 0.266893,0.445683 0.48405,0.436826 0.0918,-0.0038 0.152382,-0.116401 0.188898,-0.200703 0.05015,-0.115783 -0.07137,-0.294735 0.02361,-0.377796 0.08316,-0.07272 0.227484,0.06332 0.330571,0.02361 0.122075,-0.04703 0.192658,-0.124542 0.236124,-0.247928 0.03018,-0.0857 -0.115112,-0.222103 -0.08264,-0.306958 0.06169,-0.16122 0.270927,0.145204 0.306959,-0.02361 0.02761,-0.129375 -0.232263,-0.190295 -0.200704,-0.318765 0.01723,-0.07015 0.246469,-0.0067 0.345715,-0.114984 0.06533,-0.07128 -0.27023,-0.225406 -0.242718,-0.331424 0.01977,-0.0762 0.288191,-0.02988 0.402444,-0.07826 0.08329,-0.03528 0.0238,-0.17067 0.02584,-0.195501 0.0162,-0.1974 -0.366114,-0.251967 -0.389602,-0.448632 -0.03047,-0.255164 0.501785,-0.244629 0.318765,-0.42502 -0.08903,-0.08775 -0.284707,0.0562 -0.389602,-0.0118 -0.139047,-0.09014 0.113768,-0.349846 0.03541,-0.495857 -0.04916,-0.09161 -0.07325,-0.158772 -0.177091,-0.15348 -0.115593,0.0058 -0.172972,0.235542 -0.283347,0.200704 -0.167372,-0.05282 -0.01528,-0.427885 -0.177092,-0.495857 -0.155846,-0.06547 -0.205165,0.193722 -0.36599,0.141673 -0.206202,-0.06673 -0.106986,-0.520627 -0.318764,-0.566694 -0.22844,-0.04969 -0.334801,0.383558 -0.566694,0.413215 -0.297928,0.0381 -0.372091,-0.547324 -0.602113,-0.354185 -0.135354,0.113652 0.04686,0.540753 -0.129867,0.543083 -0.31741,0.0042 -0.19164,-0.367024 -0.450668,-0.218593 z"
       id="path18"
       sodipodi:nodetypes="szsssssssssssssssssssssssssssssssssssssssssss" /><circle
       style="display:inline;fill:#333333;fill-opacity:1;stroke:none;stroke-width:0.691621;stroke-linecap:round;stroke-linejoin:round;stroke-miterlimit:10.8;stroke-dasharray:none;stroke-opacity:1;paint-order:fill markers stroke"
       id="path16"
       cx="-22.659967"
       cy="13.884462"
       r="1.3226629" /><path
       id="path17"
       style="display:inline;fill:none;stroke:#000000;stroke-width:0.691621;stroke-linecap:round;stroke-linejoin:round;stroke-miterlimit:10.8;stroke-dasharray:none;paint-order:fill markers stroke"
       d="m -22.659872,10.606054 c -1.549187,0 -3.020243,0.225846 -4.349605,0.558106 a 5.1339788,5.1339788 0 0 0 -0.784448,2.720247 5.1339788,5.1339788 0 0 0 2.834969,4.579049 c 0.740838,0.148839 1.50957,0.236678 2.299084,0.236678 0.789642,0 1.558136,-0.08779 2.299085,-0.236678 a 5.1339788,5.1339788 0 0 0 2.834969,-4.579049 5.1339788,5.1339788 0 0 0 -0.781348,-2.719214 c -1.33024,-0.33272 -2.802214,-0.559139 -4.352706,-0.559139 z" /><path
       id="path23"
       style="display:inline;opacity:1;fill:none;fill-opacity:1;stroke:#000000;stroke-width:0.691621;stroke-linecap:round;stroke-linejoin:round;stroke-miterlimit:10.8;stroke-dasharray:none;paint-order:fill markers stroke"
       d="m -22.659966,19.993276 c -3.033942,0 -5.49344,-1.180644 -5.49344,-1.180644 0,0 2.459498,1.733293 5.49344,1.733293 3.033941,0 5.493439,-1.733293 5.493439,-1.733293 0,0 -2.459498,1.180644 -5.493439,1.180644 z"
       sodipodi:nodetypes="scscs" /><path
       id="path4"
       style="display:inline;opacity:1;fill:#000000;fill-opacity:0.2;stroke:none;stroke-width:0.691621;stroke-linecap:round;stroke-linejoin:round;stroke-miterlimit:10.8;stroke-dasharray:none;paint-order:fill markers stroke"
       d="m -22.659967,17.229471 c -5.911874,0 -10.704397,-3.680745 -10.704397,-3.680745 0,0 4.792523,5.151587 10.704397,5.151587 5.911872,0 10.704395,-5.151587 10.704395,-5.151587 0,0 -4.792523,3.680745 -10.704395,3.680745 z"
       sodipodi:nodetypes="scscs" /><path
       id="path2"
       style="display:inline;opacity:1;fill:none;fill-opacity:1;stroke:#000000;stroke-width:0.691621;stroke-linecap:round;stroke-linejoin:round;stroke-miterlimit:10.8;stroke-dasharray:none;paint-order:fill markers stroke"
       d="m -11.955572,13.884462 c 0,0 -4.792523,4.815851 -10.704395,4.815851 -5.911874,0 -10.704397,-4.815851 -10.704397,-4.815851 0,0 4.792521,-3.278397 10.704397,-3.278397 5.911876,0 10.704395,3.278397 10.704395,3.278397 z"
       sodipodi:nodetypes="cscsc" /></g></svg>
