<?xml version="1.0" encoding="UTF-8" standalone="no"?>
<svg
   width="185"
   height="185"
   viewBox="0 0 48.948 48.948"
   version="1.1"
   id="svg10"
   sodipodi:docname="mg_crate.svg"
   inkscape:version="1.4.2 (f4327f4, 2025-05-13)"
   xmlns:inkscape="http://www.inkscape.org/namespaces/inkscape"
   xmlns:sodipodi="http://sodipodi.sourceforge.net/DTD/sodipodi-0.dtd"
   xmlns="http://www.w3.org/2000/svg"
   xmlns:svg="http://www.w3.org/2000/svg">
  <defs
     id="defs10">
    <clipPath
       id="a">
      <path
         fill="#ffffff"
         d="M 0,0 H 110 V 110 H 0 Z"
         id="path104" />
    </clipPath>
  </defs>
  <sodipodi:namedview
     id="namedview10"
     pagecolor="#505050"
     bordercolor="#ffffff"
     borderopacity="1"
     inkscape:showpageshadow="0"
     inkscape:pageopacity="0"
     inkscape:pagecheckerboard="1"
     inkscape:deskcolor="#505050"
     inkscape:zoom="4.1783784"
     inkscape:cx="122.29625"
     inkscape:cy="92.978655"
     inkscape:window-width="1920"
     inkscape:window-height="991"
     inkscape:window-x="-9"
     inkscape:window-y="-9"
     inkscape:window-maximized="1"
     inkscape:current-layer="svg10" />
  <g
     transform="scale(1.96165)"
     id="g10">
    <path
       d="M4 4h16.9v16.9H4z"
       style="fill:#674b24;fill-opacity:1;stroke:none;stroke-width:.798207;stroke-linecap:butt;stroke-linejoin:miter;stroke-miterlimit:4;stroke-dasharray:none;stroke-opacity:1"
       id="path1" />
    <path
       d="M8.243 4.041v16.87M17.06 4.041v16.87M12.652 4.041v16.87"
       style="fill:none;stroke:#342612;stroke-width:1;stroke-linecap:butt;stroke-linejoin:miter;stroke-miterlimit:4;stroke-dasharray:none;stroke-opacity:1"
       id="path2" />
    <path
       d="M-14.931 15.644h29.332v4h-29.332z"
       style="fill:#9e7437;fill-opacity:1;stroke:#3f2e16;stroke-width:1;stroke-linecap:butt;stroke-linejoin:bevel;stroke-miterlimit:4;stroke-dasharray:none;stroke-opacity:1"
       transform="scale(-1 1)rotate(45)"
       id="path3" />
    <path
       d="M.5.5v23.952h23.952V.5Zm4.041 4.041h15.87v15.87H4.54Z"
       style="fill:#9e7437;stroke-width:0;stroke-linecap:round"
       id="path4" />
    <path
       d="M4 4h16.9v16.9H4z"
       style="fill:none;fill-opacity:1;stroke:none;stroke-width:1;stroke-linecap:butt;stroke-linejoin:bevel;stroke-miterlimit:4;stroke-dasharray:none;stroke-opacity:1"
       id="path5" />
    <circle
       cx="2.577"
       cy="2.577"
       r=".827"
       style="fill:gray;fill-opacity:1;stroke:#2e2e2e;stroke-width:.499999;stroke-linecap:round;stroke-linejoin:round;stroke-opacity:1"
       id="circle5" />
    <circle
       cx="22.375"
       cy="2.577"
       r=".827"
       style="fill:gray;fill-opacity:1;stroke:#2e2e2e;stroke-width:.499999;stroke-linecap:round;stroke-linejoin:round;stroke-opacity:1"
       id="circle6" />
    <circle
       cx="2.577"
       cy="22.375"
       r=".827"
       style="fill:gray;fill-opacity:1;stroke:#2e2e2e;stroke-width:.499999;stroke-linecap:round;stroke-linejoin:round;stroke-opacity:1"
       id="circle7" />
    <circle
       cx="22.375"
       cy="22.375"
       r=".827"
       style="fill:gray;fill-opacity:1;stroke:#2e2e2e;stroke-width:.499999;stroke-linecap:round;stroke-linejoin:round;stroke-opacity:1"
       id="circle8" />
    <path
       d="M4.541 4.541h15.87v15.87H4.541z"
       style="fill:none;fill-opacity:1;stroke:#3f2e16;stroke-width:1;stroke-linecap:butt;stroke-linejoin:miter;stroke-miterlimit:4;stroke-dasharray:none;stroke-opacity:1"
       id="path8" />
    <path
       d="M.5.5h23.952v23.952H.5z"
       style="fill:none;fill-opacity:1;stroke:#3f2e16;stroke-width:1;stroke-linecap:round;stroke-linejoin:round;stroke-miterlimit:4;stroke-dasharray:none;stroke-opacity:1"
       id="path9" />
    <path
       d="M20.411 4.54h4M20.411 20.411h4M.54 20.411h4M.54 4.54h4"
       style="fill:none;stroke:#3f2e16;stroke-width:1;stroke-linecap:butt;stroke-linejoin:miter;stroke-miterlimit:4;stroke-dasharray:none;stroke-opacity:1"
       id="path10" />
  </g>
  <g
     clip-path="url(#a)"
     transform="matrix(0.31825775,-0.05398319,0.05398319,0.31825775,4.3037695,10.342543)"
     id="g103">
    <path
       fill="#5a5a5a"
       stroke="#333333"
       stroke-width="0.396"
       d="M 90.111,33.917 90.952,35.373 92,34.77 91.16,33.314"
       id="path1-0" />
    <path
       fill="#666666"
       d="M 90.053,25.776 50.89,48.388 54.565,54.753 93.67,32.176 c 1.977,-1.18 1.292,-1.453 5.92,-4.096 l 8.469,-4.89 -3.151,-5.458 -8.528,4.924 c -4.083,2.389 -4.424,2.014 -6.326,3.12"
       id="path2-9" />
    <path
       fill="#464639"
       d="m 49.698,51.62 -16.275,9.396 -0.474,-0.82 16.275,-9.397 z"
       id="path3-4" />
    <path
       fill="#3e3e32"
       d="m 37.267,57.848 a 0.19845654,0.19845654 0 1 0 -0.344,0.198 l 0.12,0.208 a 0.19845654,0.19845654 0 0 0 0.344,-0.198 z m 1.406,-0.812 a 0.19802336,0.19802336 0 1 0 -0.343,0.198 l 0.12,0.208 a 0.19802336,0.19802336 0 1 0 0.343,-0.198 z m 0.979,-0.566 a 0.1982738,0.1982738 0 1 0 -0.343,0.199 l 0.12,0.208 a 0.19802336,0.19802336 0 0 0 0.343,-0.198 z m 1.102,-0.636 a 0.19802336,0.19802336 0 1 0 -0.343,0.198 l 0.12,0.209 a 0.19870644,0.19870644 0 1 0 0.344,-0.199 z m 1.158,-0.668 a 0.19845654,0.19845654 0 0 0 -0.344,0.198 l 0.12,0.208 a 0.19845654,0.19845654 0 1 0 0.344,-0.198 z m 1.106,-0.639 a 0.19845654,0.19845654 0 0 0 -0.344,0.198 l 0.12,0.209 a 0.19845654,0.19845654 0 0 0 0.344,-0.198 z m 1.04,-0.601 a 0.19802336,0.19802336 0 1 0 -0.343,0.198 l 0.12,0.209 a 0.19845654,0.19845654 0 0 0 0.344,-0.198 z m 0.826,-0.476 a 0.19802336,0.19802336 0 1 0 -0.343,0.198 l 0.12,0.208 a 0.19802336,0.19802336 0 1 0 0.343,-0.198 z m 0.641,-0.37 a 0.198,0.198 0 0 0 -0.343,0.197 l 0.12,0.209 a 0.19845654,0.19845654 0 0 0 0.344,-0.198 z"
       id="path4-8" />
    <path
       fill="#545445"
       d="m 48.084,48.824 -16.275,9.397 1.14,1.974 16.274,-9.396 z"
       id="path5-8" />
    <path
       stroke="#38382e"
       stroke-width="0.396"
       d="m 49.698,51.62 -16.275,9.396 -0.474,-0.82 16.275,-9.397 z"
       id="path6" />
    <path
       fill="#70705c"
       d="m 41.749,55.115 -1.14,-1.974 -1.262,0.728 1.14,1.975 z m -1.971,1.138 -1.14,-1.974 -1.304,0.752 1.14,1.975 z m -2.204,1.273 -1.14,-1.975 -0.977,0.564 1.14,1.975 z m -1.866,1.077 -1.14,-1.974 -0.75,0.432 1.14,1.975 z m -2.004,1.157 -1.14,-1.975 0.55,-0.317 1.14,1.974 z m 8.681,-5.012 -1.14,-1.975 1.304,-0.753 1.14,1.975 z m 2.205,-1.273 -1.14,-1.974 0.976,-0.564 1.14,1.974 z m 1.865,-1.077 -1.14,-1.975 0.75,-0.432 1.14,1.974 z m 2.014,-1.163 -1.14,-1.974 -0.56,0.323 1.14,1.974 z"
       id="path7" />
    <path
       stroke="#38382e"
       stroke-linecap="round"
       stroke-width="0.396"
       d="m 41.749,55.115 -1.14,-1.974 -1.262,0.728 1.14,1.975 z m -1.971,1.138 -1.14,-1.974 -1.304,0.752 1.14,1.975 z m -2.204,1.273 -1.14,-1.975 -0.977,0.564 1.14,1.975 z m -1.866,1.077 -1.14,-1.974 -0.75,0.432 1.14,1.975 z m -2.004,1.157 -1.14,-1.975 0.55,-0.317 1.14,1.974 z m 8.681,-5.012 -1.14,-1.975 1.304,-0.753 1.14,1.975 z m 2.205,-1.273 -1.14,-1.974 0.976,-0.564 1.14,1.974 z m 1.865,-1.077 -1.14,-1.975 0.75,-0.432 1.14,1.974 z m 2.014,-1.163 -1.14,-1.974 -0.56,0.323 1.14,1.974 z"
       id="path8-2" />
    <path
       stroke="#38382e"
       stroke-width="0.793"
       d="m 31.809,58.22 1.613,2.796 16.276,-9.396 -1.614,-2.796 z"
       id="path9-4" />
    <path
       fill="#3b3b3b"
       d="m 47.127,57.22 1.126,1.95 c 0.18,-0.17 0.267,-0.356 0.353,-0.541 0.118,-0.255 0.237,-0.51 0.602,-0.73 l 0.222,-0.127 c -0.902,0.498 -1.791,0.306 -2.303,-0.551"
       id="path10-5" />
    <path
       fill="#404040"
       d="m 49.48,57.743 3.7,-2.137 -2.745,-4.753 -0.604,0.349 -0.278,0.316 -3.043,1.756 -0.317,0.37 -0.848,0.489 1.749,3.028 c 0.515,0.924 1.447,1.127 2.386,0.582"
       id="path11" />
    <path
       fill="#666666"
       d="m 19.354,65.523 8.102,-4.678 0.067,-0.15 0.388,-0.223 0.517,0.896 -0.395,0.228 -0.163,-0.034 -0.247,0.142 0.157,0.283 -0.908,-0.203 -3.757,2.169 -0.007,0.172 -0.75,0.433 -0.196,-0.054 -0.818,0.472 0.275,0.489 -1.535,0.09 -0.188,-0.325 -0.523,0.302 c -0.027,0.019 -0.039,0.002 -0.019,-0.01"
       id="path12" />
    <path
       fill="#4d4d4d"
       d="m 23.275,63.86 -0.16,0.093 -0.008,0.171 -0.75,0.433 -0.195,-0.053 -0.18,0.103 -0.1,-0.172 1.294,-0.747 z m 4.301,-3.194 0.336,-0.194 0.518,0.896 -0.336,0.194 z"
       id="path13" />
    <path
       stroke="#333333"
       stroke-width="0.396"
       d="m 19.354,65.523 8.102,-4.678 0.067,-0.15 0.388,-0.223 0.517,0.896 -0.395,0.228 -0.163,-0.034 -0.247,0.142 0.157,0.283 -0.908,-0.203 -3.757,2.169 -0.007,0.172 -0.75,0.433 -0.196,-0.054 -0.818,0.472 0.275,0.489 -1.535,0.09 -0.188,-0.325 -0.523,0.302 c -0.027,0.019 -0.039,0.002 -0.019,-0.01 z"
       id="path14" />
    <path
       fill="#545445"
       fill-rule="evenodd"
       d="m 26.64,71.62 1.48,-0.854 c 1.39,-0.71 2.653,0.174 2.911,1.424 l 1.195,5.478 c 0.122,0.634 0.36,0.703 0.83,0.537 l 2.539,-0.79 c 1.213,-0.308 1.015,-0.735 0.618,-1.036 -0.295,-0.265 -0.575,-0.543 -0.636,-1.023 a 15,15 0 0 0 -0.482,-3.67 c -0.12,-0.571 -0.073,-0.608 0.051,-1.14 0.296,-0.017 0.753,-0.11 0.997,-0.251 l 1.68,-0.97 c 0.76,-0.439 1.105,-1.55 0.785,-2.311 0.123,-0.197 0.213,-0.309 0.316,-0.445 l -0.343,-0.598 c -0.226,-0.406 -0.142,-1.18 0.276,-1.488 l -0.126,-0.218 -13.018,7.49 z m 9.39,-4.92 -1.361,0.786 c -0.694,0.4 -0.968,1.214 -0.615,1.825 0.352,0.61 1.194,0.78 1.887,0.38 l 1.362,-0.787 c 0.694,-0.4 0.968,-1.214 0.615,-1.824 C 37.566,66.469 36.724,66.3 36.03,66.7"
       clip-rule="evenodd"
       id="path15" />
    <path
       fill="#464639"
       stroke="#38382e"
       stroke-width="0.396"
       d="m 35.328,67.181 c 0.274,1.068 0.483,1.275 0.959,1.738 0.084,0.062 0.11,0.014 0.038,-0.049 -0.382,-0.467 -0.778,-0.964 -0.705,-1.843 z"
       id="path16" />
    <path
       stroke="#38382e"
       stroke-width="0.396"
       d="M 34.67,67.486 36.031,66.7 c 0.694,-0.4 1.536,-0.23 1.888,0.38 0.353,0.61 0.078,1.424 -0.615,1.825 l -1.362,0.786 c -0.693,0.4 -1.535,0.23 -1.888,-0.38 -0.352,-0.61 -0.078,-1.424 0.615,-1.825 z"
       id="path17" />
    <path
       stroke="#38382e"
       stroke-width="0.793"
       d="m 29.248,69.719 9.478,-5.463 0.003,0.005 m -9.48,5.458 -3.535,2.037 0.927,-0.135 1.48,-0.854 c 1.39,-0.71 2.653,0.174 2.911,1.423 l 1.195,5.479 c 0.122,0.634 0.36,0.703 0.83,0.537 l 2.539,-0.79 c 1.213,-0.308 1.014,-0.736 0.618,-1.036 -0.295,-0.265 -0.575,-0.544 -0.637,-1.023 a 15,15 0 0 0 -0.481,-3.67 c -0.12,-0.571 -0.074,-0.608 0.051,-1.14 0.296,-0.017 0.753,-0.11 0.997,-0.251 l 1.68,-0.97 c 0.76,-0.439 1.105,-1.55 0.785,-2.311 0.123,-0.197 0.213,-0.31 0.316,-0.445 l -0.343,-0.598 c -0.226,-0.406 -0.142,-1.18 0.276,-1.488 l -0.129,-0.223 m -9.48,5.458 9.48,-5.458 m -9.48,5.458 -3.536,2.035"
       id="path18" />
    <path
       fill="#6b422e"
       stroke="#472b1f"
       stroke-width="0.396"
       d="m 30.225,70.668 c 0.403,0.307 0.826,0.88 0.93,1.38 l 1.196,5.364 c 0.122,0.634 0.22,0.692 0.67,0.603 l 2.232,-0.607 c 1.384,-0.31 0.987,-0.812 0.57,-1.141 -0.295,-0.265 -0.461,-0.482 -0.455,-0.993 0.062,-1.454 -0.124,-2.749 -0.587,-4.032 a 0.6,0.6 0 0 1 0,-0.37 c 0.118,-0.402 -0.342,-0.444 -0.513,-0.545 -0.253,-0.133 -0.705,-0.72 -0.854,-1.276 -0.039,-0.147 -0.106,-0.29 -0.32,-0.187 l -2.79,1.5 c -0.175,0.116 -0.194,0.243 -0.08,0.304 z"
       id="path19" />
    <path
       fill="#666666"
       stroke="#333333"
       stroke-width="0.396"
       d="m 14.505,84.542 0.534,-0.254 -0.17,-0.849 -0.953,0.208 z"
       id="path20" />
    <path
       fill="#4d4d4d"
       d="m 13.207,83.336 0.864,0.533 c 0.594,0.422 1.23,-0.426 0.559,-0.79 l -0.923,-0.533"
       id="path21" />
    <path
       stroke="#333333"
       stroke-width="0.396"
       d="m 13.207,83.336 0.864,0.533 c 0.594,0.422 1.23,-0.426 0.559,-0.79 l -0.923,-0.533"
       id="path22" />
    <path
       fill="#3b3b3b"
       stroke="#333333"
       stroke-width="0.396"
       d="m 14.04,81.512 -0.206,0.227 c -0.026,0.029 -0.035,0.063 -0.02,0.075 l 0.525,0.477 c 0.014,0.013 0.047,0 0.073,-0.028 l 0.206,-0.228 c 0.026,-0.028 0.035,-0.062 0.02,-0.075 l -0.525,-0.476 c -0.014,-0.013 -0.047,0 -0.073,0.028 z m -1.497,2.068 -0.18,0.248 c -0.022,0.031 -0.028,0.066 -0.012,0.077 l 0.575,0.415 c 0.016,0.011 0.047,-0.005 0.07,-0.036 l 0.179,-0.25 c 0.023,-0.03 0.028,-0.065 0.013,-0.076 l -0.576,-0.415 c -0.016,-0.012 -0.047,0.005 -0.07,0.036 z m -0.563,1.005 -0.146,0.27 c -0.018,0.033 -0.02,0.068 -0.002,0.078 l 0.623,0.338 c 0.017,0.01 0.046,-0.01 0.064,-0.045 l 0.147,-0.27 c 0.018,-0.033 0.02,-0.068 0.002,-0.078 L 12.045,84.54 c -0.017,-0.01 -0.046,0.01 -0.065,0.045 z m 2.754,-3.999 -0.214,0.22 c -0.027,0.027 -0.038,0.06 -0.024,0.074 l 0.508,0.495 c 0.014,0.014 0.047,0.002 0.074,-0.025 l 0.214,-0.22 c 0.027,-0.028 0.037,-0.061 0.024,-0.074 L 14.808,80.56 c -0.014,-0.013 -0.047,-0.002 -0.074,0.026 z"
       id="path23" />
    <path
       fill="#404040"
       stroke="#333333"
       stroke-width="0.396"
       d="m 11.71,85.314 0.47,0.133 c 0.703,-1.549 1.765,-3.096 3.116,-4.641 l -0.522,-0.275 -1.804,2.238 z"
       id="path24" />
    <path
       fill="#4d4d4d"
       d="M 9.583,88.069 11.3,87.078 c 0.029,-0.163 0.044,-0.29 0.225,-0.415 l -0.474,-0.821 -2.38,0.63 z"
       id="path25" />
    <path
       fill="#404040"
       d="M 11.3,87.078 9.584,88.069 9.373,87.7 l 2.063,-1.191 0.09,0.155 c -0.174,0.119 -0.196,0.24 -0.222,0.394 z"
       id="path26" />
    <path
       stroke="#333333"
       stroke-width="0.396"
       d="M 9.583,88.069 11.3,87.078 c 0.029,-0.163 0.044,-0.29 0.225,-0.415 l -0.474,-0.821 -2.38,0.63 z"
       id="path27" />
    <path
       fill="#4d4d4d"
       stroke="#333333"
       stroke-width="0.396"
       d="m 5.059,80.003 -0.37,-0.543 -0.083,-0.03 1.462,-0.967 -0.004,0.11 0.344,0.57"
       id="path28" />
    <path
       fill="#404040"
       stroke="#333333"
       stroke-width="0.793"
       d="m 0.989,82.68 c -0.402,0.248 -0.397,0.515 -0.258,0.652 2.15,2.646 3.495,5.469 4.43,8.38 0.103,0.218 0.298,0.493 0.702,0.088 l -2.25,-4.682 z"
       id="path29" />
    <path
       fill="#6b422e"
       d="m 20.966,68.256 c -2.977,2.34 -4.916,4.413 -6.566,6.788 -0.415,0.644 -1.155,1.136 -2.355,1.073 -0.967,-0.014 -1.851,0.436 -2.633,0.977 l -8.497,5.635 c -0.127,0.091 -0.117,0.312 0.001,0.457 2.151,2.647 3.496,5.47 4.43,8.38 0.084,0.264 0.347,0.405 0.538,0.214 l 3.578,-3.516 c 0.051,-1.47 0.72,-2.133 1.643,-2.244 0.175,-0.02 0.39,-0.096 0.47,-0.289 1.462,-3.596 4.951,-7.392 8.079,-9.606 1.459,-1.009 2.785,-2.202 3.81,-3.122"
       id="path30" />
    <path
       fill="#8f8f3d"
       stroke="#47471f"
       stroke-width="0.396"
       d="m 10.862,82.352 a 1.1677348,1.1677348 0 1 0 -1.167,-2.023 1.1673017,1.1673017 0 0 0 1.167,2.022 z"
       id="path31" />
    <path
       fill="#494949"
       d="M 22.092,70.398 18.57,73.15 c -0.552,0.447 0.083,1.294 0.667,0.84 l 3.382,-2.595 z"
       id="path32" />
    <path
       fill="#3b3b3b"
       d="m 14.507,83.673 a 0.18909588,0.18909588 0 1 0 -0.19,-0.327 0.18909588,0.18909588 0 0 0 0.19,0.327"
       id="path33" />
    <path
       fill="#666666"
       d="m 21.336,72.312 a 0.45136598,0.45136598 0 1 0 -0.451,-0.782 0.45111639,0.45111639 0 0 0 0.45,0.782 m -2.196,1.678 a 0.451,0.451 0 1 0 -0.451,-0.78 0.451,0.451 0 0 0 0.45,0.78"
       id="path34" />
    <path
       fill="#404040"
       d="m 18.895,73.149 0.23,0.85 a 0.45,0.45 0 0 1 -0.192,0.051 l -0.23,-0.85 a 0.45,0.45 0 0 1 0.192,-0.051 m 1.891,-0.913 0.751,-0.46 a 0.44,0.44 0 0 0 -0.103,-0.168 l -0.751,0.459 a 0.5,0.5 0 0 0 0.103,0.169"
       id="path35" />
    <rect
       width="0.59100002"
       height="2.0120001"
       x="14.375"
       y="84.197998"
       fill="#666666"
       stroke="#333333"
       stroke-width="0.396"
       rx="0.29499999"
       transform="rotate(-20.8,14.375,84.198)"
       id="rect35" />
    <path
       stroke="#333333"
       stroke-width="0.396"
       d="M 22.092,70.398 18.57,73.15 c -0.552,0.447 0.083,1.294 0.667,0.84 l 3.382,-2.595 z"
       id="path36" />
    <path
       stroke="#472c1f"
       stroke-width="0.793"
       d="m 20.965,68.256 c -2.977,2.34 -4.916,4.413 -6.566,6.788 -0.415,0.644 -1.155,1.136 -2.355,1.073 -0.967,-0.013 -1.851,0.436 -2.633,0.977 l -8.497,5.635 c -0.126,0.097 -0.138,0.32 0.001,0.458 2.151,2.646 3.496,5.468 4.43,8.38 0.103,0.218 0.347,0.404 0.538,0.214 l 3.578,-3.517 c 0.051,-1.47 0.72,-2.133 1.643,-2.243 0.175,-0.02 0.39,-0.096 0.47,-0.29 1.462,-3.596 4.951,-7.392 8.079,-9.606 1.459,-1.009 2.785,-2.202 3.81,-3.122"
       id="path37" />
    <path
       fill="#4d4d4d"
       stroke="#333333"
       stroke-width="0.396"
       d="m 47.945,59.387 -0.967,0.558 c -0.73,0.427 -0.613,1.288 -1.184,1.61 L 45.199,60.524 23.312,73.139 21.224,69.522 C 21.14,69.373 21.103,69.272 21.012,69.035 L 20.367,67 l 10.305,-5.95 0.334,-0.41 0.95,-0.548 a 1,1 0 0 0 0.367,-0.356 l 0.113,-0.065 0.752,1.303 2.677,-1.545 0.822,-0.299 8.658,-4.998 2.908,5.036 c -0.081,0.076 -0.181,0.15 -0.308,0.218 z"
       id="path38" />
    <path
       fill="#808080"
       stroke="#333333"
       stroke-width="0.396"
       d="m 45.442,54.302 -22.494,12.988 -0.77,-1.334 8.494,-4.904 0.334,-0.41 0.95,-0.548 c 0.21,-0.128 0.287,-0.236 0.367,-0.356 l 0.113,-0.065 0.752,1.303 2.676,-1.545 0.823,-0.299 8.658,-4.998 z"
       id="path39" />
    <path
       fill="#5c5c4c"
       stroke="#38382e"
       stroke-width="0.396"
       d="m 20.613,66.86 -0.591,-1.025 0.82,-0.546 1.043,0.276 4.452,-2.57 c 0.116,-0.07 0.291,-0.276 0.17,-0.48 l -0.33,-0.573 1.071,-0.618 0.367,0.636 c 0.12,0.205 0.363,0.396 0.68,0.24 0.107,-0.053 0.01,0.11 0.12,0.155 z"
       id="path40" />
    <path
       fill="#404040"
       d="m 24.008,70.621 0.417,0.722 17.967,-10.374 -0.417,-0.721 z"
       id="path41" />
    <path
       fill="#3b3b3b"
       d="m 27.514,69.557 13.589,-7.846 -0.417,-0.722 -12.903,7.449 -0.687,0.396 c -0.508,0.294 -0.057,1.004 0.418,0.723"
       id="path42" />
    <path
       stroke="#333333"
       stroke-width="0.396"
       d="m 27.096,68.834 13.59,-7.845 m -13.59,7.845 c -0.508,0.294 -0.057,1.004 0.418,0.723 m -0.418,-0.723 0.687,-0.396 12.903,-7.45 m -13.172,8.57 13.589,-7.847 -0.417,-0.722 m -13.172,8.568 0.687,-0.396"
       id="path43" />
    <path
       fill="#454545"
       d="m 24.324,71.17 0.768,-0.442 0.6,1.039 -0.768,0.443 z m 17.186,-9.921 0.782,-0.451 0.607,1.052 -0.782,0.451 z"
       id="path44" />
    <path
       fill="#404040"
       d="m 47.503,59.643 -0.524,0.303 c -0.387,0.225 -0.536,0.573 -0.675,0.898 l -0.046,0.105 c -0.178,-0.54 -0.386,-1.46 -0.308,-1.987 l 0.518,-0.3 0.144,0.182 c 0.249,0.32 0.506,0.648 0.891,0.799"
       id="path45" />
    <path
       fill="#636351"
       stroke="#38382e"
       stroke-width="0.793"
       d="m 44.614,60.863 1.41,2.443 a 0.9,0.9 0 0 1 0.113,0.329 c 0.093,2.68 -2.722,3.525 -4.065,2.482 l -2.506,-1.835 -0.218,-0.379"
       id="path46" />
    <path
       fill="#595959"
       d="m 97.543,23.504 8.022,-4.631 -0.658,-1.141 -8.528,4.924 c -2.436,1.425 -3.54,1.867 -4.438,2.226 -0.607,0.242 -1.12,0.448 -1.888,0.894 L 50.89,48.388 51.488,49.424 90.39,26.963 a 19,19 0 0 1 2.57,-1.198 c 1.009,-0.4 2.119,-0.841 4.583,-2.26 m 10.515,-0.315 -8.47,4.89 c -2.847,1.627 -3.683,2.355 -4.365,2.95 -0.427,0.372 -0.793,0.692 -1.554,1.146 L 54.564,54.753 53.935,53.665 92.78,31.238 c 1.112,-0.67 1.694,-1.13 2.322,-1.627 0.85,-0.673 1.788,-1.415 4.25,-2.839 l 8.081,-4.665 z"
       id="path47" />
    <path
       fill="#545445"
       stroke="#38382e"
       stroke-width="0.396"
       d="m 88.514,26.665 -1.112,-1.927 c -0.065,-0.105 -0.056,-0.2 0.067,-0.268 l 0.375,-0.216 c 0.168,-0.092 0.2,-0.044 0.268,0.074 l 1.112,1.927"
       id="path48" />
    <path
       fill="#404040"
       stroke="#333333"
       stroke-width="0.396"
       d="m 90.56,35.683 c -0.346,-0.053 -0.726,-0.184 -1.247,-0.003 -3.133,1.614 -4.87,2.624 -7.735,4.491 l -0.055,-0.095 c 2.983,-1.985 6.088,-3.697 9.146,-5.194 l 0.054,0.093 0.02,0.244 c -0.197,0.143 -0.147,0.272 -0.183,0.464 z"
       id="path49" />
    <path
       fill="#4d4d4d"
       stroke="#333333"
       stroke-width="0.396"
       d="m 80.356,39.823 0.68,1.18 a 0.46662431,0.46662431 0 1 1 0.808,-0.467 l -0.68,-1.18 z m 21.275,-10.113 0.459,-0.116 -0.406,-1.303 -0.573,0.427 z"
       id="path50" />
    <path
       fill="#404040"
       d="m 99.723,27.804 0.511,0.885 0.198,-0.115 c 0.293,-0.176 0.526,-0.012 0.691,0.2 0.245,0.315 0.822,0.03 0.636,-0.367 -0.159,-0.322 -0.1,-0.504 0.183,-0.683 l 0.227,-0.13 -0.518,-0.897"
       id="path51" />
    <path
       stroke="#333333"
       stroke-width="0.396"
       d="m 99.723,27.804 0.511,0.885 0.198,-0.115 c 0.293,-0.176 0.526,-0.012 0.691,0.2 0.245,0.315 0.822,0.03 0.636,-0.367 -0.159,-0.322 -0.1,-0.504 0.183,-0.683 l 0.227,-0.13 -0.518,-0.897"
       id="path52" />
    <path
       stroke="#333333"
       stroke-width="0.793"
       d="M 90.053,25.776 50.89,48.388 54.565,54.753 93.67,32.176 c 1.977,-1.18 1.292,-1.453 5.92,-4.096 l 8.469,-4.89 -3.151,-5.458 -8.528,4.924 c -4.083,2.389 -4.424,2.014 -6.326,3.12 z"
       id="path53" />
    <path
       fill="#4d4d4d"
       stroke="#333333"
       stroke-width="0.793"
       d="m 99.934,27.946 1.753,-1.013 -3.216,-5.57 -1.754,1.012 z"
       id="path54" />
    <path
       fill="#404040"
       stroke="#333333"
       stroke-width="0.793"
       d="m 108.082,23.23 1.119,-0.645 -3.217,-5.57 -1.119,0.645 z"
       id="path55" />
    <path
       fill="#595959"
       stroke="#333333"
       stroke-width="0.396"
       d="m 50.694,48.05 -1.794,1.035 1.15,1.99"
       id="path56" />
    <path
       fill="#4d4d4d"
       stroke="#333333"
       stroke-width="0.793"
       d="m 53.36,55.925 1.41,-0.814 -3.977,-6.889 -0.937,0.541 -0.15,0.83 z"
       id="path57" />
    <path
       fill="#545445"
       d="m 40.686,60.989 0.417,0.722 z m -3.745,2.161 0.418,0.723 z m 3.745,-2.161 0.417,0.722 -3.744,2.162 -0.418,-0.723 z"
       id="path58" />
    <path
       stroke="#38382e"
       stroke-width="0.396"
       d="m 40.686,60.989 0.417,0.722 z m -3.745,2.161 0.418,0.723 z m 3.745,-2.161 0.417,0.722 -3.744,2.162 -0.418,-0.723 z"
       id="path59" />
    <path
       stroke="#333333"
       stroke-width="0.396"
       d="m 24.924,72.208 -0.92,-1.588 17.97,-10.375 0.925,1.602 -0.782,0.451 -0.511,-0.877 -16.415,9.477 0.501,0.867 z"
       id="path60" />
    <path
       fill="#5b5b4b"
       stroke="#38382e"
       stroke-width="0.396"
       d="m 39.96,62.821 a 0.86533606,0.86533606 0 1 0 -0.865,-1.499 0.86601905,0.86601905 0 0 0 0.866,1.5 z"
       id="path61" />
    <path
       fill="#464639"
       stroke="#38382e"
       stroke-width="0.396"
       d="m 88.451,25.736 a 0.40634099,0.40634099 0 1 0 -0.406,-0.704 0.40634099,0.40634099 0 0 0 0.406,0.704 z"
       id="path62" />
    <path
       fill="#555555"
       stroke="#333333"
       stroke-width="0.396"
       d="m 22.782,70.33 c 0.23,-0.445 0.277,-2.817 -0.018,-3.361 l 0.894,1.55 c 0.049,0.1 0.05,0.192 -0.027,0.343 z"
       id="path63" />
    <path
       fill="#666666"
       stroke="#333333"
       stroke-width="0.396"
       d="m 43.821,64.954 a 1.1673017,1.1673017 0 1 0 -1.167,-2.022 1.1673017,1.1673017 0 0 0 1.167,2.022 z"
       id="path64" />
    <path
       fill="#4d4d4d"
       stroke="#333333"
       stroke-width="0.396"
       d="m 43.397,65.204 0.852,-0.493 -1.172,-2.03 -0.852,0.493 z M 71.327,47.2 c -1.213,0.697 -1.98,1.377 -2.78,2.17 1.118,-0.312 1.964,-0.574 3.27,-1.323"
       id="path65" />
    <path
       fill="#626251"
       d="m 71.188,46.868 0.867,1.502 0.437,-0.758 -0.45,-0.78 z"
       id="path66" />
    <path
       fill="#70705c"
       stroke="#38382e"
       stroke-width="0.396"
       d="m 85.404,38.612 -13.421,7.977 0.14,0.164 -0.32,0.173 -0.78,-0.251 1.097,1.9 0.143,-0.925 0.347,-0.2 0.013,0.221 13.68,-7.898"
       id="path67" />
    <path
       fill="#636350"
       stroke="#38382e"
       stroke-width="0.793"
       d="m 84.797,37.8 0.933,1.615 c 0.499,0.91 2.251,0.055 1.642,-0.948 l -0.933,-1.616"
       id="path68" />
    <path
       fill="#4d4d4d"
       stroke="#333333"
       stroke-width="0.396"
       d="m 71.88,46.57 0.916,1.586 c 0.409,0.7 1.338,0.265 0.903,-0.521 l -0.914,-1.584 z"
       id="path69" />
    <path
       fill="#555544"
       d="m 84.659,38.356 2.38,-1.374 -4.284,-7.419 -2.38,1.374 z"
       id="path70" />
    <path
       fill="#71715b"
       stroke="#38382e"
       stroke-width="0.396"
       d="m 83.553,36.06 0.622,-0.36 0.437,0.757 0.772,-0.446 -0.437,-0.757 0.655,-0.377 1.161,2.011 -0.051,0.258 -1.733,1 -0.254,-0.081 z"
       id="path71" />
    <path
       fill="#414135"
       d="m 86.73,39.185 a 0.41328713,0.41328713 0 1 0 -0.413,-0.716 0.41328713,0.41328713 0 0 0 0.413,0.716"
       id="path72" />
    <path
       fill="#545445"
       stroke="#38382e"
       stroke-linejoin="round"
       stroke-width="0.396"
       d="m 75.486,46.76 0.955,-0.552 -0.74,-1.282 -0.955,0.551 z"
       id="path73" />
    <path
       fill="#666666"
       stroke="#333333"
       stroke-linejoin="round"
       stroke-width="0.396"
       d="m 73.56,47.675 0.774,-0.447 0.248,0.429 -0.774,0.446 z m -1.359,0.759 0.774,-0.447 0.247,0.428 -0.773,0.447 z"
       id="path74" />
    <path
       fill="#666666"
       d="M 22.8,70.36 46.735,56.54 45.443,54.302 22.949,67.29 l 0.71,1.23 c 0.048,0.1 0.049,0.192 -0.028,0.343 l -0.849,1.467 c -0.02,0.032 -0.015,0.049 0.018,0.03"
       id="path75" />
    <path
       fill="#595959"
       d="m 22.8,70.36 23.935,-13.82 -0.558,-0.965 -22.5,12.99 c 0.028,0.085 0.019,0.17 -0.046,0.298 l -0.85,1.467 c -0.02,0.031 -0.014,0.048 0.019,0.03"
       id="path76" />
    <path
       stroke="#333333"
       stroke-width="0.396"
       d="M 22.8,70.36 46.735,56.54 45.443,54.302 22.949,67.29 l 0.71,1.23 c 0.048,0.1 0.049,0.192 -0.028,0.343 l -0.849,1.467 c -0.02,0.032 -0.015,0.049 0.018,0.03 z"
       id="path77" />
    <path
       fill="#404040"
       stroke="#333333"
       stroke-width="0.396"
       d="m 24.744,72.313 0.063,-0.036 0.272,0.471 -0.063,0.036 z"
       id="path78" />
    <path
       fill="#4d4d4d"
       d="m 41.534,58.19 q 0.043,0.052 0.076,0.11 c 0.2,0.348 0.128,0.837 -0.202,1.028 l -5.654,3.265 c -0.331,0.19 -0.791,0.009 -0.992,-0.339 a 1,1 0 0 1 -0.057,-0.12 z"
       id="path79" />
    <path
       fill="#404040"
       d="m 41.534,58.19 -6.83,3.943 c -0.122,-0.33 -0.026,-0.723 0.268,-0.893 l 5.654,-3.264 c 0.294,-0.17 0.683,-0.056 0.907,0.215"
       id="path80" />
    <path
       stroke="#333333"
       stroke-linecap="round"
       stroke-width="0.793"
       d="m 34.972,61.24 5.654,-3.264 c 0.33,-0.191 0.783,-0.023 0.984,0.325 0.2,0.347 0.128,0.837 -0.203,1.028 l -5.654,3.264 c -0.33,0.191 -0.79,0.01 -0.991,-0.339 -0.201,-0.347 -0.12,-0.823 0.21,-1.014 z"
       id="path81" />
    <path
       fill="#545454"
       stroke="#333333"
       stroke-width="0.396"
       d="m 20.546,65.844 a 0.45,0.45 0 1 0 -0.45,-0.779 0.45024993,0.45024993 0 0 0 0.45,0.78 z"
       id="path82" />
    <path
       fill="#8f8f8f"
       d="m 51.447,54.878 0.984,-0.568 0.323,0.559 -0.987,0.57 c -0.304,0.164 -0.593,0.27 -0.842,0.346 l -2.563,0.81 c -0.53,0.129 -0.648,-0.032 -0.81,-0.313 l -0.323,-0.558 c 0.162,0.28 0.312,0.47 0.813,0.31 l 2.564,-0.81 a 4.5,4.5 0 0 0 0.841,-0.346"
       id="path83" />
    <path
       fill="#999999"
       d="m 49.553,51.518 -2.718,1.569 c -0.427,0.534 -0.427,0.976 -0.363,1.257 l 4.484,-2.588 -0.521,-0.902 -0.605,0.349 z"
       id="path84" />
    <path
       fill="#919191"
       d="m 51.448,54.878 0.984,-0.568 -0.502,-0.868 -0.991,0.572 c -0.304,0.164 -0.559,0.321 -0.845,0.437 l -2.42,0.961 c -0.488,0.182 -0.644,-0.034 -0.807,-0.315 l 0.362,0.626 c 0.163,0.282 0.312,0.472 0.814,0.312 l 2.563,-0.81 c 0.25,-0.076 0.538,-0.182 0.842,-0.347"
       id="path85" />
    <path
       fill="#949494"
       d="m 51.93,53.441 -0.992,0.573 c -0.303,0.164 -0.559,0.32 -0.845,0.437 l -2.42,0.96 c -0.488,0.183 -0.644,-0.033 -0.807,-0.314 l -0.068,-0.12 4.511,-2.61 z"
       id="path86" />
    <path
       fill="#969696"
       d="m 51.308,52.367 -4.511,2.61 -0.244,-0.423 a 0.7,0.7 0 0 1 -0.081,-0.21 l 4.483,-2.589 z"
       id="path87" />
    <path
       stroke="#333333"
       stroke-width="0.396"
       d="m 51.767,55.438 0.987,-0.57 -2.318,-4.015 -0.605,0.349 -0.278,0.316 -2.717,1.568 c -0.52,0.649 -0.422,1.225 -0.282,1.468 l 0.998,1.728 c 0.162,0.28 0.28,0.441 0.81,0.313 l 2.563,-0.81 c 0.25,-0.076 0.538,-0.183 0.842,-0.347 z"
       id="path88" />
    <path
       fill="#666666"
       d="m 50.803,51.491 -0.369,-0.637 -0.604,0.349 -0.278,0.315 -2.718,1.569 c -0.283,0.354 -0.378,0.668 -0.392,0.922 z m 0.744,1.287 -0.238,-0.412 -4.511,2.611 0.068,0.12 c 0.061,0.104 0.12,0.2 0.197,0.27 z m -0.442,-0.764 -0.15,-0.259 -4.483,2.589 c 0.01,0.057 0.04,0.138 0.08,0.21 l 0.039,0.066 z"
       id="path89" />
    <path
       fill="#666666"
       d="m 51.157,54.369 0.886,-0.511 -0.209,-0.36 -0.895,0.516 q -0.112,0.06 -0.217,0.12 c -0.214,0.12 -0.412,0.23 -0.628,0.317 l -2.42,0.961 c -0.488,0.182 -0.644,-0.034 -0.807,-0.315 l 0.21,0.363 c 0.136,0.219 1.112,-0.058 1.771,-0.244 0.17,-0.048 0.317,-0.09 0.425,-0.116 l 0.733,-0.227 c 0.36,-0.107 0.847,-0.34 1.15,-0.504"
       id="path90" />
    <path
       stroke="#333333"
       stroke-width="0.396"
       d="m 51.447,54.878 0.984,-0.568 0.323,0.559 -0.987,0.57 c -0.304,0.164 -0.593,0.27 -0.842,0.346 l -2.563,0.81 c -0.53,0.129 -0.648,-0.032 -0.81,-0.313 l -0.323,-0.558 c 0.162,0.28 0.312,0.47 0.813,0.31 l 2.564,-0.81 a 4.5,4.5 0 0 0 0.841,-0.346 z m -1.894,-3.36 -2.718,1.569 c -0.427,0.534 -0.427,0.976 -0.363,1.257 l 4.484,-2.588 -0.521,-0.902 -0.605,0.349 z"
       id="path91" />
    <path
       stroke="#333333"
       stroke-width="0.396"
       d="m 51.448,54.878 0.984,-0.568 -0.502,-0.868 -0.991,0.572 c -0.304,0.164 -0.559,0.321 -0.845,0.437 l -2.42,0.961 c -0.488,0.182 -0.644,-0.034 -0.807,-0.315 l 0.362,0.626 c 0.163,0.282 0.312,0.472 0.814,0.312 l 2.563,-0.81 c 0.25,-0.076 0.538,-0.182 0.842,-0.347 z"
       id="path92" />
    <path
       stroke="#333333"
       stroke-width="0.396"
       d="m 51.93,53.441 -0.992,0.573 c -0.303,0.164 -0.559,0.32 -0.845,0.437 l -2.42,0.96 c -0.488,0.183 -0.644,-0.033 -0.807,-0.314 l -0.068,-0.12 4.511,-2.61 z m -0.622,-1.074 -4.511,2.61 -0.244,-0.423 a 0.7,0.7 0 0 1 -0.081,-0.21 l 4.483,-2.589 z"
       id="path93" />
    <path
       stroke="#333333"
       stroke-width="0.396"
       d="m 49.48,57.743 3.7,-2.137 -2.745,-4.753 -0.604,0.349 -0.278,0.316 -3.043,1.756 -0.317,0.37 -0.848,0.489 1.749,3.028 c 0.515,0.924 1.447,1.127 2.386,0.582 z"
       id="path94" />
    <path
       stroke="#333333"
       stroke-width="0.793"
       d="m 49.208,57.9 3.971,-2.293 -2.744,-4.754 -0.605,0.35 -0.278,0.315 -3.043,1.756 -0.317,0.37 -0.847,0.489 -8.658,4.998 -0.822,0.299 -2.677,1.545 -0.752,-1.303 -0.113,0.065 a 1,1 0 0 1 -0.367,0.356 l -0.95,0.548 -0.334,0.41 -10.305,5.95 0.645,2.034 c 0.09,0.236 0.128,0.338 0.212,0.487 l 2.088,3.617 21.888,-12.615 0.595,1.03 c 0.571,-0.321 0.454,-1.182 1.184,-1.609 l 0.967,-0.558 a 1.5,1.5 0 0 0 0.308,-0.218 c 0.43,-0.404 0.324,-0.89 0.955,-1.27 z"
       id="path95" />
    <path
       fill="#4d4d4d"
       stroke="#333333"
       stroke-width="0.793"
       d="m 57.761,53.384 1.41,-0.814 -3.977,-6.888 -1.41,0.814 z m 34.309,-19.957 1.41,-0.814 -3.913,-6.777 -1.41,0.814 z"
       id="path96" />
    <rect
       width="0.59100002"
       height="2.0120001"
       x="101.467"
       y="29.457001"
       fill="#666666"
       stroke="#333333"
       stroke-width="0.396"
       rx="0.29499999"
       transform="rotate(-17.18,101.467,29.457)"
       id="rect96" />
    <path
       fill="#737373"
       d="m 82.428,33.276 1.293,-0.746 0.296,0.512 -0.337,0.21 1.048,1.815 -0.053,0.03 0.947,1.641 -0.485,0.28 -0.947,-1.64 -0.068,0.04 -1.044,-1.808 -0.343,0.198 z"
       id="path97" />
    <path
       fill="#404040"
       d="m 84.996,36.775 -0.75,-1.298 0.486,-0.28 0.75,1.298 z"
       id="path98" />
    <path
       stroke="#333333"
       stroke-width="0.396"
       d="m 82.428,33.276 1.293,-0.746 0.296,0.512 -0.337,0.21 1.048,1.815 -0.053,0.03 0.947,1.641 -0.485,0.28 -0.947,-1.64 -0.068,0.04 -1.044,-1.808 -0.343,0.198 z"
       id="path99" />
    <path
       fill="#71715b"
       d="m 82.191,34.085 0.789,-0.455 -0.424,-0.735 0.772,-0.446 0.424,0.735 0.82,-0.473 -1.05,-1.818 -0.514,-0.161 -1.732,1 -0.134,0.535 z"
       id="path100" />
    <path
       stroke="#38382e"
       stroke-width="0.396"
       d="m 82.191,34.085 0.789,-0.455 -0.424,-0.735 0.772,-0.446 0.424,0.735 0.82,-0.473 -1.05,-1.818 -0.514,-0.161 -1.732,1 -0.134,0.535 z"
       id="path101" />
    <path
       stroke="#38382e"
       stroke-width="0.793"
       d="m 84.659,38.356 2.38,-1.374 -4.284,-7.419 -2.38,1.374 z"
       id="path102" />
    <path
       fill="#999999"
       stroke="#333333"
       stroke-width="0.396"
       d="m 85.243,35.333 0.158,0.273 c 0.381,-0.06 0.756,0.148 1.06,0.44 0.482,0.428 -0.246,1.243 -0.602,0.565 -0.134,-0.242 -0.448,-0.44 -0.613,-0.412 l -0.376,0.217 c -0.07,0.234 -0.116,0.513 0.026,0.75 0.41,0.648 -0.632,0.85 -0.762,0.217 -0.061,-0.371 -0.032,-0.824 0.148,-1.13 l -0.158,-0.274 z"
       id="path103" />
  </g>
</svg>
