<?xml version="1.0" encoding="UTF-8" standalone="no"?>
<svg
   xml:space="preserve"
   width="124.059"
   height="64.087"
   version="1.1"
   id="svg98"
   sodipodi:docname="aircannon.svg"
   inkscape:version="1.4.2 (f4327f4, 2025-05-13)"
   xmlns:inkscape="http://www.inkscape.org/namespaces/inkscape"
   xmlns:sodipodi="http://sodipodi.sourceforge.net/DTD/sodipodi-0.dtd"
   xmlns="http://www.w3.org/2000/svg"
   xmlns:svg="http://www.w3.org/2000/svg"><sodipodi:namedview
     id="namedview98"
     pagecolor="#505050"
     bordercolor="#ffffff"
     borderopacity="1"
     inkscape:showpageshadow="0"
     inkscape:pageopacity="0"
     inkscape:pagecheckerboard="1"
     inkscape:deskcolor="#505050"
     showgrid="false"
     inkscape:zoom="1.9293695"
     inkscape:cx="104.69742"
     inkscape:cy="-14.253361"
     inkscape:window-width="1920"
     inkscape:window-height="991"
     inkscape:window-x="-9"
     inkscape:window-y="-9"
     inkscape:window-maximized="1"
     inkscape:current-layer="svg98" /><defs
     id="defs1"><path
       id="a"
       d="M28.903-178.12h32.263v57.133H28.903z" /><path
       id="a-9"
       d="m 28.903,-178.12 h 32.263 v 57.133 H 28.903 Z" /></defs><path
     d="M69.069 61.524s-.29 4.74-5.417 8.706c0 0 2.805 3.289 5.223 3.095 0 0 6.192-1.547 2.322-12.188 0 0-1.257-.387-2.128.387"
     style="fill:#404040;fill-opacity:1;fill-rule:evenodd;stroke:#333;stroke-width:2.88498;stroke-linecap:round;stroke-linejoin:round;stroke-miterlimit:29;stroke-dasharray:none;stroke-opacity:1"
     transform="rotate(164.383 59.78 4.976)scale(.50793 -.45966)"
     id="path2" /><path
     d="M77.001 92.092s.21 2.236 2.322 1.935 1.644-2.129 1.644-2.129-2.902-.096-3.966.194"
     style="fill:#333;fill-opacity:1;fill-rule:evenodd;stroke:none;stroke-width:2.11667;stroke-linecap:round;stroke-linejoin:round;stroke-miterlimit:29;stroke-dasharray:none;stroke-opacity:1"
     transform="rotate(164.383 59.78 4.976)scale(.50793 -.45966)"
     id="path3" /><path
     d="M68.798 61.233s7.877 6.638-.123 12.286c0 0 5.52 5.9 3.006 15.477 0 0-.677 2.709 1.45 2.902 2.129.194 5.515-1.064 9.19-.677 0 0 1.258-.677 1.258-2.418V61.33Z"
     style="fill:#434343;fill-opacity:1;fill-rule:evenodd;stroke:#333333;stroke-width:2.88498;stroke-linecap:round;stroke-linejoin:round;stroke-miterlimit:29;stroke-dasharray:none;stroke-opacity:1"
     transform="rotate(164.383 59.78 4.976)scale(.50793 -.45966)"
     id="path4" /><path
     d="M72.848 88.512s3.9-.957 9.713-.889c0 0 .206 1.915-.478 2.463 0 0-4.994.136-9.235.889 0 0-.479-1.163 0-2.463"
     style="fill:#4f4f4f;fill-opacity:1;fill-rule:evenodd;stroke:none;stroke-width:2.11667;stroke-linecap:round;stroke-linejoin:round;stroke-miterlimit:29;stroke-dasharray:none;stroke-opacity:1"
     transform="rotate(164.383 59.78 4.976)scale(.50793 -.45966)"
     id="path5" /><path
     d="M75.037 68.83v14.023s0 1.282 1.282 1.282h2.805s1.202 0 1.202-1.202V68.91s-.16-1.602-1.603-1.602H76.4s-1.362.08-1.362 1.522"
     style="fill:#383838;fill-opacity:1;fill-rule:evenodd;stroke:none;stroke-width:2.47953;stroke-linecap:round;stroke-linejoin:round;stroke-miterlimit:29;stroke-dasharray:none;stroke-opacity:1"
     transform="rotate(164.383 59.78 4.976)scale(.50793 -.45966)"
     id="path6" /><path
     d="M233.004 161.48v-3.87s-3.338-.096-8.658 3.24c0 0-1.741.726-3.966.726z"
     style="fill:#4d4d4d;fill-opacity:1;fill-rule:evenodd;stroke:#333;stroke-width:2.88498;stroke-linecap:round;stroke-linejoin:round;stroke-miterlimit:29;stroke-dasharray:none;stroke-opacity:1"
     transform="rotate(-15.617 -140.332 53.116)scale(.50793 .45966)"
     id="path7" /><path
     d="m 56.905171,40.059924 c 0,0 0.778793,1.642745 -1.739988,2.346806 l -6.476725,1.810406 c 0,0 -1.677126,0.315115 -2.129407,-1.30292 z"
     style="fill:#4d4d4d;fill-opacity:1;fill-rule:evenodd;stroke:#333333;stroke-width:1.02276;stroke-linecap:round;stroke-linejoin:round;stroke-miterlimit:29;stroke-dasharray:none;stroke-opacity:1"
     id="path8" /><path
     d="m 52.224986,44.642769 2.392084,-0.668647 c 0,0 1.707986,-0.349991 2.09852,1.047141 l 3.911641,13.993892 c 0,0 0.354379,1.09987 -0.917974,1.455524 l -2.838215,0.793352"
     style="fill:none;fill-opacity:1;fill-rule:evenodd;stroke:#333333;stroke-width:1.02276;stroke-linecap:round;stroke-linejoin:round;stroke-miterlimit:29;stroke-dasharray:none;stroke-opacity:1"
     id="path9" /><path
     d="m 51.823236,43.380979 -3.740749,1.045633 5.358569,19.170274 3.740749,-1.045633 z"
     style="fill:#565656;fill-opacity:1;fill-rule:evenodd;stroke:#333333;stroke-width:1.02276;stroke-linecap:round;stroke-linejoin:round;stroke-miterlimit:29;stroke-dasharray:none;stroke-opacity:1"
     id="path10" /><path
     d="M 38.183995,36.165456 5.888423,45.192872 5.7974719,44.867494 3.39854,45.538056 5.6991706,53.768559 8.0981025,53.097998 8.0048002,52.764209 40.177099,43.771252 Z"
     style="fill:#855b47;fill-opacity:1;fill-rule:evenodd;stroke:#423324;stroke-width:1.394;stroke-linecap:round;stroke-linejoin:round;stroke-miterlimit:29;stroke-dasharray:none;stroke-opacity:1"
     id="path11" /><path
     d="m 4.1802306,46.200612 -0.106419,-0.380714 1.3843755,-0.386967 c 0,0 0.2182766,0.335606 0.8062693,0.171247 L 37.764135,36.799234 37.863748,37.1556 5.9375058,46.079779 c 0,0 -0.4861525,0.0853 -0.5690603,-0.211302 z"
     style="fill:#966750;fill-opacity:1;fill-rule:evenodd;stroke:none;stroke-width:1.02276;stroke-linecap:round;stroke-linejoin:round;stroke-miterlimit:29;stroke-dasharray:none;stroke-opacity:1"
     id="path12" /><path
     d="m 5.965577,52.823534 0.1062952,0.380271 1.3838863,-0.386831 c 0,0 0.012739,-0.399703 0.6012213,-0.564198 L 39.556169,43.447969 39.456556,43.091603 7.5303137,52.015782 c 0,0 -0.4599189,0.17915 -0.3770111,0.475753 z"
     style="fill:#644535;fill-opacity:1;fill-rule:evenodd;stroke:none;stroke-width:1.02276;stroke-linecap:round;stroke-linejoin:round;stroke-miterlimit:29;stroke-dasharray:none;stroke-opacity:1"
     id="path13" /><path
     d="M 35.515605,26.619276 3.220033,35.646692 3.1290819,35.321314 0.73014998,35.991876 3.0307806,44.222379 5.4297125,43.551818 5.3364102,43.21803 37.508709,34.225072 Z"
     style="fill:#855b47;fill-opacity:1;fill-rule:evenodd;stroke:#423324;stroke-width:1.394;stroke-linecap:round;stroke-linejoin:round;stroke-miterlimit:29;stroke-dasharray:none;stroke-opacity:1"
     id="path14" /><path
     d="m 1.5118406,36.654432 -0.106419,-0.380714 1.3843755,-0.386967 c 0,0 0.2182766,0.335606 0.8062693,0.171247 l 31.4996786,-8.804943 0.09961,0.356366 -31.9262422,8.924178 c 0,0 -0.4861525,0.0853 -0.5690603,-0.211302 z"
     style="fill:#966750;fill-opacity:1;fill-rule:evenodd;stroke:none;stroke-width:1.02276;stroke-linecap:round;stroke-linejoin:round;stroke-miterlimit:29;stroke-dasharray:none;stroke-opacity:1"
     id="path15" /><path
     d="m 3.297187,43.277354 0.1062952,0.380271 1.3838863,-0.386831 c 0,0 0.012739,-0.399703 0.6012213,-0.564198 L 36.887779,33.901789 36.788166,33.545423 4.8619237,42.469602 c 0,0 -0.4599189,0.17915 -0.3770111,0.475753 z"
     style="fill:#644535;fill-opacity:1;fill-rule:evenodd;stroke:none;stroke-width:1.02276;stroke-linecap:round;stroke-linejoin:round;stroke-miterlimit:29;stroke-dasharray:none;stroke-opacity:1"
     id="path16" /><path
     d="m 51.069361,44.100962 -0.521953,0.145899 5.094501,18.225572 0.521953,-0.145899 z m -1.385353,0.387241 -0.521954,0.145899 5.094501,18.225572 0.521954,-0.145899 z"
     style="fill:#434343;fill-opacity:1;fill-rule:evenodd;stroke:none;stroke-width:1.02833;stroke-linecap:round;stroke-linejoin:round;stroke-miterlimit:29;stroke-dasharray:none;stroke-opacity:1"
     id="path17" /><path
     d="m 53.026865,50.986948 -2.030092,0.567461 2.497506,8.934824 2.030091,-0.567461 z"
     style="fill:#626262;fill-opacity:1;fill-rule:evenodd;stroke:#37283e;stroke-width:0.511377;stroke-linecap:round;stroke-linejoin:round;stroke-miterlimit:29;stroke-dasharray:none;stroke-opacity:1"
     id="path18" /><ellipse
     cx="-36.289333"
     cy="64.448944"
     style="fill:#424242;fill-opacity:1;fill-rule:evenodd;stroke:none;stroke-width:0.887678;stroke-linecap:round;stroke-linejoin:round;stroke-miterlimit:29;stroke-dasharray:none;stroke-opacity:1"
     id="circle18"
     transform="matrix(-0.96308274,0.26920558,0.26920559,0.96308273,0,0)"
     rx="0.73446679"
     ry="0.66466838" /><ellipse
     cx="-36.289333"
     cy="71.69043"
     style="fill:#424242;fill-opacity:1;fill-rule:evenodd;stroke:none;stroke-width:0.887678;stroke-linecap:round;stroke-linejoin:round;stroke-miterlimit:29;stroke-dasharray:none;stroke-opacity:1"
     id="circle19"
     transform="matrix(-0.96308274,0.26920558,0.26920559,0.96308273,0,0)"
     rx="0.73446679"
     ry="0.66466838" /><ellipse
     cx="-36.289333"
     cy="68.069687"
     style="fill:#424242;fill-opacity:1;fill-rule:evenodd;stroke:none;stroke-width:0.887678;stroke-linecap:round;stroke-linejoin:round;stroke-miterlimit:29;stroke-dasharray:none;stroke-opacity:1"
     id="circle20"
     transform="matrix(-0.96308274,0.26920558,0.26920559,0.96308273,0,0)"
     rx="0.73446679"
     ry="0.66466838" /><path
     d="M20.54 60.377v2.49h10.048V66.6h-4.446v-1.245H22.23l-.162.87H18.14v-5.85z"
     style="fill:#4d4d4d;fill-opacity:1;fill-rule:evenodd;stroke:#333;stroke-width:2.88498;stroke-linecap:round;stroke-linejoin:round;stroke-miterlimit:29;stroke-dasharray:none;stroke-opacity:1"
     transform="rotate(164.383 59.754 5.125)scale(.50793 -.45966)"
     id="path20" /><path
     d="M32.456 68.29h4.89s3.424.267 3.424 3.424v31.611s.089 2.512-2.512 2.512h-5.802"
     style="fill:none;fill-opacity:1;fill-rule:evenodd;stroke:#333;stroke-width:2.88498;stroke-linecap:round;stroke-linejoin:round;stroke-miterlimit:29;stroke-dasharray:none;stroke-opacity:1"
     transform="rotate(164.383 59.754 5.125)scale(.50793 -.45966)"
     id="path21" /><path
     d="M24.72 66.334h7.647v43.304H24.72z"
     style="fill:#565656;fill-opacity:1;fill-rule:evenodd;stroke:#333333;stroke-width:2.88498;stroke-linecap:round;stroke-linejoin:round;stroke-miterlimit:29;stroke-dasharray:none;stroke-opacity:1"
     transform="rotate(164.383 59.754 5.125)scale(.50793 -.45966)"
     id="path22" /><g
     style="fill:#4d4d4d;fill-opacity:1"
     id="g23"><path
       d="M26.32 67.312h1.067v41.348H26.32zM29.455 67.312h1.067v41.348h-1.067z"
       style="fill:#4d4d4d;fill-opacity:1;fill-rule:evenodd;stroke:none;stroke-width:2.13278;stroke-linecap:round;stroke-linejoin:round;stroke-miterlimit:29;stroke-dasharray:none;stroke-opacity:1"
       transform="rotate(164.383 59.723 5.13)scale(.50793 -.45966)"
       id="path23" /></g><path
     d="M232.946 161.455H82.325v42.273h150.621Z"
     style="fill:#4a4a4a;fill-opacity:1;fill-rule:evenodd;stroke:#333333;stroke-width:2.88631412;stroke-linecap:round;stroke-linejoin:round;stroke-miterlimit:29;stroke-dasharray:none;stroke-opacity:1"
     transform="rotate(-15.617 -140.332 53.116)scale(.50793 .45966)"
     id="path24" /><g
     style="stroke-width:1.05833;stroke-dasharray:none"
     id="g26"><path
       d="M144.803 29.3h19.24v22.761h-19.24z"
       style="fill:#484848;fill-opacity:1;fill-rule:evenodd;stroke:#333;stroke-width:2.88498;stroke-linecap:round;stroke-linejoin:round;stroke-miterlimit:29;stroke-dasharray:none;stroke-opacity:1"
       transform="rotate(164.383 59.867 5.376)scale(.50793 -.45966)"
       id="path25" /><path
       d="M152.726 34.676h7.419v12.009h-7.419z"
       style="fill:#3f3f3f;fill-opacity:1;fill-rule:evenodd;stroke:#333;stroke-width:2.88498;stroke-linecap:round;stroke-linejoin:round;stroke-miterlimit:29;stroke-dasharray:none;stroke-opacity:1"
       transform="rotate(164.383 59.867 5.376)scale(.50793 -.45966)"
       id="path26" /></g><path
     d="M130.001 203.386v-41.247h102.877v41.247z"
     style="fill:#545454;fill-opacity:1;fill-rule:evenodd;stroke:#333333;stroke-width:2.88498;stroke-linecap:round;stroke-linejoin:round;stroke-miterlimit:29;stroke-dasharray:none;stroke-opacity:1"
     transform="rotate(-15.617 -140.332 53.116)scale(.50793 .45966)"
     id="path27" /><path
     d="M232.81 195.109H130.07v-23.804h102.74z"
     style="fill:#666666;fill-opacity:1;fill-rule:evenodd;stroke:#333333;stroke-width:2.88497578;stroke-linecap:round;stroke-linejoin:round;stroke-miterlimit:29;stroke-dasharray:none;stroke-opacity:1"
     transform="rotate(-15.617 -140.332 53.116)scale(.50793 .45966)"
     id="path28" /><path
     d="M-232.181 176.38h6.13v12.26h-6.13z"
     style="fill:#4d4d4d;fill-opacity:1;fill-rule:evenodd;stroke:#33283e;stroke-width:1.05833;stroke-linecap:round;stroke-linejoin:round;stroke-miterlimit:29;stroke-dasharray:none;stroke-opacity:1"
     transform="rotate(164.383 -7.284 -19.244)scale(.50793 -.45966)"
     id="path29" /><path
     d="M230.61 177.784a.77.77 0 0 1 .772.771v7.91a.77.77 0 0 1-.772.771h-2.83a.77.77 0 0 1-.772-.772v-7.909a.77.77 0 0 1 .772-.771zm-.341.585h-2.1c-.317 0-.573.297-.573.665v6.812c0 .369.256.665.573.665h2.1c.317 0 .573-.296.573-.665v-6.812c0-.368-.256-.665-.573-.665"
     style="fill:#333;fill-opacity:1;fill-rule:evenodd;stroke:none;stroke-width:2.80755;stroke-linecap:round;stroke-linejoin:round;stroke-miterlimit:29;stroke-dasharray:none;stroke-opacity:1"
     transform="rotate(-15.617 -140.332 53.116)scale(.50793 .45966)"
     id="path30" /><path
     d="M133.309 177.247h15.381v10.06h-15.381zM174.498 177.247h15.381v10.06h-15.381z"
     style="fill:#ccc;fill-opacity:1;fill-rule:evenodd;stroke:none;stroke-width:2.11667;stroke-linecap:round;stroke-linejoin:round;stroke-miterlimit:29;stroke-dasharray:none;stroke-opacity:1"
     transform="rotate(-15.617 -140.332 53.116)scale(.50793 .45966)"
     id="path31" /><path
     d="M149.896 174.636h23.367v15.284h-23.367z"
     style="fill:#333;fill-opacity:1;fill-rule:evenodd;stroke:#a7a7a7;stroke-width:1.05833;stroke-linecap:square;stroke-linejoin:miter;stroke-miterlimit:29;stroke-dasharray:none;stroke-opacity:1"
     transform="rotate(-15.617 -140.332 53.116)scale(.50793 .45966)"
     id="path32" /><path
     d="M58.015 42.677h13.749v1.163H58.015zM58.015 37.004h13.749v1.163H58.015z"
     style="fill:#e5e5e5;fill-opacity:1;fill-rule:evenodd;stroke:none;stroke-width:.716602;stroke-linecap:square;stroke-linejoin:miter;stroke-miterlimit:29;stroke-dasharray:none;stroke-opacity:1"
     transform="matrix(.48918 -.13674 .12374 .44269 35.42 16.951)"
     id="path33" /><path
     d="M62.872 38.938h8.003v1.163h-8.003z"
     style="fill:#e5e5e5;fill-opacity:1;fill-rule:evenodd;stroke:none;stroke-width:.54673;stroke-linecap:square;stroke-linejoin:miter;stroke-miterlimit:29;stroke-dasharray:none;stroke-opacity:1"
     transform="matrix(.48918 -.13674 .12374 .44269 35.42 16.951)"
     id="path34" /><path
     d="M57.977 35.289h8.003v1.163h-8.003z"
     style="fill:#c33;fill-opacity:1;fill-rule:evenodd;stroke:none;stroke-width:.54673;stroke-linecap:square;stroke-linejoin:miter;stroke-miterlimit:29;stroke-dasharray:none;stroke-opacity:1"
     transform="matrix(.48918 -.13674 .12374 .44269 35.42 16.951)"
     id="path35" /><path
     d="M66.669 35.289h3.899v1.163h-3.899z"
     style="fill:#c33;fill-opacity:1;fill-rule:evenodd;stroke:none;stroke-width:.381608;stroke-linecap:square;stroke-linejoin:miter;stroke-miterlimit:29;stroke-dasharray:none;stroke-opacity:1"
     transform="matrix(.48918 -.13674 .12374 .44269 35.42 16.951)"
     id="path36" /><path
     d="M65.688 40.765h3.967v1.163h-3.967zM58.061 38.938h3.967v1.163h-3.967z"
     style="fill:#e5e5e5;fill-opacity:1;fill-rule:evenodd;stroke:none;stroke-width:.384941;stroke-linecap:square;stroke-linejoin:miter;stroke-miterlimit:29;stroke-dasharray:none;stroke-opacity:1"
     transform="matrix(.48918 -.13674 .12374 .44269 35.42 16.951)"
     id="path37" /><path
     d="M58.061 40.765h6.772v1.163h-6.772z"
     style="fill:#e5e5e5;fill-opacity:1;fill-rule:evenodd;stroke:none;stroke-width:.502919;stroke-linecap:square;stroke-linejoin:miter;stroke-miterlimit:29;stroke-dasharray:none;stroke-opacity:1"
     transform="matrix(.48918 -.13674 .12374 .44269 35.42 16.951)"
     id="path38" /><path
     d="M74.28 33.197h8.003v1.163H74.28z"
     style="fill:#c33;fill-opacity:1;fill-rule:evenodd;stroke:none;stroke-width:.54673;stroke-linecap:square;stroke-linejoin:miter;stroke-miterlimit:29;stroke-dasharray:none;stroke-opacity:1"
     transform="matrix(.48918 -.13674 .12374 .44269 35.752 16.858)"
     id="path39" /><path
     d="M74.26 40.75h13.749v1.163H74.26zM74.26 35.076h13.749v1.163H74.26z"
     style="fill:#e5e5e5;fill-opacity:1;fill-rule:evenodd;stroke:none;stroke-width:.716602;stroke-linecap:square;stroke-linejoin:miter;stroke-miterlimit:29;stroke-dasharray:none;stroke-opacity:1"
     transform="matrix(.48918 -.13674 .12374 .44269 35.752 16.858)"
     id="path40" /><path
     d="M79.117 37.01h8.003v1.163h-8.003z"
     style="fill:#e5e5e5;fill-opacity:1;fill-rule:evenodd;stroke:none;stroke-width:.54673;stroke-linecap:square;stroke-linejoin:miter;stroke-miterlimit:29;stroke-dasharray:none;stroke-opacity:1"
     transform="matrix(.48918 -.13674 .12374 .44269 35.752 16.858)"
     id="path41" /><path
     d="M81.932 38.837h3.967V40h-3.967zM74.306 37.01h3.967v1.163h-3.967z"
     style="fill:#e5e5e5;fill-opacity:1;fill-rule:evenodd;stroke:none;stroke-width:.384941;stroke-linecap:square;stroke-linejoin:miter;stroke-miterlimit:29;stroke-dasharray:none;stroke-opacity:1"
     transform="matrix(.48918 -.13674 .12374 .44269 35.752 16.858)"
     id="path42" /><path
     d="M74.306 38.837h6.772V40h-6.772z"
     style="fill:#e5e5e5;fill-opacity:1;fill-rule:evenodd;stroke:none;stroke-width:.502919;stroke-linecap:square;stroke-linejoin:miter;stroke-miterlimit:29;stroke-dasharray:none;stroke-opacity:1"
     transform="matrix(.48918 -.13674 .12374 .44269 35.752 16.858)"
     id="path43" /><path
     d="M79.096 42.666h8.003v1.163h-8.003z"
     style="fill:#e5e5e5;fill-opacity:1;fill-rule:evenodd;stroke:none;stroke-width:.54673;stroke-linecap:square;stroke-linejoin:miter;stroke-miterlimit:29;stroke-dasharray:none;stroke-opacity:1"
     transform="matrix(.48918 -.13674 .12374 .44269 35.752 16.858)"
     id="path44" /><path
     d="M81.911 44.494h3.967v1.163h-3.967zM74.285 42.666h3.967v1.163h-3.967z"
     style="fill:#e5e5e5;fill-opacity:1;fill-rule:evenodd;stroke:none;stroke-width:.384941;stroke-linecap:square;stroke-linejoin:miter;stroke-miterlimit:29;stroke-dasharray:none;stroke-opacity:1"
     transform="matrix(.48918 -.13674 .12374 .44269 35.752 16.858)"
     id="path45" /><path
     d="M74.285 44.494h6.772v1.163h-6.772z"
     style="fill:#e5e5e5;fill-opacity:1;fill-rule:evenodd;stroke:none;stroke-width:.502919;stroke-linecap:square;stroke-linejoin:miter;stroke-miterlimit:29;stroke-dasharray:none;stroke-opacity:1"
     transform="matrix(.48918 -.13674 .12374 .44269 35.752 16.858)"
     id="path46" /><path
     d="M57.996 42.615h13.749v1.163H57.996zM57.996 36.941h13.749v1.163H57.996z"
     style="fill:#e5e5e5;fill-opacity:1;fill-rule:evenodd;stroke:none;stroke-width:.716602;stroke-linecap:square;stroke-linejoin:miter;stroke-miterlimit:29;stroke-dasharray:none;stroke-opacity:1"
     transform="rotate(-15.617 69.155 -197)scale(.50793 .45966)"
     id="path47" /><path
     d="M62.853 38.875h8.003v1.163h-8.003z"
     style="fill:#e5e5e5;fill-opacity:1;fill-rule:evenodd;stroke:none;stroke-width:.54673;stroke-linecap:square;stroke-linejoin:miter;stroke-miterlimit:29;stroke-dasharray:none;stroke-opacity:1"
     transform="rotate(-15.617 69.155 -197)scale(.50793 .45966)"
     id="path48" /><path
     d="M57.958 35.226h8.003v1.163h-8.003z"
     style="fill:#c33;fill-opacity:1;fill-rule:evenodd;stroke:none;stroke-width:.54673;stroke-linecap:square;stroke-linejoin:miter;stroke-miterlimit:29;stroke-dasharray:none;stroke-opacity:1"
     transform="rotate(-15.617 69.155 -197)scale(.50793 .45966)"
     id="path49" /><path
     d="M66.65 35.226h3.899v1.163H66.65z"
     style="fill:#c33;fill-opacity:1;fill-rule:evenodd;stroke:none;stroke-width:.381608;stroke-linecap:square;stroke-linejoin:miter;stroke-miterlimit:29;stroke-dasharray:none;stroke-opacity:1"
     transform="rotate(-15.617 69.155 -197)scale(.50793 .45966)"
     id="path50" /><path
     d="M65.668 40.702h3.967v1.163h-3.967zM58.042 38.875h3.967v1.163h-3.967z"
     style="fill:#e5e5e5;fill-opacity:1;fill-rule:evenodd;stroke:none;stroke-width:.384941;stroke-linecap:square;stroke-linejoin:miter;stroke-miterlimit:29;stroke-dasharray:none;stroke-opacity:1"
     transform="rotate(-15.617 69.155 -197)scale(.50793 .45966)"
     id="path51" /><path
     d="M58.042 40.702h6.772v1.163h-6.772z"
     style="fill:#e5e5e5;fill-opacity:1;fill-rule:evenodd;stroke:none;stroke-width:.502919;stroke-linecap:square;stroke-linejoin:miter;stroke-miterlimit:29;stroke-dasharray:none;stroke-opacity:1"
     transform="rotate(-15.617 69.155 -197)scale(.50793 .45966)"
     id="path52" /><path
     d="M232.33 165.487s-.507-1.506-2.58-1.49l-96.417.793s-1.91.137-1.91 1.908v-3.223l100.908-.792z"
     style="fill:#616161;fill-opacity:1;fill-rule:evenodd;stroke:none;stroke-width:1.05596858;stroke-linecap:square;stroke-linejoin:miter;stroke-miterlimit:29;stroke-dasharray:none;stroke-opacity:1"
     transform="rotate(-15.617 -140.332 53.116)scale(.50793 .45966)"
     id="path58" /><path
     d="M232.33 174.641s-.507-1.507-2.58-1.489l-96.283.834s-1.909.137-1.909 1.907v-3.223l100.773-.833z"
     style="fill:#727272;fill-opacity:1;fill-rule:evenodd;stroke:none;stroke-width:1.05877;stroke-linecap:square;stroke-linejoin:miter;stroke-miterlimit:29;stroke-dasharray:none;stroke-opacity:1"
     transform="rotate(-15.617 -140.332 53.116)scale(.50793 .45966)"
     id="path59" /><path
     d="M232.347 200.07s-.44 1.507-2.516 1.49l-96.46-.83s-1.91-.138-1.91-1.908v3.222l100.886.83z"
     style="fill:#474747;fill-opacity:1;fill-rule:evenodd;stroke:none;stroke-width:1.05927;stroke-linecap:square;stroke-linejoin:miter;stroke-miterlimit:29;stroke-dasharray:none;stroke-opacity:1"
     transform="rotate(-15.617 -140.332 53.116)scale(.50793 .45966)"
     id="path60" /><path
     d="M232.347 191.788s-.44 1.504-2.516 1.49l-96.387-.688s-1.91-.137-1.91-1.908v3.223l100.813.688z"
     style="fill:#5a5a5a;fill-opacity:1;fill-rule:evenodd;stroke:none;stroke-width:1.05927;stroke-linecap:square;stroke-linejoin:miter;stroke-miterlimit:29;stroke-dasharray:none;stroke-opacity:1"
     transform="rotate(-15.617 -140.332 53.116)scale(.50793 .45966)"
     id="path61" /><path
     d="M128.574 199.69s-.199 1.485-1.137 1.49l-43.097.205s-.864-.137-.864-1.907v3.222l45.098-.205z"
     style="fill:#3d3d3d;fill-opacity:1;fill-rule:evenodd;stroke:none;stroke-width:0.712154;stroke-linecap:square;stroke-linejoin:miter;stroke-miterlimit:29;stroke-dasharray:none;stroke-opacity:1"
     transform="rotate(-15.617 -140.332 53.116)scale(.50793 .45966)"
     id="path62" /><path
     d="M111.04 165.712s-.118-1.48-.673-1.49l-26.291-.39s-.511.137-.511 1.908v-3.223l27.474.39z"
     style="fill:#575757;fill-opacity:1;fill-rule:evenodd;stroke:none;stroke-width:0.547644;stroke-linecap:square;stroke-linejoin:miter;stroke-miterlimit:29;stroke-dasharray:none;stroke-opacity:1"
     transform="rotate(-15.617 -140.332 53.116)scale(.50793 .45966)"
     id="path63" /><path
     d="M218.924 178.556H207.09l3.078.547h3.694l4.241.41 3.557-.752zM200.124 190.549l-8.96-.069-6.362-.273 2.12-.41 5.336.341s2.941-.41 3.351-.41 7.525.479 7.525.479z"
     style="fill:#737373;fill-opacity:1;fill-rule:evenodd;stroke:none;stroke-width:2.11667;stroke-linecap:round;stroke-linejoin:round;stroke-miterlimit:29;stroke-dasharray:none;stroke-opacity:1"
     transform="rotate(-15.617 -140.332 53.116)scale(.50793 .45966)"
     id="path64" /><path
     d="M130.07 195.998h-18.606V162.14h18.606z"
     style="fill:#5a5a5a;fill-opacity:1;fill-rule:evenodd;stroke:#333333;stroke-width:1.05833;stroke-linecap:round;stroke-linejoin:round;stroke-miterlimit:29;stroke-dasharray:none;stroke-opacity:1"
     transform="rotate(-15.617 -140.332 53.116)scale(.50793 .45966)"
     id="path65" /><g
     transform="rotate(-15.617 -132.88 53.392)scale(.50793 .45966)"
     id="g67"
     style="fill:#5a5a5a;fill-opacity:1;stroke:#333333;stroke-opacity:1"><path
       d="m125.692 175.136-1.231 4.24-3.079 3.557s-2.188 1.847-4.24 1.916-2.668.137-2.6.684.821 2.804 1.505 2.873c.684.068 2.941.342 2.941.342s1.674.24 2.668-.753c1.165-1.165 6.088-5.062 6.088-5.062l.615-5.13s.343-2.257-2.667-2.667"
       style="fill:#5a5a5a;fill-opacity:1;fill-rule:evenodd;stroke:#333333;stroke-width:1.47146;stroke-linecap:round;stroke-linejoin:round;stroke-miterlimit:29;stroke-dasharray:none;stroke-opacity:1"
       id="path66" /><circle
       cx="-125.692"
       cy="181.292"
       r="1.026"
       style="fill:#5a5a5a;fill-opacity:1;fill-rule:evenodd;stroke:#333333;stroke-width:1.05833;stroke-linecap:round;stroke-linejoin:round;stroke-miterlimit:29;stroke-dasharray:none;stroke-opacity:1"
       transform="scale(-1 1)"
       id="circle66" /><circle
       cx="-119.65"
       cy="186.337"
       r="1.026"
       style="fill:#5a5a5a;fill-opacity:1;fill-rule:evenodd;stroke:#333333;stroke-width:1.05833;stroke-linecap:round;stroke-linejoin:round;stroke-miterlimit:29;stroke-dasharray:none;stroke-opacity:1"
       transform="scale(-1 1)"
       id="circle67" /></g><g
     transform="rotate(164.383 65.375 53.577)scale(.50793 .45966)"
     id="g69"
     style="fill:#5a5a5a;fill-opacity:1;stroke:#333333;stroke-opacity:1"><path
       d="m125.692 175.136-1.231 4.24-3.079 3.557s-2.188 1.847-4.24 1.916-2.668.137-2.6.684.821 2.804 1.505 2.873c.684.068 2.941.342 2.941.342s1.674.24 2.668-.753c1.165-1.165 6.088-5.062 6.088-5.062l.615-5.13s.343-2.257-2.667-2.667"
       style="fill:#5a5a5a;fill-opacity:1;fill-rule:evenodd;stroke:#333333;stroke-width:1.47146;stroke-linecap:round;stroke-linejoin:round;stroke-miterlimit:29;stroke-dasharray:none;stroke-opacity:1"
       id="path67" /><circle
       cx="-125.692"
       cy="181.292"
       r="1.026"
       style="fill:#5a5a5a;fill-opacity:1;fill-rule:evenodd;stroke:#333333;stroke-width:1.05833;stroke-linecap:round;stroke-linejoin:round;stroke-miterlimit:29;stroke-dasharray:none;stroke-opacity:1"
       transform="scale(-1 1)"
       id="circle68" /><circle
       cx="-119.65"
       cy="186.337"
       r="1.026"
       style="fill:#5a5a5a;fill-opacity:1;fill-rule:evenodd;stroke:#333333;stroke-width:1.05833;stroke-linecap:round;stroke-linejoin:round;stroke-miterlimit:29;stroke-dasharray:none;stroke-opacity:1"
       transform="scale(-1 1)"
       id="circle69" /></g><path
     d="m109.284 178.867-.252 5.03.252 6.979-.63-1.383-.062-3.521-.314-3.081.628-2.327-.314-3.332zM98.197 199.628l-5.03-.252-6.98.252 1.384-.629 3.52-.063 3.082-.314 2.326.629 3.333-.315z"
     style="fill:#3e3e3e;fill-opacity:1;fill-rule:evenodd;stroke:none;stroke-width:2.11667;stroke-linecap:round;stroke-linejoin:round;stroke-miterlimit:29;stroke-dasharray:none;stroke-opacity:1"
     transform="rotate(-15.617 -140.332 53.116)scale(.50793 .45966)"
     id="path69" /><path
     d="M6.156 17.921h7.25v43.915h-7.25Z"
     style="fill:#727272;fill-opacity:1;fill-rule:evenodd;stroke:#333333;stroke-width:2.88497578;stroke-linecap:round;stroke-linejoin:round;stroke-miterlimit:29;stroke-dasharray:none;stroke-opacity:1"
     transform="rotate(164.383 59.78 4.976)scale(.50793 -.45966)"
     id="path70" /><path
     d="M7.225 20.051h5.113v-1.067H7.181Z"
     style="fill:#808080;fill-opacity:1;fill-rule:evenodd;stroke:none;stroke-width:1.05341;stroke-linecap:round;stroke-linejoin:round;stroke-miterlimit:29;stroke-dasharray:none;stroke-opacity:1"
     transform="rotate(164.383 59.78 4.976)scale(.50793 -.45966)"
     id="path71" /><path
     d="M7.247 60.88h5.113v-1.067H7.203Z"
     style="fill:#666666;fill-opacity:1;fill-rule:evenodd;stroke:none;stroke-width:1.0538;stroke-linecap:round;stroke-linejoin:round;stroke-miterlimit:29;stroke-dasharray:none;stroke-opacity:1"
     transform="rotate(164.383 59.78 4.976)scale(.50793 -.45966)"
     id="path72" /><path
     d="M163.892 17.921h9.713v43.915h-9.713z"
     style="fill:#727272;fill-opacity:1;fill-rule:evenodd;stroke:#333333;stroke-width:2.88498;stroke-linecap:round;stroke-linejoin:round;stroke-miterlimit:29;stroke-dasharray:none;stroke-opacity:1"
     transform="rotate(164.383 59.78 4.976)scale(.50793 -.45966)"
     id="path73" /><path
     d="M164.977 20.084h7.607v-1.067h-7.672z"
     style="fill:#808080;fill-opacity:1;fill-rule:evenodd;stroke:none;stroke-width:1.28532;stroke-linecap:round;stroke-linejoin:round;stroke-miterlimit:29;stroke-dasharray:none;stroke-opacity:1"
     transform="rotate(164.383 59.78 4.976)scale(.50793 -.45966)"
     id="path74" /><path
     d="M164.977 60.724h7.607v-1.067h-7.672z"
     style="fill:#666666;fill-opacity:1;fill-rule:evenodd;stroke:none;stroke-width:1.28531;stroke-linecap:round;stroke-linejoin:round;stroke-miterlimit:29;stroke-dasharray:none;stroke-opacity:1"
     transform="rotate(164.383 59.78 4.976)scale(.50793 -.45966)"
     id="path75" /><g
     transform="matrix(-0.48917861,0.13673759,0.12374304,0.44269061,175.91427,11.379501)"
     id="g86"><circle
       cx="116.761"
       cy="-14.021"
       r="1.383"
       style="fill:#393939;fill-opacity:1;fill-rule:evenodd;stroke:none;stroke-width:1.05833;stroke-linecap:round;stroke-linejoin:round;stroke-miterlimit:29;stroke-dasharray:none;stroke-opacity:1"
       id="circle81" /><circle
       cx="121.785"
       cy="-14.021"
       r="1.383"
       style="fill:#393939;fill-opacity:1;fill-rule:evenodd;stroke:none;stroke-width:1.05833;stroke-linecap:round;stroke-linejoin:round;stroke-miterlimit:29;stroke-dasharray:none;stroke-opacity:1"
       id="circle82" /><circle
       cx="126.809"
       cy="-14.021"
       r="1.383"
       style="fill:#393939;fill-opacity:1;fill-rule:evenodd;stroke:none;stroke-width:1.05833;stroke-linecap:round;stroke-linejoin:round;stroke-miterlimit:29;stroke-dasharray:none;stroke-opacity:1"
       id="circle83" /><circle
       cx="136.858"
       cy="-14.021"
       r="1.383"
       style="fill:#393939;fill-opacity:1;fill-rule:evenodd;stroke:none;stroke-width:1.05833;stroke-linecap:round;stroke-linejoin:round;stroke-miterlimit:29;stroke-dasharray:none;stroke-opacity:1"
       id="circle84" /><circle
       cx="141.883"
       cy="-14.021"
       r="1.383"
       style="fill:#393939;fill-opacity:1;fill-rule:evenodd;stroke:none;stroke-width:1.05833;stroke-linecap:round;stroke-linejoin:round;stroke-miterlimit:29;stroke-dasharray:none;stroke-opacity:1"
       id="circle85" /><circle
       cx="131.834"
       cy="-14.021"
       r="1.383"
       style="fill:#393939;fill-opacity:1;fill-rule:evenodd;stroke:none;stroke-width:1.05833;stroke-linecap:round;stroke-linejoin:round;stroke-miterlimit:29;stroke-dasharray:none;stroke-opacity:1"
       id="circle86" /></g><path
     d="m 118.21175,19.796204 0.63815,2.282955 -15.43995,4.315849"
     style="fill:none;fill-opacity:1;fill-rule:evenodd;stroke:#333333;stroke-width:1.394;stroke-linecap:round;stroke-linejoin:round;stroke-miterlimit:29;stroke-dasharray:none;stroke-opacity:1"
     id="path98" /><g
     style="stroke-width:3.80796;stroke-dasharray:none"
     id="g76"
     transform="translate(-30.56396,28.035902)"><path
       d="M 29.795,-33.816 H -2.764 l 8.14,-14.099 8.14,-14.098 8.14,14.098 z"
       style="fill:#c9cc33;fill-opacity:1;fill-rule:evenodd;stroke:#333333;stroke-width:4.54978;stroke-linecap:round;stroke-linejoin:round;stroke-miterlimit:29;stroke-dasharray:none;stroke-opacity:1"
       transform="matrix(-0.13596,0.038,0.0344,0.12304,42.734,25.945)"
       id="path76" /><text
       xml:space="preserve"
       style="font-size:18.6667px;font-family:'Russo One';-inkscape-font-specification:'Russo One';text-align:center;writing-mode:lr-tb;direction:ltr;white-space:pre;shape-inside:url(#a-9);display:inline;fill:#000000;fill-opacity:1;fill-rule:evenodd;stroke:none;stroke-width:3.27041;stroke-linecap:round;stroke-linejoin:round;stroke-miterlimit:29;stroke-dasharray:none"
       transform="matrix(-0.1583,0.04425,0.04004,0.14326,53.214,43.028)"
       id="text76"><tspan
         x="41.360996"
         y="-161.08894"
         id="tspan2">!</tspan></text></g></svg>
