<?xml version="1.0" encoding="UTF-8" standalone="no"?>
<svg
   xml:space="preserve"
   width="59.092"
   height="40.519"
   viewBox="0 0 15.635 10.721"
   version="1.1"
   id="svg13"
   sodipodi:docname="landmine.svg"
   inkscape:version="1.4.2 (f4327f4, 2025-05-13)"
   xmlns:inkscape="http://www.inkscape.org/namespaces/inkscape"
   xmlns:sodipodi="http://sodipodi.sourceforge.net/DTD/sodipodi-0.dtd"
   xmlns="http://www.w3.org/2000/svg"
   xmlns:svg="http://www.w3.org/2000/svg"><defs
     id="defs13" /><sodipodi:namedview
     id="namedview13"
     pagecolor="#505050"
     bordercolor="#ffffff"
     borderopacity="1"
     inkscape:showpageshadow="0"
     inkscape:pageopacity="0"
     inkscape:pagecheckerboard="1"
     inkscape:deskcolor="#505050"
     inkscape:zoom="13.489808"
     inkscape:cx="19.866851"
     inkscape:cy="23.684548"
     inkscape:window-width="1920"
     inkscape:window-height="991"
     inkscape:window-x="-9"
     inkscape:window-y="-9"
     inkscape:window-maximized="1"
     inkscape:current-layer="svg13" /><circle
     style="fill:#5b4120;fill-opacity:1;stroke:#131313;stroke-width:1.22771;stroke-dasharray:none;stroke-opacity:1"
     id="path13"
     cx="4.1803255"
     cy="8.4740171"
     r="4.1837697"
     transform="rotate(-28.715789)" /><circle
     style="fill:#c50000;fill-opacity:1;stroke:#131313;stroke-width:0.671799;stroke-dasharray:none;stroke-opacity:1"
     id="path14"
     cx="4.1312895"
     cy="8.503438"
     r="2.0594919"
     transform="rotate(-28.715789)" /><path
     style="fill:none;fill-opacity:1;stroke:#131313;stroke-width:0.804359;stroke-dasharray:none;stroke-opacity:0.355172"
     d="m 11.3401,4.6353631 c 0.0054,0.073941 -0.01651,0.1452459 -0.02284,0.2181004 -0.0047,0.053713 0.0022,0.1083935 -0.0063,0.1616205 -0.01399,0.086769 -0.04673,0.1709168 -0.06483,0.256919 -0.02527,0.1200866 -0.05228,0.2469556 -0.06684,0.3687188 -0.006,0.05009 0.0079,0.093037 -8.47e-4,0.1427927 -0.0045,0.02576 -0.02153,0.04916 -0.022,0.07531 -4.46e-4,0.02489 0.01041,0.049294 0.009,0.074146 -0.0011,0.019583 -0.01312,0.037165 -0.0165,0.056483 -0.01046,0.059611 -0.0068,0.128052 -0.02401,0.1871098 -0.0047,0.016003 -0.02028,0.027897 -0.02317,0.044319 -0.0025,0.014385 0.0084,0.028524 0.0078,0.043155 -0.0023,0.058494 -0.022,0.019895 -0.03417,0.081974 -0.004,0.020287 0.0048,0.041452 0.0023,0.061982 -0.0039,0.032905 -0.02182,0.06174 -0.0275,0.094139 -0.01416,0.080756 0.01142,0.030837 -0.01968,0.1372931 -0.0029,0.00992 -0.01726,0.015166 -0.01766,0.025492 -7.41e-4,0.019044 0.01484,0.036253 0.01449,0.055318 -0.0011,0.061051 -0.02448,0.048813 -0.03966,0.1008007 -0.0013,0.00444 0.0075,0.00761 0.0067,0.012164 -0.0038,0.021628 -0.06235,0.1899815 -0.07264,0.2137518 -0.117628,0.2717015 -0.312681,0.4860422 -0.526732,0.6839228 -0.06641,0.061392 -0.109186,0.1401492 -0.172299,0.2050922 -0.09485,0.097597 -0.01059,-0.00618 -0.127136,0.085465 -0.02298,0.018076 -0.03818,0.04446 -0.05965,0.06431 C 9.9820801,8.135474 9.9188097,8.1815054 9.8545869,8.2166894 8.1062013,9.0954566 7.5625363,8.9979423 7.5625363,8.9979423"
     id="path15" /></svg>
